<?xml version="1.0" standalone="no"?>
<!DOCTYPE svg PUBLIC "-//W3C//DTD SVG 20010904//EN"
 "http://www.w3.org/TR/2001/REC-SVG-20010904/DTD/svg10.dtd">
<svg version="1.0" xmlns="http://www.w3.org/2000/svg"
 width="800.000000pt" height="800.000000pt" viewBox="0 0 800.000000 800.000000"
 preserveAspectRatio="xMidYMid meet">

<g transform="translate(0.000000,800.000000) scale(0.100000,-0.100000)"
fill="#000000" stroke="none">
<path d="M1648 7993 c7 -3 16 -2 19 1 4 3 -2 6 -13 5 -11 0 -14 -3 -6 -6z"/>
<path d="M1692 7995 c9 -10 139 -35 218 -42 36 -3 72 -9 80 -12 8 -4 35 -9 59
-10 24 -2 55 -7 68 -12 14 -5 51 -9 84 -9 32 0 59 -4 59 -9 0 -7 53 -12 273
-26 26 -2 85 -8 130 -14 45 -6 100 -13 122 -15 93 -9 115 -17 115 -42 0 -14 6
-24 15 -24 12 0 14 -32 14 -207 0 -114 -2 -211 -5 -215 -3 -4 -17 -3 -31 3
-19 7 -28 6 -33 -2 -8 -12 -58 -10 -77 4 -7 5 -98 11 -204 13 -108 2 -197 8
-204 14 -6 5 -50 10 -96 11 -81 1 -181 21 -206 41 -7 6 -19 8 -27 5 -7 -3 -17
-2 -22 3 -5 5 -33 10 -61 12 -29 2 -53 5 -53 8 0 3 -43 4 -96 2 -63 -2 -100 1
-110 8 -7 7 -25 9 -39 6 -14 -4 -36 -4 -49 0 l-25 6 1 170 c0 97 -4 174 -9
179 -13 13 -25 -382 -12 -395 13 -14 59 -16 56 -3 -1 8 12 11 38 10 22 -1 103
-5 180 -8 137 -5 198 -18 235 -49 21 -18 132 -40 210 -41 36 -1 85 -5 109 -9
32 -6 46 -5 52 5 6 11 15 11 41 2 20 -7 70 -10 131 -7 77 3 97 1 97 -10 0 -8
17 -15 48 -19 26 -4 56 -9 67 -11 11 -3 27 -5 36 -5 34 -2 48 -68 49 -226 1
-82 1 -158 0 -167 0 -12 -11 -18 -37 -20 l-38 -4 32 -13 c32 -13 53 -55 35
-73 -11 -11 -73 3 -71 16 1 13 -19 24 -77 41 -28 8 -59 24 -69 35 -10 11 -23
20 -28 20 -16 0 44 -59 75 -75 15 -7 41 -16 58 -20 16 -4 30 -13 30 -20 0 -10
-7 -12 -31 -5 -16 5 -37 6 -45 3 -8 -3 -31 1 -52 10 -21 8 -72 15 -119 15 -45
0 -90 5 -102 11 -25 14 -34 14 -26 1 3 -5 0 -10 -7 -10 -16 0 -161 30 -166 34
-3 4 -3 159 0 249 2 40 -1 67 -7 67 -5 0 -3 5 5 10 13 8 12 10 -2 10 -13 0
-18 -8 -19 -32 0 -18 -2 -95 -4 -171 -3 -126 -1 -141 16 -158 19 -19 19 -19
-3 -19 -12 0 -19 -2 -17 -4 2 -2 51 -7 109 -10 185 -12 437 -42 455 -56 6 -4
22 -10 38 -14 15 -3 27 -13 27 -22 0 -8 7 -17 15 -20 12 -5 15 -36 14 -182 0
-98 -2 -199 -6 -225 l-6 -48 -52 6 c-56 7 -135 -1 -135 -15 0 -4 26 -10 58
-14 122 -14 131 -35 131 -295 0 -103 1 -199 3 -216 2 -21 -2 -29 -12 -27 -7 2
-41 3 -74 4 -34 0 -69 5 -80 10 -13 7 -21 6 -26 -1 -5 -9 -27 -9 -81 -3 -41 5
-99 8 -130 6 -31 -2 -70 1 -88 6 -19 5 -29 5 -26 -1 4 -5 -3 -5 -18 0 -14 5
-34 7 -46 4 -11 -3 -32 -2 -47 1 -21 6 -24 9 -14 21 10 12 9 15 -9 15 -12 0
-21 -6 -21 -15 0 -9 -9 -15 -25 -15 -16 0 -25 6 -25 15 0 12 -13 15 -61 15
-39 0 -58 -4 -54 -10 4 -7 -2 -9 -17 -5 -12 3 -44 7 -70 8 -29 1 -48 7 -48 14
0 7 -10 9 -27 6 -34 -6 -56 -6 -298 -1 -115 2 -197 7 -209 14 -14 9 -28 8 -58
-4 -31 -12 -46 -13 -71 -5 -18 6 -47 14 -64 18 -18 4 -35 11 -38 16 -4 5 -17
9 -31 9 -14 0 -27 7 -30 15 -4 10 -20 15 -45 15 -23 0 -57 10 -84 26 -25 14
-52 23 -58 20 -7 -2 -5 -5 5 -5 9 -1 35 -17 58 -36 27 -23 52 -35 71 -35 18 0
32 -6 36 -15 9 -25 -2 -28 -54 -16 -26 6 -85 12 -130 13 -69 3 -79 5 -70 17
10 12 8 13 -13 6 -25 -8 -138 -7 -151 1 -4 2 -15 25 -25 51 -14 36 -15 48 -6
51 8 2 10 8 3 15 -13 17 -19 187 -6 187 6 0 2 5 -7 11 -9 5 -16 15 -14 22 1 6
1 9 -1 5 -3 -5 -10 -8 -17 -8 -8 0 -13 -28 -15 -92 -1 -51 -6 -95 -10 -98 -10
-7 -9 -50 1 -44 10 6 11 -10 1 -19 -3 -4 -12 -2 -20 4 -8 7 -13 8 -13 1 0 -5
7 -15 14 -22 22 -18 40 -80 28 -92 -7 -7 -3 -18 12 -35 l23 -24 284 -5 c156
-3 297 -5 314 -4 16 0 61 -4 100 -10 38 -6 178 -12 310 -15 177 -3 254 -8 295
-19 63 -18 215 -22 225 -5 4 6 19 9 33 8 15 -1 35 2 46 6 18 8 42 3 156 -30
30 -8 86 -17 124 -20 38 -3 83 -7 100 -10 17 -3 75 -7 129 -10 54 -3 104 -8
110 -12 6 -3 100 -5 210 -4 l199 2 -8 -28 c-5 -15 -8 -128 -6 -250 l3 -222
-115 2 c-64 1 -116 4 -117 7 -1 3 -3 58 -5 123 -2 64 -9 127 -15 139 -9 16 -9
23 -1 26 12 4 5 60 -8 76 -18 19 -26 -6 -18 -61 12 -87 9 -156 -8 -173 -12
-12 -14 -12 -14 3 0 34 -15 16 -17 -21 -1 -20 -4 -51 -8 -68 l-6 -32 -90 -7
c-88 -7 -642 1 -824 11 -49 3 -173 10 -275 15 -102 5 -197 11 -212 13 -16 2
-32 4 -38 5 -10 1 -2 285 10 336 1 6 1 20 0 33 -1 13 6 29 15 36 16 12 16 13
0 29 -18 19 -35 22 -35 7 0 -5 -6 -10 -12 -10 -8 0 -13 -16 -14 -42 0 -24 -1
-59 -2 -78 -1 -19 -2 -46 -2 -59 0 -14 -3 -27 -8 -30 -7 -6 -8 -9 -11 -58 -1
-22 -3 -25 -11 -13 -6 9 -10 10 -10 3 0 -6 4 -14 9 -17 5 -4 9 -26 9 -51 -1
-34 -5 -45 -17 -45 -14 -1 -13 -2 2 -11 12 -7 17 -23 17 -53 0 -47 19 -72 46
-62 9 3 33 2 53 -3 20 -5 124 -12 233 -15 108 -3 242 -11 298 -17 57 -5 116
-7 131 -4 16 4 95 5 177 4 341 -7 511 -3 530 14 10 9 31 18 47 21 24 4 32 1
40 -16 9 -19 18 -21 90 -21 44 1 104 2 133 4 28 1 54 0 56 -2 2 -2 7 -44 10
-94 3 -49 9 -121 12 -159 7 -65 6 -69 -12 -63 -16 6 -15 4 3 -12 20 -16 24
-32 29 -109 l6 -89 -39 -5 c-54 -6 -218 0 -303 12 -3 0 6 10 20 21 l25 21 -30
-7 c-16 -3 -38 -8 -49 -12 -12 -3 -16 -1 -12 6 10 16 -6 14 -32 -5 -55 -38
-162 -49 -302 -30 -53 7 -127 9 -195 5 -60 -4 -121 -5 -134 -2 -16 4 -22 2
-17 -6 5 -7 -6 -11 -36 -11 -49 0 -90 9 -84 19 2 3 -14 5 -37 3 -28 -2 -38 0
-28 6 16 11 -3 27 -20 17 -14 -9 -309 -19 -309 -10 0 4 10 15 23 26 31 26 -2
26 -35 -1 -21 -16 -42 -19 -119 -20 -52 -1 -132 -2 -178 -3 -67 -2 -88 1 -104
16 -11 9 -29 16 -41 16 -17 -1 -18 -2 -3 -6 33 -9 16 -23 -28 -23 -49 0 -55 6
-28 25 15 11 11 14 -30 20 -32 5 -52 4 -60 -4 -8 -8 -3 -11 20 -11 18 0 34 -4
38 -9 8 -14 -57 -24 -95 -16 -24 5 -31 4 -25 -5 6 -9 -12 -11 -76 -7 -200 12
-218 13 -212 4 3 -5 -4 -6 -15 -3 -12 4 -39 8 -61 9 -23 1 -41 4 -41 7 0 3
-25 3 -56 1 -51 -3 -56 -1 -50 14 3 10 2 23 -3 29 -7 9 -1 11 23 8 19 -2 37 1
40 7 5 7 -2 11 -18 11 -17 0 -26 6 -26 16 0 9 5 13 13 9 6 -4 5 -1 -3 7 -11
10 -16 40 -17 126 -2 62 -7 122 -13 132 -12 22 -1 26 19 8 11 -11 13 -9 8 12
-3 14 -9 44 -13 68 -5 32 -10 42 -21 38 -8 -4 -23 -6 -34 -6 -16 0 -18 -5 -13
-37 4 -21 7 -118 7 -215 0 -97 4 -175 9 -172 4 3 8 0 8 -6 0 -7 -7 -10 -15 -7
-17 7 -30 -9 -15 -18 16 -10 12 -25 -5 -19 -8 4 -15 2 -15 -4 0 -12 -391 -9
-428 3 -20 7 -22 4 -22 -33 0 -39 2 -41 37 -48 20 -4 104 -4 185 -1 118 4 155
9 176 23 19 12 43 17 81 15 33 -2 57 2 61 9 6 9 14 8 34 -5 14 -10 26 -14 26
-11 0 3 17 -1 37 -10 29 -12 71 -16 178 -16 118 0 282 12 320 23 6 2 26 -1 45
-7 33 -8 31 -9 -35 -15 -38 -3 9 -4 105 -2 233 4 277 4 470 -2 91 -3 296 -7
455 -9 181 -3 311 -9 345 -17 124 -28 369 -9 340 26 -15 18 52 24 88 9 26 -12
25 -12 -21 -13 -30 -1 -46 -5 -42 -11 4 -6 18 -10 33 -10 97 1 361 -8 369 -13
6 -4 18 -37 27 -74 19 -70 37 -119 61 -164 15 -26 14 -27 -21 -41 -32 -13 -42
-13 -78 0 -22 7 -64 16 -91 19 -45 5 -55 2 -83 -22 -24 -20 -32 -35 -32 -58
l0 -32 -23 27 c-21 26 -67 55 -67 43 0 -4 12 -17 28 -29 55 -47 89 -132 127
-321 9 -44 19 -83 22 -87 9 -17 33 23 45 74 l12 53 7 -45 c10 -65 33 -139 57
-184 12 -22 27 -63 33 -92 7 -29 26 -81 43 -116 24 -48 36 -63 54 -64 19 -1
22 4 22 32 0 19 2 34 5 34 3 0 33 -23 67 -51 47 -39 67 -50 92 -48 85 6 99 -7
185 -171 21 -41 44 -76 50 -78 14 -5 -37 94 -107 207 l-51 83 34 34 c20 19 45
34 56 34 14 0 19 5 16 14 -10 24 21 26 96 7 89 -24 180 -35 154 -20 -15 9 -15
12 -3 24 7 8 23 11 35 8 20 -5 21 -7 6 -23 -15 -17 -14 -19 14 -25 38 -8 92
-4 108 8 7 5 16 6 22 3 14 -9 40 4 35 18 -3 8 6 13 28 13 60 0 113 11 111 22
-2 6 6 11 18 11 11 0 18 4 14 9 -11 19 49 66 108 85 10 3 15 11 11 17 -4 7 0
10 11 7 23 -4 90 61 76 75 -10 10 25 77 41 77 6 0 8 7 5 15 -9 21 8 28 23 10
8 -9 21 -13 32 -9 20 6 51 -13 43 -26 -3 -5 -1 -12 5 -15 6 -4 8 -16 4 -28 -6
-21 -5 -21 11 2 23 31 45 105 45 152 0 38 -6 44 -58 54 -86 16 -184 50 -192
66 -21 38 30 438 60 472 4 4 81 8 173 8 174 0 193 5 185 46 -4 21 5 20 -155
22 -126 1 -127 2 -95 18 20 10 41 32 54 57 20 39 20 40 1 24 -10 -10 -28 -19
-39 -21 -10 -1 -26 -7 -34 -12 -26 -16 -52 -16 -72 1 -24 22 -23 59 2 91 24
31 26 45 5 37 -13 -5 -15 5 -10 72 3 44 8 90 11 104 l5 24 21 -32 c20 -32 21
-58 3 -122 -6 -24 -6 -24 9 -6 8 10 13 22 11 26 -3 4 2 14 11 21 13 11 21 10
50 -6 39 -21 50 -15 58 30 6 43 7 43 16 13 17 -58 -25 -147 -63 -132 -9 3 -14
10 -11 15 3 5 -2 9 -12 9 -14 0 -15 -2 -3 -17 38 -48 57 -47 90 3 25 38 24 24
-1 -26 -26 -50 -19 -52 10 -3 17 29 19 42 11 59 -5 12 -7 31 -4 43 3 11 2 37
-1 56 -6 29 -11 35 -26 30 -10 -3 -27 -2 -37 4 -10 5 -26 12 -35 15 -25 8 -22
26 13 66 34 40 43 34 53 -34 5 -28 10 -36 16 -27 4 8 6 21 3 30 -3 12 -2 12 7
-1 16 -26 30 -22 30 7 0 14 4 25 10 25 5 0 7 7 3 17 -6 14 -1 15 38 8 24 -4
51 -7 59 -6 81 6 193 5 335 -5 259 -18 314 -18 321 0 3 9 14 13 29 10 13 -2
27 1 30 6 4 6 14 8 23 5 32 -10 87 -14 232 -20 80 -3 181 -12 225 -21 57 -10
151 -15 335 -15 140 0 273 -1 295 -2 35 -2 40 1 43 21 2 13 8 20 14 16 6 -4 8
-3 5 3 -9 15 -150 24 -442 29 -143 3 -303 7 -355 9 -52 2 -150 6 -218 9 -115
4 -160 15 -147 36 3 5 -1 11 -7 13 -7 3 -2 6 12 6 22 1 23 2 8 17 -23 23 -50
11 -43 -19 7 -26 -10 -77 -25 -77 -5 0 -10 7 -10 15 0 12 -20 14 -107 15 -60
0 -169 3 -243 6 -74 4 -172 6 -217 5 -45 -1 -84 2 -87 7 -3 5 -30 7 -60 4 -53
-4 -55 -3 -62 22 -3 14 -4 37 0 49 18 73 35 245 30 307 -4 51 -3 70 6 70 9 0
9 4 -1 17 -13 15 -10 16 36 9 28 -3 129 -9 225 -11 246 -6 385 -14 460 -27 65
-10 178 -17 625 -37 132 -6 314 -16 405 -21 91 -6 219 -13 285 -15 66 -3 262
-12 435 -20 173 -8 381 -17 463 -21 l148 -6 -3 153 -3 154 -120 7 c-66 3 -358
23 -650 43 -291 20 -588 38 -658 40 -71 3 -132 7 -136 9 -4 3 -83 10 -176 16
-94 6 -294 20 -445 30 -151 11 -381 26 -510 35 -529 35 -471 28 -509 63 -18
18 -38 29 -44 25 -6 -3 -7 -1 -3 5 7 11 -79 81 -100 82 -6 0 -33 11 -60 25
-27 14 -57 25 -66 25 -9 0 -20 5 -23 10 -3 6 -17 10 -31 10 -13 0 -32 4 -42 9
-9 5 -44 17 -77 26 -33 10 -71 25 -85 34 -20 13 -56 16 -175 16 -230 0 -291
-12 -420 -79 -16 -9 -36 -16 -44 -16 -12 0 -43 -17 -184 -97 -12 -7 -29 -13
-38 -13 -9 0 -20 -7 -23 -16 -6 -16 -8 -16 -71 3 -35 10 -160 11 -173 0 -7 -5
-16 -7 -19 -3 -4 4 -1 11 6 16 21 13 28 460 10 650 -7 80 -13 151 -12 158 0 6
-4 12 -11 12 -6 0 -11 -11 -11 -24 0 -13 4 -22 9 -19 4 3 5 -3 2 -13 -8 -28
-10 -319 -2 -333 4 -6 3 -11 -3 -11 -5 0 -12 6 -15 13 -3 6 -2 -7 1 -30 4 -30
2 -43 -6 -43 -9 0 -11 33 -7 133 12 275 11 437 -1 441 -6 3 -13 13 -16 23 -2
10 -1 2 2 -17 7 -42 5 -150 -4 -240 -12 -107 -24 -41 -27 150 -2 93 -6 170
-10 170 -5 0 -7 35 -7 78 1 42 3 68 6 57 7 -28 23 -43 23 -22 0 9 5 17 10 17
6 0 10 15 10 33 0 17 -4 27 -8 21 -12 -18 -42 -25 -42 -9 0 9 6 12 15 9 10 -4
15 0 15 11 0 9 5 13 10 10 13 -8 13 26 -1 45 -9 13 -10 12 -5 -2 3 -11 0 -18
-8 -18 -8 0 -17 -6 -19 -12 -3 -7 -6 7 -7 32 l-2 45 -9 -50 c-9 -52 -5 -191
11 -460 6 -88 10 -178 10 -200 -1 -43 15 -40 23 5 3 16 5 9 6 -19 1 -35 -2
-42 -14 -37 -8 3 -15 1 -15 -5 0 -5 7 -12 15 -15 9 -4 15 -19 15 -36 0 -20 -4
-27 -12 -22 -10 6 -10 4 0 -7 6 -7 12 -20 12 -28 0 -12 -2 -13 -8 -4 -5 8 -8
-2 -9 -25 0 -26 1 -31 7 -17 4 11 8 -29 8 -90 1 -60 3 -121 4 -134 2 -13 -2
-26 -9 -28 -7 -3 -10 4 -7 19 5 21 4 21 -6 5 -13 -20 -6 -52 10 -42 5 3 10 -1
10 -9 0 -8 -8 -17 -17 -19 -15 -4 -16 -5 -2 -6 21 -1 37 -120 20 -148 -6 -10
-11 -13 -11 -8 0 10 -20 -15 -20 -26 0 -3 14 -6 30 -7 17 0 28 3 26 7 -3 4 8
12 23 18 22 8 32 7 47 -5 18 -14 18 -14 -4 -9 -12 3 -20 1 -16 -4 3 -5 17 -9
32 -9 15 0 34 -5 42 -10 13 -8 12 -10 -3 -10 -10 0 -15 -4 -12 -10 9 -15 -12
-12 -46 5 -26 14 -34 14 -72 1 -23 -8 -34 -15 -24 -16 9 0 17 -4 17 -10 0 -5
-23 -10 -51 -10 l-50 0 5 513 c3 281 8 616 11 742 2 127 7 395 11 598 l6 367
-26 0 c-23 0 -25 -4 -28 -52 -3 -57 -2 -56 -73 -44 -16 2 -88 10 -160 16 -408
34 -405 34 -405 61 0 14 -7 19 -26 19 -20 0 -24 -3 -17 -12 5 -7 7 -24 3 -38
-5 -22 -12 -25 -54 -26 -49 -2 -48 -3 -29 42 3 8 -20 14 -69 18 -128 11 -423
19 -416 11z m1063 -655 c3 -5 -1 -10 -9 -10 -9 0 -16 5 -16 10 0 6 4 10 9 10
6 0 13 -4 16 -10z m98 -7 c-7 -2 -19 -2 -25 0 -7 3 -2 5 12 5 14 0 19 -2 13
-5z m272 -1428 l40 -15 -42 2 c-28 1 -43 7 -43 15 0 16 -4 16 45 -2z m43 -123
c7 -5 -12 -9 -45 -9 -45 0 -51 1 -28 7 42 11 58 11 73 2z m1769 -22 c8 0 13
-6 10 -12 -2 -7 -10 -12 -16 -10 -6 1 -11 -2 -11 -8 0 -5 27 -9 60 -9 44 1 60
5 60 15 0 16 16 19 24 5 4 -5 1 -11 -6 -13 -8 -3 -3 -14 14 -31 l27 -27 -52
-1 c-29 -1 -68 -3 -87 -5 -48 -5 -77 3 -77 20 0 8 6 12 15 8 11 -4 14 0 9 14
-21 68 -21 68 -3 61 10 -4 24 -7 33 -7z m932 -26 c2 -2 -14 -4 -37 -4 -23 0
-42 4 -42 9 0 9 69 4 79 -5z m-399 -28 c0 -9 -39 -13 -51 -5 -10 6 -4 9 19 9
17 0 32 -2 32 -4z m245 -26 c7 -6 21 -7 31 -3 18 7 18 6 1 -12 -15 -14 -20
-16 -27 -5 -7 11 -11 10 -24 -2 -14 -14 -12 -15 17 -13 44 4 41 3 66 26 16 15
25 18 30 11 7 -11 20 -10 68 4 18 5 21 3 16 -15 -3 -12 -10 -21 -15 -21 -5 0
-6 -4 -3 -10 10 -16 38 -12 31 5 -3 9 0 15 9 15 8 0 15 5 15 10 0 6 11 8 27 4
15 -4 33 -7 40 -7 9 0 8 -6 -3 -18 -18 -20 -21 -18 46 -37 28 -7 31 -11 18
-17 -10 -4 -26 -4 -35 0 -10 4 -66 6 -125 5 -95 -1 -108 1 -108 16 0 13 -3 14
-15 4 -11 -9 -41 -11 -113 -6 -53 3 -137 9 -187 12 -49 3 -92 8 -95 11 -6 5
29 33 43 33 4 0 6 -4 3 -9 -4 -5 4 -7 16 -3 13 3 19 1 15 -5 -4 -7 7 -8 33 -3
22 4 37 3 34 -1 -10 -16 27 -22 52 -9 31 17 31 32 1 21 -17 -7 -24 -6 -24 3 0
8 13 11 35 9 36 -2 34 11 -3 20 -11 3 11 4 49 2 37 -3 74 -9 81 -15z m-409
-30 c8 0 14 -5 14 -10 0 -7 -6 -7 -19 -1 -10 6 -21 7 -25 4 -3 -3 -6 -2 -6 4
0 15 14 26 18 14 2 -6 10 -11 18 -11z m-1621 -32 c-15 -9 -13 -12 15 -29 35
-22 50 -18 50 12 0 11 4 18 9 15 5 -3 14 0 20 8 8 9 43 13 118 15 60 1 110 6
111 11 6 17 30 11 37 -10 4 -14 15 -20 36 -20 17 0 42 -6 57 -14 44 -22 99
-27 113 -10 9 11 15 12 25 3 8 -6 14 -8 14 -5 0 4 10 -2 22 -14 12 -11 27 -20
32 -20 6 0 23 -6 38 -14 17 -9 28 -11 30 -4 6 17 44 0 56 -25 20 -42 23 -75 7
-91 -8 -8 -15 -21 -15 -29 0 -8 -10 -19 -22 -25 -15 -7 -18 -11 -8 -11 22 -1
20 -50 -2 -62 -9 -5 -15 -16 -12 -23 7 -18 -8 -27 -26 -15 -12 7 -13 11 -2 18
17 10 -10 24 -50 25 -24 1 -27 -2 -23 -26 3 -15 16 -47 29 -72 23 -44 23 -44
2 -36 -73 28 -197 34 -331 15 -35 -5 -61 -3 -85 7 -19 8 -56 13 -83 11 -33 -2
-59 3 -86 16 -21 11 -54 22 -73 24 -33 3 -78 36 -78 58 0 5 -4 7 -10 4 -5 -3
-10 1 -10 11 0 18 22 39 57 54 13 5 26 24 32 42 5 18 10 27 10 21 2 -25 29
-13 34 15 7 38 -3 82 -19 82 -17 0 -18 16 -1 24 6 3 -4 3 -25 0 -31 -5 -37 -3
-43 16 -5 15 -2 25 6 31 7 4 10 11 7 15 -4 3 3 15 15 24 20 16 23 17 31 3 6
-11 3 -19 -9 -25z m2523 -35 c-10 -2 -26 -2 -35 0 -10 3 -2 5 17 5 19 0 27 -2
18 -5z m907 -43 c3 -5 2 -10 -4 -10 -5 0 -13 5 -16 10 -3 6 -2 10 4 10 5 0 13
-4 16 -10z m35 0 c0 -5 -4 -10 -10 -10 -5 0 -10 5 -10 10 0 6 5 10 10 10 6 0
10 -4 10 -10z m440 0 c0 -5 -4 -10 -10 -10 -5 0 -10 5 -10 10 0 6 5 10 10 10
6 0 10 -4 10 -10z m35 0 c-3 -5 -12 -10 -18 -10 -7 0 -6 4 3 10 19 12 23 12
15 0z m40 0 c3 -5 1 -10 -4 -10 -6 0 -11 5 -11 10 0 6 2 10 4 10 3 0 8 -4 11
-10z m-668 -6 c-3 -3 -12 -4 -19 -1 -8 3 -5 6 6 6 11 1 17 -2 13 -5z m703 -29
c0 6 25 10 55 11 31 0 52 -3 48 -6 -12 -11 -133 -21 -133 -12 0 16 14 22 22
10 4 -7 8 -8 8 -3z m-62 -10 c3 -3 -6 -5 -21 -5 -14 0 -29 5 -32 10 -7 11 42
6 53 -5z m-4058 -129 c0 -11 -19 -15 -25 -6 -3 5 1 10 9 10 9 0 16 -2 16 -4z
m967 -213 c2 -6 -6 -13 -18 -16 l-21 -6 25 -33 c27 -37 43 -98 26 -98 -6 0 -8
-7 -5 -16 3 -8 1 -25 -6 -37 -7 -12 -11 -39 -10 -59 1 -27 -3 -38 -13 -38 -13
0 -21 -27 -16 -54 1 -5 -5 -6 -12 -3 -11 4 -13 0 -10 -14 4 -14 0 -19 -16 -19
-11 0 -21 -5 -21 -11 0 -6 6 -9 14 -6 8 3 17 0 20 -8 3 -9 0 -12 -8 -9 -8 3
-17 1 -21 -5 -3 -6 -14 -11 -23 -11 -15 0 -18 -10 -17 -74 0 -45 5 -79 13 -89
11 -13 10 -19 -6 -35 -11 -11 -22 -19 -24 -17 -2 2 -3 -12 -4 -31 -1 -41 -5
-46 -38 -48 -27 -1 -37 -16 -11 -16 12 0 12 -3 -2 -18 -10 -11 -21 -17 -25
-15 -5 2 -8 0 -8 -6 0 -6 -12 -8 -29 -5 -25 5 -30 3 -33 -15 -1 -12 -7 -21
-13 -20 -5 0 -9 5 -8 10 2 5 -1 9 -6 9 -16 0 -20 -41 -5 -47 8 -3 11 -9 8 -14
-3 -5 -9 -7 -14 -4 -5 3 -18 0 -30 -7 -15 -9 -25 -10 -37 -2 -25 16 -61 85
-55 106 5 21 -7 22 -59 8 -29 -8 -50 -6 -100 9 -35 11 -80 22 -99 26 -19 4
-38 9 -42 11 -11 7 3 34 17 34 7 0 15 7 19 15 3 8 13 15 23 15 33 0 84 40 100
78 8 20 22 46 31 56 13 15 14 18 2 11 -10 -6 -10 -2 3 12 15 17 16 25 6 46
-16 35 -38 42 -61 17 -17 -18 -16 -24 4 -21 9 1 21 -59 13 -67 -4 -4 -28 -8
-53 -9 -26 -1 -66 -4 -90 -8 -37 -6 -47 -4 -63 14 -16 17 -19 30 -14 65 2 24
9 56 15 71 5 14 10 39 10 55 0 16 5 40 11 54 9 20 9 29 0 40 -7 8 -10 19 -7
24 3 5 -1 23 -9 39 -13 27 -13 33 1 61 26 53 58 37 108 -54 18 -34 38 -54 64
-66 20 -10 56 -32 80 -49 45 -32 112 -44 120 -21 2 6 20 14 40 17 49 8 92 25
92 36 0 5 6 9 14 9 8 0 22 7 30 16 10 9 24 13 36 9 35 -11 109 48 110 88 0 9
8 17 18 18 10 0 12 3 5 6 -15 6 -17 43 -3 43 6 0 10 7 10 16 0 18 23 44 39 44
6 0 11 7 11 16 0 17 21 15 27 -3z m261 -128 c-7 -9 -20 -24 -29 -33 -9 -9 -19
-25 -22 -34 -9 -26 -26 -22 -19 5 9 35 40 81 59 88 23 8 28 -6 11 -26z m-903
-715 c17 -7 15 -9 -12 -9 -18 -1 -33 4 -33 9 0 12 17 12 45 0z m-74 -209 c8 0
24 -8 35 -17 10 -8 13 -13 7 -9 -8 4 -13 -1 -13 -13 0 -25 -41 -38 -53 -17 -4
8 -13 15 -20 15 -21 0 -38 16 -32 31 5 14 17 15 76 10z m609 -581 c0 -5 -5
-10 -11 -10 -5 0 -7 5 -4 10 3 6 8 10 11 10 2 0 4 -4 4 -10z"/>
<path d="M5790 5650 c0 -5 5 -10 10 -10 6 0 10 5 10 10 0 6 -4 10 -10 10 -5 0
-10 -4 -10 -10z"/>
<path d="M5830 5650 c0 -6 7 -10 15 -10 8 0 15 2 15 4 0 2 -7 6 -15 10 -8 3
-15 1 -15 -4z"/>
<path d="M5810 5620 c0 -5 7 -10 16 -10 8 0 12 5 9 10 -3 6 -10 10 -16 10 -5
0 -9 -4 -9 -10z"/>
<path d="M4317 5439 c7 -7 15 -10 18 -7 3 3 -2 9 -12 12 -14 6 -15 5 -6 -5z"/>
<path d="M4333 5376 c-19 -22 6 -45 57 -50 25 -3 37 -3 27 0 -22 7 -57 40 -57
54 0 14 -13 12 -27 -4z"/>
<path d="M4030 4614 c0 -8 5 -12 10 -9 6 4 8 11 5 16 -9 14 -15 11 -15 -7z"/>
<path d="M3953 4484 c-3 -8 2 -22 11 -30 8 -8 14 -11 11 -8 -3 4 0 13 6 20 11
14 4 34 -12 34 -5 0 -12 -7 -16 -16z"/>
<path d="M4360 4440 c0 -5 5 -10 10 -10 6 0 10 5 10 10 0 6 -4 10 -10 10 -5 0
-10 -4 -10 -10z"/>
<path d="M3976 4405 c4 -8 8 -15 10 -15 2 0 4 7 4 15 0 8 -4 15 -10 15 -5 0
-7 -7 -4 -15z"/>
<path d="M5530 7975 c0 -8 5 -15 10 -15 6 0 10 7 10 15 0 8 -4 15 -10 15 -5 0
-10 -7 -10 -15z"/>
<path d="M5714 7982 c-6 -4 -19 -22 -28 -40 -10 -18 -23 -31 -29 -29 -7 2 -20
-2 -30 -11 -23 -20 -30 -11 -17 22 11 31 6 48 -14 40 -7 -3 -13 -23 -14 -46
-1 -26 -10 -50 -22 -63 -17 -18 -20 -32 -16 -75 2 -29 9 -56 16 -60 9 -5 9 -9
1 -14 -6 -4 -16 -4 -21 -1 -6 3 -13 -1 -16 -9 -7 -19 -35 -21 -53 -3 -10 8
-15 9 -18 1 -2 -6 -14 -9 -26 -7 -17 3 -26 -4 -38 -30 -18 -40 -7 -77 23 -77
11 0 23 -11 28 -26 15 -39 21 -104 10 -104 -6 0 -10 -4 -10 -10 0 -5 7 -10 16
-10 8 0 13 -4 10 -9 -3 -5 1 -14 9 -21 12 -10 15 -9 15 4 0 9 5 16 11 16 6 0
9 -7 6 -15 -4 -9 6 -24 26 -40 22 -17 27 -25 15 -25 -9 0 -30 -17 -47 -37 -18
-22 -31 -31 -31 -23 0 9 -9 23 -19 32 -17 14 -20 15 -25 2 -4 -10 -13 -13 -25
-9 -24 7 -37 -11 -17 -22 16 -9 12 -53 -5 -53 -18 0 -38 44 -32 74 5 27 4 29
-8 14 -8 -9 -23 -18 -34 -20 -16 -3 -19 -11 -17 -38 1 -26 0 -31 -8 -20 -5 8
-10 23 -10 32 0 9 -9 20 -20 23 -29 9 -25 23 5 17 14 -2 25 0 25 6 0 6 -10 12
-22 14 -14 2 -23 10 -22 20 1 10 -4 14 -12 11 -8 -3 -14 -10 -14 -16 0 -6 -3
-8 -6 -5 -3 4 4 25 14 47 18 37 19 41 4 41 -15 1 -15 2 1 11 9 5 17 17 17 25
0 14 43 64 55 64 3 0 5 -7 5 -15 0 -18 20 -20 21 -2 3 27 -3 62 -11 67 -5 3
-10 12 -12 20 -2 8 -9 21 -15 28 -7 7 -13 19 -13 25 0 7 4 6 10 -3 8 -13 10
-13 10 1 0 24 -10 29 -30 17 -22 -14 -43 0 -63 41 -23 48 -59 30 -72 -37 -2
-12 -7 -27 -10 -32 -3 -6 -2 -10 3 -10 13 0 21 -67 9 -79 -10 -10 18 -81 32
-81 6 0 11 -7 11 -16 0 -10 -6 -14 -15 -10 -10 4 -15 -1 -15 -14 0 -11 6 -20
14 -20 8 0 16 -13 18 -30 4 -27 2 -30 -16 -24 -12 3 -16 2 -11 -3 6 -4 11 -21
12 -37 0 -16 7 -32 14 -37 10 -6 9 -12 -5 -28 -18 -19 -18 -22 -2 -56 9 -19
21 -35 26 -35 6 0 10 -4 10 -10 0 -16 -30 -12 -36 5 -9 23 -26 18 -22 -7 2
-13 13 -27 26 -33 12 -5 22 -13 22 -17 0 -5 5 -8 11 -8 7 0 9 9 6 23 -6 21 -6
21 8 3 19 -25 19 -45 1 -52 -8 -3 -19 -20 -26 -37 -6 -18 -16 -40 -21 -49 -6
-13 -5 -18 3 -18 12 0 38 -43 38 -61 0 -3 -12 -5 -27 -3 -28 4 -28 4 -3 -5 31
-10 91 -3 108 14 11 9 10 14 -3 25 -14 12 -18 11 -27 -1 -8 -12 -9 -12 -5 1 5
21 46 25 53 5 10 -25 -35 -67 -63 -60 -16 4 -23 1 -23 -10 0 -9 -9 -15 -25
-15 -15 0 -25 -6 -25 -14 0 -20 -48 -27 -53 -7 -3 9 -4 2 -3 -15 1 -28 3 -31
20 -22 12 7 22 6 29 -1 8 -8 6 -11 -6 -11 -10 0 -14 -5 -11 -15 4 -8 1 -15 -5
-15 -12 0 -10 -27 2 -47 10 -16 -5 -17 -19 -3 -8 8 -15 6 -25 -6 -12 -16 -12
-17 5 -11 14 6 17 4 12 -8 -3 -9 -2 -13 4 -10 5 3 12 -7 16 -22 3 -15 8 -34
10 -41 2 -8 -3 -12 -14 -10 -9 2 -22 -2 -27 -10 -6 -7 -28 -17 -50 -22 -44
-10 -75 7 -75 41 0 21 -37 36 -52 21 -6 -6 -17 -8 -25 -5 -8 3 -20 -3 -28 -13
-13 -18 -14 -18 -32 5 -13 16 -32 24 -57 26 -32 3 -38 0 -47 -21 -12 -33 -12
-32 13 -36 26 -4 33 -34 9 -41 -9 -2 -25 0 -36 4 -11 4 -14 8 -7 8 6 1 12 6
12 12 0 5 -5 7 -11 3 -9 -5 -10 6 -7 40 4 33 1 51 -9 61 -8 8 -11 20 -7 26 4
8 -3 9 -25 4 -34 -7 -71 14 -71 41 0 7 -9 16 -20 19 -11 3 -20 11 -20 16 0 12
13 12 26 -1 8 -8 20 -7 40 1 28 12 28 13 6 17 -13 2 -21 9 -19 15 2 7 11 11
21 9 9 -2 16 1 16 6 0 6 -17 13 -37 17 -48 9 -76 35 -56 53 15 15 17 32 3 32
-5 0 -7 7 -3 16 3 8 12 13 21 9 11 -4 13 1 9 23 -3 16 -1 34 5 40 8 8 6 18 -7
38 -9 15 -13 29 -8 33 14 9 24 41 13 41 -6 0 -10 -6 -10 -12 -1 -7 -8 0 -16
15 -8 15 -12 36 -9 46 3 12 0 21 -9 24 -8 3 -19 21 -24 38 -9 36 -32 51 -32
22 0 -10 -7 -28 -15 -41 -15 -20 -15 -21 2 -16 16 5 15 3 -2 -11 -14 -12 -16
-19 -7 -22 17 -7 5 -23 -18 -23 -37 0 -57 -28 -53 -73 1 -23 5 -52 8 -65 4
-18 1 -25 -15 -29 -15 -4 -18 -11 -14 -29 5 -17 2 -24 -9 -24 -8 0 -17 -6 -20
-12 -4 -10 -7 -10 -18 0 -21 19 -28 15 -35 -23 -6 -34 -7 -35 -25 -20 -9 9
-15 23 -12 31 3 8 0 14 -6 14 -6 0 -8 7 -4 17 4 10 2 14 -4 10 -11 -7 -11 -72
0 -83 11 -11 8 -26 -3 -19 -5 3 -14 4 -20 0 -10 -6 25 -46 38 -43 4 1 17 -1
29 -5 20 -7 20 -10 7 -35 -14 -28 -19 -74 -8 -85 4 -3 19 0 35 8 18 10 30 11
34 5 3 -6 -3 -10 -14 -10 -24 0 -28 -15 -6 -24 8 -3 15 -13 15 -22 0 -15 -2
-15 -25 0 -14 9 -25 14 -25 11 0 -10 28 -35 39 -35 6 0 11 -7 11 -16 0 -12 -7
-15 -25 -12 -14 3 -33 -1 -42 -8 -16 -11 -14 -13 17 -12 46 0 929 -77 1165
-102 50 -5 216 -21 370 -35 154 -13 332 -29 395 -35 96 -9 313 -28 620 -55 30
-3 111 -10 180 -15 319 -26 589 -50 629 -56 l44 -6 -6 329 c-4 180 -9 477 -13
658 -3 182 -7 353 -9 380 -2 28 -4 121 -5 208 l0 158 -474 -3 c-261 -2 -478
-7 -482 -11 -5 -4 -2 -12 6 -17 20 -12 11 -18 -35 -22 -22 -2 -44 -7 -48 -13
-6 -6 -10 -6 -14 3 -7 17 -20 15 -20 -3 0 -8 9 -15 19 -15 10 0 18 -4 18 -10
0 -5 -16 -10 -35 -10 -23 0 -35 -4 -34 -12 1 -7 -3 -24 -9 -38 -10 -24 -10
-23 -17 18 -5 25 -13 42 -21 42 -16 0 -19 -16 -4 -25 6 -3 10 -12 10 -19 0
-17 -62 -15 -84 3 -8 7 -20 10 -26 6 -7 -4 -9 1 -5 17 3 12 7 44 9 71 l3 47
-319 0 c-274 0 -319 -2 -324 -15 -7 -18 -35 -20 -31 -3 2 14 -23 21 -39 10z
m26 -32 c0 -5 -5 -10 -11 -10 -5 0 -7 5 -4 10 3 6 8 10 11 10 2 0 4 -4 4 -10z
m40 -39 c0 -11 3 -26 6 -35 4 -10 1 -16 -9 -16 -9 0 -18 -10 -20 -22 -3 -17
-5 -14 -6 10 0 17 4 32 9 32 6 0 10 5 10 10 0 6 -4 9 -9 8 -5 -2 -9 0 -10 5
-3 21 0 27 14 27 8 0 15 -9 15 -19z m-70 5 c0 -3 -4 -8 -10 -11 -5 -3 -10 -1
-10 4 0 6 5 11 10 11 6 0 10 -2 10 -4z m1004 -38 c6 -5 2 -8 -11 -8 -26 0 -37
15 -28 38 6 15 7 15 17 -3 6 -11 16 -23 22 -27z m-1014 2 c0 -5 -7 -10 -15
-10 -8 0 -15 5 -15 10 0 6 7 10 15 10 8 0 15 -4 15 -10z m-40 -4 c0 -3 -4 -8
-10 -11 -5 -3 -10 -1 -10 4 0 6 5 11 10 11 6 0 10 -2 10 -4z m1080 -50 c-12
-12 -30 2 -24 19 5 11 9 12 19 2 7 -7 10 -16 5 -21z m-1040 14 c-20 -13 -40
-13 -40 0 0 6 12 10 28 10 21 0 24 -2 12 -10z m990 -4 c-4 -4 -16 -4 -26 2
-16 9 -14 10 8 9 15 -1 23 -6 18 -11z m-1106 -11 c-4 -8 -8 -15 -10 -15 -2 0
-4 7 -4 15 0 8 4 15 10 15 5 0 7 -7 4 -15z m896 -19 c0 -3 -4 -8 -10 -11 -5
-3 -10 -1 -10 4 0 6 5 11 10 11 6 0 10 -2 10 -4z m60 0 c0 -3 -4 -8 -10 -11
-5 -3 -10 -1 -10 4 0 6 5 11 10 11 6 0 10 -2 10 -4z m157 -18 c-3 -8 -6 -5 -6
6 -1 11 2 17 5 13 3 -3 4 -12 1 -19z m-913 -54 c13 -5 13 -8 1 -20 -19 -19
-25 -18 -25 6 0 22 1 23 24 14z m-328 -93 c-3 -5 0 -14 8 -20 17 -14 9 -51
-10 -51 -8 0 -14 5 -14 10 0 6 5 10 10 10 6 0 10 7 10 16 0 10 -6 14 -14 11
-8 -3 -16 2 -19 14 -4 14 0 19 15 19 10 0 17 -4 14 -9z m-46 -17 c0 -8 -4 -12
-10 -9 -5 3 -10 10 -10 16 0 5 5 9 10 9 6 0 10 -7 10 -16z m114 -109 c3 -9 0
-15 -9 -15 -8 0 -15 7 -15 15 0 8 4 15 9 15 5 0 11 -7 15 -15z m26 -82 c0 -13
-3 -13 -15 -3 -8 7 -12 16 -9 21 8 13 24 1 24 -18z m-25 -143 c3 -5 1 -10 -4
-10 -6 0 -11 5 -11 10 0 6 2 10 4 10 3 0 8 -4 11 -10z m-295 -20 c0 -5 -5 -10
-11 -10 -5 0 -7 5 -4 10 3 6 8 10 11 10 2 0 4 -4 4 -10z m260 -35 c0 -20 -12
-25 -26 -10 -19 19 -18 24 6 22 11 -1 20 -6 20 -12z m-287 -10 c-3 -9 -8 -14
-10 -11 -3 3 -2 9 2 15 9 16 15 13 8 -4z m197 -45 c0 -5 -4 -10 -10 -10 -5 0
-10 5 -10 10 0 6 5 10 10 10 6 0 10 -4 10 -10z m-93 -22 c13 -17 13 -50 -1
-45 -12 4 -28 57 -16 57 4 0 12 -6 17 -12z m203 -7 c0 -5 3 -16 6 -25 4 -11 1
-16 -10 -16 -10 0 -16 9 -16 25 0 14 5 25 10 25 6 0 10 -4 10 -9z m-240 -21
c-9 -6 -11 -10 -3 -10 7 0 10 -7 6 -16 -4 -10 -9 -12 -16 -5 -12 12 -2 41 15
41 9 0 8 -3 -2 -10z m119 -6 c11 7 16 -6 5 -17 -10 -10 -34 5 -34 22 0 13 2
13 9 2 5 -7 14 -10 20 -7z m-154 -134 c3 -5 1 -10 -4 -10 -6 0 -11 5 -11 10 0
6 2 10 4 10 3 0 8 -4 11 -10z m55 -10 c0 -24 -25 -27 -34 -4 -5 14 -4 15 9 4
12 -10 15 -10 15 4 0 9 2 16 5 16 3 0 5 -9 5 -20z m-792 -15 c-3 -3 -15 -7
-27 -10 -11 -2 -27 -7 -34 -11 -8 -5 -8 -2 2 9 7 9 20 17 27 17 8 0 14 5 14
12 0 9 3 9 12 0 6 -6 9 -14 6 -17z m-8 -44 c0 -6 -4 -13 -10 -16 -5 -3 -10 1
-10 9 0 9 5 16 10 16 6 0 10 -4 10 -9z m-30 -11 c0 -5 -4 -10 -10 -10 -5 0
-10 5 -10 10 0 6 5 10 10 10 6 0 10 -4 10 -10z m67 -48 c29 -22 42 -72 19 -72
-15 0 -21 17 -17 48 1 6 -3 12 -9 12 -9 0 -14 -28 -13 -67 1 -7 -5 -13 -13
-13 -8 0 -13 3 -13 8 3 18 -2 26 -9 14 -7 -10 -13 -8 -30 6 -26 23 -27 31 -8
57 12 16 16 17 30 6 14 -11 16 -11 16 3 0 21 19 20 47 -2z m858 8 c3 -5 1 -10
-4 -10 -6 0 -11 5 -11 10 0 6 2 10 4 10 3 0 8 -4 11 -10z m-99 -32 c-9 -5 -22
-7 -29 -4 -7 2 -4 5 6 5 9 1 17 6 17 12 0 5 5 7 11 3 8 -5 6 -10 -5 -16z m-56
-7 c0 -6 -4 -13 -10 -16 -5 -3 -10 1 -10 9 0 9 5 16 10 16 6 0 10 -4 10 -9z
m-895 -107 c0 -22 -30 -26 -31 -4 -1 22 6 32 19 27 7 -2 12 -12 12 -23z m1592
-26 c-3 -8 -6 -5 -6 6 -1 11 2 17 5 13 3 -3 4 -12 1 -19z m-1263 -109 c-5 -8
-10 -6 -16 5 -5 9 -6 21 -2 27 5 8 10 6 16 -5 5 -9 6 -21 2 -27z m-171 11 c3
-11 3 -20 1 -20 -2 0 -8 9 -14 20 -6 11 -7 20 -2 20 6 0 12 -9 15 -20z m277
10 c0 -5 -4 -10 -10 -10 -5 0 -10 5 -10 10 0 6 5 10 10 10 6 0 10 -4 10 -10z
m187 -37 c-3 -3 -11 -2 -17 2 -9 6 -9 10 1 16 14 8 27 -7 16 -18z m-487 -3 c0
-5 -4 -10 -10 -10 -5 0 -10 5 -10 10 0 6 5 10 10 10 6 0 10 -4 10 -10z m653
-27 c-7 -2 -21 -2 -30 0 -10 3 -4 5 12 5 17 0 24 -2 18 -5z m-209 -18 c3 -9 0
-15 -10 -15 -8 0 -13 4 -9 9 3 5 -3 12 -12 14 -14 4 -14 5 3 6 12 0 24 -6 28
-14z"/>
<path d="M6430 7960 c0 -5 5 -10 10 -10 6 0 10 5 10 10 0 6 -4 10 -10 10 -5 0
-10 -4 -10 -10z"/>
<path d="M4353 7924 c-9 -23 13 -40 32 -24 12 10 13 16 4 26 -15 18 -28 18
-36 -2z"/>
<path d="M6462 7865 c0 -16 2 -22 5 -12 2 9 2 23 0 30 -3 6 -5 -1 -5 -18z"/>
<path d="M3727 7834 c-9 -53 -9 -74 2 -74 12 0 23 78 13 97 -7 11 -11 6 -15
-23z"/>
<path d="M4360 7850 c0 -5 5 -10 10 -10 6 0 10 5 10 10 0 6 -4 10 -10 10 -5 0
-10 -4 -10 -10z"/>
<path d="M4610 7830 c0 -19 3 -21 12 -12 9 9 9 15 0 24 -9 9 -12 7 -12 -12z"/>
<path d="M5110 7840 c0 -13 11 -13 30 0 12 8 11 10 -7 10 -13 0 -23 -4 -23
-10z"/>
<path d="M5168 7843 c6 -2 18 -2 25 0 6 3 1 5 -13 5 -14 0 -19 -2 -12 -5z"/>
<path d="M3663 7755 c0 -22 2 -30 4 -17 2 12 2 30 0 40 -3 9 -5 -1 -4 -23z"/>
<path d="M4540 7750 c0 -5 5 -10 10 -10 6 0 10 5 10 10 0 6 -4 10 -10 10 -5 0
-10 -4 -10 -10z"/>
<path d="M3717 7723 c-7 -37 10 -54 19 -19 3 15 2 32 -3 37 -7 7 -12 1 -16
-18z"/>
<path d="M4595 7730 c-3 -5 -1 -10 4 -10 6 0 11 5 11 10 0 6 -2 10 -4 10 -3 0
-8 -4 -11 -10z"/>
<path d="M2220 7720 c0 -5 10 -10 23 -10 18 0 19 2 7 10 -19 13 -30 13 -30 0z"/>
<path d="M3775 7682 c0 -31 4 -38 23 -40 24 -4 27 4 12 28 -6 10 -10 11 -10 3
0 -7 -4 -13 -10 -13 -5 0 -7 13 -3 30 3 17 2 30 -3 30 -5 0 -9 -17 -9 -38z"/>
<path d="M20 7627 c0 -28 -6 -26 150 -43 36 -4 81 -9 100 -12 19 -2 51 -6 70
-8 126 -14 192 -24 203 -31 15 -9 97 -20 242 -33 181 -16 425 -40 507 -51 43
-5 104 -9 135 -8 54 2 58 4 58 26 0 12 -4 23 -10 24 -5 0 -46 4 -90 9 -44 5
-125 13 -180 19 -55 6 -138 15 -185 21 -47 6 -141 17 -210 25 -69 8 -145 17
-170 20 -25 3 -103 9 -175 14 -72 6 -152 12 -180 16 -111 12 -202 25 -232 31
-30 6 -33 4 -33 -19z"/>
<path d="M3661 7616 c-9 -10 -11 -140 -11 -492 1 -264 -2 -487 -5 -496 -5 -13
0 -18 27 -22 40 -6 301 -26 345 -26 30 0 31 1 20 25 -7 14 -19 25 -27 25 -13
0 -13 1 0 10 12 8 9 14 -18 40 -18 16 -31 34 -27 39 3 5 1 12 -4 15 -5 4 -12
2 -16 -4 -12 -19 -25 -10 -25 18 0 20 -3 23 -9 13 -8 -12 -11 -9 -16 12 -4 15
-12 27 -18 27 -8 0 -8 3 0 11 13 13 -12 69 -32 69 -7 0 -15 14 -17 30 -3 19
-1 29 6 27 6 -2 11 -10 11 -18 1 -35 35 -55 35 -20 0 11 4 22 9 25 12 8 20 55
11 61 -4 3 -11 -2 -14 -11 -10 -27 -23 -7 -21 35 1 22 -2 38 -6 35 -14 -8 -38
8 -37 24 4 48 -1 53 -37 46 -24 -4 -35 -2 -35 5 0 7 5 9 10 6 6 -3 10 5 10 19
0 19 -4 24 -15 19 -9 -3 -22 2 -30 13 -13 18 -14 18 -24 -6 -8 -20 -10 -6 -10
65 1 68 -2 89 -12 87 -10 -3 -10 0 0 12 7 9 11 22 8 30 -4 9 3 16 16 20 16 4
18 8 9 14 -7 5 -14 43 -18 100 -9 135 -11 144 -33 118z m79 -511 c0 -14 -2
-25 -4 -25 -2 0 -6 11 -8 25 -3 14 -1 25 3 25 5 0 9 -11 9 -25z m-20 -112 c0
-16 7 -27 20 -30 17 -5 18 -7 4 -28 -8 -12 -12 -30 -8 -39 3 -9 1 -16 -5 -16
-6 0 -11 5 -11 11 0 5 -5 7 -11 4 -14 -9 17 -31 58 -39 48 -11 49 -24 2 -24
-26 -1 -42 4 -46 14 -3 8 -10 14 -15 14 -6 0 -8 -7 -5 -15 5 -12 2 -12 -18 -3
-28 12 -33 43 -10 52 9 3 15 18 15 39 0 50 11 98 21 91 5 -3 9 -17 9 -31z
m120 12 c0 -7 -5 -15 -11 -17 -5 -2 -11 -12 -13 -23 -1 -10 -9 -21 -16 -23
-10 -4 -11 3 -7 28 4 18 7 38 7 45 0 8 8 11 20 8 11 -3 20 -11 20 -18z m-56
-99 c-8 -27 -11 -29 -23 -21 -12 7 -15 38 -5 48 14 13 34 -6 28 -27z m59 -121
c-3 -9 2 -22 13 -29 16 -12 16 -13 -9 -13 -17 0 -32 8 -42 23 -20 32 -19 34
15 34 22 0 28 -4 23 -15z m102 -85 c3 -5 -1 -10 -10 -10 -9 0 -13 5 -10 10 3
6 8 10 10 10 2 0 7 -4 10 -10z"/>
<path d="M3770 7616 c0 -8 7 -16 15 -20 13 -4 14 -2 5 14 -13 23 -20 26 -20 6z"/>
<path d="M3770 7571 c0 -6 5 -13 10 -16 6 -3 10 1 10 9 0 9 -4 16 -10 16 -5 0
-10 -4 -10 -9z"/>
<path d="M5406 7535 c-3 -8 -1 -15 3 -15 5 0 11 7 15 15 3 8 1 15 -3 15 -5 0
-11 -7 -15 -15z"/>
<path d="M3855 7530 c-3 -5 -1 -10 4 -10 6 0 11 5 11 10 0 6 -2 10 -4 10 -3 0
-8 -4 -11 -10z"/>
<path d="M5265 7490 c-3 -6 1 -17 9 -26 15 -14 16 -14 16 5 0 23 -16 36 -25
21z"/>
<path d="M3078 7445 c2 -14 8 -25 13 -25 10 0 11 12 3 34 -10 25 -22 19 -16
-9z"/>
<path d="M5400 7446 c0 -17 14 -29 23 -20 8 8 -3 34 -14 34 -5 0 -9 -6 -9 -14z"/>
<path d="M5381 7424 c0 -11 3 -14 6 -6 3 7 2 16 -1 19 -3 4 -6 -2 -5 -13z"/>
<path d="M656 7390 c-3 -8 -8 -69 -12 -135 -3 -66 -7 -133 -8 -150 -2 -16 0
-40 5 -52 5 -14 4 -23 -3 -25 -7 -3 -3 -12 9 -24 11 -10 23 -28 27 -40 8 -26
58 -41 146 -43 36 0 81 -3 100 -6 19 -3 87 -10 150 -15 63 -6 129 -12 145 -15
17 -2 63 -5 102 -7 40 -2 73 -6 73 -10 0 -5 17 -8 39 -8 21 0 62 -5 91 -10 40
-8 56 -7 61 1 5 9 18 9 51 1 40 -10 118 -18 297 -28 40 -2 77 -6 81 -9 5 -3
39 -1 77 5 43 6 71 6 77 0 18 -18 30 -11 14 8 -9 9 -13 23 -11 30 4 10 -18 12
-95 11 -55 -1 -105 1 -110 5 -5 3 -44 6 -86 7 -42 1 -76 4 -76 8 0 3 -40 7
-89 8 -63 1 -97 6 -114 18 -17 11 -53 17 -114 19 -65 3 -109 11 -163 30 -67
24 -72 25 -56 7 10 -11 34 -23 54 -28 38 -9 56 -33 24 -33 -11 0 -35 6 -53 14
-21 9 -94 16 -192 20 -87 4 -168 11 -180 15 -13 5 -66 14 -117 20 -52 7 -97
14 -99 17 -3 3 -5 41 -4 84 1 69 -1 80 -15 81 -11 0 -6 5 12 13 24 11 26 14
11 20 -13 5 -15 10 -7 18 6 6 7 19 2 33 -5 14 -5 26 2 33 16 16 6 57 -14 54
-25 -4 -23 14 2 21 24 6 28 47 4 47 -11 0 -14 -6 -9 -20 9 -27 -4 -25 -14 3
-7 17 -10 19 -15 7z m21 -142 c-3 -8 -6 -5 -6 6 -1 11 2 17 5 13 3 -3 4 -12 1
-19z m1328 -408 c3 -6 -1 -7 -9 -4 -18 7 -21 14 -7 14 6 0 13 -4 16 -10z"/>
<path d="M4460 7392 c0 -6 7 -12 15 -16 8 -3 15 -17 15 -31 0 -14 3 -25 8 -25
4 0 7 17 7 38 0 31 -4 38 -23 40 -12 2 -22 -1 -22 -6z"/>
<path d="M4660 7381 c0 -5 7 -11 15 -15 9 -3 15 0 15 9 0 8 -7 15 -15 15 -8 0
-15 -4 -15 -9z"/>
<path d="M3720 7341 c0 -5 9 -7 20 -4 11 3 20 7 20 9 0 2 -9 4 -20 4 -11 0
-20 -4 -20 -9z"/>
<path d="M5300 7335 c0 -8 5 -15 10 -15 6 0 10 7 10 15 0 8 -4 15 -10 15 -5 0
-10 -7 -10 -15z"/>
<path d="M3845 7294 c22 -16 35 -18 35 -5 0 5 -12 11 -27 14 -26 5 -26 4 -8
-9z"/>
<path d="M4931 7294 c0 -11 3 -14 6 -6 3 7 2 16 -1 19 -3 4 -6 -2 -5 -13z"/>
<path d="M2290 7266 c0 -8 5 -18 10 -21 6 -3 10 1 10 9 0 8 -4 18 -10 21 -5 3
-10 -1 -10 -9z"/>
<path d="M4424 7214 c-13 -26 -14 -38 -5 -47 8 -8 11 -5 11 11 0 12 4 22 9 22
5 0 9 11 9 25 0 33 -4 32 -24 -11z"/>
<path d="M4594 7220 c0 -11 4 -20 8 -20 4 0 8 9 8 20 0 11 -4 20 -8 20 -4 0
-8 -9 -8 -20z"/>
<path d="M3081 7223 c1 -4 -1 -16 -6 -27 -5 -10 -4 -21 2 -25 6 -3 14 -21 18
-40 l7 -35 14 26 c13 26 13 93 -1 106 -4 4 -6 -8 -3 -25 2 -18 1 -33 -4 -33
-8 0 -12 15 -9 37 1 6 -3 14 -9 18 -6 4 -10 3 -9 -2z"/>
<path d="M118 7193 c7 -3 16 -2 19 1 4 3 -2 6 -13 5 -11 0 -14 -3 -6 -6z"/>
<path d="M1067 7169 c7 -7 15 -10 18 -7 3 3 -2 9 -12 12 -14 6 -15 5 -6 -5z"/>
<path d="M20 7110 c-25 -16 2 -29 44 -22 53 9 60 32 9 32 -21 0 -45 -5 -53
-10z"/>
<path d="M4323 7093 c-7 -3 -13 -9 -13 -14 0 -6 5 -7 11 -4 6 4 9 1 7 -6 -1
-8 1 -16 6 -19 5 -3 10 5 11 18 2 25 -4 32 -22 25z"/>
<path d="M4620 7089 c0 -5 5 -7 10 -4 6 3 10 8 10 11 0 2 -4 4 -10 4 -5 0 -10
-5 -10 -11z"/>
<path d="M2181 7064 c0 -11 3 -14 6 -6 3 7 2 16 -1 19 -3 4 -6 -2 -5 -13z"/>
<path d="M5142 7060 c0 -14 2 -19 5 -12 2 6 2 18 0 25 -3 6 -5 1 -5 -13z"/>
<path d="M70 7056 c0 -10 -4 -15 -9 -12 -4 3 -16 -1 -27 -8 -17 -13 -16 -15
21 -24 22 -5 54 -13 70 -18 46 -11 61 -14 112 -17 27 -2 57 -7 68 -11 16 -6
17 -6 5 3 -16 12 20 8 88 -9 19 -5 30 -5 27 1 -4 5 1 9 9 9 9 0 16 -4 16 -10
0 -11 79 -13 96 -2 6 4 14 17 18 30 7 19 4 22 -23 22 -16 0 -47 10 -68 22 -30
18 -35 19 -24 5 8 -10 12 -19 10 -21 -10 -7 -210 14 -269 28 -121 30 -120 30
-120 12z"/>
<path d="M4610 7060 c0 -5 7 -10 16 -10 10 0 14 -6 11 -14 -4 -10 0 -12 14 -9
27 7 34 23 10 23 -11 0 -23 5 -26 10 -3 6 -10 10 -16 10 -5 0 -9 -4 -9 -10z"/>
<path d="M310 7050 c0 -5 5 -10 11 -10 5 0 7 5 4 10 -3 6 -8 10 -11 10 -2 0
-4 -4 -4 -10z"/>
<path d="M1855 7050 c-3 -5 1 -10 9 -10 8 0 18 5 21 10 3 6 -1 10 -9 10 -8 0
-18 -4 -21 -10z"/>
<path d="M3950 7050 c0 -5 5 -10 10 -10 6 0 10 5 10 10 0 6 -4 10 -10 10 -5 0
-10 -4 -10 -10z"/>
<path d="M4290 7046 c0 -2 7 -7 16 -10 8 -3 12 -2 9 4 -6 10 -25 14 -25 6z"/>
<path d="M1808 7033 c6 -2 18 -2 25 0 6 3 1 5 -13 5 -14 0 -19 -2 -12 -5z"/>
<path d="M3105 7027 c-4 -10 -5 -21 -1 -24 10 -10 18 4 13 24 -4 17 -4 17 -12
0z"/>
<path d="M4300 6989 c0 -5 5 -7 10 -4 6 3 10 8 10 11 0 2 -4 4 -10 4 -5 0 -10
-5 -10 -11z"/>
<path d="M3098 6978 c-2 -7 -1 -38 3 -68 l6 -55 1 68 c2 64 -1 82 -10 55z"/>
<path d="M3920 6979 c0 -5 5 -7 10 -4 6 3 10 8 10 11 0 2 -4 4 -10 4 -5 0 -10
-5 -10 -11z"/>
<path d="M4330 6970 c0 -5 5 -10 11 -10 5 0 7 5 4 10 -3 6 -8 10 -11 10 -2 0
-4 -4 -4 -10z"/>
<path d="M4283 6962 c-8 -5 -9 -13 -3 -22 7 -12 10 -11 16 4 5 14 9 15 16 4 8
-10 9 -10 6 1 -5 18 -19 23 -35 13z"/>
<path d="M3061 6944 c0 -11 3 -14 6 -6 3 7 2 16 -1 19 -3 4 -6 -2 -5 -13z"/>
<path d="M4070 6939 c0 -5 5 -7 10 -4 6 3 10 8 10 11 0 2 -4 4 -10 4 -5 0 -10
-5 -10 -11z"/>
<path d="M3078 6915 c-6 -30 -3 -43 8 -33 3 4 4 19 2 35 l-3 28 -7 -30z"/>
<path d="M5160 6930 c0 -5 5 -10 10 -10 6 0 10 5 10 10 0 6 -4 10 -10 10 -5 0
-10 -4 -10 -10z"/>
<path d="M4005 6900 c3 -5 8 -10 11 -10 2 0 4 5 4 10 0 6 -5 10 -11 10 -5 0
-7 -4 -4 -10z"/>
<path d="M4595 6860 c-3 -5 -2 -10 4 -10 5 0 13 5 16 10 3 6 2 10 -4 10 -5 0
-13 -4 -16 -10z"/>
<path d="M3966 6848 c-5 -10 -6 -24 -3 -32 3 -8 1 -16 -5 -18 -7 -3 -8 -10 -2
-20 8 -15 10 -14 19 5 6 12 8 36 4 52 -5 24 -7 27 -13 13z"/>
<path d="M4120 6830 c0 -5 6 -10 14 -10 8 0 23 -3 33 -6 16 -5 16 -4 -1 10
-22 18 -46 21 -46 6z"/>
<path d="M4038 6785 c-3 -13 -1 -22 3 -19 5 3 9 12 9 21 0 11 6 14 26 9 17 -5
23 -3 19 4 -3 5 -17 10 -29 10 -17 0 -25 -7 -28 -25z"/>
<path d="M4130 6783 c0 -9 -6 -13 -15 -10 -8 4 -17 2 -20 -4 -4 -5 -11 -7 -16
-4 -5 4 -9 -3 -9 -14 0 -21 -21 -27 -72 -22 -10 1 -18 -2 -18 -7 0 -16 12 -21
29 -13 22 12 71 2 71 -15 0 -9 12 -14 33 -15 33 -1 54 -4 94 -14 17 -4 21 -2
17 10 -4 8 -15 15 -25 15 -10 0 -19 5 -19 10 0 13 6 13 40 -5 28 -15 48 -7 36
14 -4 5 0 12 6 15 7 2 4 4 -7 4 -47 -2 -65 3 -65 18 0 9 -6 14 -13 11 -8 -3
-20 -1 -28 4 -11 7 -11 9 4 9 24 0 22 25 -3 27 -12 1 -20 -4 -20 -14z m-15
-53 c3 -5 -1 -10 -10 -10 -9 0 -13 5 -10 10 3 6 8 10 10 10 2 0 7 -4 10 -10z"/>
<path d="M1531 6714 c0 -11 3 -14 6 -6 3 7 2 16 -1 19 -3 4 -6 -2 -5 -13z"/>
<path d="M5078 6723 c7 -3 16 -2 19 1 4 3 -2 6 -13 5 -11 0 -14 -3 -6 -6z"/>
<path d="M1532 6633 c-2 -15 -7 -21 -17 -17 -18 7 -21 -31 -4 -42 18 -11 31
12 26 47 -2 19 -5 24 -5 12z"/>
<path d="M4230 6606 c0 -14 -4 -28 -10 -31 -5 -3 -10 -1 -10 4 0 6 -12 11 -27
11 -28 -1 -28 -1 6 -15 18 -8 42 -15 53 -15 17 0 18 3 8 15 -6 8 -9 23 -5 35
4 11 2 20 -4 20 -6 0 -11 -11 -11 -24z"/>
<path d="M4108 6573 c7 -3 16 -2 19 1 4 3 -2 6 -13 5 -11 0 -14 -3 -6 -6z"/>
<path d="M51 6566 c2 -2 20 -11 39 -20 l35 -17 -24 21 c-13 11 -30 20 -39 20
-8 0 -13 -2 -11 -4z"/>
<path d="M1410 6551 c0 -10 30 -24 37 -17 3 3 2 9 -2 15 -8 13 -35 15 -35 2z"/>
<path d="M1495 6468 c-4 -46 -8 -96 -10 -113 -5 -46 23 -73 81 -79 95 -11 250
-14 294 -7 43 6 44 7 22 19 -13 7 -78 18 -146 23 -160 13 -176 17 -197 60 -15
29 -16 40 -6 76 12 45 2 93 -19 100 -8 3 -14 -24 -19 -79z"/>
<path d="M907 6463 c18 -2 50 -2 70 0 21 2 7 4 -32 4 -38 0 -55 -2 -38 -4z"/>
<path d="M410 6450 c0 -5 11 -12 25 -16 14 -3 25 -10 25 -14 0 -15 -55 -18
-82 -4 -33 17 -52 18 -42 2 7 -11 -31 -10 -199 10 -97 11 -127 6 -127 -24 0
-19 7 -25 38 -33 39 -9 138 -15 207 -12 22 1 96 -4 165 -10 90 -8 125 -8 128
0 3 8 9 8 23 0 11 -5 41 -10 67 -9 26 1 56 1 67 2 11 0 30 -3 43 -7 13 -4 22
-3 22 3 0 6 -10 13 -22 15 l-23 4 22 8 c41 13 13 25 -62 25 -63 0 -77 3 -95
22 -11 12 -23 18 -27 13 -5 -4 -2 -10 5 -12 28 -10 9 -21 -30 -16 -66 7 -77
13 -48 25 l25 10 -25 8 c-63 18 -80 20 -80 10z m60 -70 c0 -5 -14 -10 -31 -10
-17 0 -28 4 -24 10 3 6 17 10 31 10 13 0 24 -4 24 -10z"/>
<path d="M1956 6445 c4 -8 11 -15 16 -15 6 0 5 6 -2 15 -7 8 -14 15 -16 15 -2
0 -1 -7 2 -15z"/>
<path d="M2720 6448 c0 -11 12 -10 30 2 12 7 10 9 -8 7 -12 0 -22 -5 -22 -9z"/>
<path d="M780 6428 c0 -4 12 -8 27 -8 14 0 23 3 19 7 -10 10 -46 11 -46 1z"/>
<path d="M2685 6420 c4 -6 11 -8 16 -5 14 9 11 15 -7 15 -8 0 -12 -5 -9 -10z"/>
<path d="M1030 6406 c0 -9 7 -16 16 -16 9 0 14 5 12 12 -6 18 -28 21 -28 4z"/>
<path d="M1821 6403 c15 -18 78 -47 86 -39 6 6 -72 56 -88 56 -8 0 -7 -5 2
-17z"/>
<path d="M1980 6412 c0 -10 45 -32 64 -32 7 0 25 -9 39 -20 14 -11 28 -20 32
-20 11 0 1 21 -10 22 -6 0 -21 8 -35 17 -24 16 -76 41 -85 41 -3 0 -5 -4 -5
-8z"/>
<path d="M997 6384 c-4 -4 -47 -6 -98 -5 -62 2 -89 -1 -84 -8 3 -6 13 -11 21
-11 8 0 14 -5 14 -11 0 -7 -12 -8 -32 -4 -25 5 -29 4 -18 -4 20 -14 46 -14 70
1 16 10 24 10 40 1 10 -7 25 -11 32 -9 37 12 78 15 73 6 -3 -6 -1 -10 4 -10 6
0 11 8 11 19 0 20 -23 45 -33 35z"/>
<path d="M2635 6379 c-11 -17 1 -21 15 -4 8 9 8 15 2 15 -6 0 -14 -5 -17 -11z"/>
<path d="M1058 6363 c-10 -2 -18 -8 -18 -12 0 -10 69 -34 110 -38 161 -14 218
-21 234 -28 14 -6 23 -2 37 16 10 13 19 27 19 30 0 15 -61 23 -175 24 -66 1
-136 4 -155 7 -19 3 -43 4 -52 1z"/>
<path d="M1950 6349 c0 -5 3 -9 8 -10 61 -8 95 -8 85 2 -13 13 -93 21 -93 8z"/>
<path d="M2605 6350 c-3 -6 -17 -7 -30 -4 -12 3 -26 1 -29 -5 -4 -6 0 -11 8
-11 23 0 20 -18 -5 -25 -11 -4 -18 -9 -16 -12 9 -8 66 27 77 47 11 20 6 29 -5
10z"/>
<path d="M2440 6343 c-63 -6 -69 -18 -10 -20 28 -1 62 4 77 12 l28 15 -25 -2
c-14 -1 -45 -3 -70 -5z"/>
<path d="M2078 6308 l23 -25 -23 -7 c-20 -7 -18 -9 22 -22 25 -9 52 -18 60
-21 8 -3 24 -8 35 -11 32 -7 339 -2 371 7 l29 8 -32 7 c-18 4 -33 12 -33 16 0
5 -10 14 -22 21 -18 10 -20 9 -15 -5 6 -14 1 -16 -31 -13 -20 2 -49 9 -63 15
-15 6 -44 8 -66 5 -21 -3 -56 0 -76 5 -21 6 -35 6 -32 1 4 -5 -6 -4 -22 2 -15
6 -46 14 -68 19 -22 4 -49 11 -60 15 -18 8 -18 6 3 -17z"/>
<path d="M2010 6315 c0 -11 50 -36 61 -29 8 4 4 11 -12 20 -24 13 -49 18 -49
9z"/>
<path d="M2645 6284 c-22 -8 -51 -12 -63 -9 -15 4 -21 2 -17 -5 3 -5 33 -10
67 -10 48 0 59 3 55 14 -3 8 -1 17 6 20 29 11 -12 3 -48 -10z"/>
<path d="M617 6257 c-3 -8 -2 -19 3 -26 5 -9 9 -7 13 8 6 23 -8 39 -16 18z"/>
<path d="M592 6196 c17 -26 25 -31 31 -21 5 9 0 22 -13 35 -32 32 -42 23 -18
-14z"/>
<path d="M2610 6220 c20 -13 40 -13 40 0 0 6 -12 10 -27 10 -22 0 -25 -2 -13
-10z"/>
<path d="M2665 6220 c3 -5 10 -10 16 -10 5 0 9 5 9 10 0 6 -7 10 -16 10 -8 0
-12 -4 -9 -10z"/>
<path d="M10 6170 c0 -5 5 -10 11 -10 5 0 7 5 4 10 -3 6 -8 10 -11 10 -2 0 -4
-4 -4 -10z"/>
<path d="M3001 6164 c0 -11 3 -14 6 -6 3 7 2 16 -1 19 -3 4 -6 -2 -5 -13z"/>
<path d="M2222 6068 c2 -38 8 -63 16 -66 16 -5 17 79 0 96 -9 9 -8 12 5 12 9
0 17 5 17 10 0 6 -9 10 -20 10 -19 0 -21 -5 -18 -62z"/>
<path d="M3021 5984 c0 -11 3 -14 6 -6 3 7 2 16 -1 19 -3 4 -6 -2 -5 -13z"/>
<path d="M2225 5950 c0 -22 2 -40 5 -40 3 0 4 -27 3 -61 -2 -64 9 -80 43 -61
16 9 15 10 -5 17 -16 5 -19 10 -11 19 6 8 9 44 6 86 -3 63 -6 74 -23 76 -16 3
-19 -3 -18 -36z"/>
<path d="M810 5954 c52 -13 198 -28 189 -20 -7 7 -187 36 -217 35 -18 0 -9 -5
28 -15z"/>
<path d="M1405 5960 c3 -5 8 -10 11 -10 2 0 4 5 4 10 0 6 -5 10 -11 10 -5 0
-7 -4 -4 -10z"/>
<path d="M3158 5953 c7 -3 16 -2 19 1 4 3 -2 6 -13 5 -11 0 -14 -3 -6 -6z"/>
<path d="M1060 5929 c0 -4 17 -11 38 -14 20 -4 60 -11 87 -17 28 -5 86 -11
130 -13 44 -2 81 -9 83 -14 2 -7 36 -11 81 -11 43 0 82 -5 88 -11 6 -6 17 -8
24 -3 14 8 -17 23 -61 29 -82 11 -257 26 -265 24 -5 -2 -37 2 -70 9 -33 8 -77
17 -97 22 -21 4 -38 4 -38 -1z"/>
<path d="M3020 5910 c0 -5 5 -10 10 -10 6 0 10 5 10 10 0 6 -4 10 -10 10 -5 0
-10 -4 -10 -10z"/>
<path d="M2050 5890 c-12 -8 -11 -10 7 -10 12 0 25 5 28 10 8 13 -15 13 -35 0z"/>
<path d="M2988 5860 c-3 -16 -1 -35 3 -42 4 -7 3 -16 -4 -20 -9 -6 -9 -8 0 -8
19 0 26 20 13 35 -9 11 -9 15 -1 15 13 0 15 36 2 44 -5 3 -11 -8 -13 -24z"/>
<path d="M1170 5860 c-12 -8 -11 -10 7 -10 12 0 25 5 28 10 8 13 -15 13 -35 0z"/>
<path d="M1285 5859 c-22 -5 -13 -7 33 -8 34 0 62 1 62 3 0 8 -66 11 -95 5z"/>
<path d="M1965 5860 c-13 -5 -14 -9 -5 -9 8 0 24 4 35 9 13 5 14 9 5 9 -8 0
-24 -4 -35 -9z"/>
<path d="M500 5831 c0 -39 -23 -42 -270 -27 -74 4 -149 11 -166 16 -45 11 -56
0 -52 -51 3 -39 6 -44 28 -46 14 -1 97 -7 186 -14 174 -13 162 -15 257 40 24
13 48 19 60 16 16 -4 14 -1 -7 11 -21 11 -25 19 -17 27 15 15 14 34 -4 41 -10
3 -15 -1 -15 -13z"/>
<path d="M1616 5841 c-4 -5 -2 -12 3 -15 5 -4 12 -2 15 3 4 5 2 12 -3 15 -5 4
-12 2 -15 -3z"/>
<path d="M1675 5830 c53 -15 129 -37 155 -45 23 -7 24 -6 11 9 -27 32 -68 46
-133 45 -52 -1 -58 -3 -33 -9z"/>
<path d="M1275 5786 c1 -16 8 -21 28 -21 36 0 35 15 -1 30 -26 12 -28 11 -27
-9z"/>
<path d="M2470 5806 c0 -2 9 -6 20 -9 11 -3 18 -1 14 4 -5 9 -34 13 -34 5z"/>
<path d="M1430 5780 c36 -12 60 -12 60 0 0 6 -19 10 -42 9 -37 -1 -39 -2 -18
-9z"/>
<path d="M1963 5763 c9 -2 23 -2 30 0 6 3 -1 5 -18 5 -16 0 -22 -2 -12 -5z"/>
<path d="M2260 5756 c0 -9 50 -12 62 -5 8 6 -1 9 -24 9 -21 0 -38 -2 -38 -4z"/>
<path d="M2408 5733 c6 -2 18 -2 25 0 6 3 1 5 -13 5 -14 0 -19 -2 -12 -5z"/>
<path d="M2770 5710 c0 -9 36 -20 68 -20 12 0 22 5 22 11 0 5 -4 8 -8 5 -4 -3
-25 -1 -45 4 -20 4 -37 4 -37 0z"/>
<path d="M1700 5541 c-15 -4 -20 -10 -13 -14 13 -8 43 1 43 14 0 5 -1 9 -2 8
-2 -1 -14 -4 -28 -8z"/>
<path d="M3088 5523 c7 -3 16 -2 19 1 4 3 -2 6 -13 5 -11 0 -14 -3 -6 -6z"/>
<path d="M208 5513 c7 -3 16 -2 19 1 4 3 -2 6 -13 5 -11 0 -14 -3 -6 -6z"/>
<path d="M3163 5513 c9 -2 25 -2 35 0 9 3 1 5 -18 5 -19 0 -27 -2 -17 -5z"/>
<path d="M370 5500 c0 -5 5 -10 11 -10 5 0 7 5 4 10 -3 6 -8 10 -11 10 -2 0
-4 -4 -4 -10z"/>
<path d="M441 5496 c10 -9 79 -14 74 -5 -4 5 -22 9 -42 9 -20 0 -34 -2 -32 -4z"/>
<path d="M2960 5485 c0 -8 7 -15 15 -15 9 0 12 6 9 15 -4 8 -10 15 -15 15 -5
0 -9 -7 -9 -15z"/>
<path d="M758 5473 c6 -2 18 -2 25 0 6 3 1 5 -13 5 -14 0 -19 -2 -12 -5z"/>
<path d="M578 5453 c6 -2 18 -2 25 0 6 3 1 5 -13 5 -14 0 -19 -2 -12 -5z"/>
<path d="M5925 5350 c3 -5 16 -10 28 -9 21 0 21 1 2 9 -28 12 -37 12 -30 0z"/>
<path d="M5997 5343 c-16 -15 -5 -21 28 -16 24 4 41 1 53 -10 12 -11 34 -14
80 -12 35 1 66 5 69 9 7 6 -53 11 -100 7 -15 -1 -34 5 -43 13 -15 16 -75 22
-87 9z"/>
<path d="M6538 5333 c6 -2 18 -2 25 0 6 3 1 5 -13 5 -14 0 -19 -2 -12 -5z"/>
<path d="M5707 5309 c-3 -13 -1 -19 6 -16 15 5 22 37 9 37 -5 0 -12 -9 -15
-21z"/>
<path d="M5747 5323 c-4 -3 -7 -11 -7 -17 0 -6 5 -5 12 2 6 6 9 14 7 17 -3 3
-9 2 -12 -2z"/>
<path d="M6368 5323 c7 -3 16 -2 19 1 4 3 -2 6 -13 5 -11 0 -14 -3 -6 -6z"/>
<path d="M5780 5300 c-20 -6 -21 -8 -5 -8 11 0 31 4 45 8 20 6 21 8 5 8 -11 0
-31 -4 -45 -8z"/>
<path d="M5880 5278 c0 -4 9 -8 20 -8 11 0 20 4 20 8 0 4 -9 8 -20 8 -11 0
-20 -4 -20 -8z"/>
<path d="M6152 5246 c10 -7 15 -16 11 -19 -3 -4 4 -7 17 -7 18 0 20 3 11 14
-9 11 -1 12 49 10 35 -2 60 0 60 6 0 6 -35 10 -82 10 -71 -1 -80 -3 -66 -14z"/>
<path d="M6020 5240 c0 -13 11 -13 30 0 12 8 11 10 -7 10 -13 0 -23 -4 -23
-10z"/>
<path d="M7250 5238 c0 -5 18 -8 40 -8 22 0 40 3 40 8 0 4 -18 7 -40 7 -22 0
-40 -3 -40 -7z"/>
<path d="M6540 5209 c15 -27 31 -32 71 -21 l34 10 -33 1 c-18 1 -40 8 -48 16
-22 22 -37 19 -24 -6z"/>
<path d="M10 5210 c0 -5 5 -10 11 -10 5 0 7 5 4 10 -3 6 -8 10 -11 10 -2 0 -4
-4 -4 -10z"/>
<path d="M621 5204 c11 -14 6 -15 -47 -8 -75 9 -513 11 -508 3 2 -4 -8 -10
-23 -14 -32 -8 -43 -21 -43 -51 0 -21 2 -22 128 -16 110 4 133 2 162 -13 19
-10 64 -21 100 -25 66 -7 365 12 377 24 3 3 0 6 -7 6 -7 0 -10 3 -7 7 4 3 16
-2 26 -11 32 -29 193 -48 372 -44 160 3 195 12 182 44 -3 8 0 21 7 29 19 23 7
28 -41 15 -41 -11 -148 -8 -169 5 -5 3 -10 1 -10 -5 0 -6 -3 -9 -7 -7 -12 8
-218 27 -323 31 -52 2 -105 4 -117 5 -16 1 -23 7 -23 21 0 14 -7 20 -21 20
-18 0 -20 -2 -8 -16z"/>
<path d="M5918 5213 c7 -3 16 -2 19 1 4 3 -2 6 -13 5 -11 0 -14 -3 -6 -6z"/>
<path d="M5713 5193 c1 -15 8 -23 19 -23 10 0 18 5 18 10 0 6 -6 10 -14 10 -8
0 -16 6 -19 13 -3 6 -4 2 -4 -10z"/>
<path d="M7105 5200 c3 -5 17 -10 31 -10 14 0 22 4 19 10 -3 6 -17 10 -31 10
-14 0 -22 -4 -19 -10z"/>
<path d="M1862 5184 c1 -9 9 -19 16 -22 9 -3 13 2 10 14 -1 9 -9 19 -16 22 -9
3 -13 -2 -10 -14z"/>
<path d="M7595 5180 c3 -5 11 -10 16 -10 6 0 7 5 4 10 -3 6 -11 10 -16 10 -6
0 -7 -4 -4 -10z"/>
<path d="M7198 5163 c7 -3 16 -2 19 1 4 3 -2 6 -13 5 -11 0 -14 -3 -6 -6z"/>
<path d="M6625 5150 c-3 -6 3 -10 14 -10 13 0 21 -7 21 -16 0 -9 6 -14 13 -11
6 2 21 1 32 -3 12 -5 25 -3 32 5 8 9 5 12 -17 13 -16 0 -42 8 -59 16 -19 10
-32 12 -36 6z"/>
<path d="M7260 5140 c19 -11 44 -19 55 -19 13 0 6 7 -20 19 -53 24 -80 24 -35
0z"/>
<path d="M7436 5142 c-3 -5 1 -9 9 -9 8 0 12 4 9 9 -3 4 -7 8 -9 8 -2 0 -6 -4
-9 -8z"/>
<path d="M7504 5142 c8 -13 67 -21 63 -8 -2 5 -18 12 -36 14 -19 2 -31 -1 -27
-6z"/>
<path d="M7592 5134 c-11 -12 -6 -14 36 -14 59 0 112 10 112 20 0 15 -134 9
-148 -6z"/>
<path d="M2080 5130 c0 -5 7 -10 15 -10 8 0 15 5 15 10 0 6 -7 10 -15 10 -8 0
-15 -4 -15 -10z"/>
<path d="M5695 5090 c-3 -5 1 -10 9 -10 9 0 16 5 16 10 0 6 -4 10 -9 10 -6 0
-13 -4 -16 -10z"/>
<path d="M7200 5090 c0 -5 -8 -10 -17 -10 -13 0 -14 -3 -6 -11 9 -9 16 -8 27
4 18 18 20 27 6 27 -5 0 -10 -4 -10 -10z"/>
<path d="M7418 5093 c6 -2 18 -2 25 0 6 3 1 5 -13 5 -14 0 -19 -2 -12 -5z"/>
<path d="M7975 5070 c-8 -13 -1 -24 14 -19 6 3 7 10 2 18 -6 10 -10 10 -16 1z"/>
<path d="M7818 5063 c7 -3 16 -2 19 1 4 3 -2 6 -13 5 -11 0 -14 -3 -6 -6z"/>
<path d="M7930 5049 c0 -5 5 -7 10 -4 6 3 10 8 10 11 0 2 -4 4 -10 4 -5 0 -10
-5 -10 -11z"/>
<path d="M2110 4965 c0 -20 5 -25 23 -25 35 0 39 10 13 31 -31 25 -36 24 -36
-6z"/>
<path d="M6910 4957 c0 -13 6 -32 14 -43 14 -18 30 -19 270 -21 141 -1 280 -6
309 -12 28 -6 84 -13 122 -15 39 -3 84 -10 102 -15 17 -5 58 -6 95 -1 38 5 79
4 104 -3 22 -6 48 -7 57 -4 22 8 23 57 2 57 -9 0 -30 7 -47 16 -25 13 -36 14
-56 4 -30 -13 -211 -15 -224 -2 -5 5 -30 5 -56 1 -26 -4 -50 -5 -55 -2 -4 2
-80 9 -169 14 -98 6 -165 15 -170 22 -5 8 -11 7 -21 -2 -11 -9 -36 -10 -88 -5
-40 4 -93 7 -117 8 -26 1 -47 6 -50 14 -7 21 -22 13 -22 -11z"/>
<path d="M2184 4957 c-3 -10 -4 -20 -1 -23 3 -4 -4 -16 -16 -28 -19 -19 -22
-32 -21 -106 2 -117 3 -122 15 -115 6 4 5 -2 -2 -13 -15 -24 -46 -35 -53 -18
-2 6 -5 3 -5 -7 -1 -13 4 -17 18 -12 15 4 21 -3 31 -39 7 -24 9 -50 5 -57 -5
-7 -4 -10 2 -6 6 4 13 0 17 -8 5 -15 37 -21 49 -9 3 4 0 16 -8 27 -8 12 -12
31 -9 44 4 14 2 23 -6 23 -14 0 -3 138 13 158 6 8 6 12 -3 12 -9 0 -10 9 -5
33 4 17 6 39 6 47 -1 8 -1 31 -1 50 0 44 -16 73 -26 47z"/>
<path d="M5645 4880 c3 -5 8 -10 11 -10 2 0 4 5 4 10 0 6 -5 10 -11 10 -5 0
-7 -4 -4 -10z"/>
<path d="M5026 4858 c-12 -16 -13 -25 -4 -35 7 -9 12 -76 13 -192 1 -161 3
-180 21 -198 39 -42 33 -42 687 -47 525 -4 519 -4 522 36 2 16 -9 18 -99 18
-326 1 -983 15 -1067 23 -10 1 -14 9 -11 24 2 13 -1 23 -7 23 -8 0 -10 33 -6
113 5 124 8 144 19 170 10 21 -11 50 -32 42 -11 -4 -13 1 -10 20 6 31 -6 32
-26 3z m54 -58 c0 -5 -2 -10 -4 -10 -3 0 -8 5 -11 10 -3 6 -1 10 4 10 6 0 11
-4 11 -10z"/>
<path d="M2432 4833 c-18 -9 -32 -20 -32 -26 0 -5 -14 -7 -35 -4 -39 6 -58 -9
-22 -18 15 -4 42 4 80 24 59 31 67 52 9 24z"/>
<path d="M5531 4819 c-13 -11 -22 -22 -19 -24 2 -3 15 6 28 20 28 30 24 32 -9
4z"/>
<path d="M2520 4820 c0 -5 4 -10 9 -10 6 0 13 5 16 10 3 6 -1 10 -9 10 -9 0
-16 -4 -16 -10z"/>
<path d="M7447 4814 c-10 -10 -9 -26 2 -20 4 3 6 -6 3 -19 -5 -30 14 -33 23
-4 7 22 -15 55 -28 43z"/>
<path d="M2730 4780 c-13 -8 -12 -10 3 -10 9 0 17 5 17 10 0 12 -1 12 -20 0z"/>
<path d="M2613 4755 c-13 -5 -23 -15 -23 -22 0 -9 7 -8 28 3 15 7 42 14 60 14
17 0 32 4 32 8 0 11 -70 9 -97 -3z"/>
<path d="M7002 4693 c-51 -25 -92 -50 -92 -54 0 -4 30 8 66 27 36 19 73 34 83
34 10 0 26 9 36 20 27 30 8 25 -93 -27z"/>
<path d="M2083 4722 l-22 -7 23 -21 24 -20 -2 28 c0 15 -1 28 -1 27 0 -1 -10
-4 -22 -7z"/>
<path d="M2379 4701 c-24 -19 -24 -19 77 -16 110 3 149 13 99 27 -18 5 -31 4
-33 -2 -2 -6 -7 -8 -11 -5 -5 2 -31 1 -59 -4 -40 -6 -49 -5 -45 6 7 18 -1 16
-28 -6z"/>
<path d="M2015 4700 c-8 -13 5 -13 25 0 13 8 13 10 -2 10 -9 0 -20 -4 -23 -10z"/>
<path d="M5150 4690 c-8 -5 -12 -12 -9 -15 4 -3 12 1 19 10 14 17 11 19 -10 5z"/>
<path d="M770 4656 c19 -17 65 -33 56 -18 -3 5 -21 15 -38 21 -29 10 -31 10
-18 -3z"/>
<path d="M1848 4663 c7 -3 16 -2 19 1 4 3 -2 6 -13 5 -11 0 -14 -3 -6 -6z"/>
<path d="M2303 4654 c-16 -13 -13 -14 27 -10 25 3 48 5 53 5 4 1 7 5 7 9 0 14
-68 11 -87 -4z"/>
<path d="M7550 4640 c-9 -6 -10 -10 -3 -10 6 0 15 5 18 10 8 12 4 12 -15 0z"/>
<path d="M1590 4610 c-19 -3 -30 -8 -25 -12 6 -3 37 -3 70 2 33 4 57 9 53 10
-15 5 -63 5 -98 0z"/>
<path d="M1710 4610 c0 -6 7 -10 15 -10 8 0 15 2 15 4 0 2 -7 6 -15 10 -8 3
-15 1 -15 -4z"/>
<path d="M2104 4586 c0 -13 4 -22 9 -19 10 6 9 43 -2 43 -5 0 -8 -11 -7 -24z"/>
<path d="M690 4576 c0 -9 40 -13 46 -5 3 5 -6 9 -20 9 -14 0 -26 -2 -26 -4z"/>
<path d="M1488 4572 c-10 -2 -18 -8 -18 -13 0 -13 27 -11 35 2 9 13 4 16 -17
11z"/>
<path d="M1765 4570 c-3 -5 1 -10 9 -10 9 0 16 5 16 10 0 6 -4 10 -9 10 -6 0
-13 -4 -16 -10z"/>
<path d="M7120 4480 c0 -5 5 -10 11 -10 5 0 7 5 4 10 -3 6 -8 10 -11 10 -2 0
-4 -4 -4 -10z"/>
<path d="M7445 4449 c-4 -6 -2 -16 4 -22 18 -18 14 -40 -6 -32 -11 4 -14 3 -8
-3 25 -22 106 -33 310 -41 121 -5 228 -13 238 -16 15 -6 17 -1 17 39 0 41 -2
46 -23 46 -13 0 -28 -5 -33 -10 -8 -8 -72 -7 -207 0 -199 11 -227 15 -227 32
0 5 -8 8 -17 6 -10 -1 -23 1 -30 5 -6 4 -15 2 -18 -4z"/>
<path d="M6343 4441 c10 -4 18 -10 18 -14 -1 -9 3 -9 34 -1 41 10 28 24 -22
23 -31 0 -41 -3 -30 -8z"/>
<path d="M6835 4441 c-16 -4 -96 -5 -177 -3 -110 3 -148 1 -148 -8 0 -6 10
-10 23 -9 12 2 28 -1 36 -5 8 -5 35 -9 60 -9 25 0 51 -3 57 -8 5 -5 147 -10
315 -13 167 -3 330 -8 362 -12 l57 -7 0 37 c0 33 -2 37 -20 31 -12 -4 -28 -1
-37 7 -12 10 -17 10 -20 1 -3 -8 -12 -9 -29 -3 -13 5 -24 6 -24 1 0 -11 -396
-9 -406 2 -4 4 -10 6 -13 6 -3 -1 -19 -4 -36 -8z"/>
<path d="M1323 4335 c4 -39 3 -44 -9 -34 -18 15 -18 -2 0 -27 19 -25 30 -12
32 39 2 47 -4 67 -18 67 -5 0 -7 -20 -5 -45z"/>
<path d="M1661 4353 c-32 -12 -46 -13 -49 -5 -2 8 -9 9 -21 3 -9 -5 -45 -9
-80 -10 -35 0 -69 -5 -74 -10 -11 -11 14 -14 113 -16 19 0 40 -4 47 -8 17 -10
113 32 113 49 0 8 -1 14 -2 13 -2 0 -23 -8 -47 -16z"/>
<path d="M2095 4361 c-10 -17 27 -28 110 -34 44 -3 81 -11 83 -16 2 -6 25 -11
50 -11 l47 1 -30 16 c-16 9 -75 25 -130 35 -118 21 -122 21 -130 9z"/>
<path d="M2465 4354 l-40 -12 62 1 c34 1 60 4 57 8 -8 14 -40 15 -79 3z"/>
<path d="M1738 4353 c6 -2 18 -2 25 0 6 3 1 5 -13 5 -14 0 -19 -2 -12 -5z"/>
<path d="M2580 4350 c0 -6 7 -10 15 -10 8 0 15 2 15 4 0 2 -7 6 -15 10 -8 3
-15 1 -15 -4z"/>
<path d="M1825 4340 c-3 -6 5 -10 19 -10 14 0 28 5 31 10 3 6 -5 10 -19 10
-14 0 -28 -4 -31 -10z"/>
<path d="M1915 4340 c-3 -5 1 -10 9 -10 9 0 16 5 16 10 0 6 -4 10 -9 10 -6 0
-13 -4 -16 -10z"/>
<path d="M2925 4339 c-4 -6 -14 -8 -22 -5 -9 4 -23 -2 -33 -14 -9 -11 -19 -18
-21 -16 -2 3 -5 -23 -5 -57 l-2 -62 49 -17 49 -16 0 83 c0 46 3 90 6 99 7 18
-11 22 -21 5z"/>
<path d="M2405 4320 c3 -5 14 -10 23 -10 15 0 15 2 2 10 -20 13 -33 13 -25 0z"/>
<path d="M2666 4322 c-3 -5 0 -9 7 -9 7 -1 27 -6 45 -11 35 -12 44 1 13 18
-24 12 -58 13 -65 2z"/>
<path d="M5668 4316 c-10 -9 -14 -48 -16 -132 -2 -65 -5 -131 -8 -146 -2 -17
0 -28 7 -28 7 0 9 -13 4 -39 -4 -24 -2 -42 4 -46 6 -3 11 -16 11 -29 0 -13 9
-31 20 -41 17 -15 28 -17 82 -9 66 9 359 8 789 -2 255 -6 256 -6 276 16 18 18
28 21 64 15 24 -3 150 -8 279 -11 129 -3 278 -7 330 -10 168 -7 444 -8 468 0
22 7 23 12 20 88 l-3 80 -37 12 c-30 11 -35 11 -31 0 3 -8 11 -14 18 -14 32 0
52 -77 26 -103 -14 -14 -216 -13 -631 4 -168 7 -325 12 -350 11 -25 -1 -51 2
-58 7 -9 5 -15 41 -19 107 -5 93 -17 129 -35 101 -11 -18 -10 -27 5 -27 13 0
17 -55 5 -76 -3 -5 -4 -28 -3 -51 2 -31 -2 -43 -11 -43 -8 0 -14 -4 -14 -8 0
-32 -109 -37 -895 -44 l-269 -3 -3 55 c-1 30 -2 64 -2 75 0 11 0 38 -1 60 0
22 0 86 0 143 0 56 -1 102 -4 102 -2 0 -11 -6 -18 -14z"/>
<path d="M6868 4319 c20 -22 15 -41 -9 -34 -15 5 -19 4 -15 -4 4 -6 15 -11 24
-11 10 0 13 -3 7 -8 -14 -9 -11 -43 4 -68 10 -16 11 -12 7 24 -4 23 -3 42 1
42 18 0 9 47 -11 59 -17 11 -19 11 -8 0z"/>
<path d="M2477 4309 c7 -7 15 -10 18 -7 3 3 -2 9 -12 12 -14 6 -15 5 -6 -5z"/>
<path d="M2578 4280 c35 -17 69 -30 75 -30 20 1 -96 59 -118 60 -11 0 9 -14
43 -30z"/>
<path d="M2750 4261 c0 -6 5 -13 10 -16 6 -3 10 1 10 9 0 9 -4 16 -10 16 -5 0
-10 -4 -10 -9z"/>
<path d="M7110 4260 c0 -5 5 -10 11 -10 5 0 7 5 4 10 -3 6 -8 10 -11 10 -2 0
-4 -4 -4 -10z"/>
<path d="M1390 4230 c0 -5 7 -10 15 -10 8 0 15 5 15 10 0 6 -7 10 -15 10 -8 0
-15 -4 -15 -10z"/>
<path d="M7760 4219 c42 -33 120 -70 143 -67 19 3 15 7 -23 30 -29 17 -47 22
-52 15 -4 -6 -18 0 -38 16 -17 15 -37 27 -43 27 -7 0 -1 -10 13 -21z"/>
<path d="M1326 4215 c4 -8 8 -15 10 -15 2 0 4 7 4 15 0 8 -4 15 -10 15 -5 0
-7 -7 -4 -15z"/>
<path d="M7910 4190 c0 -5 4 -10 9 -10 6 0 13 5 16 10 3 6 -1 10 -9 10 -9 0
-16 -4 -16 -10z"/>
<path d="M1335 4150 c-3 -6 1 -7 9 -4 18 7 21 14 7 14 -6 0 -13 -4 -16 -10z"/>
<path d="M7991 4104 c0 -11 3 -14 6 -6 3 7 2 16 -1 19 -3 4 -6 -2 -5 -13z"/>
<path d="M625 4090 c32 -11 61 -17 64 -15 2 3 -2 6 -10 9 -8 2 -29 9 -48 15
-19 6 -41 11 -50 10 -9 0 11 -9 44 -19z"/>
<path d="M1320 4080 c0 -19 3 -21 12 -12 9 9 9 15 0 24 -9 9 -12 7 -12 -12z"/>
<path d="M1258 4053 c6 -2 18 -2 25 0 6 3 1 5 -13 5 -14 0 -19 -2 -12 -5z"/>
<path d="M444 4030 c-6 -6 -163 -38 -244 -51 -66 -10 -124 -31 -148 -56 -7 -7
-22 -13 -33 -13 -19 0 -19 -12 -18 -482 l0 -483 22 29 c56 75 97 106 139 106
45 0 193 -65 209 -91 9 -16 39 -21 39 -7 0 7 5 7 13 -1 10 -8 17 -7 25 1 8 8
17 -2 33 -36 12 -26 19 -50 15 -53 -3 -4 -6 -1 -6 6 0 7 -5 9 -11 5 -6 -3 -8
-16 -5 -28 3 -14 -1 -30 -12 -42 -10 -10 -18 -23 -19 -29 0 -5 -7 -12 -14 -16
-8 -3 -25 -11 -37 -18 -13 -7 -25 -11 -25 -9 -24 50 -45 81 -77 115 l-39 42
-6 -28 c-4 -18 2 -54 16 -97 13 -38 22 -82 21 -97 -2 -17 2 -26 8 -22 5 3 10
1 10 -4 0 -14 -43 -14 -57 0 -9 9 -19 6 -42 -10 -21 -15 -31 -18 -31 -9 0 7
-9 -1 -19 -18 -14 -22 -26 -31 -43 -30 -12 1 -33 -1 -45 -6 -12 -4 -25 -3 -27
1 -3 5 -6 52 -7 105 -1 53 -5 96 -10 96 -5 0 -9 -19 -9 -42 -1 -24 -3 -82 -6
-130 -4 -60 -2 -88 5 -88 6 0 11 -5 11 -11 0 -5 -4 -7 -10 -4 -6 4 -10 -32
-10 -102 0 -118 5 -120 42 -15 12 35 28 62 35 62 23 0 41 -57 32 -103 -8 -44
-4 -61 12 -52 5 4 9 1 9 -4 0 -6 -4 -11 -9 -11 -6 0 -25 -28 -44 -61 -40 -71
-35 -93 18 -78 19 6 31 5 33 -1 2 -5 13 -10 25 -11 21 0 20 -1 -3 -10 -14 -6
-53 -9 -88 -6 l-63 4 3 -36 3 -36 49 3 c47 2 86 -15 86 -39 0 -19 -44 -33
-122 -38 -17 -1 -18 -49 -18 -855 0 -805 1 -855 17 -859 17 -4 17 -5 1 -6 -16
-1 -18 -14 -18 -126 l0 -125 158 0 c86 0 241 -3 344 -7 102 -3 197 -3 211 0
16 5 28 18 34 39 10 30 11 31 12 8 1 -32 18 -50 48 -50 18 0 23 6 24 28 l1 27
7 -25 c5 -19 14 -25 36 -26 71 -4 1918 -4 1921 -1 2 2 7 30 10 63 7 67 11 75
21 48 3 -10 17 -33 30 -50 13 -17 21 -38 18 -46 -5 -13 26 -16 212 -21 350
-11 493 -9 493 6 0 16 -54 37 -79 30 -10 -3 -22 0 -25 5 -4 7 -17 7 -36 2 -37
-11 -100 -1 -107 16 -6 17 16 56 28 49 5 -4 9 1 9 10 0 8 7 18 15 22 9 3 24
22 34 42 11 20 28 45 40 55 12 11 21 25 21 33 0 7 7 16 15 19 8 4 15 12 15 20
0 8 4 14 9 14 5 0 11 8 13 17 3 14 17 17 92 19 58 1 94 6 105 15 9 8 29 20 44
28 15 8 27 18 27 23 0 4 5 8 11 8 19 0 93 72 109 105 8 16 22 37 32 46 10 9
18 21 18 28 0 26 50 13 178 -45 29 -13 61 -24 72 -24 21 0 48 -23 75 -64 15
-23 15 -26 -2 -45 -10 -12 -18 -25 -19 -29 0 -4 -3 -14 -7 -22 -13 -35 -13
-70 -1 -81 19 -15 18 -69 0 -69 -15 0 -26 -30 -26 -76 0 -16 -7 -39 -15 -50
-8 -10 -15 -29 -15 -42 0 -14 -4 -21 -11 -16 -6 3 -9 15 -6 25 4 14 0 19 -13
19 -30 0 -32 -16 -5 -48 14 -16 25 -35 25 -41 0 -8 516 -11 1889 -11 l1888 0
6 332 c6 273 13 2858 8 2894 0 5 -17 10 -37 11 -54 2 -105 13 -99 22 3 5 -11
11 -29 13 -19 2 -32 0 -30 -4 8 -12 -16 -10 -123 13 -54 11 -138 27 -187 35
-49 8 -92 16 -94 19 -5 5 14 7 22 3 2 -2 13 6 25 16 19 17 24 18 49 5 19 -9
80 -14 217 -15 105 -1 213 -4 240 -6 48 -3 50 -2 50 22 0 24 -4 26 -80 35 -44
6 -146 9 -227 8 -114 -1 -151 1 -161 12 -15 14 -33 197 -23 214 4 5 2 21 -4
35 -6 17 -6 26 0 26 6 0 10 5 10 11 0 6 -9 8 -22 4 -17 -5 -19 -4 -9 4 12 8
13 12 2 25 -10 12 -17 13 -26 6 -13 -11 -9 -50 6 -50 12 0 6 -43 -9 -59 -16
-16 -8 -186 9 -208 14 -16 -3 -18 -32 -3 -15 8 -23 7 -34 -3 -15 -15 -94 -13
-125 3 -8 5 -18 3 -25 -6 -15 -21 -128 -36 -210 -29 -38 3 -145 15 -236 26
-113 14 -210 19 -305 17 -129 -3 -140 -2 -161 18 -24 22 -31 40 -11 28 8 -5 9
-2 5 10 -4 10 -7 23 -7 29 0 7 -7 3 -15 -7 -8 -10 -13 -22 -11 -25 2 -3 -111
-5 -251 -3 -286 4 -269 10 -204 -72 40 -50 105 -168 124 -226 8 -25 24 -65 35
-90 29 -69 50 -164 62 -285 6 -60 17 -136 26 -167 17 -67 11 -102 -26 -143
-31 -34 -46 -77 -24 -68 7 2 15 12 17 21 3 12 9 5 20 -20 21 -47 21 -80 1
-119 -13 -26 -14 -39 -4 -77 6 -26 10 -83 9 -127 -1 -44 1 -143 4 -220 4 -98
3 -114 -2 -54 -10 107 -42 181 -107 244 -88 83 -179 121 -382 156 -281 48
-486 -2 -585 -141 -18 -25 -18 -25 -13 35 4 47 3 54 -4 30 -6 -16 -12 -57 -15
-90 -3 -33 -17 -83 -30 -111 -15 -31 -25 -69 -25 -95 0 -84 -25 -112 -176
-202 -50 -30 -48 -47 6 -47 14 0 36 -7 49 -16 l23 -17 -26 -24 c-15 -13 -42
-27 -62 -30 -28 -5 -33 -9 -28 -25 4 -13 1 -19 -8 -17 -31 4 -58 -2 -72 -17
-15 -15 -71 -14 -151 3 -11 2 -51 6 -90 8 -38 2 -91 7 -117 10 -60 6 -66 -15
-10 -38 98 -40 141 -56 192 -67 30 -7 59 -15 64 -18 4 -2 -9 -21 -30 -40 -22
-20 -38 -39 -37 -43 3 -11 -35 -42 -55 -44 -59 -6 -126 -35 -210 -91 l-32 -22
30 -7 c16 -4 30 -11 30 -16 0 -12 -22 -12 -53 0 -61 23 -106 22 -187 -5 -63
-20 -87 -34 -111 -63 -17 -20 -26 -26 -20 -14 6 12 16 25 22 29 8 4 7 9 -1 14
-16 10 38 40 58 33 21 -8 13 14 -12 31 -14 9 -80 45 -148 80 -306 159 -364
197 -573 380 -166 146 -248 220 -354 322 -59 56 -155 144 -216 194 -109 92
-361 341 -421 416 -25 32 -56 100 -37 80 4 -3 14 1 24 10 16 14 21 12 66 -33
26 -26 80 -82 118 -124 197 -216 495 -446 768 -592 37 -20 67 -34 67 -30 0 4
5 2 11 -4 15 -15 68 3 65 22 -2 13 -64 76 -197 200 -35 33 -134 134 -219 224
-85 90 -163 172 -172 183 -10 10 -18 23 -18 28 0 6 -4 10 -8 10 -5 0 -24 21
-42 48 -19 26 -38 49 -42 50 -4 2 -8 9 -8 16 0 7 -9 21 -20 31 -11 10 -20 24
-20 31 0 7 -11 26 -25 42 -14 17 -25 34 -25 39 0 4 -9 14 -20 21 -12 7 -18 17
-15 22 3 5 1 11 -5 15 -15 9 -50 82 -43 89 4 3 1 6 -5 6 -7 0 -12 5 -12 11 0
6 7 9 15 5 17 -6 21 9 5 19 -6 4 -8 28 -6 55 3 34 0 52 -9 60 -12 10 -11 17 6
46 23 42 23 44 3 44 -10 0 -13 6 -10 18 4 10 1 43 -5 73 -6 30 -12 65 -14 79
-1 14 -8 25 -16 25 -10 0 -13 10 -12 35 3 34 2 34 -12 -10 -8 -25 -15 -53 -15
-62 0 -25 -15 -22 -28 5 -10 21 -11 20 -13 -13 -1 -19 -3 -43 -2 -52 0 -10 -4
-18 -8 -18 -9 0 -29 57 -29 83 0 28 -8 18 -14 -17 -3 -16 -10 -32 -16 -36 -6
-3 -13 -37 -15 -76 -9 -112 -30 -107 -55 14 -13 63 -26 80 -32 41 -4 -29 -49
-34 -77 -8 -24 23 -31 24 -31 4 0 -8 -8 -15 -18 -15 -10 0 -21 -3 -25 -6 -3
-3 -89 -7 -190 -9 -170 -3 -277 6 -277 23 0 12 70 38 175 67 102 28 129 40
119 56 -3 5 3 9 12 9 11 0 3 10 -22 29 -28 20 -45 26 -59 21 -25 -9 -224 -2
-387 14 -47 4 -58 2 -58 -9 0 -20 -14 -19 -31 1 -11 14 -53 35 -69 36 -3 0
-11 4 -17 10 -9 7 -15 6 -19 -6 -10 -26 -32 -19 -50 17 -13 24 -19 66 -22 171
-5 163 8 259 47 332 l27 51 -105 -1 c-58 0 -162 3 -231 8 -146 9 -340 13 -346
6z m593 -195 c0 -8 -4 -15 -9 -15 -10 0 -11 14 -1 23 9 10 10 9 10 -8z m1313
-535 c0 -5 -5 -10 -11 -10 -5 0 -7 5 -4 10 3 6 8 10 11 10 2 0 4 -4 4 -10z
m-1483 -298 c7 -5 11 -24 9 -47 -2 -22 -4 -48 -5 -57 -2 -28 -36 -18 -37 11
-1 15 -3 31 -4 36 -11 48 7 76 37 57z m-291 -26 c14 -15 19 -36 8 -36 -4 0
-13 8 -20 18 -24 31 -15 44 12 18z m191 -78 c-2 -18 -4 -4 -4 32 0 36 2 50 4
33 2 -18 2 -48 0 -65z m243 52 c11 -16 20 -32 20 -37 0 -5 9 -26 20 -48 11
-22 20 -32 20 -22 0 21 19 22 26 2 4 -8 10 -12 15 -9 11 7 11 1 -5 -66 l-12
-55 -19 43 c-15 32 -24 42 -37 39 -10 -3 -18 0 -19 6 0 7 -5 -3 -10 -20 -11
-37 -34 -44 -44 -13 -7 22 -20 26 -30 10 -3 -5 -13 -10 -21 -10 -32 0 -8 134
29 161 5 3 5 17 2 31 -6 23 -4 25 19 21 15 -3 35 -18 46 -33z m-334 3 c13 -22
17 -100 5 -107 -4 -3 -7 5 -7 17 1 12 -1 27 -5 32 -11 17 -21 75 -12 75 4 0
13 -8 19 -17z m180 -120 c-10 -10 -19 5 -10 18 6 11 8 11 12 0 2 -7 1 -15 -2
-18z m186 -65 c-7 -7 -12 -8 -12 -2 0 14 12 26 19 19 2 -3 -1 -11 -7 -17z
m128 -32 c0 -3 -4 -8 -10 -11 -5 -3 -10 -1 -10 4 0 6 5 11 10 11 6 0 10 -2 10
-4z m0 -36 c0 -5 -5 -10 -11 -10 -5 0 -7 5 -4 10 3 6 8 10 11 10 2 0 4 -4 4
-10z m-1153 -92 c-3 -8 -6 -5 -6 6 -1 11 2 17 5 13 3 -3 4 -12 1 -19z m1373
-14 c0 -3 -9 -17 -20 -31 -11 -14 -20 -31 -20 -39 0 -7 -6 -15 -12 -17 -8 -4
-7 -6 4 -6 9 -1 19 5 21 12 4 8 6 9 6 0 1 -6 -6 -19 -15 -27 -8 -9 -11 -16 -5
-16 6 0 11 -9 11 -20 0 -11 5 -20 10 -20 16 0 11 -32 -7 -45 -9 -7 -17 -23
-19 -36 -1 -13 -3 -24 -4 -24 -1 0 -3 -22 -6 -48 -3 -35 -1 -48 8 -46 27 3 38
-1 38 -16 0 -8 -3 -15 -7 -15 -5 -1 -47 -2 -94 -4 l-86 -3 14 28 c12 24 12 32
-2 58 -16 32 -22 67 -6 43 6 -10 10 -9 14 7 3 12 1 21 -4 21 -12 0 -11 41 1
60 5 8 10 11 10 7 0 -4 6 -2 14 5 8 7 12 16 9 21 -7 11 33 57 43 49 5 -4 0 4
-11 17 -11 14 -15 21 -9 18 7 -4 15 0 18 9 4 11 14 15 31 12 20 -4 25 -1 25
14 0 11 4 17 9 14 5 -3 11 1 15 9 5 14 26 21 26 9z m75 -321 c-8 -35 -13 -39
-26 -26 -8 8 -7 17 3 32 18 30 31 26 23 -6z m-1308 0 c3 -10 17 -30 31 -45 24
-26 24 -28 6 -34 -10 -4 -27 -14 -36 -22 -16 -13 -18 -13 -18 1 0 8 -5 17 -10
19 -11 3 -13 26 -7 68 5 31 5 30 17 30 6 0 13 -8 17 -17z m5303 -37 c0 -2 3
-11 6 -20 4 -11 1 -16 -10 -16 -9 0 -16 -5 -16 -11 0 -5 -4 -8 -9 -5 -5 4 -8
-5 -6 -19 2 -20 -2 -25 -20 -25 -12 0 -32 -9 -45 -20 -26 -22 -40 -26 -40 -9
0 6 -6 9 -12 6 -7 -2 -12 -10 -10 -17 2 -8 -3 -10 -15 -5 -10 4 -35 7 -55 6
-31 -2 -38 2 -38 17 0 11 11 27 25 36 14 9 23 21 20 26 -4 6 0 10 7 11 7 0 4
4 -7 9 -23 9 -15 14 50 29 41 9 175 14 175 7z m50 -16 c0 -5 -2 -10 -4 -10 -3
0 -8 5 -11 10 -3 6 -1 10 4 10 6 0 11 -4 11 -10z m60 -10 c-13 -8 -13 -10 -1
-10 10 0 8 -6 -8 -21 -12 -12 -25 -19 -27 -16 -3 2 -21 1 -40 -3 -20 -5 -37
-4 -40 2 -10 15 9 28 43 31 17 1 29 5 27 9 -5 8 14 16 41 17 16 1 17 -1 5 -9z
m75 -10 c13 -6 15 -9 5 -9 -8 0 -22 4 -30 9 -18 12 -2 12 25 0z m-135 -54 c0
-3 -4 -8 -10 -11 -5 -3 -10 -1 -10 4 0 6 5 11 10 11 6 0 10 -2 10 -4z m-4780
-41 c-7 -8 -16 -15 -21 -15 -13 0 -11 24 3 38 18 18 35 -3 18 -23z m688 15 c6
0 20 1 30 1 33 0 62 -7 74 -19 19 -19 -50 -43 -95 -32 -25 5 -42 4 -53 -5 -14
-9 -23 -9 -45 2 -16 8 -45 17 -66 20 -40 6 -63 19 -63 35 0 7 37 8 103 4 56
-3 108 -6 115 -6z m3994 -12 c-9 -9 -15 -9 -24 0 -9 9 -7 12 12 12 19 0 21 -3
12 -12z m-5223 -84 c-6 -8 -19 -14 -28 -14 -14 0 -17 7 -13 30 4 28 5 29 28
13 19 -12 22 -19 13 -29z m5025 -9 c-10 -8 -28 -14 -39 -14 -16 1 -13 4 10 14
40 19 53 19 29 0z m-3997 -60 c26 -16 43 -33 43 -45 0 -10 6 -20 13 -23 6 -2
8 -8 4 -13 -10 -11 -77 25 -77 42 0 7 -6 17 -13 21 -15 9 -30 43 -20 43 3 0
26 -11 50 -25z m3973 -4 c0 -6 -4 -13 -10 -16 -5 -3 -10 1 -10 9 0 9 5 16 10
16 6 0 10 -4 10 -9z m-2624 -130 c21 -16 91 -81 154 -146 276 -281 508 -440
770 -528 147 -49 275 -87 294 -87 17 0 16 -4 -11 -33 -77 -82 -113 -158 -128
-268 -6 -45 -14 -60 -47 -92 -33 -31 -45 -37 -67 -32 -47 11 -103 57 -241 196
-143 143 -224 248 -303 389 -26 47 -53 90 -60 95 -7 6 -25 28 -42 50 -26 35
-74 93 -169 206 -15 19 -60 77 -100 129 -39 52 -74 97 -77 100 -13 11 -29 50
-21 50 5 0 27 -13 48 -29z m681 13 c-3 -3 -12 -4 -19 -1 -8 3 -5 6 6 6 11 1
17 -2 13 -5z m-2102 -64 c3 -5 2 -10 -4 -10 -5 0 -13 5 -16 10 -3 6 -2 10 4
10 5 0 13 -4 16 -10z m5 -40 c0 -5 -2 -10 -4 -10 -3 0 -8 5 -11 10 -3 6 -1 10
4 10 6 0 11 -4 11 -10z m-111 -59 c11 -20 -2 -47 -18 -37 -14 9 -14 5 4 -37
13 -32 13 -36 -3 -43 -43 -19 -46 -13 -49 84 l-4 94 31 -22 c16 -12 34 -29 39
-39z m38 -2 c2 -14 0 -18 -4 -9 -3 8 -15 26 -27 40 l-21 24 25 -16 c14 -8 26
-26 27 -39z m97 25 c8 -21 8 -24 -3 -24 -5 0 -11 9 -14 20 -6 24 8 27 17 4z
m-295 -16 c25 -26 38 -85 22 -101 -6 -6 -11 -19 -11 -29 0 -10 -5 -18 -11 -18
-7 0 -9 -11 -6 -30 7 -32 -8 -51 -17 -23 -10 32 -26 204 -21 214 10 14 23 11
44 -13z m1282 -97 c2 -28 -1 -46 -9 -49 -9 -3 -12 18 -11 80 1 67 3 76 9 48 5
-19 10 -55 11 -79z m57 44 c0 -29 0 -29 -8 -5 -4 14 -8 36 -8 50 -1 23 0 23 8
5 5 -11 8 -33 8 -50z m-1439 -77 c1 -58 -3 -65 -26 -50 -13 8 -13 83 0 75 4
-2 7 6 7 19 0 18 -2 20 -10 8 -5 -8 -10 -13 -11 -10 -4 28 -6 62 -2 52 7 -18
23 -4 24 21 2 41 18 -58 18 -115z m321 72 c0 -5 -2 -10 -4 -10 -3 0 -8 5 -11
10 -3 6 -1 10 4 10 6 0 11 -4 11 -10z m3713 -480 c3 -11 1 -20 -4 -20 -5 0 -9
9 -9 20 0 11 2 20 4 20 2 0 6 -9 9 -20z m32 1 c3 -5 1 -12 -5 -16 -5 -3 -10 1
-10 9 0 18 6 21 15 7z m-75 -21 c20 -15 23 -21 13 -31 -11 -11 -13 -10 -13 4
0 11 -14 24 -32 32 -24 10 -27 14 -13 14 11 0 31 -8 45 -19z m-84 -32 c16 -13
34 -27 41 -33 7 -5 19 -16 28 -23 8 -7 20 -10 25 -7 15 9 12 -4 -4 -20 -11
-12 -15 -10 -26 11 -10 17 -16 21 -21 12 -6 -9 -10 -8 -15 5 -3 9 -14 17 -23
17 -9 0 -22 9 -29 20 -7 12 -17 18 -22 15 -6 -3 -7 1 -4 9 8 21 16 20 50 -6z
m-396 -24 c0 -2 -9 -4 -21 -4 -11 0 -18 4 -14 10 5 8 35 3 35 -6z m605 7 c3
-5 1 -12 -4 -15 -5 -3 -11 1 -15 9 -6 16 9 21 19 6z m-258 -17 c13 -4 20 -11
16 -17 -4 -6 0 -8 8 -5 8 3 30 -7 49 -22 l34 -28 -36 1 c-22 0 -41 8 -48 18
-12 15 -14 15 -32 -3 -15 -15 -22 -17 -34 -7 -22 18 -17 29 14 29 24 1 25 2
10 14 -31 23 -23 31 19 20z m-57 -14 c12 -8 11 -10 -7 -10 -13 0 -23 5 -23 10
0 13 11 13 30 0z m-1871 -138 c35 -53 97 -151 139 -217 42 -66 89 -138 105
-160 16 -22 55 -80 87 -130 65 -99 65 -99 -3 -142 -47 -30 -50 -28 -109 75
-127 216 -210 378 -231 448 -59 192 -70 231 -74 244 -5 18 2 9 86 -118z m1336
88 c9 -16 12 -30 7 -30 -8 0 -32 42 -32 55 0 13 11 2 25 -25z m357 -30 c5 0 8
-7 8 -15 0 -26 -24 -16 -45 18 -30 49 -30 52 1 24 16 -15 32 -27 36 -27z
m-162 30 c-19 -13 -30 -13 -30 0 0 6 10 10 23 10 18 0 19 -2 7 -10z m329 -9
c9 -6 10 -11 2 -15 -6 -4 -11 -3 -11 3 0 5 -8 12 -17 14 -13 3 -14 5 -3 6 8 0
21 -3 29 -8z m-453 -16 c-27 -21 -53 -20 -36 0 7 8 22 15 34 15 21 -1 21 -1 2
-15z m594 0 c11 -13 10 -14 -4 -9 -9 3 -16 10 -16 15 0 13 6 11 20 -6z m-160
-15 c0 -5 -2 -10 -4 -10 -3 0 -8 5 -11 10 -3 6 -1 10 4 10 6 0 11 -4 11 -10z
m220 -55 c7 -9 8 -15 2 -15 -5 0 -12 7 -16 15 -3 8 -4 15 -2 15 2 0 9 -7 16
-15z m-852 -17 c-5 -15 -48 -24 -48 -10 0 14 12 22 33 22 10 0 17 -5 15 -12z
m769 -10 c-3 -8 -6 -5 -6 6 -1 11 2 17 5 13 3 -3 4 -12 1 -19z m-676 -16 c-16
-5 -41 5 -41 17 0 7 10 6 26 -1 15 -7 21 -14 15 -16z m462 -24 c36 -33 40 -43
38 -85 -2 -41 -29 -25 -49 30 -11 28 -23 60 -27 70 -10 25 -2 21 38 -15z
m-299 -13 c-4 -10 0 -15 13 -15 20 0 26 -33 10 -57 -11 -18 -72 -16 -87 2 -7
8 -8 15 -2 15 5 0 12 13 15 29 4 20 13 31 29 34 13 2 24 5 25 6 1 0 0 -6 -3
-14z m76 -35 c0 -5 -8 -10 -17 -10 -15 0 -16 2 -3 10 19 12 20 12 20 0z m-315
-31 c10 -15 2 -19 -23 -12 -12 3 -19 9 -16 14 7 12 31 11 39 -2z m-718 -215
l81 -83 -34 -31 c-19 -16 -41 -30 -49 -30 -14 0 -75 74 -75 91 0 5 -20 50 -44
101 -64 135 -65 155 -8 89 26 -29 84 -91 129 -137z m1013 158 c0 -13 -12 -22
-22 -16 -10 6 -1 24 13 24 5 0 9 -4 9 -8z m-443 -78 c3 -8 12 -14 20 -14 8 0
11 5 8 10 -3 6 0 10 8 10 17 0 33 -33 18 -38 -14 -5 -2 -31 12 -28 7 1 9 1 5
-1 -5 -3 -8 -15 -8 -28 0 -22 -24 -39 -46 -34 -16 4 -44 -13 -38 -22 6 -10
-24 -25 -33 -15 -3 3 0 12 6 20 10 12 9 13 -9 9 -19 -5 -21 -2 -18 28 2 22 8
33 16 31 15 -3 72 28 72 39 0 8 -26 20 -52 25 -12 3 -18 -3 -19 -14 0 -11 -2
-12 -6 -4 -3 7 0 18 5 25 15 18 52 19 59 1z m-77 -47 c0 -3 -13 -7 -29 -9 -28
-4 -29 -4 -14 19 13 19 17 20 29 8 8 -7 14 -16 14 -18z m177 27 c-3 -3 -12 -4
-19 -1 -8 3 -5 6 6 6 11 1 17 -2 13 -5z m-1768 -65 c-16 -10 -23 -4 -14 10 3
6 11 8 17 5 6 -4 5 -9 -3 -15z m1561 -5 c0 -8 -5 -12 -10 -9 -6 4 -8 11 -5 16
9 14 15 11 15 -7z m-30 -13 c-1 -23 -16 -27 -26 -7 -9 20 -8 23 8 18 10 -2 18
-7 18 -11z m-70 -1 c0 -5 -4 -10 -10 -10 -5 0 -10 5 -10 10 0 6 5 10 10 10 6
0 10 -4 10 -10z m220 -40 c0 -5 -2 -10 -4 -10 -3 0 -8 5 -11 10 -3 6 -1 10 4
10 6 0 11 -4 11 -10z m-330 -10 c0 -5 -6 -10 -14 -10 -8 0 -16 -6 -19 -12 -2
-7 -8 -10 -12 -5 -5 4 0 14 11 22 23 17 34 19 34 5z m-2710 -20 c0 -5 -7 -10
-15 -10 -8 0 -15 5 -15 10 0 6 7 10 15 10 8 0 15 -4 15 -10z m2879 -39 c-15
-5 -22 6 -14 19 6 9 10 9 16 -1 5 -8 4 -15 -2 -18z m-250 -30 c-15 -5 -22 6
-14 19 6 9 10 9 16 -1 5 -8 4 -15 -2 -18z m-18 -35 c-6 -7 -9 -15 -7 -17 2 -2
-7 -12 -20 -22 -23 -17 -24 -17 -24 3 0 24 36 63 51 54 7 -4 7 -10 0 -18z
m-3261 -50 c0 -2 -13 -6 -30 -8 -16 -3 -30 -1 -30 4 0 4 14 8 30 8 17 0 30 -2
30 -4z m3076 -58 c16 -12 31 -23 33 -25 2 -1 -6 -11 -18 -22 -18 -16 -19 -20
-6 -25 13 -5 12 -9 -7 -28 -25 -25 -79 -31 -113 -14 -11 6 -23 9 -27 8 -5 -1
-8 3 -8 9 0 5 -4 8 -9 4 -16 -9 -24 15 -10 31 7 9 32 25 55 36 24 11 48 26 55
34 15 19 21 18 55 -8z m1104 -12 c0 -3 -4 -8 -10 -11 -5 -3 -10 -1 -10 4 0 6
5 11 10 11 6 0 10 -2 10 -4z m-2133 -38 c-3 -8 -6 -5 -6 6 -1 11 2 17 5 13 3
-3 4 -12 1 -19z m2093 -93 c0 -8 -4 -15 -10 -15 -5 0 -7 7 -4 15 4 8 8 15 10
15 2 0 4 -7 4 -15z"/>
<path d="M3130 1161 c0 -9 100 -107 200 -197 30 -27 60 -54 66 -60 47 -43 203
-154 217 -154 16 0 16 1 0 20 -10 11 -22 20 -28 20 -11 0 -125 106 -125 115 0
3 7 5 15 5 9 0 12 -6 8 -17 -4 -11 -3 -14 5 -9 6 4 30 -2 54 -14 68 -33 76
-23 14 20 -31 22 -61 40 -66 40 -6 0 -10 4 -10 9 0 5 -16 16 -35 25 -19 9 -35
21 -35 26 0 6 -7 10 -15 10 -8 0 -15 4 -15 9 0 5 -9 12 -19 16 -11 3 -50 29
-88 56 -75 56 -143 94 -143 80z m330 -231 c0 -5 -5 -10 -11 -10 -5 0 -7 5 -4
10 3 6 8 10 11 10 2 0 4 -4 4 -10z"/>
<path d="M3800 530 c0 -5 7 -10 16 -10 8 0 12 5 9 10 -3 6 -10 10 -16 10 -5 0
-9 -4 -9 -10z"/>
<path d="M4768 3893 c7 -3 16 -2 19 1 4 3 -2 6 -13 5 -11 0 -14 -3 -6 -6z"/>
<path d="M4805 3891 c-3 -6 11 -13 32 -17 21 -4 56 -16 78 -28 44 -23 67 -24
385 -12 228 8 284 16 288 39 3 15 -9 17 -145 18 -164 2 -380 1 -520 -1 -51 -1
-97 1 -102 4 -5 4 -12 2 -16 -3z"/>
<path d="M7450 3777 c0 -7 9 -13 20 -14 11 -1 20 4 20 10 0 7 -9 13 -20 14
-11 1 -20 -4 -20 -10z"/>
<path d="M6718 3754 c-11 -10 120 -53 164 -54 20 0 47 4 60 9 13 5 37 13 53
17 l30 7 -34 8 c-19 4 -44 3 -56 -1 -21 -8 -110 0 -180 15 -17 4 -33 3 -37 -1z"/>
<path d="M7058 3743 c6 -2 18 -2 25 0 6 3 1 5 -13 5 -14 0 -19 -2 -12 -5z"/>
<path d="M7680 3740 c0 -12 8 -12 35 0 18 8 17 9 -7 9 -16 1 -28 -3 -28 -9z"/>
<path d="M7085 3690 c-3 -5 -2 -10 4 -10 5 0 13 5 16 10 3 6 2 10 -4 10 -5 0
-13 -4 -16 -10z"/>
<path d="M4642 3660 c0 -14 2 -19 5 -12 2 6 2 18 0 25 -3 6 -5 1 -5 -13z"/>
<path d="M7388 3663 c6 -2 18 -2 25 0 6 3 1 5 -13 5 -14 0 -19 -2 -12 -5z"/>
<path d="M7800 3641 c0 -16 41 -30 108 -37 54 -5 56 -4 31 10 -14 8 -43 17
-65 19 -21 3 -47 8 -56 12 -11 4 -18 3 -18 -4z"/>
<path d="M6302 3560 c0 -14 2 -19 5 -12 2 6 2 18 0 25 -3 6 -5 1 -5 -13z"/>
<path d="M7678 3533 c7 -3 16 -2 19 1 4 3 -2 6 -13 5 -11 0 -14 -3 -6 -6z"/>
<path d="M7715 3441 c6 -11 76 -33 83 -27 5 6 -28 22 -61 30 -18 4 -26 3 -22
-3z"/>
<path d="M2341 3424 c0 -11 3 -14 6 -6 3 7 2 16 -1 19 -3 4 -6 -2 -5 -13z"/>
<path d="M2594 3231 c2 -22 12 -53 22 -68 10 -15 19 -31 20 -35 1 -5 3 -10 4
-13 1 -3 3 -8 4 -12 1 -5 14 -33 29 -63 15 -30 32 -71 37 -92 6 -20 26 -58 45
-85 19 -26 40 -59 45 -72 29 -66 115 -193 150 -221 25 -19 40 -26 40 -18 0 10
3 9 10 -2 15 -24 12 -2 -5 30 -9 17 -20 30 -24 30 -5 0 -15 16 -21 36 -7 19
-18 38 -26 41 -8 3 -14 12 -14 20 0 19 -51 127 -62 131 -4 2 -8 10 -8 17 0 7
-11 27 -25 43 -14 17 -25 34 -25 40 0 5 -6 12 -14 15 -7 3 -17 27 -21 53 -4
28 -17 60 -31 77 -13 16 -24 34 -24 42 0 7 -6 18 -14 24 -8 7 -22 27 -31 46
-9 19 -23 35 -31 35 -8 0 -13 4 -10 9 3 5 -1 14 -9 21 -13 10 -14 6 -11 -29z"/>
<path d="M5066 3228 c13 -44 19 -51 33 -34 10 11 9 19 -1 35 -18 29 -41 28
-32 -1z"/>
<path d="M3840 2990 c0 -5 5 -10 10 -10 6 0 10 -4 10 -10 0 -10 53 -94 94
-149 14 -19 26 -30 26 -24 0 14 -35 75 -85 146 -38 54 -55 69 -55 47z"/>
<path d="M3136 2962 c7 -4 14 -16 16 -27 5 -19 5 -19 13 -1 8 18 -7 36 -30 36
-5 0 -5 -4 1 -8z"/>
<path d="M2 2887 c2 -31 8 -58 13 -60 16 -3 15 75 -1 98 -14 18 -15 15 -12
-38z"/>
<path d="M3172 2914 c-10 -11 -10 -20 4 -46 32 -62 98 -157 106 -152 12 7 10
62 -2 69 -6 4 -8 10 -5 15 3 5 -3 15 -15 22 -11 7 -20 18 -20 25 0 7 -10 13
-22 13 -17 0 -19 3 -10 9 11 7 11 9 -1 14 -9 3 -17 15 -19 25 -2 17 -5 18 -16
6z"/>
<path d="M381 2894 c0 -11 3 -14 6 -6 3 7 2 16 -1 19 -3 4 -6 -2 -5 -13z"/>
<path d="M3290 2712 c0 -19 12 -42 22 -42 14 0 5 43 -9 48 -7 2 -13 -1 -13 -6z"/>
<path d="M3376 2613 c26 -41 44 -57 65 -58 24 -2 24 0 -2 36 -17 24 -24 27
-35 18 -11 -9 -14 -8 -14 4 0 8 -7 18 -16 21 -14 6 -14 3 2 -21z"/>
<path d="M3453 2512 c-9 -6 -7 -11 7 -20 16 -10 18 -9 17 8 -1 22 -6 24 -24
12z"/>
<path d="M3255 1795 c21 -17 56 -17 55 0 0 6 -17 11 -38 12 -35 3 -36 2 -17
-12z"/>
<path d="M3330 1766 c0 -9 5 -16 10 -16 6 0 10 4 10 9 0 6 -4 13 -10 16 -5 3
-10 -1 -10 -9z"/>
<path d="M3590 258 c0 -4 7 -8 15 -8 8 0 15 4 15 8 0 5 -7 9 -15 9 -8 0 -15
-4 -15 -9z"/>
<path d="M3535 170 c3 -5 8 -10 11 -10 2 0 4 5 4 10 0 6 -5 10 -11 10 -5 0 -7
-4 -4 -10z"/>
<path d="M2832 30 c0 -14 2 -19 5 -12 2 6 2 18 0 25 -3 6 -5 1 -5 -13z"/>
</g>
</svg>
