<?xml version="1.0" standalone="no"?>
<!DOCTYPE svg PUBLIC "-//W3C//DTD SVG 20010904//EN"
 "http://www.w3.org/TR/2001/REC-SVG-20010904/DTD/svg10.dtd">
<svg version="1.0" xmlns="http://www.w3.org/2000/svg"
 width="2000.000000pt" height="611.000000pt" viewBox="0 0 2000.000000 611.000000"
 preserveAspectRatio="xMidYMid meet">

<g transform="translate(0.000000,611.000000) scale(0.100000,-0.100000)"
fill="#000000" stroke="none">
<path d="M9690 6104 c-14 -2 -68 -12 -120 -20 -133 -23 -312 -84 -439 -149
-450 -234 -740 -696 -835 -1331 -38 -250 -44 -600 -16 -849 109 -968 661
-1580 1475 -1634 337 -23 614 43 850 202 117 79 264 249 311 362 8 19 20 35
28 35 8 0 70 -116 147 -270 l133 -270 88 0 88 0 2 808 3 807 178 3 177 2 0
120 0 120 -760 0 -760 0 0 -120 0 -120 343 -2 342 -3 3 -260 c4 -386 -17 -523
-105 -675 -54 -92 -190 -225 -286 -279 -169 -95 -371 -143 -602 -144 -216 0
-371 37 -541 127 -301 160 -495 446 -576 849 -22 109 -23 127 -23 712 0 653 3
691 62 894 123 426 404 693 823 782 88 19 138 22 305 23 117 0 233 -5 280 -12
247 -40 416 -113 536 -232 128 -127 159 -221 159 -492 l0 -168 195 0 195 0 0
565 0 565 -195 0 -195 0 0 -180 c0 -204 -6 -218 -58 -127 -66 114 -233 239
-392 292 -172 57 -244 67 -530 70 -146 2 -276 1 -290 -1z"/>
<path d="M12010 5925 l0 -124 151 -3 150 -3 560 -1033 559 -1033 -2 -647 -3
-647 -262 -3 -263 -2 0 -125 0 -125 760 0 760 0 0 125 0 125 -260 0 -260 0 0
673 0 672 556 1013 556 1012 149 0 149 0 0 125 0 125 -560 0 -560 0 0 -125 0
-125 245 0 c135 0 245 -3 245 -7 0 -19 -915 -1723 -925 -1723 -10 0 -905 1705
-905 1724 0 3 113 6 250 6 l250 0 0 125 0 125 -670 0 -670 0 0 -125z"/>
<path d="M15730 5925 l0 -125 210 0 210 0 0 -1685 0 -1685 -210 0 -210 0 0
-125 0 -125 565 0 565 0 0 125 0 125 -210 0 -210 0 2 1533 c3 1308 5 1532 17
1532 9 0 82 -149 196 -395 148 -322 983 -2079 1057 -2225 l21 -40 525 1050
c289 578 583 1176 652 1330 78 170 133 280 141 280 12 0 14 -236 17 -1532 l2
-1533 -210 0 -210 0 0 -125 0 -125 650 0 650 0 0 125 0 125 -205 0 -205 0 0
1685 0 1685 205 0 205 0 0 125 0 125 -454 0 -453 0 -594 -1200 c-327 -660
-599 -1200 -605 -1200 -5 0 -264 539 -575 1198 l-566 1197 -486 3 -487 2 0
-125z"/>
<path d="M3335 5680 c-385 -44 -692 -124 -1009 -263 -342 -152 -632 -350 -891
-611 -299 -300 -496 -612 -623 -988 l-37 -108 -91 0 c-112 0 -219 -26 -317
-77 -98 -50 -220 -172 -270 -270 -136 -262 -91 -560 118 -768 129 -130 283
-195 461 -195 l82 0 23 -68 c71 -218 170 -422 294 -608 408 -610 1064 -1050
1825 -1222 286 -65 508 -86 825 -79 407 9 722 69 1075 204 812 310 1426 916
1681 1658 l37 110 119 6 c171 9 278 49 405 152 97 80 179 210 214 338 23 85
23 243 0 329 -29 108 -91 215 -171 294 -132 131 -256 185 -448 195 l-119 6
-37 110 c-302 879 -1111 1563 -2116 1789 -236 53 -371 68 -670 71 -154 2 -316
0 -360 -5z m730 -340 c682 -103 1296 -429 1703 -905 218 -255 365 -528 443
-824 56 -210 61 -214 309 -221 178 -6 187 -7 243 -35 64 -32 123 -90 159 -157
20 -37 23 -58 23 -143 0 -110 -13 -148 -77 -221 -79 -89 -157 -114 -361 -114
-222 0 -242 -15 -297 -224 -209 -795 -930 -1442 -1861 -1671 -786 -193 -1642
-49 -2296 388 -182 121 -273 196 -414 338 -286 289 -468 607 -570 998 -24 90
-57 140 -106 159 -16 6 -104 12 -198 14 -159 3 -174 5 -226 30 -72 33 -134 95
-168 167 -37 80 -37 192 0 272 34 72 96 134 168 167 52 25 68 27 236 32 118 3
188 9 202 18 44 25 72 77 103 191 102 376 284 687 569 972 444 443 1061 724
1734 789 156 15 523 4 682 -20z"/>
<path d="M4084 4859 c-81 -23 -124 -130 -88 -218 27 -62 70 -91 141 -91 107 0
156 46 161 150 4 81 -18 122 -81 150 -45 21 -84 24 -133 9z"/>
<path d="M4720 4682 c-51 -27 -83 -93 -76 -157 9 -84 63 -136 148 -142 65 -5
112 17 146 67 20 30 23 45 20 102 -4 72 -23 104 -80 134 -38 20 -117 18 -158
-4z"/>
<path d="M5233 4254 c-97 -48 -104 -208 -13 -276 56 -41 150 -35 204 13 59 51
69 158 22 225 -36 51 -147 70 -213 38z"/>
<path d="M8288 1664 c-44 -23 -58 -62 -58 -159 0 -92 13 -132 52 -159 20 -14
583 -16 5826 -16 l5804 0 34 34 34 34 0 106 c0 103 -1 107 -29 138 l-29 33
-5804 2 c-5119 2 -5806 0 -5830 -13z"/>
</g>
</svg>
