<?xml version="1.0" standalone="no"?>
<!DOCTYPE svg PUBLIC "-//W3C//DTD SVG 20010904//EN"
 "http://www.w3.org/TR/2001/REC-SVG-20010904/DTD/svg10.dtd">
<svg version="1.0" xmlns="http://www.w3.org/2000/svg"
 width="1024.000000pt" height="1024.000000pt" viewBox="0 0 1024.000000 1024.000000"
 preserveAspectRatio="xMidYMid meet">

<g transform="translate(0.000000,1024.000000) scale(0.100000,-0.100000)"
fill="#000000" stroke="none">
<path d="M120 10200 l0 -40 -40 0 -40 0 0 -40 c0 -23 -9 -58 -20 -80 -23 -44
-26 -86 -7 -93 9 -4 8 -8 -3 -16 -13 -10 -13 -12 0 -21 12 -8 13 -13 3 -30
-10 -16 -13 -1023 -13 -4950 l0 -4930 5120 0 5120 0 0 5120 0 5120 -4934 0
c-4691 0 -4935 -1 -4939 -17 -4 -17 -5 -17 -6 0 -2 26 -39 22 -44 -5 l-4 -23
-2 23 c-1 18 -7 22 -36 22 -28 0 -35 -4 -35 -20 0 -17 -7 -20 -40 -20 -33 0
-40 3 -40 20 0 13 -7 20 -20 20 -17 0 -20 -7 -20 -40z m70 -140 c0 -5 -4 -10
-10 -10 -5 0 -10 5 -10 10 0 6 5 10 10 10 6 0 10 -4 10 -10z m5250 -2245 c472
-53 923 -217 1300 -474 204 -138 339 -251 367 -305 21 -41 19 -124 -5 -155
-36 -48 -70 -66 -127 -65 -29 0 -61 6 -73 15 -11 7 -89 67 -174 131 -304 231
-556 362 -865 452 -414 120 -816 136 -1242 50 -429 -87 -800 -265 -1131 -544
-130 -110 -198 -133 -268 -90 -46 28 -72 76 -72 133 0 62 17 93 83 154 242
220 669 463 1007 571 198 63 482 120 670 135 125 10 409 5 530 -8z m-283 -700
c50 -21 72 -42 94 -90 43 -93 7 -194 -84 -241 -37 -20 -117 -20 -154 0 -66 34
-112 123 -98 189 26 122 136 186 242 142z m-691 -187 c22 -15 93 -75 159 -134
66 -58 197 -173 292 -255 l172 -149 68 61 c178 158 388 265 658 335 105 27
121 29 330 29 218 0 221 0 338 -33 274 -76 469 -189 674 -390 282 -277 468
-664 545 -1137 19 -121 16 -521 -5 -665 -63 -426 -244 -828 -501 -1112 -206
-228 -406 -328 -655 -328 -127 0 -221 19 -310 60 -102 48 -135 75 -541 440
-107 97 -253 227 -325 290 -71 63 -233 207 -360 321 -126 113 -268 239 -315
279 -76 65 -180 159 -475 429 -49 46 -108 92 -130 103 -44 23 -132 28 -175 10
-23 -10 -22 -11 15 -9 38 2 40 0 49 -35 5 -21 13 -38 18 -38 4 0 8 -7 8 -16 0
-19 28 -49 37 -40 11 10 73 -56 73 -77 0 -11 23 -44 50 -73 28 -29 50 -57 50
-63 0 -5 9 -13 20 -16 11 -3 20 -13 20 -21 0 -8 6 -14 13 -14 7 0 33 -20 57
-45 24 -24 47 -42 52 -39 4 3 8 0 8 -6 0 -6 4 -9 9 -6 4 3 16 -3 25 -13 9 -10
34 -26 56 -36 22 -10 40 -23 40 -28 0 -6 10 -2 23 9 12 10 -14 -19 -57 -64
l-80 -81 90 -83 c49 -45 128 -121 177 -167 l88 -85 -108 -108 c-59 -59 -111
-107 -114 -106 -4 2 -67 60 -140 129 -276 259 -311 286 -399 300 -33 5 -88 13
-122 19 -200 31 -374 201 -429 421 -28 108 -23 261 11 358 29 81 107 199 168
251 136 118 356 159 541 101 61 -19 90 -36 176 -104 28 -22 -30 38 -127 134
-117 114 -183 187 -193 211 -21 53 -19 154 5 203 11 22 18 31 17 20 -1 -11 4
-20 13 -21 33 -2 37 -5 48 -29 7 -14 21 -29 31 -33 11 -4 41 -27 68 -52 27
-25 60 -52 74 -60 15 -8 42 -27 60 -42 110 -89 202 -159 227 -172 16 -8 35
-22 43 -32 7 -9 30 -27 49 -41 71 -48 95 -68 95 -79 0 -6 -40 -55 -88 -107
-49 -53 -88 -100 -87 -104 1 -7 194 -179 534 -477 l67 -59 67 65 67 66 31 -21
c17 -12 56 -41 85 -63 30 -23 73 -51 95 -62 22 -11 46 -28 53 -36 7 -9 37 -27
65 -40 29 -14 61 -36 72 -50 10 -14 24 -26 32 -26 17 0 48 -19 84 -51 17 -16
37 -25 48 -22 10 3 21 -1 25 -8 5 -7 4 -10 -2 -6 -5 3 -10 0 -10 -8 0 -8 4
-12 8 -10 12 8 39 -6 39 -21 0 -8 5 -14 11 -14 19 0 99 -72 92 -83 -3 -5 -1
-7 5 -3 15 9 165 -141 187 -189 38 -80 17 -232 -40 -295 -13 -15 -12 -19 13
-41 140 -128 282 -176 430 -145 185 38 330 158 488 402 138 213 230 482 268
782 71 555 -91 1103 -433 1464 -142 150 -284 244 -465 307 -334 117 -703 59
-1029 -161 -74 -50 -127 -97 -126 -112 0 -6 55 -58 121 -116 67 -58 212 -185
322 -284 351 -312 358 -316 528 -340 58 -8 130 -24 160 -36 185 -69 337 -247
368 -431 44 -263 -72 -528 -284 -648 -86 -49 -158 -65 -286 -65 -229 0 -326
52 -665 359 -294 266 -684 616 -859 770 -101 88 -303 268 -450 400 -475 427
-487 435 -621 455 -135 21 -235 -15 -356 -127 -209 -194 -363 -530 -404 -881
-15 -125 -31 -163 -86 -200 -72 -49 -192 -8 -220 75 -17 51 -5 255 21 363 118
489 402 910 708 1051 90 42 173 59 291 59 121 0 197 -17 296 -67 111 -56 88
-37 706 -583 140 -124 394 -349 564 -500 171 -151 340 -302 378 -334 l67 -58
45 41 c25 23 77 73 116 111 l71 70 -48 43 c-27 23 -116 103 -198 177 -82 74
-230 207 -331 295 -191 168 -498 442 -600 535 -33 30 -141 125 -240 211 -238
206 -255 226 -255 287 0 56 26 103 72 133 49 30 151 23 204 -13z m1665 -759
c40 -14 94 -62 116 -103 23 -45 13 -126 -22 -171 -58 -77 -156 -93 -237 -40
-40 26 -77 89 -78 130 0 71 64 167 124 184 43 13 58 13 97 0z m-2426 -293 c94
-40 101 -194 10 -232 -97 -40 -185 16 -185 119 0 52 27 92 74 113 40 17 59 17
101 0z m2964 -4 c67 -34 90 -121 48 -183 -75 -111 -227 -59 -227 79 0 46 29
88 74 108 42 18 65 17 105 -4z m-4348 -839 c16 -9 36 -33 45 -52 15 -31 15
-40 3 -75 -15 -45 -67 -86 -106 -86 -63 0 -113 56 -113 126 0 28 8 44 34 70
39 39 89 45 137 17z m5770 -22 c33 -34 39 -83 14 -131 -19 -37 -43 -50 -94
-50 -79 0 -132 80 -97 148 22 43 54 62 104 62 35 0 49 -6 73 -29z m-5260 -334
c47 -32 74 -86 98 -197 60 -274 187 -527 368 -732 159 -181 352 -305 568 -364
121 -34 313 -43 440 -21 243 43 388 124 608 342 l109 106 51 -48 c29 -26 118
-105 197 -175 508 -444 667 -588 693 -624 18 -25 31 -60 34 -87 14 -119 -125
-211 -232 -155 -16 9 -111 90 -210 180 -234 211 -503 448 -511 448 -3 0 -31
-20 -62 -44 -172 -131 -398 -227 -632 -268 -109 -18 -356 -15 -462 5 -474 93
-883 433 -1123 932 -83 173 -153 406 -162 540 -5 72 -3 83 18 114 49 70 145
92 210 48z m876 -637 c61 -37 84 -126 46 -179 -50 -69 -140 -76 -200 -16 -99
99 34 269 154 195z m3011 -25 c32 -34 34 -41 30 -87 -7 -71 -47 -110 -120
-116 -47 -4 -58 -1 -86 23 -17 14 -37 43 -43 64 -10 33 -8 45 9 85 25 56 65
78 132 72 36 -3 51 -11 78 -41z m-2498 -117 c52 -36 75 -74 74 -121 -2 -114
-110 -185 -208 -137 -56 27 -86 72 -86 131 0 116 128 189 220 127z m-850 -866
c19 -10 104 -68 189 -129 261 -188 486 -302 778 -396 503 -162 1030 -170 1542
-22 337 97 571 215 874 441 81 61 154 108 178 114 54 15 106 -1 149 -44 27
-29 34 -45 38 -89 7 -91 -13 -115 -233 -274 -209 -152 -390 -253 -605 -340
-331 -134 -625 -201 -974 -223 -692 -43 -1368 162 -1954 594 -133 98 -159 121
-183 168 -24 48 -24 81 2 135 36 75 125 104 199 65z m1799 -62 c70 -35 107
-106 98 -187 -11 -97 -111 -168 -211 -149 -80 15 -146 97 -146 181 0 54 37
124 79 152 44 30 126 31 180 3z"/>
</g>
</svg>
