<?xml version="1.0" standalone="no"?>
<!DOCTYPE svg PUBLIC "-//W3C//DTD SVG 20010904//EN"
 "http://www.w3.org/TR/2001/REC-SVG-20010904/DTD/svg10.dtd">
<svg version="1.0" xmlns="http://www.w3.org/2000/svg"
 width="800.000000pt" height="800.000000pt" viewBox="0 0 800.000000 800.000000"
 preserveAspectRatio="xMidYMid meet">

<g transform="translate(0.000000,800.000000) scale(0.100000,-0.100000)"
fill="#000000" stroke="none">
<path d="M4645 7943 c-69 -13 -92 -13 -128 2 -13 6 -16 4 -11 -10 6 -14 1 -16
-37 -14 -24 1 -55 -1 -69 -5 -14 -3 -47 -8 -75 -10 -27 -2 -66 -9 -85 -15 -48
-15 -100 -14 -100 2 0 7 7 23 16 35 21 30 11 28 -26 -7 -18 -16 -58 -37 -89
-46 -31 -10 -69 -23 -86 -30 -16 -7 -43 -17 -58 -24 -15 -6 -36 -11 -45 -11
-10 0 -26 -12 -37 -26 -22 -29 -46 -94 -35 -94 3 0 6 -10 5 -22 -1 -14 -11
-25 -28 -31 -15 -5 -27 -13 -27 -18 0 -6 5 -7 10 -4 14 9 13 -58 -2 -73 -6 -6
-9 -14 -5 -18 10 -11 27 7 27 29 0 26 45 71 61 62 6 -4 8 -18 5 -31 -5 -19 -3
-22 11 -18 12 4 14 3 6 -3 -6 -4 -14 -20 -18 -35 -4 -15 -13 -29 -21 -32 -24
-9 -15 -23 11 -18 28 5 29 3 13 -33 l-11 -25 -22 20 c-27 25 -70 22 -112 -8
-39 -27 -47 -28 -31 -2 7 11 17 20 23 20 21 0 47 42 41 66 -8 30 -27 31 -46 3
-19 -27 -62 -69 -72 -69 -4 0 -10 5 -13 10 -10 17 -35 11 -35 -7 0 -10 -5 -25
-11 -33 -8 -11 -9 -6 -5 23 5 42 -18 54 -28 14 -5 -20 -10 -23 -37 -19 -22 3
-30 1 -25 -7 6 -9 -85 -111 -99 -111 -3 0 -2 14 2 30 3 18 1 30 -5 30 -5 0 -8
10 -5 23 4 19 3 20 -9 6 -7 -8 -26 -15 -43 -15 -27 1 -30 -2 -28 -28 1 -16 8
-33 15 -38 10 -6 9 -12 -6 -23 -28 -22 -34 -19 -41 18 -5 23 -12 33 -25 33
-15 0 -16 -5 -9 -23 5 -14 5 -23 -1 -23 -6 0 -10 -9 -10 -20 0 -11 3 -20 8
-20 4 0 6 -21 4 -46 -4 -43 -5 -44 -22 -29 -10 9 -32 43 -50 76 -17 33 -34 58
-37 56 -2 -3 0 -14 5 -24 16 -30 25 -120 13 -128 -6 -3 -11 -3 -12 2 -4 40
-19 71 -19 39 0 -13 -6 -17 -20 -13 -11 3 -22 1 -25 -3 -9 -14 -94 22 -101 42
-6 20 -19 24 -29 8 -8 -12 -37 -1 -53 22 -7 10 -22 18 -32 18 -16 0 -19 -6
-16 -30 3 -30 -17 -43 -27 -17 -4 9 -8 9 -14 0 -8 -11 -142 -43 -185 -43 l-23
0 25 -20 c28 -21 28 -21 -17 -44 -18 -9 -45 -29 -61 -44 -16 -15 -43 -38 -60
-51 -18 -13 -32 -30 -32 -38 0 -8 -11 -31 -25 -51 -14 -20 -25 -40 -25 -44 0
-15 41 -8 46 7 4 9 11 15 18 14 30 -4 56 2 70 17 9 8 20 13 24 10 5 -3 20 1
33 8 39 20 156 27 170 10 8 -9 16 -11 23 -5 15 12 38 -1 34 -20 -2 -7 7 -18
20 -24 25 -11 31 -31 6 -21 -9 3 -24 6 -35 6 -10 0 -19 6 -19 13 0 8 -18 12
-58 11 -39 0 -56 -4 -54 -12 1 -7 -5 -12 -13 -12 -8 0 -15 5 -15 10 0 6 -5 10
-11 10 -6 0 -9 -7 -5 -15 3 -9 0 -15 -8 -15 -8 0 -17 -7 -20 -16 -9 -22 -8
-24 9 -24 8 0 15 5 15 10 0 6 18 10 40 10 22 0 40 5 40 10 0 6 7 10 16 10 8 0
13 -4 10 -9 -3 -5 3 -11 14 -14 11 -3 23 -1 26 4 7 12 24 12 24 -1 0 -16 -59
-42 -80 -35 -25 8 -48 -4 -30 -15 10 -6 9 -12 -2 -29 -15 -21 -83 -71 -97 -71
-4 0 -18 -10 -31 -22 -15 -14 -25 -18 -27 -11 -3 7 -17 -2 -33 -20 -25 -28
-27 -34 -14 -44 13 -9 10 -12 -15 -18 -32 -7 -41 -20 -19 -27 9 -3 8 -9 -4
-21 -17 -18 -23 -91 -6 -81 6 4 8 1 6 -7 -3 -8 -11 -13 -17 -12 -12 3 -51 -27
-51 -39 0 -5 6 -8 13 -8 7 0 13 -9 14 -20 1 -11 -3 -20 -8 -20 -6 0 -7 -14 -3
-35 4 -25 1 -43 -10 -60 -9 -13 -16 -31 -16 -40 0 -9 -4 -13 -10 -10 -5 3 -10
0 -11 -7 -2 -63 -8 -91 -21 -106 -9 -9 -22 -35 -29 -57 -7 -22 -19 -47 -27
-56 -10 -13 -11 -18 -1 -21 10 -3 7 -16 -9 -51 -18 -38 -20 -51 -11 -71 10
-22 8 -30 -21 -65 -17 -23 -36 -41 -42 -41 -6 0 -22 -12 -35 -26 -30 -33 -39
-26 -19 15 9 16 16 37 16 46 0 21 57 78 70 70 6 -4 7 1 3 10 -5 13 -7 14 -14
3 -5 -7 -9 -9 -9 -5 0 4 7 19 16 32 22 33 9 32 -23 -2 l-26 -28 7 30 c4 17 17
38 29 47 19 15 20 19 7 27 -24 16 -21 90 6 131 25 35 33 77 13 65 -17 -11 -39
27 -27 48 15 29 -1 34 -22 7 -10 -14 -15 -27 -11 -30 15 -10 -26 -80 -46 -80
-7 0 -13 -7 -13 -15 0 -8 8 -15 18 -15 9 0 23 -4 31 -9 11 -7 9 -14 -12 -34
-15 -13 -27 -29 -27 -34 0 -5 -16 -23 -35 -40 -30 -27 -41 -52 -37 -84 1 -4
-6 -6 -16 -5 -13 1 -18 -10 -22 -44 -3 -25 -12 -56 -19 -69 -7 -12 -11 -32 -8
-42 3 -10 1 -22 -4 -25 -6 -3 -5 -11 2 -20 9 -11 8 -14 -9 -14 -17 0 -36 -30
-33 -52 0 -4 -9 -7 -21 -5 -20 2 -22 -2 -19 -43 1 -25 6 -49 11 -54 5 -5 4
-20 -2 -35 -6 -14 -12 -37 -14 -51 -2 -14 -11 -59 -20 -100 -11 -54 -17 -143
-19 -320 -2 -135 -6 -259 -8 -276 -7 -41 10 -258 24 -307 6 -22 15 -64 20 -95
6 -32 16 -93 24 -137 8 -44 19 -102 24 -130 11 -52 79 -195 93 -195 4 0 8 -6
8 -14 0 -15 67 -148 79 -156 4 -3 23 -35 41 -72 19 -37 40 -70 47 -72 7 -3 10
1 7 8 -3 7 4 40 15 72 16 50 24 59 44 61 22 1 25 -2 21 -23 -3 -16 3 -35 16
-51 23 -30 27 -89 6 -119 -12 -17 -12 -27 6 -74 11 -30 27 -72 34 -93 8 -21
12 -43 9 -48 -4 -5 -1 -9 6 -9 10 0 10 -3 2 -11 -8 -8 -8 -20 -1 -40 7 -22 6
-33 -6 -51 -15 -21 -14 -24 8 -48 30 -32 37 -62 18 -80 -14 -12 -12 -15 11
-23 15 -5 27 -15 27 -23 0 -8 5 -14 10 -14 6 0 10 -7 10 -16 0 -12 -6 -15 -22
-11 -25 6 -66 -17 -49 -27 5 -3 21 -2 35 4 29 11 42 -2 37 -38 -1 -13 3 -29 9
-37 6 -8 9 -19 5 -25 -9 -14 4 -52 16 -45 5 4 9 -3 9 -13 0 -11 7 -33 15 -48
8 -16 15 -48 15 -71 0 -23 6 -48 13 -55 14 -15 57 -117 58 -138 0 -8 11 -35
24 -60 45 -86 63 -125 67 -145 3 -20 34 -55 49 -55 12 0 52 -71 55 -99 2 -18
-7 -33 -36 -58 -28 -24 -48 -56 -75 -121 -35 -85 -39 -91 -100 -130 -35 -23
-66 -42 -69 -42 -22 0 -182 -81 -236 -120 -111 -80 -175 -119 -219 -135 -24
-8 -64 -26 -89 -39 -71 -36 -187 -86 -200 -86 -6 0 -35 -11 -64 -24 -89 -40
-247 -106 -254 -106 -4 0 -54 -20 -113 -44 -58 -25 -173 -64 -256 -89 -522
-154 -747 -231 -903 -307 -32 -15 -60 -26 -64 -23 -4 2 -6 106 -3 231 3 125 7
345 10 490 l5 263 -23 -7 c-49 -15 -47 28 -47 -895 l0 -869 4000 0 4000 0 0
608 0 608 -37 0 c-55 0 -236 23 -318 40 -38 8 -112 15 -164 15 -96 0 -310 33
-436 67 -38 11 -153 45 -253 76 -101 31 -190 56 -197 56 -7 0 -91 25 -187 56
-254 82 -354 121 -429 166 -25 15 -64 34 -87 42 -54 19 -128 61 -175 98 -21
16 -69 44 -107 62 -56 26 -76 41 -101 79 -17 27 -57 69 -88 94 -56 46 -65 64
-47 94 6 10 5 28 -2 49 -7 18 -9 36 -6 41 3 5 0 9 -5 9 -6 0 -11 7 -11 16 0 8
5 12 10 9 6 -3 10 -1 10 6 0 8 4 8 15 -1 8 -7 15 -20 15 -29 0 -13 2 -14 9 -2
5 8 7 20 4 28 -4 9 0 11 11 7 9 -3 16 -1 16 6 0 22 59 -35 59 -57 1 -13 -3
-23 -9 -23 -5 0 -14 -9 -20 -20 -9 -17 -8 -19 7 -13 10 3 31 17 46 30 16 13
34 23 40 23 6 0 1 7 -11 16 -15 10 -20 20 -14 27 15 20 23 65 12 72 -6 4 -8
11 -4 16 3 5 10 7 15 4 5 -3 6 1 2 10 -3 10 0 21 7 25 11 7 5 20 -25 56 -21
25 -40 56 -41 68 -1 11 -3 25 -3 29 -1 5 -5 5 -11 2 -5 -3 -10 0 -10 8 0 8 12
18 28 22 25 7 25 8 7 15 -19 7 -19 8 -2 15 19 8 89 1 121 -11 13 -5 17 -3 14
7 -4 13 41 59 60 59 6 0 25 19 43 42 19 24 37 46 41 49 9 6 11 16 22 89 5 37
3 49 -13 66 -11 12 -31 43 -44 70 -26 52 -23 72 14 86 9 4 16 19 17 37 1 34
10 54 21 47 4 -3 6 7 3 22 -3 20 4 34 25 54 40 38 50 51 57 79 7 24 27 70 52
122 8 16 14 41 14 55 0 15 5 43 11 62 12 38 21 80 43 214 8 48 18 96 21 105 4
9 8 77 11 151 7 251 14 347 28 396 18 67 21 125 20 359 0 203 -8 346 -20 399
-5 21 -4 27 5 22 20 -13 15 26 -33 253 -19 89 -23 127 -16 136 7 8 7 16 2 19
-16 10 -43 106 -36 128 3 12 2 18 -3 15 -5 -3 -8 14 -7 40 2 25 -1 54 -6 63
-5 10 -11 45 -14 78 -2 32 -9 68 -15 80 -13 25 -14 45 -2 38 5 -4 3 17 -5 46
-7 29 -11 63 -8 75 7 27 -14 152 -28 170 -11 14 -2 63 11 63 5 0 1 23 -10 50
-10 28 -19 67 -19 88 0 88 -66 324 -134 477 -23 51 -28 85 -12 79 15 -6 44
-67 48 -103 2 -14 9 -26 15 -29 9 -2 11 5 6 29 -5 27 -4 31 10 26 20 -8 22 6
4 25 -17 17 -57 86 -98 168 -29 59 -67 112 -125 175 -12 13 -24 31 -28 40 -3
10 -12 15 -21 11 -8 -3 -15 0 -15 7 0 7 -16 21 -35 31 -19 10 -42 26 -52 35
-97 88 -205 146 -315 168 -18 3 -52 34 -100 89 -132 153 -237 197 -393 167z
m313 -181 c38 -34 40 -41 9 -38 -33 3 -44 12 -49 41 -7 32 1 32 40 -3z m-1148
-48 c0 -8 -5 -12 -10 -9 -6 4 -8 11 -5 16 9 14 15 11 15 -7z m1405 -64 c3 -5
-3 -10 -14 -10 -11 0 -23 5 -26 10 -3 6 3 10 14 10 11 0 23 -4 26 -10z m-1336
-122 c-12 -24 -24 -38 -26 -31 -5 15 24 73 37 73 6 0 1 -19 -11 -42z m170 20
c-1 -20 -33 -71 -44 -70 -17 1 -15 16 5 50 20 32 41 43 39 20z m-84 -47 c0
-24 -2 -26 -22 -16 -26 11 -27 18 -13 46 14 25 35 7 35 -30z m1621 -229 c-8
-7 -25 8 -37 31 -11 21 -10 21 15 -2 14 -14 24 -26 22 -29z m-1666 28 c0 -5
-5 -10 -11 -10 -5 0 -7 5 -4 10 3 6 8 10 11 10 2 0 4 -4 4 -10z m90 -10 c0 -5
-14 -10 -31 -10 -17 0 -28 4 -24 10 3 6 17 10 31 10 13 0 24 -4 24 -10z m-180
-30 c0 -5 -9 -10 -21 -10 -11 0 -17 5 -14 10 3 6 13 10 21 10 8 0 14 -4 14
-10z m35 0 c3 -5 -1 -10 -10 -10 -9 0 -13 5 -10 10 3 6 8 10 10 10 2 0 7 -4
10 -10z m-793 -103 c12 -20 -4 -29 -21 -13 -10 9 -25 16 -34 16 -9 0 -19 5
-22 11 -9 14 68 0 77 -14z m-222 -17 c0 -5 -7 -7 -15 -4 -8 4 -15 8 -15 10 0
2 7 4 15 4 8 0 15 -4 15 -10z m-217 -42 c3 -10 9 -10 26 0 28 16 66 15 81 -3
15 -18 7 -21 -70 -28 -30 -3 -68 -11 -85 -18 -16 -7 -33 -12 -37 -11 -5 1 -8
-3 -8 -9 0 -6 -10 -9 -22 -8 -13 2 -29 0 -35 -4 -18 -11 -17 18 1 32 23 19
109 60 128 60 9 1 18 -5 21 -11z m863 -57 c-10 -16 5 -41 25 -41 10 0 28 -9
38 -19 11 -11 36 -27 58 -37 42 -21 54 -30 121 -91 25 -24 49 -43 54 -43 4 0
8 -16 8 -35 0 -27 4 -35 18 -35 10 0 23 5 29 11 22 22 27 -31 5 -60 -13 -18
-18 -38 -16 -57 2 -16 1 -23 -2 -16 -3 6 -17 12 -30 12 -18 0 -24 -5 -24 -22
0 -14 -3 -18 -8 -11 -8 13 -36 21 -39 11 -1 -4 0 -15 4 -23 10 -26 -6 -30 -30
-6 -16 15 -30 19 -43 14 -25 -9 -43 -34 -36 -51 2 -8 -7 -25 -22 -38 -19 -19
-26 -21 -26 -9 0 8 -4 15 -9 15 -15 0 -23 -18 -12 -25 14 -8 2 -35 -15 -35 -8
0 -14 -5 -14 -11 0 -14 -48 -62 -78 -78 -17 -9 -22 -9 -22 1 0 9 -3 9 -10 -2
-8 -12 -10 -11 -10 5 0 14 -7 21 -20 22 -11 1 -20 -2 -20 -8 0 -5 5 -9 10 -9
6 0 10 -11 10 -25 0 -14 -4 -25 -9 -25 -5 0 -13 -15 -17 -32 -7 -32 -8 -33
-15 -8 l-7 25 -1 -27 c-1 -16 -6 -28 -12 -28 -5 0 -15 -13 -20 -30 -6 -16 -15
-27 -20 -24 -5 3 -9 -10 -9 -29 0 -29 -3 -34 -17 -31 -10 3 -27 -1 -37 -9 -19
-14 -19 -15 2 -26 12 -6 22 -16 22 -22 0 -6 -4 -8 -9 -4 -5 3 -13 0 -16 -5 -4
-6 -18 -15 -32 -21 -15 -5 -21 -13 -17 -21 6 -9 9 -9 12 0 2 7 10 5 24 -8 18
-16 22 -17 35 -5 8 8 11 19 8 25 -3 5 -1 10 4 10 6 0 11 -4 11 -9 0 -5 3 -17
7 -27 4 -12 3 -15 -5 -10 -6 4 -28 -9 -49 -28 -32 -30 -35 -37 -23 -46 11 -7
18 -5 27 7 16 21 26 12 26 -23 0 -24 2 -26 33 -21 19 3 34 2 34 -4 0 -5 14 -9
31 -9 24 0 30 -4 25 -15 -3 -8 -1 -27 5 -42 8 -22 12 -24 19 -13 8 12 10 10
10 -8 0 -19 4 -22 20 -17 11 3 20 3 19 -2 -2 -22 -38 -69 -63 -81 -23 -12 -26
-18 -21 -45 8 -41 9 -68 4 -87 -3 -10 3 -14 19 -13 12 2 22 -2 22 -7 0 -9 -15
-14 -34 -11 -13 3 -36 -20 -30 -30 3 -5 -2 -12 -10 -15 -8 -3 -18 -15 -22 -26
-4 -13 -12 -18 -25 -15 -12 3 -20 -2 -24 -14 -4 -10 -13 -19 -21 -19 -8 0 -14
-4 -14 -10 0 -18 -19 -10 -25 11 -7 21 -7 21 -31 -5 -17 -18 -35 -26 -57 -26
-41 0 -103 -17 -119 -33 -7 -7 -33 -21 -58 -32 -25 -10 -61 -32 -81 -47 -20
-15 -46 -28 -58 -28 -12 0 -21 -6 -21 -15 0 -10 -10 -15 -29 -15 -15 0 -42 -5
-60 -11 -25 -9 -29 -14 -20 -25 9 -11 8 -14 -5 -14 -9 0 -19 -7 -22 -15 -4 -8
-14 -15 -23 -15 -9 0 -23 -5 -31 -11 -11 -8 3 -9 49 -4 58 6 63 5 52 -9 -8 -9
-21 -16 -30 -17 -9 0 1 -7 22 -16 26 -11 36 -20 33 -30 -3 -8 -6 -23 -6 -34 0
-10 -7 -19 -15 -19 -10 0 -15 -10 -15 -30 0 -16 -4 -30 -9 -30 -5 0 -12 -28
-16 -62 -8 -79 -24 -130 -44 -145 -14 -11 -13 -15 9 -35 14 -13 24 -31 22 -40
-2 -11 3 -18 12 -18 18 0 21 -16 6 -25 -14 -9 33 -56 57 -57 10 -1 57 2 104 6
86 8 86 7 107 -19 16 -21 19 -32 12 -45 -14 -26 -14 -26 26 -49 29 -17 35 -26
32 -48 -2 -19 3 -30 17 -38 12 -6 19 -17 17 -29 -2 -10 1 -23 7 -29 17 -17 13
-31 -4 -17 -12 10 -16 9 -21 -4 -3 -9 -12 -16 -19 -16 -7 0 -15 -6 -18 -14 -3
-8 -19 -17 -36 -21 -17 -4 -34 -11 -37 -17 -4 -6 -2 -8 4 -4 7 4 10 -6 9 -29
-2 -32 -4 -35 -27 -30 -27 5 -53 -6 -48 -21 3 -11 -21 -57 -36 -66 -16 -11
-28 -10 -21 2 3 6 -1 10 -9 10 -21 0 -89 -67 -81 -80 9 -15 35 -12 35 5 0 8 5
15 10 15 6 0 10 -4 10 -10 0 -5 8 -10 18 -11 10 0 12 -3 5 -6 -19 -7 -16 -41
7 -65 14 -15 23 -18 32 -11 8 6 21 7 33 2 11 -4 14 -8 8 -8 -7 -1 -13 -13 -13
-27 0 -23 -3 -25 -24 -20 -27 7 -36 -7 -37 -57 l-1 -32 -10 28 c-5 15 -15 27
-22 27 -18 0 -15 62 4 77 13 11 13 12 -3 13 -10 0 -22 10 -28 23 -9 21 -9 21
-6 -5 2 -15 -1 -29 -8 -32 -13 -5 -45 -61 -45 -79 0 -13 -30 -47 -42 -47 -4 0
-8 7 -8 15 0 14 -3 13 -25 -1 -23 -15 -50 -78 -39 -95 2 -4 0 -10 -6 -14 -15
-9 -12 -51 5 -68 11 -11 12 -22 4 -51 -11 -38 -39 -50 -39 -16 0 18 -14 25
-46 21 -6 -1 -10 16 -10 40 1 34 -3 43 -21 50 -15 5 -21 14 -17 24 5 11 2 14
-11 9 -15 -6 -16 -4 -6 13 8 16 5 33 -14 79 -13 33 -26 68 -30 79 -5 16 -8 17
-16 5 -8 -11 -9 -8 -5 13 5 20 2 27 -8 27 -10 0 -14 10 -14 28 1 15 -5 38 -11
51 -8 14 -10 39 -6 64 5 39 5 41 -9 23 -9 -11 -18 -17 -21 -15 -7 8 6 49 16
49 5 0 9 11 9 25 0 29 -15 33 -29 8 -5 -10 -12 -15 -15 -12 -4 3 3 18 15 33
15 19 20 35 15 56 -3 16 -2 32 3 34 5 3 9 43 10 88 2 123 25 266 72 453 11 44
24 100 29 125 13 68 58 267 75 332 19 75 32 348 16 348 -10 0 -12 25 -11 140
1 86 9 230 13 255 20 108 81 285 98 285 5 0 9 6 9 14 0 16 60 108 94 146 13
14 42 53 65 87 23 35 60 81 81 102 22 22 40 44 40 50 0 6 5 11 10 11 6 0 16
11 22 25 6 14 18 25 26 25 8 0 30 16 49 35 19 19 39 35 44 35 21 0 6 21 -38
50 -28 19 -49 28 -51 21 -5 -16 -28 -13 -43 6 -12 15 -12 16 5 10 18 -7 18 -6
2 17 l-16 25 47 -21 c26 -11 67 -31 91 -44 42 -22 45 -23 70 -6 15 9 42 34 61
55 23 25 40 35 52 32 9 -3 20 -1 24 5 8 14 76 44 93 41 8 -1 23 4 35 11 12 8
37 15 56 16 18 2 41 7 50 12 21 12 44 13 37 1z m2194 -41 c12 -23 12 -24 -3
-11 -10 7 -17 20 -17 29 0 18 3 16 20 -18z m10 -38 c7 2 17 -11 22 -31 12 -43
4 -51 -13 -12 -8 17 -20 31 -26 31 -7 0 -13 8 -13 18 0 13 2 14 9 4 4 -7 14
-12 21 -10z m47 -104 c-3 -8 -6 -5 -6 6 -1 11 2 17 5 13 3 -3 4 -12 1 -19z
m-3667 -877 c0 -5 -6 -16 -13 -23 -7 -7 -17 -22 -22 -33 -7 -19 -8 -19 -12 -2
-3 10 5 28 19 42 27 27 28 28 28 16z m-5 -291 c8 0 16 -4 19 -9 8 -12 -27 -9
-36 4 -4 5 -31 -17 -61 -48 -57 -59 -93 -81 -41 -25 61 67 99 99 102 89 2 -6
10 -11 17 -11z m1025 -354 c0 -9 -40 -13 -46 -5 -3 5 6 9 20 9 14 0 26 -2 26
-4z m-385 -146 c3 -6 -1 -7 -9 -4 -18 7 -21 14 -7 14 6 0 13 -4 16 -10z m-691
-534 c-3 -8 -14 -16 -24 -19 -14 -4 -17 -1 -12 12 7 19 23 31 34 25 4 -3 5
-11 2 -18z m1967 -569 c14 -13 26 -30 27 -38 0 -8 2 -41 5 -74 2 -33 0 -66 -6
-72 -5 -7 -6 -21 -2 -30 4 -10 7 -30 6 -45 -2 -16 3 -28 9 -28 9 0 9 -4 3 -12
-6 -7 -13 -26 -17 -41 -4 -15 -10 -26 -15 -23 -4 3 -6 -6 -3 -19 2 -15 0 -25
-7 -25 -6 0 -11 -9 -11 -19 0 -10 -6 -21 -12 -24 -7 -2 -19 -25 -26 -50 -13
-42 -32 -62 -57 -59 -5 1 -3 -4 6 -10 15 -10 13 -14 -18 -30 -28 -15 -49 -18
-107 -14 -39 3 -88 12 -108 20 -30 13 -38 13 -47 2 -6 -7 -8 -21 -5 -31 6 -15
4 -16 -14 -6 -50 26 -64 110 -34 202 11 35 23 87 27 114 9 73 14 85 35 85 11
0 27 11 35 24 18 26 66 41 77 23 5 -8 8 -6 8 4 0 10 11 20 25 23 14 4 23 11
20 17 -9 14 22 59 41 59 8 0 18 8 21 18 9 23 44 51 66 52 9 0 17 7 17 15 0 22
31 18 61 -8z m-1204 -359 c-3 -8 -6 -5 -6 6 -1 11 2 17 5 13 3 -3 4 -12 1 -19z
m21 -260 c6 -7 9 -31 8 -53 -4 -71 -29 -89 -41 -28 -4 21 -12 41 -18 45 -8 5
-5 13 7 27 22 24 30 26 44 9z m875 -96 c25 -34 29 -47 21 -60 -17 -26 -61 -39
-84 -24 -17 10 -20 10 -20 -3 0 -13 -4 -14 -20 -5 -25 13 -27 32 -2 23 15 -6
15 -5 3 10 -7 9 -11 17 -7 17 17 0 22 3 29 16 4 8 5 19 2 24 -3 6 -2 10 3 10
5 0 12 9 15 21 8 29 24 21 60 -29z m-373 -82 c-8 -6 -23 -10 -33 -10 -25 0
-77 -40 -77 -59 0 -13 -3 -12 -17 2 -17 17 -17 19 7 37 14 11 33 20 42 20 9 0
19 4 22 8 3 5 20 9 38 10 23 1 28 -2 18 -8z m-490 -20 c-24 -19 -24 -19 -2
-13 25 6 31 -12 6 -21 -25 -9 -34 -7 -34 8 0 18 27 46 43 46 7 0 1 -9 -13 -20z
m485 -30 c-3 -5 -13 -10 -21 -10 -8 0 -14 5 -14 10 0 6 9 10 21 10 11 0 17 -4
14 -10z m-26 -37 c7 -15 5 -18 -15 -19 -26 -2 -30 6 -12 24 15 15 16 15 27 -5z
m-199 -32 c0 -5 -10 -11 -22 -15 -36 -9 -41 -7 -28 9 13 16 50 21 50 6z m80
-61 c-20 -13 -43 -13 -35 0 3 6 16 10 28 10 18 0 19 -2 7 -10z m-126 -46 c-58
-15 -70 -17 -60 -6 11 11 90 30 100 24 5 -3 -13 -11 -40 -18z m107 -14 c-22
-19 -51 -27 -51 -15 0 6 59 34 70 34 3 0 -6 -9 -19 -19z m-156 -30 c3 -5 1
-10 -4 -10 -6 0 -11 5 -11 10 0 6 2 10 4 10 3 0 8 -4 11 -10z m2755 -131 c0
-4 -8 -10 -17 -14 -14 -5 -15 -3 -6 6 6 6 9 19 6 28 -4 14 -3 14 6 1 6 -8 11
-18 11 -21z m25 -38 c3 -5 2 -12 -3 -15 -5 -3 -9 1 -9 9 0 17 3 19 12 6z
m-245 -456 c14 -19 14 -19 -2 -6 -10 7 -18 18 -18 24 0 6 1 8 3 6 1 -2 9 -13
17 -24z m-120 -59 c0 -3 -4 -8 -10 -11 -5 -3 -10 -1 -10 4 0 6 5 11 10 11 6 0
10 -2 10 -4z m-2602 -303 c20 -46 38 -73 57 -87 10 -7 20 -22 21 -32 2 -10 8
-20 13 -22 6 -2 11 -15 11 -28 0 -13 4 -24 9 -24 6 0 13 -20 16 -44 4 -25 13
-47 21 -50 8 -3 14 -13 14 -22 0 -9 6 -22 14 -28 8 -6 16 -31 17 -56 3 -57 8
-66 24 -44 7 11 19 15 29 11 14 -6 16 -14 11 -38 -5 -21 -4 -29 4 -25 13 8 51
-15 51 -31 0 -7 4 -13 9 -13 17 0 59 -48 50 -57 -13 -13 -1 -41 22 -54 27 -14
24 -37 -6 -45 -27 -7 -34 -29 -12 -37 15 -6 21 -64 7 -72 -4 -3 -6 -14 -3 -25
4 -14 -1 -21 -19 -25 -14 -4 -32 -20 -42 -36 -15 -26 -22 -30 -45 -24 -32 8
-71 43 -71 63 0 9 -6 23 -14 31 -37 44 -194 377 -231 491 -45 141 -44 255 3
328 19 29 25 28 40 -5z"/>
<path d="M3180 5991 c0 -5 -9 -11 -20 -14 -29 -8 -25 -25 5 -19 16 3 25 11 25
23 0 11 -2 19 -5 19 -3 0 -5 -4 -5 -9z"/>
<path d="M3353 5826 c3 -8 1 -16 -6 -19 -8 -2 -6 -9 6 -21 16 -17 17 -16 17
18 0 20 -5 36 -11 36 -6 0 -9 -6 -6 -14z"/>
<path d="M3106 1465 c4 -8 11 -15 16 -15 6 0 5 6 -2 15 -7 8 -14 15 -16 15 -2
0 -1 -7 2 -15z"/>
<path d="M3733 7740 c-36 -21 -67 -68 -39 -57 8 3 18 2 21 -4 4 -5 11 -4 18 3
14 15 39 69 34 74 -1 2 -17 -5 -34 -16z"/>
<path d="M3170 7515 c0 -5 5 -17 10 -25 5 -8 10 -10 10 -5 0 6 -5 17 -10 25
-5 8 -10 11 -10 5z"/>
<path d="M3216 7445 c4 -8 8 -15 10 -15 2 0 4 7 4 15 0 8 -4 15 -10 15 -5 0
-7 -7 -4 -15z"/>
<path d="M3292 7430 c0 -14 2 -19 5 -12 2 6 2 18 0 25 -3 6 -5 1 -5 -13z"/>
<path d="M2638 7258 c8 -8 17 -8 34 0 22 10 21 11 -11 11 -27 1 -32 -2 -23
-11z"/>
<path d="M2358 6865 c-6 -14 -15 -25 -20 -25 -4 0 -8 -4 -8 -10 0 -20 15 -9
38 25 12 19 18 35 12 35 -6 0 -16 -11 -22 -25z"/>
<path d="M2275 6740 c-3 -5 -1 -10 4 -10 6 0 11 5 11 10 0 6 -2 10 -4 10 -3 0
-8 -4 -11 -10z"/>
<path d="M2167 6563 c-25 -33 -37 -76 -26 -96 7 -11 3 -20 -12 -30 -15 -11
-19 -21 -14 -36 4 -12 2 -21 -4 -21 -6 0 -11 -7 -11 -15 0 -10 -10 -15 -27
-15 l-26 0 23 -20 c13 -11 20 -26 16 -35 -7 -19 8 -20 24 0 7 8 21 15 31 15
11 0 19 5 19 11 0 5 4 8 9 4 6 -3 8 -19 6 -35 -2 -17 1 -30 6 -30 5 0 9 11 9
24 0 13 3 33 6 43 4 13 3 14 -4 5 -15 -22 -23 13 -10 46 l11 27 7 -30 c6 -29
6 -29 18 -9 6 12 8 24 5 28 -3 3 -1 6 6 6 6 0 17 12 23 28 9 21 12 23 15 10 4
-15 8 -14 30 10 14 15 29 26 34 25 5 -2 10 3 10 10 4 35 7 54 14 69 5 13 2 15
-13 11 -11 -2 -29 0 -41 7 -18 9 -22 8 -30 -12 -12 -32 -47 -62 -56 -48 -3 5
-11 8 -16 4 -5 -3 -7 -10 -4 -15 9 -14 -5 -11 -21 5 -10 11 -11 21 -5 38 6 13
10 17 10 11 1 -21 21 -15 21 6 0 30 -13 32 -33 4z"/>
<path d="M5920 6381 c0 -6 5 -13 10 -16 6 -3 10 1 10 9 0 9 -4 16 -10 16 -5 0
-10 -4 -10 -9z"/>
<path d="M2306 6333 c-11 -11 -6 -23 9 -23 8 0 15 4 15 9 0 13 -16 22 -24 14z"/>
<path d="M2028 6299 c-3 -16 -1 -29 4 -29 4 0 8 7 8 15 0 8 5 15 10 15 15 0
12 17 -4 23 -10 4 -15 -4 -18 -24z"/>
<path d="M2207 6203 c-4 -3 -7 -11 -7 -17 0 -6 5 -5 12 2 6 6 9 14 7 17 -3 3
-9 2 -12 -2z"/>
<path d="M2043 6147 c-24 -35 -38 -67 -30 -67 7 0 60 91 55 95 -2 2 -13 -11
-25 -28z"/>
<path d="M1860 5708 l0 -43 15 29 c19 36 19 56 0 56 -11 0 -15 -11 -15 -42z"/>
<path d="M2295 3020 c-3 -5 1 -10 9 -10 9 0 16 5 16 10 0 6 -4 10 -9 10 -6 0
-13 -4 -16 -10z"/>
</g>
</svg>
