<?xml version="1.0" standalone="no"?>
<!DOCTYPE svg PUBLIC "-//W3C//DTD SVG 20010904//EN"
 "http://www.w3.org/TR/2001/REC-SVG-20010904/DTD/svg10.dtd">
<svg version="1.0" xmlns="http://www.w3.org/2000/svg"
 width="984.000000pt" height="820.000000pt" viewBox="0 0 984.000000 820.000000"
 preserveAspectRatio="xMidYMid meet">

<g transform="translate(0.000000,820.000000) scale(0.100000,-0.100000)"
fill="#000000" stroke="none">
<path d="M3705 7420 c-3 -5 -1 -10 4 -10 6 0 11 5 11 10 0 6 -2 10 -4 10 -3 0
-8 -4 -11 -10z"/>
<path d="M4047 7323 c-4 -3 -7 -11 -7 -17 0 -6 5 -5 12 2 6 6 9 14 7 17 -3 3
-9 2 -12 -2z"/>
<path d="M6151 7244 c0 -11 3 -14 6 -6 3 7 2 16 -1 19 -3 4 -6 -2 -5 -13z"/>
<path d="M4691 7090 c-1 -74 -6 -126 -10 -116 -4 12 -10 15 -14 9 -11 -17 27
-53 44 -42 11 7 11 9 0 9 -10 0 -11 3 -2 13 6 8 8 17 4 20 -3 4 -1 12 4 19 13
16 14 70 2 62 -5 -3 -9 2 -9 11 0 10 5 13 12 9 7 -4 8 -3 4 5 -4 6 -11 9 -16
6 -5 -3 -11 25 -13 62 -2 40 -4 12 -6 -67z"/>
<path d="M4844 7075 c0 -77 2 -107 3 -67 2 40 2 103 0 140 -2 37 -3 4 -3 -73z"/>
<path d="M4612 7093 c-1 -38 -6 -53 -16 -53 -24 0 -46 -29 -46 -61 0 -20 -5
-29 -16 -29 -9 0 -12 -5 -8 -12 4 -7 3 -8 -4 -4 -7 4 -12 20 -12 36 0 22 -4
28 -15 24 -12 -5 -15 -29 -15 -132 0 -121 9 -158 16 -70 2 24 6 49 9 55 7 19
48 9 56 -13 6 -17 8 -16 14 9 4 15 8 61 9 102 1 80 19 99 24 26 3 -44 19 -97
27 -89 3 3 7 24 9 46 3 28 1 41 -7 39 -8 -1 -14 27 -18 88 -3 62 -6 74 -7 38z
m-85 -205 c-3 -7 -5 -2 -5 12 0 14 2 19 5 13 2 -7 2 -19 0 -25z"/>
<path d="M7260 7096 l0 -44 45 -4 c25 -2 44 0 43 3 -5 11 -77 89 -83 89 -3 0
-5 -20 -5 -44z"/>
<path d="M2996 7096 c-14 -13 -27 -22 -29 -19 -8 8 -18 -48 -12 -68 8 -24 57
-26 76 -2 13 15 12 15 -8 5 -42 -23 -38 -12 5 14 29 17 42 31 38 41 -3 8 -6
19 -6 23 0 5 -9 14 -20 20 -16 9 -25 6 -44 -14z m44 -26 c0 -5 -5 -10 -11 -10
-5 0 -7 5 -4 10 3 6 8 10 11 10 2 0 4 -4 4 -10z"/>
<path d="M4770 7107 c0 -9 -4 -17 -10 -17 -5 0 -10 -4 -10 -10 0 -5 4 -10 9
-10 12 0 25 39 17 47 -3 4 -6 -1 -6 -10z"/>
<path d="M3697 7052 c-23 -26 -21 -35 5 -21 18 10 24 8 40 -11 23 -29 23 -55
-2 -80 -16 -16 -17 -20 -5 -20 11 0 15 -11 15 -39 0 -29 5 -41 18 -44 15 -4
15 -5 -2 -6 -18 -1 -18 -8 -14 -115 5 -97 9 -119 27 -142 29 -37 30 -119 1
-127 -22 -6 -28 -37 -7 -37 19 0 109 58 129 83 10 12 18 30 18 40 0 16 -4 15
-37 -8 -21 -14 -43 -25 -50 -25 -14 0 -17 38 -5 55 9 13 89 65 100 65 4 0 16
18 25 39 15 33 17 66 15 212 l-3 173 -29 7 c-24 7 -40 2 -85 -26 -50 -32 -56
-33 -64 -17 -15 27 -49 62 -62 62 -7 0 -19 -8 -28 -18z m218 -12 c-3 -5 -16
-15 -28 -21 -21 -10 -21 -9 2 10 25 23 36 27 26 11z m3 -94 c-10 -7 -15 -16
-11 -19 3 -4 -7 -11 -23 -17 -16 -5 -37 -15 -46 -20 -27 -15 -35 -12 -13 5 57
44 101 72 105 68 3 -3 -3 -10 -12 -17z m-8 -94 c0 -10 -7 -28 -16 -40 -13 -18
-19 -21 -30 -11 -22 18 -17 55 9 66 26 12 37 8 37 -15z m0 -117 c0 -8 -4 -15
-10 -15 -5 0 -7 7 -4 15 4 8 8 15 10 15 2 0 4 -7 4 -15z m-40 -24 c0 -30 -24
-59 -34 -43 -3 6 1 12 9 16 8 3 15 14 15 26 0 19 -1 19 -20 3 -11 -10 -20 -24
-21 -33 0 -10 -2 -11 -6 -2 -7 17 24 62 42 62 10 0 15 -10 15 -29z"/>
<path d="M4765 7030 c2 -19 4 -46 4 -59 1 -32 7 -24 15 19 4 25 1 42 -9 55
-14 19 -14 18 -10 -15z"/>
<path d="M3510 7010 c0 -16 3 -30 8 -30 17 1 42 29 41 46 0 18 -1 18 -8 0 -7
-18 -8 -18 -14 -3 -10 27 -27 19 -27 -13z"/>
<path d="M5870 7030 c-13 -9 -13 -10 0 -10 12 0 12 -2 2 -9 -9 -5 13 -17 65
-36 43 -15 83 -31 89 -36 18 -15 40 17 24 35 -16 20 -136 59 -151 50 -8 -4 -9
-3 -5 4 9 14 -4 15 -24 2z"/>
<path d="M7300 7036 c0 -3 14 -12 30 -21 17 -9 30 -13 30 -11 0 3 -13 12 -30
21 -16 9 -30 13 -30 11z"/>
<path d="M5876 6957 c-59 -18 -78 -51 -77 -133 0 -38 10 -99 20 -136 11 -37
17 -76 14 -86 -3 -11 2 -26 12 -33 62 -52 66 -61 33 -76 l-22 -10 26 -17 c34
-22 101 -23 133 -2 28 18 34 39 8 29 -11 -4 -14 -3 -9 5 4 7 13 12 19 12 7 0
20 12 31 26 16 23 18 38 12 108 -3 44 -6 107 -6 139 l0 57 -24 -15 c-28 -19
-66 -27 -66 -15 0 5 16 14 35 20 19 6 33 16 30 20 -3 5 -25 0 -49 -12 -52 -25
-69 -21 -87 21 -8 17 -18 31 -23 31 -21 0 20 31 56 42 39 11 39 12 16 24 -28
16 -32 16 -82 1z m154 -176 c0 -5 -10 -11 -22 -14 -22 -6 -22 -6 -4 8 23 17
26 18 26 6z m-55 -11 c3 -5 1 -10 -4 -10 -6 0 -11 5 -11 10 0 6 2 10 4 10 3 0
8 -4 11 -10z m-48 -22 c-3 -8 -6 -5 -6 6 -1 11 2 17 5 13 3 -3 4 -12 1 -19z
m47 -28 c-6 -6 -10 -3 -10 10 0 13 4 16 10 10 7 -7 7 -13 0 -20z m-88 -30 c6
0 18 -7 25 -16 11 -14 10 -18 -6 -30 -23 -17 -61 -18 -63 -1 0 6 -4 30 -8 51
l-7 40 23 -22 c13 -12 29 -22 36 -22z m41 18 c-3 -8 -6 -5 -6 6 -1 11 2 17 5
13 3 -3 4 -12 1 -19z m98 -8 c3 -5 1 -10 -4 -10 -6 0 -11 5 -11 10 0 6 2 10 4
10 3 0 8 -4 11 -10z m-120 -110 c10 -11 22 -17 26 -14 5 3 9 -12 9 -32 l0 -38
-35 34 c-19 19 -35 42 -35 52 0 23 13 23 35 -2z"/>
<path d="M6712 6953 c2 -10 31 -35 66 -56 50 -30 65 -35 76 -25 10 10 -1 20
-62 55 -42 24 -77 43 -79 43 -3 0 -3 -8 -1 -17z"/>
<path d="M6521 6944 c0 -11 3 -14 6 -6 3 7 2 16 -1 19 -3 4 -6 -2 -5 -13z"/>
<path d="M2786 6919 c-39 -46 -34 -109 9 -109 30 0 75 53 75 89 0 57 -44 68
-84 20z m48 -28 c3 -5 -3 -20 -13 -32 -18 -22 -20 -22 -26 -6 -11 27 25 62 39
38z"/>
<path d="M3651 6932 c-7 -13 -10 -26 -7 -30 3 -3 6 0 6 7 0 8 8 10 23 6 12 -3
17 -3 11 2 -6 4 -13 15 -16 23 -4 11 -8 9 -17 -8z"/>
<path d="M7341 6867 c-7 -7 -11 -73 -11 -199 0 -103 -4 -188 -8 -188 -4 0 -12
4 -17 9 -11 10 -152 91 -239 136 -91 48 -87 70 -80 -449 4 -243 11 -449 16
-458 5 -10 97 -70 206 -134 108 -64 220 -130 247 -146 148 -91 167 -100 191
-94 34 9 44 42 44 142 0 46 2 84 5 84 2 0 42 -22 89 -50 91 -54 107 -58 126
-35 14 17 17 152 4 208 -3 16 -2 27 3 24 5 -3 7 10 5 30 -3 25 -1 34 7 29 26
-16 32 7 8 29 l-26 22 -3 366 c-3 359 -3 366 -24 386 -12 11 -25 17 -28 14 -3
-4 -6 -1 -6 5 0 7 -6 12 -14 12 -7 0 -24 8 -37 19 -13 10 -55 35 -94 56 -38
20 -77 43 -85 49 -8 7 -30 18 -47 26 -20 7 -30 17 -26 24 3 6 3 8 -2 4 -4 -4
-20 1 -34 11 -29 20 -98 57 -135 71 -15 5 -27 5 -35 -3z m102 -105 c79 -49
332 -195 374 -216 60 -30 63 -48 62 -318 -1 -134 -5 -256 -9 -273 -4 -16 -8
-22 -9 -12 0 9 -7 17 -15 17 -14 0 -43 21 -92 67 -15 14 -25 17 -28 10 -2 -7
-5 -4 -5 5 -1 9 -6 18 -13 20 -7 3 -14 38 -17 94 -4 55 -12 99 -21 113 -14 20
-170 118 -275 172 l-40 21 0 156 c0 139 5 182 21 182 2 0 33 -17 67 -38z
m-247 -237 c90 -53 170 -93 176 -89 6 4 8 3 5 -3 -3 -5 49 -41 115 -79 184
-104 163 -55 163 -384 0 -170 -4 -284 -10 -288 -6 -4 -11 -17 -12 -29 -1 -12
-14 -39 -29 -60 -19 -28 -24 -46 -20 -70 6 -38 -1 -43 -14 -10 -7 18 -9 15 -9
-20 -1 -33 3 -43 15 -43 8 0 13 -4 9 -9 -3 -5 -1 -12 5 -16 6 -4 10 7 11 27 1
32 1 32 14 -12 l13 -45 1 59 c1 45 -2 57 -12 53 -8 -3 -14 0 -14 7 0 14 34 16
34 1 0 -5 3 -40 7 -77 6 -66 5 -68 -17 -68 -20 0 -139 68 -495 281 -57 33
-110 71 -118 84 -21 32 -19 535 2 535 16 0 16 2 7 26 -6 16 -7 16 -14 -2 -6
-15 -8 -13 -8 12 -1 16 4 35 10 41 7 7 8 19 4 30 -13 31 -12 55 2 60 17 7 17
23 0 23 -10 0 -13 18 -11 73 2 90 2 87 15 87 6 0 85 -43 175 -95z m515 -739
c5 3 9 0 9 -5 0 -6 16 -28 36 -48 60 -64 114 -149 114 -182 0 -18 -5 -31 -12
-31 -7 0 -49 21 -93 48 -63 37 -80 52 -79 70 4 130 6 165 11 154 2 -6 9 -10
14 -6z"/>
<path d="M7056 5982 c-14 -23 -11 -58 6 -74 10 -10 18 -13 18 -7 0 5 4 8 9 4
5 -3 13 -1 16 5 4 6 1 9 -7 8 -8 -2 -13 6 -12 20 0 12 -5 22 -12 22 -8 0 -11
6 -8 15 6 16 -1 21 -10 7z"/>
<path d="M7101 5964 c0 -11 3 -14 6 -6 3 7 2 16 -1 19 -3 4 -6 -2 -5 -13z"/>
<path d="M7135 5961 c-9 -16 33 -33 53 -22 16 10 16 10 -1 11 -10 0 -15 5 -12
10 3 6 -3 10 -14 10 -11 0 -22 -4 -26 -9z"/>
<path d="M7123 5917 c-3 -6 -2 -8 3 -5 5 3 14 0 21 -7 10 -11 6 -15 -17 -24
-45 -15 -37 -61 11 -61 4 0 6 8 3 18 -5 13 -4 14 4 3 8 -11 10 -11 15 0 3 8 3
-1 0 -20 -4 -25 -3 -32 6 -27 6 4 9 12 6 17 -4 5 -1 9 4 9 6 0 11 -8 11 -17 0
-14 2 -15 13 -4 10 10 8 15 -7 26 -10 8 -15 19 -11 25 6 9 10 9 16 -1 6 -10 9
-6 9 13 0 15 -4 30 -10 33 -15 9 -12 27 3 19 6 -4 9 -4 5 1 -11 12 -78 13 -85
2z m77 -36 c0 -12 -28 -22 -34 -12 -3 5 -3 11 1 15 9 9 33 7 33 -3z"/>
<path d="M7221 5854 c0 -11 3 -14 6 -6 3 7 2 16 -1 19 -3 4 -6 -2 -5 -13z"/>
<path d="M7233 5810 c3 -11 0 -20 -6 -20 -6 0 -8 -2 -6 -4 2 -3 18 -1 36 2 30
7 31 8 16 27 -13 16 -15 17 -10 3 4 -12 1 -18 -9 -18 -10 0 -14 6 -10 15 3 8
0 15 -5 15 -6 0 -9 -9 -6 -20z"/>
<path d="M7228 5763 c7 -3 16 -2 19 1 4 3 -2 6 -13 5 -11 0 -14 -3 -6 -6z"/>
<path d="M7260 5747 c0 -7 14 -20 31 -29 29 -17 32 -17 47 -1 16 16 16 16 0
10 -10 -3 -18 -3 -18 1 0 4 -13 13 -30 19 -23 8 -30 8 -30 0z"/>
<path d="M7274 5705 c8 -8 18 -15 22 -15 3 0 1 7 -6 15 -7 8 -17 15 -22 15 -5
0 -3 -7 6 -15z"/>
<path d="M7401 5673 c4 -21 -2 -33 -13 -27 -8 5 -9 2 -5 -10 4 -10 7 -20 7
-22 0 -2 7 -4 16 -4 8 0 12 5 9 10 -3 6 3 10 14 10 11 0 23 5 27 12 4 7 3 8
-4 4 -7 -4 -20 -2 -29 4 -17 11 -17 11 0 6 23 -7 22 1 -3 14 -11 6 -20 7 -19
3z"/>
<path d="M7580 5634 c0 -14 -3 -14 -16 -3 -13 10 -17 10 -25 -2 -5 -8 -9 -17
-9 -21 0 -5 -8 -8 -17 -7 -10 0 -13 3 -6 5 7 3 9 12 6 20 -10 27 -23 2 -22
-44 1 -29 4 -37 6 -19 5 31 18 35 31 10 19 -32 38 -22 54 28 8 27 11 49 6 49
-4 0 -8 -7 -8 -16z m-33 -36 c-3 -8 -6 -5 -6 6 -1 11 2 17 5 13 3 -3 4 -12 1
-19z"/>
<path d="M7433 5598 c0 -23 2 -24 23 -14 20 9 21 12 6 15 -9 2 -20 8 -23 13
-4 6 -6 -1 -6 -14z"/>
<path d="M7510 5538 c0 -7 5 -20 10 -28 8 -12 10 -12 10 5 0 17 2 18 11 5 9
-12 10 -12 5 3 -3 10 -6 21 -6 23 0 2 -7 4 -15 4 -8 0 -15 -6 -15 -12z"/>
<path d="M6400 6860 c0 -5 5 -10 10 -10 6 0 10 5 10 10 0 6 -4 10 -10 10 -5 0
-10 -4 -10 -10z"/>
<path d="M3322 6801 c-7 -19 -7 -31 -1 -31 5 0 9 5 9 10 0 15 16 12 33 -5 11
-11 14 -30 10 -77 -3 -35 -9 -68 -14 -74 -5 -6 -6 -14 -2 -18 4 -3 10 -57 14
-119 9 -131 10 -137 26 -155 20 -21 26 -58 16 -89 -8 -23 -16 -28 -41 -28 -36
0 -42 -19 -12 -35 14 -8 26 -8 40 0 11 6 26 8 32 4 7 -4 8 -3 4 4 -4 7 -2 12
4 12 6 0 22 11 36 25 28 28 22 32 -18 11 l-28 -15 0 59 c0 52 3 61 30 83 16
14 45 31 65 37 19 6 35 17 35 25 0 7 7 18 15 25 23 19 22 312 -1 334 -19 20
-16 20 -58 -5 -20 -12 -33 -26 -29 -32 3 -6 1 -7 -5 -3 -6 4 -24 0 -39 -8 -16
-8 -24 -15 -19 -16 5 0 3 -6 -3 -14 -7 -8 -16 -27 -21 -43 -6 -21 -8 -23 -9
-7 -1 11 5 28 12 39 14 19 12 27 -26 105 -18 37 -43 37 -55 1z m233 -21 c-3
-5 -12 -10 -18 -10 -7 0 -6 4 3 10 19 12 23 12 15 0z m1 -105 c13 -21 15 -32
6 -58 l-10 -32 -1 43 c-1 51 -21 63 -63 39 -33 -19 -38 -5 -6 17 32 23 55 20
74 -9z m-31 -44 c3 -5 1 -12 -5 -16 -6 -4 -7 -11 -4 -17 5 -8 1 -9 -10 -5 -14
5 -17 3 -12 -8 3 -8 1 -15 -5 -15 -16 0 -21 27 -9 49 11 22 35 28 45 12z
m-128 -223 c-2 -18 -4 -4 -4 32 0 36 2 50 4 33 2 -18 2 -48 0 -65z"/>
<path d="M4413 6755 c0 -44 2 -61 4 -37 2 23 2 59 0 80 -2 20 -4 1 -4 -43z"/>
<path d="M4980 6699 c-113 -71 -268 -169 -345 -218 -125 -79 -276 -173 -405
-251 -38 -23 -230 -141 -459 -282 -29 -18 -59 -31 -65 -30 -6 2 -8 0 -4 -3 4
-4 1 -17 -7 -29 -12 -16 -15 -66 -15 -258 0 -225 1 -239 20 -258 11 -11 30
-20 42 -20 21 0 150 78 533 323 99 64 250 159 335 213 85 54 211 134 280 179
69 45 164 106 211 136 137 85 134 76 134 366 0 206 -2 245 -15 253 -8 5 -19 9
-25 9 -5 -1 -102 -59 -215 -130z m230 -49 c0 -82 -3 -150 -6 -150 -4 0 -24 20
-46 45 -45 51 -107 77 -139 57 -15 -10 -17 -9 -13 3 4 10 0 15 -11 15 -9 0
-13 -4 -10 -10 3 -5 1 -10 -4 -10 -6 0 -11 5 -11 10 0 6 -5 10 -11 10 -5 0 -7
-4 -4 -10 4 -6 -4 -9 -17 -7 -14 1 -22 -3 -21 -10 2 -8 -8 -11 -27 -8 -17 2
-30 0 -30 -4 0 -8 -50 -34 -56 -29 -10 11 367 248 394 248 9 0 12 -37 12 -150z
m-240 -100 c0 -5 -4 -10 -9 -10 -6 0 -13 5 -16 10 -3 6 1 10 9 10 9 0 16 -4
16 -10z m-66 -32 c13 -12 22 -14 27 -7 4 7 8 5 12 -5 4 -9 14 -16 22 -16 9 0
13 -5 10 -11 -4 -6 1 -17 11 -25 15 -13 16 -15 3 -11 -9 3 -22 0 -28 -6 -8 -8
-11 -8 -11 2 0 23 -27 -6 -33 -34 -3 -21 0 -25 19 -25 13 0 24 6 24 13 0 8 4
7 10 -3 7 -11 12 -12 18 -4 5 9 11 8 20 -2 11 -12 7 -14 -25 -15 -21 0 -33 -3
-27 -5 7 -3 9 -15 6 -27 -6 -22 -6 -21 -12 3 -7 28 -40 34 -53 10 -4 -9 -5 -3
-2 13 l6 28 -27 -18 c-15 -9 -21 -19 -15 -21 8 -3 9 -8 2 -16 -12 -15 -3 -29
29 -42 23 -10 22 -11 -24 -25 -27 -8 -51 -22 -55 -31 -6 -16 -9 -18 -31 -18
-5 0 -7 -6 -5 -12 2 -7 -10 -22 -28 -33 -18 -11 -33 -29 -34 -40 -10 -74 -12
-70 40 -73 30 -2 47 1 47 8 0 6 5 8 10 5 20 -12 -18 -39 -415 -295 -351 -227
-630 -400 -645 -400 -37 0 -40 18 -40 260 l0 236 28 26 c15 13 45 35 67 48 22
13 63 38 90 55 49 32 605 371 698 426 26 16 45 23 42 16 -4 -6 -1 -5 7 4 21
24 108 81 103 67 -3 -8 -15 -18 -28 -24 -12 -5 -21 -15 -19 -22 1 -7 -1 -11
-5 -11 -27 4 -35 -1 -23 -16 7 -8 16 -12 21 -9 5 3 6 -3 2 -12 -11 -29 15 -6
34 29 17 33 50 67 65 67 5 0 7 3 5 8 -3 4 16 7 41 7 32 1 53 -5 66 -17z m143
-37 c-1 -16 -4 -17 -15 -9 -10 9 -11 13 0 19 17 11 17 12 15 -10z m16 -76 c0
-6 -7 -11 -16 -13 -12 -3 -15 1 -11 13 7 17 25 17 27 0z m-115 -111 c-4 -11
-28 -14 -28 -4 0 8 22 20 28 14 2 -1 2 -6 0 -10z m52 1 c0 -9 -6 -12 -15 -9
-8 4 -15 10 -15 15 0 5 7 9 15 9 8 0 15 -7 15 -15z m-150 -110 c0 -8 0 -18 1
-22 0 -4 -4 -9 -10 -11 -6 -2 -11 8 -11 22 0 14 5 26 10 26 6 0 10 -7 10 -15z"/>
<path d="M4837 6503 c5 -13 2 -15 -11 -10 -13 5 -30 -6 -63 -38 l-45 -45 34
-1 c32 0 32 -1 8 -10 l-25 -10 39 -20 c41 -20 61 -25 36 -9 -11 7 -9 11 13 19
16 6 25 15 22 21 -3 5 0 10 7 10 9 0 9 3 -2 10 -8 5 -10 10 -3 10 6 0 9 9 6
20 -5 18 -2 20 20 16 15 -2 31 1 37 9 15 19 -14 45 -50 45 -23 0 -28 -3 -23
-17z m-57 -57 c0 -3 -4 -8 -10 -11 -5 -3 -10 -1 -10 4 0 6 5 11 10 11 6 0 10
-2 10 -4z"/>
<path d="M4640 6429 c-12 -9 -11 -10 8 -6 12 3 20 1 16 -4 -3 -5 -13 -9 -23
-9 -21 0 -83 -59 -75 -72 3 -4 0 -8 -5 -8 -6 0 -11 -4 -11 -10 0 -5 7 -7 16
-3 8 3 13 12 10 20 -3 7 0 13 7 12 36 -4 54 5 75 37 29 44 19 69 -18 43z m10
-38 c0 -5 -8 -11 -17 -15 -10 -3 -25 -9 -33 -12 -8 -3 -4 4 10 15 27 22 40 26
40 12z"/>
<path d="M4890 6426 c0 -8 -6 -17 -12 -19 -7 -3 -3 -6 10 -6 22 -1 31 22 12
34 -5 3 -10 0 -10 -9z"/>
<path d="M4690 6370 c0 -5 7 -7 15 -4 8 4 15 8 15 10 0 2 -7 4 -15 4 -8 0 -15
-4 -15 -10z"/>
<path d="M4700 6331 c0 -5 7 -11 15 -15 16 -6 21 -36 7 -36 -5 0 -9 -6 -9 -14
0 -8 7 -12 16 -10 9 2 32 7 51 12 36 8 56 42 25 42 -8 0 -18 7 -21 15 -5 11
-11 12 -25 4 -13 -7 -25 -6 -39 1 -11 6 -20 7 -20 1z m42 -63 c-7 -7 -12 -8
-12 -2 0 14 12 26 19 19 2 -3 -1 -11 -7 -17z"/>
<path d="M4600 6289 c0 -5 5 -7 10 -4 6 3 10 8 10 11 0 2 -4 4 -10 4 -5 0 -10
-5 -10 -11z"/>
<path d="M4715 6179 c-4 -6 -5 -12 -2 -15 2 -3 7 2 10 11 7 17 1 20 -8 4z"/>
<path d="M4682 6160 c-7 -12 -10 -25 -7 -30 4 -6 1 -10 -4 -10 -6 0 -11 -5
-11 -11 0 -8 4 -9 13 0 8 6 18 7 23 3 4 -4 3 0 -4 9 -8 11 -8 19 -1 26 6 6 10
16 8 22 -2 6 -10 2 -17 -9z"/>
<path d="M3170 6699 c7 -11 14 -18 17 -15 8 8 -5 36 -17 36 -7 0 -7 -6 0 -21z"/>
<path d="M3137 6690 c-3 -11 -1 -20 4 -20 5 0 9 9 9 20 0 11 -2 20 -4 20 -2 0
-6 -9 -9 -20z"/>
<path d="M2217 6686 c-56 -15 -99 -52 -95 -80 7 -47 107 -83 181 -67 75 17
125 72 97 106 -36 43 -113 60 -183 41z m55 -30 c4 -5 3 -17 -2 -27 -5 -9 -7
-19 -4 -22 3 -3 -15 -6 -39 -8 -43 -4 -44 -3 -36 19 12 30 11 35 -2 27 -6 -4
-15 -17 -20 -29 -8 -20 -9 -20 -6 4 4 43 86 70 109 36z"/>
<path d="M3301 6644 c0 -11 3 -14 6 -6 3 7 2 16 -1 19 -3 4 -6 -2 -5 -13z"/>
<path d="M7242 6593 c2 -9 9 -18 16 -19 7 -1 8 0 2 3 -5 2 -10 9 -10 14 0 6 5
7 12 3 7 -4 8 -3 4 4 -11 18 -28 14 -24 -5z"/>
<path d="M4130 6557 c0 -11 -49 -47 -64 -47 -3 0 -7 12 -7 28 -1 21 -3 19 -10
-13 -8 -39 -13 -255 -5 -255 19 0 69 26 77 41 12 23 1 24 -25 4 -41 -31 -47
-21 -44 72 l3 87 52 31 c54 31 65 48 38 59 -8 3 -15 0 -15 -7z"/>
<path d="M6293 6476 c-46 -24 -80 -46 -77 -49 3 -3 -3 -8 -14 -11 -11 -4 -30
-30 -44 -61 -14 -30 -28 -52 -31 -48 -4 3 -7 1 -7 -5 0 -7 4 -12 9 -12 6 0 6
-14 0 -34 -13 -47 11 -158 48 -226 15 -28 37 -69 48 -90 27 -51 137 -142 267
-218 l107 -64 31 22 c35 25 34 48 -7 91 l-24 26 49 31 c26 18 58 42 70 55 25
26 36 63 22 72 -5 3 -7 -4 -5 -16 3 -16 1 -18 -9 -10 -7 6 -17 7 -22 3 -5 -4
0 3 10 16 11 12 21 20 24 18 2 -3 16 9 29 25 32 37 29 52 -32 192 -45 102 -47
105 -86 115 -36 9 -39 8 -39 -12 0 -11 -5 -28 -10 -36 -8 -12 -10 -9 -10 12 0
16 -8 31 -19 37 -17 9 -18 7 -14 -29 4 -34 2 -40 -14 -40 -13 0 -14 3 -5 8 17
11 5 42 -17 42 -9 0 -28 7 -43 14 -16 8 -28 12 -28 8 0 -10 93 -229 125 -294
14 -29 20 -45 12 -36 -8 10 -18 14 -22 10 -5 -4 -5 -2 -1 5 3 6 -22 72 -57
146 -66 138 -84 187 -68 187 5 0 11 13 13 29 4 26 2 29 -13 20 -14 -7 -32 0
-76 26 -37 22 -65 33 -78 29 -17 -4 -17 -3 -5 6 12 9 7 10 -20 6 -31 -5 -30
-4 12 12 26 9 50 20 54 24 4 4 13 0 21 -10 8 -9 12 -11 8 -4 -3 6 -1 12 4 12
6 0 10 6 9 13 -2 8 9 11 32 10 32 -1 33 0 16 13 -27 19 -30 19 -123 -30z m81
-100 c24 -14 34 -26 27 -30 -6 -4 -9 -18 -6 -32 3 -13 7 -35 10 -49 3 -14 10
-23 15 -20 6 3 10 1 10 -4 0 -6 -4 -11 -10 -11 -5 0 8 -35 29 -77 22 -43 51
-104 64 -135 14 -32 40 -71 57 -88 23 -22 29 -36 25 -51 -6 -16 -12 -19 -32
-14 -15 3 -29 2 -32 -2 -3 -5 -20 -19 -38 -31 -28 -20 -37 -22 -71 -12 -22 5
-51 19 -65 30 -31 25 -44 26 -26 3 11 -15 9 -14 -9 1 -12 11 -20 21 -17 24 2
3 -7 18 -20 34 -14 16 -25 38 -25 48 0 20 26 35 35 20 12 -19 35 -10 35 14 0
37 35 40 64 5 30 -35 35 -36 29 -6 -6 30 -53 86 -60 70 -2 -7 -11 -13 -18 -13
-8 0 -20 -6 -28 -14 -21 -22 -84 -37 -95 -23 -24 30 -24 107 -1 107 10 0 51
40 77 77 15 21 19 42 18 88 -1 33 -5 66 -9 73 -5 7 -4 12 2 12 6 0 11 7 11 15
0 20 8 19 54 -9z m-207 -278 c-3 -8 -6 -5 -6 6 -1 11 2 17 5 13 3 -3 4 -12 1
-19z m559 -33 c9 -22 -3 -45 -20 -39 -8 3 -17 13 -21 22 -5 14 -4 15 6 5 17
-17 29 -16 29 1 0 8 -8 17 -17 19 -17 4 -17 5 0 6 10 0 20 -6 23 -14z m-63
-18 c22 -8 20 -48 -3 -55 -12 -4 -13 -2 -2 9 18 20 15 39 -8 39 -12 0 -20 7
-20 18 0 10 3 13 8 6 4 -6 15 -13 25 -17z m-443 -47 c0 -5 -2 -10 -4 -10 -3 0
-8 5 -11 10 -3 6 -1 10 4 10 6 0 11 -4 11 -10z m29 -55 c0 -5 -4 -3 -9 5 -5 8
-9 22 -9 30 0 16 17 -16 18 -35z"/>
<path d="M6325 5959 c-12 -19 5 -23 22 -6 16 16 16 17 1 17 -9 0 -20 -5 -23
-11z"/>
<path d="M6355 5929 c-4 -6 -5 -12 -2 -15 7 -7 37 7 37 17 0 13 -27 11 -35 -2z"/>
<path d="M6397 5909 c-17 -10 -23 -29 -9 -29 5 0 16 6 27 13 22 17 7 29 -18
16z"/>
<path d="M6420 5875 c-8 -9 -8 -15 -2 -15 18 0 42 12 42 21 0 14 -26 10 -40
-6z"/>
<path d="M6457 5859 c-27 -16 -10 -29 23 -17 17 5 27 14 24 19 -7 12 -25 11
-47 -2z"/>
<path d="M8277 6493 c-30 -29 26 -118 61 -97 25 16 26 47 2 77 -20 26 -49 35
-63 20z m53 -54 c0 -11 -5 -19 -10 -19 -12 0 -30 41 -23 53 8 13 33 -14 33
-34z"/>
<path d="M3044 6466 c-11 -27 1 -61 21 -64 18 -2 18 -2 3 8 -22 14 -23 28 -1
52 15 17 15 18 -1 18 -9 0 -19 -6 -22 -14z"/>
<path d="M5656 6454 c-9 -8 -16 -20 -16 -25 0 -12 17 -12 22 0 2 5 15 12 29
16 22 5 30 1 47 -23 14 -18 19 -37 15 -51 -5 -19 -11 -22 -39 -19 -29 3 -31 2
-23 -15 13 -23 41 -35 47 -19 2 7 9 9 15 5 6 -4 8 0 4 10 -3 9 -2 19 3 22 32
20 -22 115 -65 115 -13 0 -31 -7 -39 -16z"/>
<path d="M6488 6434 c-38 -20 -36 -28 2 -9 17 9 30 18 30 20 0 7 -1 6 -32 -11z"/>
<path d="M8060 6413 c1 -37 32 -73 64 -73 34 0 34 23 0 67 -32 42 -64 45 -64
6z m44 -32 c-6 -6 -24 19 -24 34 1 6 7 1 15 -9 8 -11 12 -22 9 -25z"/>
<path d="M5651 6394 c0 -11 3 -14 6 -6 3 7 2 16 -1 19 -3 4 -6 -2 -5 -13z"/>
<path d="M2358 6294 c-5 -4 -8 -55 -8 -113 0 -72 3 -102 10 -95 7 7 10 52 8
113 -2 57 -6 99 -10 95z"/>
<path d="M8147 6236 c-8 -19 15 -60 36 -64 23 -5 32 23 19 54 -12 26 -47 33
-55 10z"/>
<path d="M7922 6220 c0 -14 2 -19 5 -12 2 6 2 18 0 25 -3 6 -5 1 -5 -13z"/>
<path d="M3820 6215 c-9 -52 -9 -54 4 -49 8 3 17 12 20 20 3 8 2 12 -3 9 -5
-3 -12 3 -14 12 -3 10 -6 14 -7 8z"/>
<path d="M3630 6112 l0 -103 45 31 46 32 -3 66 c-2 54 -6 66 -18 64 -45 -11
-55 -11 -62 1 -4 6 -8 -34 -8 -91z"/>
<path d="M5386 6133 c26 -67 46 -77 68 -35 14 27 14 31 -2 45 -16 14 -76 47
-85 47 -3 0 6 -26 19 -57z"/>
<path d="M1900 6146 c-51 -30 -55 -35 -58 -74 -2 -23 0 -42 5 -42 4 0 35 15
68 34 57 31 60 35 63 74 4 52 -4 52 -78 8z"/>
<path d="M7923 6140 c0 -25 2 -35 4 -22 2 12 2 32 0 45 -2 12 -4 2 -4 -23z"/>
<path d="M3392 6161 c-11 -6 -10 -10 4 -15 9 -3 19 -4 22 -1 3 3 -1 5 -9 6 -8
0 -6 4 6 9 13 6 15 9 5 9 -8 0 -21 -3 -28 -8z"/>
<path d="M2243 6131 c-35 -33 -33 -41 9 -41 25 0 28 3 28 35 0 19 -1 35 -2 35
-2 0 -17 -14 -35 -29z"/>
<path d="M2841 6023 c-35 -21 -48 -24 -62 -15 -10 7 -20 8 -24 2 -3 -5 -1 -11
5 -15 16 -10 1 -25 -26 -25 -31 0 -32 31 -1 54 21 16 20 16 -10 1 -17 -8 -35
-20 -39 -26 -4 -8 -3 -9 4 -5 16 10 15 -7 0 -23 -10 -11 -10 -13 0 -7 7 4 12
1 12 -8 0 -9 -3 -16 -7 -16 -14 1 -47 30 -35 30 7 0 12 5 12 12 0 8 -6 6 -17
-5 -15 -15 -15 -19 -2 -43 8 -15 26 -35 41 -44 16 -9 25 -20 20 -24 -4 -4 -2
-6 3 -5 6 2 48 -22 95 -52 111 -71 136 -82 161 -69 11 6 25 8 31 4 7 -4 8 -3
4 4 -4 7 6 18 25 27 17 9 67 41 112 71 61 42 82 52 90 42 6 -10 7 -8 4 4 -4
12 9 28 44 54 42 33 60 54 45 54 -3 0 -86 -50 -186 -111 -99 -61 -184 -108
-188 -105 -3 4 -1 10 6 15 8 5 3 14 -19 30 -25 18 -28 25 -18 33 10 7 7 7 -8
3 -13 -3 -23 -3 -23 2 0 4 -23 19 -50 32 -27 14 -46 29 -43 34 3 6 2 7 -3 4
-10 -6 -42 9 -34 16 3 2 33 23 68 46 34 23 62 44 62 46 0 8 -2 7 -49 -22z
m-39 -133 c76 -48 145 -97 123 -89 -28 11 -214 125 -215 132 0 12 8 8 92 -43z"/>
<path d="M5450 6046 c0 -2 7 -7 16 -10 8 -3 12 -2 9 4 -6 10 -25 14 -25 6z"/>
<path d="M8040 6001 c0 -34 5 -42 34 -60 18 -12 36 -21 40 -21 3 0 6 19 6 43
0 37 -4 45 -29 60 -43 25 -51 21 -51 -22z"/>
<path d="M5522 6010 c0 -14 2 -19 5 -12 2 6 2 18 0 25 -3 6 -5 1 -5 -13z"/>
<path d="M5050 6002 c-19 -10 -132 -81 -250 -158 -118 -77 -273 -178 -345
-224 -320 -207 -545 -362 -539 -371 3 -6 18 -7 34 -4 17 4 33 1 41 -7 8 -7 37
-24 64 -36 28 -13 62 -30 77 -37 20 -10 29 -10 38 -1 9 8 14 8 17 0 3 -8 15
-9 38 -4 19 4 33 4 30 0 -3 -4 2 -13 10 -20 8 -7 13 -16 10 -20 -3 -5 -1 -11
5 -15 5 -3 10 0 10 9 0 8 6 16 13 19 22 7 -64 87 -95 87 -19 0 -28 5 -28 16 0
12 7 15 23 12 20 -4 23 -1 19 19 -2 13 -16 30 -31 38 l-26 14 26 1 c21 0 28 7
37 38 7 21 22 47 34 58 23 19 23 19 7 -1 -40 -50 -50 -148 -19 -179 8 -8 9 -4
1 16 -14 36 9 112 47 156 30 35 42 40 42 17 0 -8 -6 -15 -12 -15 -9 0 -13 -18
-13 -60 1 -73 10 -86 19 -26 14 89 96 143 232 153 73 6 74 5 75 -18 1 -17 3
-19 6 -6 6 22 27 21 78 -2 60 -27 95 -73 95 -125 0 -23 -7 -51 -15 -62 -22
-29 -18 -37 10 -17 13 10 29 30 36 46 11 25 28 34 41 21 3 -3 2 -21 -4 -40 -8
-31 -6 -37 14 -54 13 -11 33 -19 46 -20 12 0 22 -4 22 -10 0 -15 -33 -12 -58
6 -12 8 -22 12 -22 8 0 -5 -5 -3 -12 4 -17 17 -28 15 -28 -6 0 -21 -32 -50
-71 -64 -16 -6 -26 -15 -22 -21 4 -6 -2 -8 -15 -5 -12 4 -20 3 -17 -1 2 -5
-15 -14 -38 -21 -37 -11 -56 -24 -57 -40 0 -3 29 -5 64 -5 45 0 62 3 55 11 -6
7 4 10 31 9 22 -1 42 -4 45 -8 3 -4 2 -5 -1 -3 -3 2 -14 -3 -23 -12 -15 -15
-54 -40 -156 -104 -11 -7 -33 -22 -50 -34 -139 -96 -187 -98 -318 -12 -51 34
-192 123 -282 178 -129 78 -155 98 -155 119 0 11 6 22 13 24 8 4 6 6 -4 6 -32
2 -52 -35 -45 -81 6 -42 10 -45 108 -108 55 -36 115 -73 133 -82 18 -10 79
-50 136 -89 136 -94 218 -133 263 -125 18 4 98 47 177 98 79 50 173 109 209
132 36 22 107 68 157 101 51 33 149 96 219 140 159 101 344 220 454 294 68 46
86 63 90 87 12 64 10 66 -235 214 -128 77 -235 140 -238 140 -3 0 -36 18 -75
40 -77 45 -102 48 -152 22z m144 -248 c24 -9 19 -28 -14 -52 -31 -23 -52 -30
-33 -11 6 6 9 18 6 25 -3 8 0 14 6 14 6 0 11 -5 11 -11 0 -5 5 -7 10 -4 17 10
11 25 -12 35 -16 6 -18 9 -6 9 9 1 23 -2 32 -5z m-61 -41 c-7 -2 -19 -2 -25 0
-7 3 -2 5 12 5 14 0 19 -2 13 -5z m-39 -27 c9 -13 7 -20 -9 -32 -23 -17 -77
-15 -83 4 -3 10 2 10 22 1 20 -9 29 -9 41 1 23 19 18 30 -12 31 -25 0 -26 1
-8 9 26 11 36 8 49 -14z m175 15 c21 -13 5 -41 -23 -41 -13 0 -27 -7 -30 -16
-4 -11 -14 -15 -31 -12 -19 4 -25 0 -27 -16 -4 -28 -68 -35 -89 -10 -13 16
-12 17 6 10 34 -15 59 -12 63 6 2 12 -1 16 -11 12 -8 -3 -18 0 -23 7 -5 9 5
11 44 6 53 -6 67 4 40 31 -15 15 -3 16 23 1 12 -6 28 -8 37 -4 15 6 15 8 -2
21 -22 16 -1 20 23 5z m481 -85 c0 -2 -8 -10 -17 -17 -16 -13 -17 -12 -4 4 13
16 21 21 21 13z m-1255 -16 c-3 -5 -10 -10 -16 -10 -5 0 -9 5 -9 10 0 6 7 10
16 10 8 0 12 -4 9 -10z m355 -59 c0 -6 -4 -13 -10 -16 -5 -3 -10 1 -10 9 0 9
5 16 10 16 6 0 10 -4 10 -9z m-212 -8 c-21 -2 -55 -2 -75 0 -21 2 -4 4 37 4
41 0 58 -2 38 -4z m999 -20 c-14 -14 -19 -15 -29 -4 -11 10 -10 11 4 6 12 -5
20 -1 24 9 4 9 9 14 12 11 3 -3 -2 -13 -11 -22z m-902 7 c25 -11 -1 -11 -35 0
-20 6 -21 8 -5 8 11 0 29 -3 40 -8z m-12 -31 l22 -21 -25 7 c-14 4 -27 11 -30
15 -3 4 -48 7 -102 6 -53 -1 -94 2 -91 6 2 5 49 8 104 8 88 0 102 -3 122 -21z
m828 -27 c-13 -9 -31 -17 -40 -17 -9 0 -16 -7 -16 -15 0 -8 -10 -15 -21 -16
-12 -1 -26 -4 -33 -8 -6 -4 -11 -5 -11 -3 0 9 79 56 104 63 14 3 26 11 26 17
0 6 3 7 8 3 4 -5 -4 -15 -17 -24z m-611 -12 c0 -5 -7 -10 -15 -10 -8 0 -15 5
-15 10 0 6 7 10 15 10 8 0 15 -4 15 -10z m-28 -65 c5 -11 -2 -6 -16 10 -14 17
-25 35 -25 40 0 11 25 -20 41 -50z m128 15 c0 -5 -7 -10 -15 -10 -8 0 -15 5
-15 10 0 6 7 10 15 10 8 0 15 -4 15 -10z m362 -17 c-6 -2 -10 -8 -7 -13 3 -4
-3 -14 -12 -21 -14 -12 -16 -12 -9 0 6 9 5 12 -5 9 -8 -3 -13 -10 -12 -15 1
-5 -7 -9 -17 -9 -11 0 -17 2 -15 4 15 15 72 51 80 51 6 0 4 -3 -3 -6z m-1222
-13 c-19 -13 -30 -13 -30 0 0 6 10 10 23 10 18 0 19 -2 7 -10z m-46 -26 c13
-5 14 -9 5 -20 -16 -20 -29 -17 -29 6 0 22 1 23 24 14z m1170 -27 c-4 -12 -38
-41 -71 -60 -13 -8 -12 18 2 30 4 4 5 2 0 -6 -5 -9 -3 -12 6 -9 8 3 13 12 11
19 -2 8 -1 11 3 7 4 -4 16 2 28 13 25 23 28 24 21 6z m-1132 -59 c-16 -16 -37
4 -28 28 6 16 8 16 23 1 13 -13 15 -19 5 -29z m977 -51 c-2 -1 -13 -9 -24 -17
-19 -14 -19 -14 -6 3 7 9 18 17 24 17 6 0 8 -1 6 -3z m-172 -102 c0 -8 -4 -12
-9 -9 -5 3 -6 10 -3 15 9 13 12 11 12 -6z m-102 -64 c3 -5 2 -12 -3 -15 -5 -3
-9 1 -9 9 0 17 3 19 12 6z m-115 -86 c0 -2 -10 -9 -22 -15 -22 -11 -22 -10 -4
4 21 17 26 19 26 11z m-120 -69 c0 -2 -8 -10 -17 -17 -16 -13 -17 -12 -4 4 13
16 21 21 21 13z m-339 -58 l24 -20 -31 17 c-17 10 -41 26 -55 37 l-24 20 31
-17 c17 -10 41 -26 55 -37z m142 -45 c28 2 43 1 35 -4 -21 -14 -87 -10 -118 6
-17 9 -30 18 -30 21 0 2 14 -3 32 -12 21 -11 47 -15 81 -11z"/>
<path d="M2401 5944 c0 -11 3 -14 6 -6 3 7 2 16 -1 19 -3 4 -6 -2 -5 -13z"/>
<path d="M5868 5953 c6 -2 10 -8 7 -13 -2 -4 13 -10 33 -14 21 -3 46 -14 55
-24 16 -18 14 -21 -34 -60 -46 -38 -89 -57 -75 -33 4 5 -9 19 -28 30 -18 12
-36 31 -39 42 -8 30 -27 14 -27 -22 0 -66 40 -103 120 -112 l35 -4 -38 -1
c-21 -1 -48 3 -60 9 -19 9 -19 8 2 -9 36 -29 92 -35 141 -16 30 12 38 20 30
29 -7 8 -4 17 9 29 10 9 21 33 24 53 12 71 -42 124 -125 122 -24 0 -37 -3 -30
-6z m92 -203 c-8 -5 -22 -9 -30 -9 -10 0 -8 3 5 9 27 12 43 12 25 0z"/>
<path d="M2360 5933 c0 -5 5 -15 10 -23 8 -12 10 -11 10 8 0 12 -4 22 -10 22
-5 0 -10 -3 -10 -7z"/>
<path d="M2077 5907 c-3 -7 -2 -19 3 -26 5 -9 9 -8 14 5 4 9 3 21 -2 26 -6 6
-12 4 -15 -5z"/>
<path d="M2330 5899 c0 -11 5 -17 10 -14 6 3 10 13 10 21 0 8 -4 14 -10 14 -5
0 -10 -9 -10 -21z"/>
<path d="M2216 5901 c-8 -12 3 -41 15 -41 5 0 9 11 9 25 0 25 -14 34 -24 16z"/>
<path d="M2250 5901 c0 -5 3 -17 6 -26 5 -12 9 -14 14 -4 5 7 6 18 3 26 -6 15
-23 18 -23 4z"/>
<path d="M2290 5890 c0 -11 5 -20 10 -20 6 0 10 9 10 20 0 11 -4 20 -10 20 -5
0 -10 -9 -10 -20z"/>
<path d="M1483 5860 c0 -25 2 -35 4 -22 2 12 2 32 0 45 -2 12 -4 2 -4 -23z"/>
<path d="M2055 5833 c11 -3 29 -12 40 -19 22 -15 55 -19 55 -6 0 14 -49 32
-83 31 -22 -1 -26 -3 -12 -6z"/>
<path d="M2994 5824 c-18 -14 -18 -15 4 -4 12 6 22 13 22 15 0 8 -5 6 -26 -11z"/>
<path d="M8520 5751 c0 -80 3 -93 23 -117 16 -18 30 -25 40 -21 14 5 17 22 16
99 0 61 -3 86 -9 73 -7 -16 -9 -17 -9 -3 -1 9 -10 20 -21 23 -11 3 -20 13 -20
21 0 8 -4 14 -10 14 -6 0 -10 -36 -10 -89z"/>
<path d="M1949 5788 c-30 -32 -39 -61 -39 -123 0 -47 3 -57 26 -71 14 -10 23
-23 20 -31 -9 -22 20 -70 46 -76 22 -6 82 16 106 40 17 16 26 17 16 1 -9 -15
14 -2 44 25 14 13 20 27 16 39 -3 10 -1 18 5 18 14 0 32 72 29 119 -1 22 -4
39 -7 38 -3 -1 -17 5 -30 12 -20 11 -30 10 -70 -4 -25 -10 -52 -25 -60 -34
-12 -14 -13 -14 -8 6 3 12 2 21 -2 20 -3 -1 -16 8 -28 21 -13 12 -27 22 -33
22 -5 0 -19 -10 -31 -22z m224 -35 c8 -10 18 -31 21 -48 6 -29 6 -29 -7 4 -7
18 -24 39 -37 47 -17 9 -20 13 -9 14 9 0 23 -8 32 -17z m-29 -19 c9 -3 16 -11
16 -16 0 -7 -5 -6 -13 1 -20 16 -45 -6 -62 -54 -13 -38 -20 -34 -15 10 2 20
37 65 51 65 4 0 14 -3 23 -6z m12 -89 c-23 -36 -62 -59 -83 -50 -15 7 -14 9 9
14 34 8 78 46 79 68 0 11 3 13 6 5 3 -7 -2 -24 -11 -37z m15 -23 c-5 -10 -18
-25 -27 -33 -11 -9 -9 -2 6 19 26 35 36 42 21 14z"/>
<path d="M3557 5786 c20 -26 27 -28 17 -3 -3 8 -12 18 -20 21 -11 4 -10 0 3
-18z"/>
<path d="M2346 5761 c-27 -29 -15 -46 13 -22 30 26 45 27 29 2 -7 -11 -16 -19
-21 -18 -5 1 -12 -4 -14 -10 -3 -8 4 -13 16 -13 29 0 49 43 31 65 -17 20 -33
19 -54 -4z"/>
<path d="M3433 5762 c-13 -2 -23 -7 -23 -11 0 -10 79 -51 98 -51 10 0 3 7 -15
16 -17 9 -33 23 -35 32 -2 11 -11 16 -25 14z"/>
<path d="M2553 5720 c-18 -11 -33 -23 -33 -27 0 -4 5 -2 12 5 19 19 58 15 59
-5 0 -15 2 -15 9 2 21 49 5 57 -47 25z"/>
<path d="M6155 5720 c-3 -5 -24 -10 -45 -10 -32 0 -38 -3 -33 -16 17 -44 103
-35 103 11 0 25 -14 33 -25 15z"/>
<path d="M6710 5696 c0 -32 27 -66 52 -66 16 0 7 16 -14 25 -14 6 -23 19 -24
33 -1 23 10 30 21 12 8 -12 25 -13 25 -2 0 8 -43 32 -55 32 -3 0 -5 -15 -5
-34z"/>
<path d="M6870 5672 c0 -9 -3 -27 -6 -39 -4 -15 0 -24 15 -32 20 -11 21 -9 21
33 0 30 -5 46 -15 50 -10 3 -15 -1 -15 -12z"/>
<path d="M6740 5676 c0 -2 7 -6 15 -10 8 -3 15 -1 15 4 0 6 -7 10 -15 10 -8 0
-15 -2 -15 -4z"/>
<path d="M6792 5618 c6 -18 28 -21 28 -4 0 9 -7 16 -16 16 -9 0 -14 -5 -12
-12z"/>
<path d="M2681 5591 c-10 -7 -10 -10 -1 -16 6 -4 16 -3 22 3 13 13 -4 23 -21
13z"/>
<path d="M2777 5432 c-296 -190 -299 -192 -294 -235 3 -27 14 -40 83 -85 96
-65 160 -95 185 -89 22 6 393 238 397 249 2 5 8 8 13 8 7 0 132 81 148 96 10
9 -9 15 -21 8 -13 -9 -18 -10 -39 -13 -5 0 -7 -6 -3 -13 5 -7 3 -8 -5 -4 -7 5
-22 0 -34 -11 -21 -17 -21 -17 -7 0 7 10 40 32 72 48 41 21 56 33 52 44 -4 9
-38 35 -76 58 -38 23 -88 54 -111 69 -77 49 -85 46 -360 -130z m260 12 c5 -15
-41 -34 -58 -23 -10 6 -6 9 14 9 28 0 37 14 15 24 -7 3 -4 5 6 3 11 -1 21 -7
23 -13z m37 -20 c21 -8 20 -20 -1 -28 -10 -4 -14 -4 -10 0 4 4 2 13 -4 21 -13
14 -9 16 15 7z m-114 -24 c0 -5 -3 -10 -7 -10 -5 0 -19 -3 -33 -6 l-25 -6 25
15 c31 18 40 20 40 7z m75 -10 c19 -8 19 -9 -2 -9 -12 -1 -25 4 -28 9 -7 12 2
12 30 0z m-35 -29 c0 -16 -19 -23 -41 -16 -17 6 -19 9 -8 16 19 12 49 11 49 0z
m180 -36 c0 -2 -13 -11 -30 -20 -38 -19 -40 -11 -2 9 31 17 32 18 32 11z m-75
-45 c-3 -5 -16 -15 -28 -21 -19 -9 -19 -8 3 10 28 23 34 26 25 11z m-517 -43
l27 5 -25 -21 c-28 -23 -21 -27 13 -9 21 11 21 10 7 -7 -14 -17 -13 -18 8 -13
12 4 20 2 16 -3 -3 -5 0 -9 7 -9 19 0 89 -33 89 -42 0 -4 6 -8 13 -8 20 0 16
-29 -4 -35 -23 -8 -112 43 -102 57 3 7 1 8 -6 4 -11 -7 -62 25 -98 60 -18 17
-16 27 2 20 8 -3 15 0 16 7 0 8 2 8 5 1 3 -6 17 -9 32 -7z m432 -11 c0 -2 -16
-13 -35 -25 -19 -11 -35 -18 -35 -16 0 5 61 45 68 45 1 0 2 -2 2 -4z m-175
-112 c-26 -20 -55 -36 -55 -30 0 5 63 46 70 46 3 -1 -4 -8 -15 -16z"/>
<path d="M2690 5146 c0 -2 7 -7 16 -10 8 -3 12 -2 9 4 -6 10 -25 14 -25 6z"/>
<path d="M6862 5572 c4 -24 58 -30 58 -6 0 13 -3 14 -15 4 -9 -7 -15 -8 -15
-2 0 5 -7 13 -16 16 -11 4 -14 1 -12 -12z"/>
<path d="M8368 5563 c-4 -14 -1 -24 9 -27 26 -10 39 -6 22 7 -9 7 -18 19 -21
27 -3 10 -6 8 -10 -7z"/>
<path d="M3510 5550 c0 -5 7 -7 15 -4 8 4 15 8 15 10 0 2 -7 4 -15 4 -8 0 -15
-4 -15 -10z"/>
<path d="M7003 5553 c-9 -3 -9 -12 -2 -29 12 -34 12 -37 -6 -30 -8 3 -15 1
-15 -4 0 -8 39 -25 43 -18 2 1 0 21 -3 44 -3 26 -9 39 -17 37z"/>
<path d="M3400 5541 c0 -11 115 -91 132 -91 20 0 88 44 88 57 0 18 -9 16 -54
-12 l-39 -24 -48 24 c-26 13 -54 31 -63 40 -9 9 -16 12 -16 6z"/>
<path d="M2377 5488 c-44 -28 -47 -32 -33 -47 9 -10 16 -22 16 -28 0 -12 -94
-83 -108 -83 -5 0 -19 -9 -32 -20 -23 -20 -23 -20 -55 0 -29 18 -63 19 -66 1
-6 -26 -3 -131 3 -131 4 0 8 5 8 10 0 6 11 3 25 -6 23 -15 27 -14 85 23 82 51
185 129 237 179 48 47 55 78 23 112 -27 29 -45 27 -103 -10z m-47 -163 c0 -3
-19 -17 -42 -32 -24 -16 -52 -36 -62 -45 -20 -18 -49 -26 -30 -9 12 12 126 91
131 91 1 0 3 -2 3 -5z"/>
<path d="M7952 5498 c-16 -16 -15 -63 3 -97 16 -33 65 -77 95 -86 11 -4 18
-10 15 -14 -6 -11 47 -1 63 12 6 5 12 21 12 36 -1 14 2 47 6 72 5 40 3 50 -15
68 -24 24 -51 28 -51 7 0 -22 -20 -24 -59 -4 -41 21 -53 22 -69 6z m52 -53
c-8 -21 14 -55 37 -55 11 0 17 -4 14 -10 -9 -15 -36 -12 -57 7 -26 23 -23 94
3 77 4 -2 6 -11 3 -19z"/>
<path d="M6060 5464 c0 -12 32 -36 136 -102 170 -107 218 -127 160 -67 -69 71
-296 201 -296 169z"/>
<path d="M4580 5434 c-14 -3 -45 -7 -69 -10 -28 -4 -40 -9 -34 -15 6 -6 20 -6
37 1 15 5 47 10 72 10 24 0 44 5 44 10 0 10 -4 10 -50 4z"/>
<path d="M5990 5402 c0 -6 15 -19 33 -31 17 -11 57 -39 87 -61 55 -40 74 -47
84 -32 3 5 -27 27 -67 50 -40 23 -87 51 -104 63 -18 11 -33 16 -33 11z"/>
<path d="M4548 5373 c-10 -2 -18 -9 -18 -14 0 -5 -7 -9 -16 -9 -10 0 -14 -6
-10 -15 3 -8 1 -15 -5 -15 -6 0 -7 -5 -3 -11 4 -7 10 -7 16 -1 5 5 30 7 56 4
45 -4 48 -3 58 26 10 27 10 31 -10 36 -23 6 -42 6 -68 -1z"/>
<path d="M7402 5268 c-1 -75 -6 -118 -13 -118 -5 0 -7 -5 -4 -10 5 -8 11 -8
19 -1 7 6 16 8 19 4 4 -3 7 -1 7 5 0 7 -4 12 -10 12 -5 0 -11 49 -13 113 l-3
112 -2 -117z"/>
<path d="M5619 5281 c-24 -16 -105 -68 -179 -116 -226 -146 -230 -149 -237
-174 -5 -19 0 -30 23 -49 l29 -25 -27 17 c-31 18 -38 8 -10 -16 26 -24 203
-141 267 -178 80 -46 112 -40 242 41 233 145 265 166 315 201 29 21 94 64 144
97 76 49 92 64 96 89 5 33 -6 72 -21 72 -5 0 -7 -8 -4 -18 5 -22 -12 -37 -102
-92 -163 -99 -188 -112 -194 -102 -3 6 -19 14 -34 17 -15 4 -27 12 -27 19 0 6
-11 -2 -25 -19 -21 -24 -25 -26 -23 -10 5 28 -22 55 -54 55 -30 0 -58 -23 -58
-47 0 -9 -2 -14 -5 -11 -12 12 8 56 27 61 11 3 18 9 15 14 -2 4 -15 30 -27 57
-12 27 -30 50 -41 53 -10 3 -19 9 -19 14 0 5 7 6 16 2 13 -5 11 3 -7 35 -13
23 -27 42 -30 42 -3 0 -25 -13 -50 -29z m27 -79 c-18 -16 -18 -16 -6 6 6 13
14 21 18 18 3 -4 -2 -14 -12 -24z m634 -5 c0 -2 -10 -12 -22 -23 l-23 -19 19
23 c18 21 26 27 26 19z m-580 -37 c0 -11 -4 -20 -8 -20 -4 0 -8 9 -8 20 0 11
4 20 8 20 4 0 8 -9 8 -20z m-55 -40 c-3 -5 -12 -10 -18 -10 -7 0 -6 4 3 10 19
12 23 12 15 0z m21 -15 c-6 -17 9 -21 19 -5 3 6 12 10 18 10 7 0 4 -5 -5 -11
-10 -5 -15 -16 -11 -25 4 -10 -4 -25 -21 -39 -23 -19 -30 -21 -51 -11 -51 23
-39 76 16 76 16 0 29 5 29 10 0 6 3 10 6 10 3 0 4 -7 0 -15z m499 -11 c-19
-14 -39 -9 -30 6 3 5 13 6 22 3 12 -5 14 -3 8 7 -6 9 -4 11 5 5 10 -6 9 -11
-5 -21z m-100 -65 c-4 -5 -15 -13 -25 -19 -25 -13 -35 4 -13 21 14 12 16 12 9
0 -6 -9 -5 -12 5 -9 8 3 13 11 11 17 -1 7 2 10 8 6 6 -3 8 -11 5 -16z m-425
-39 c0 -5 -2 -10 -4 -10 -3 0 -8 5 -11 10 -3 6 -1 10 4 10 6 0 11 -4 11 -10z
m320 -24 c0 -2 -6 -9 -14 -15 -11 -9 -16 -9 -22 0 -4 7 -3 9 4 5 6 -3 13 -2
17 4 6 10 15 14 15 6z m-620 -102 c0 -2 -9 0 -20 6 -11 6 -20 13 -20 16 0 2 9
0 20 -6 11 -6 20 -13 20 -16z m444 -15 c-3 -5 -10 -7 -15 -3 -5 3 -7 10 -3 15
3 5 10 7 15 3 5 -3 7 -10 3 -15z m-364 -35 c0 -2 -9 0 -20 6 -11 6 -20 13 -20
16 0 2 9 0 20 -6 11 -6 20 -13 20 -16z m124 -64 c10 0 17 -3 13 -6 -12 -12
-63 8 -97 37 l-35 30 49 -31 c28 -16 59 -30 70 -30z m126 25 c0 -7 -57 -35
-72 -35 -7 0 5 9 27 19 48 23 45 22 45 16z"/>
<path d="M5636 5054 c-4 -9 -4 -19 -1 -22 2 -3 7 3 11 12 4 9 4 19 1 22 -2 3
-7 -3 -11 -12z"/>
<path d="M7625 5225 c39 -32 54 -32 19 0 -15 14 -32 25 -38 25 -6 -1 3 -12 19
-25z"/>
<path d="M3325 5228 c-11 -6 -25 -19 -32 -27 -7 -9 -13 -11 -13 -6 -1 6 -5 1
-9 -10 -18 -43 37 -85 109 -85 45 0 85 17 113 48 16 17 16 21 3 35 -8 8 -12
18 -8 22 4 4 2 5 -3 4 -5 -2 -24 5 -42 14 -37 19 -89 22 -118 5z m103 -44 c33
-23 27 -42 -19 -56 -34 -10 -46 -9 -68 3 -33 19 -33 40 -1 56 34 17 61 16 88
-3z"/>
<path d="M3370 5160 c0 -5 4 -10 9 -10 6 0 13 5 16 10 3 6 -1 10 -9 10 -9 0
-16 -4 -16 -10z"/>
<path d="M7285 5196 c77 -51 85 -53 85 -30 0 11 -6 14 -17 10 -17 -6 -17 -5 0
8 23 18 22 29 -1 15 -15 -9 -28 -7 -68 12 -75 35 -75 34 1 -15z"/>
<path d="M7990 5225 c0 -8 7 -15 15 -15 8 0 15 7 15 15 0 8 -7 15 -15 15 -8 0
-15 -7 -15 -15z"/>
<path d="M7325 5210 c-3 -6 1 -7 9 -4 18 7 21 14 7 14 -6 0 -13 -4 -16 -10z"/>
<path d="M5760 5196 c0 -9 5 -16 10 -16 6 0 10 4 10 9 0 6 -4 13 -10 16 -5 3
-10 -1 -10 -9z"/>
<path d="M3235 5135 c11 -44 36 -66 95 -81 39 -10 64 -11 98 -3 60 13 80 29
92 70 l10 33 -36 -35 c-34 -33 -38 -34 -116 -34 l-80 0 -35 40 -35 40 7 -30z"/>
<path d="M5806 5144 c-10 -25 -7 -34 9 -34 8 0 15 9 15 19 0 26 -16 35 -24 15z"/>
<path d="M7570 5141 c0 -9 30 -25 43 -23 4 1 7 -2 7 -7 0 -5 14 -16 30 -25 46
-22 36 -5 -18 32 -49 33 -62 38 -62 23z"/>
<path d="M7462 5120 c0 -14 2 -19 5 -12 2 6 2 18 0 25 -3 6 -5 1 -5 -13z"/>
<path d="M2270 5087 c0 -36 30 -74 49 -62 12 7 11 55 -2 55 -4 0 -6 4 -2 9 5
9 -24 31 -39 31 -3 0 -6 -15 -6 -33z"/>
<path d="M3040 5049 c0 -60 -2 -70 -14 -60 -10 8 -16 9 -21 1 -13 -21 -25 -9
-25 25 0 19 -4 35 -10 35 -6 0 -10 -34 -10 -83 0 -77 2 -85 23 -94 18 -9 35
-5 87 21 42 20 66 38 69 50 3 19 2 19 -20 3 -32 -22 -108 -57 -125 -57 -10 0
-14 13 -14 40 0 40 0 41 36 38 19 -1 38 -6 40 -10 10 -16 41 -7 66 20 23 23
25 29 13 45 -12 16 -14 15 -23 -13 -7 -20 -18 -30 -31 -30 -23 0 -36 46 -29
105 2 19 0 35 -4 35 -4 0 -8 -32 -8 -71z"/>
<path d="M4335 5110 c3 -5 11 -10 16 -10 6 0 7 5 4 10 -3 6 -11 10 -16 10 -6
0 -7 -4 -4 -10z"/>
<path d="M5851 5104 c-1 -12 5 -24 13 -27 16 -6 26 1 26 17 0 6 -5 4 -10 -4
-7 -12 -11 -10 -19 10 -9 23 -10 23 -10 4z"/>
<path d="M7137 5066 c6 -31 -5 -37 -53 -26 -26 6 -42 5 -49 -2 -7 -7 -6 -9 1
-5 6 4 19 -2 28 -12 14 -16 15 -20 2 -30 -18 -15 -59 6 -52 26 3 7 0 15 -6 19
-7 5 -8 2 -3 -6 6 -10 4 -12 -9 -7 -9 4 -15 3 -12 -1 3 -5 -13 -16 -35 -26
-21 -10 -37 -22 -34 -27 4 -5 -1 -9 -9 -9 -9 0 -16 -3 -16 -8 0 -8 125 -92
137 -92 11 0 233 152 233 160 0 6 -111 70 -123 70 -2 0 -2 -11 0 -24z m-167
-91 c0 -8 -8 -15 -17 -15 -11 0 -4 -9 20 -25 20 -14 37 -28 37 -32 0 -3 -10 2
-22 11 -13 9 -33 21 -46 26 -19 8 -21 13 -12 30 12 23 40 27 40 5z m41 -2 c13
-15 12 -15 -8 -4 -24 12 -29 21 -14 21 5 0 15 -7 22 -17z"/>
<path d="M4499 5069 c14 -5 32 -8 41 -7 9 2 23 -2 31 -9 12 -10 15 -9 15 5 0
14 -11 18 -56 19 -45 2 -51 1 -31 -8z"/>
<path d="M4458 5053 c7 -3 16 -2 19 1 4 3 -2 6 -13 5 -11 0 -14 -3 -6 -6z"/>
<path d="M2387 5008 c-68 -41 -77 -52 -53 -61 13 -5 128 66 134 83 8 23 -21
15 -81 -22z"/>
<path d="M7344 5023 c-36 -33 -110 -83 -122 -83 -5 0 -22 -10 -37 -21 -15 -12
-38 -23 -52 -25 -13 -1 -41 -13 -61 -27 -91 -59 -76 -59 -175 1 -50 29 -104
64 -121 76 -53 40 -91 62 -82 48 4 -7 49 -40 99 -74 51 -34 115 -79 144 -100
29 -21 62 -38 74 -38 24 0 100 35 127 59 9 9 63 47 120 85 56 37 107 77 113
88 18 34 5 39 -27 11z"/>
<path d="M7630 5037 c0 -10 8 -17 18 -17 9 0 13 4 7 8 -5 4 -13 11 -17 16 -5
5 -8 2 -8 -7z"/>
<path d="M7466 4952 c-3 -3 -6 -8 -6 -11 0 -11 109 -65 116 -58 4 4 5 8 3 10
-42 29 -109 64 -113 59z"/>
<path d="M2495 4908 c-33 -21 -67 -38 -76 -38 -10 0 -40 16 -69 35 -29 19 -54
35 -56 35 -2 0 -4 -8 -4 -19 0 -21 99 -91 128 -91 17 0 52 20 121 72 13 9 21
23 19 30 -2 11 -19 5 -63 -24z"/>
<path d="M3140 4880 c-47 -32 -91 -59 -98 -59 -7 -1 -39 16 -70 37 -83 56 -82
56 -82 33 0 -14 21 -35 67 -66 37 -25 74 -45 82 -45 15 0 139 79 179 114 21
19 30 47 15 45 -5 0 -46 -27 -93 -59z"/>
<path d="M6385 4878 c-27 -21 -56 -36 -64 -33 -15 6 -43 -13 -36 -25 5 -8 -68
-60 -82 -60 -5 0 3 10 17 21 l25 21 -25 -14 c-14 -9 -25 -20 -25 -26 0 -15
-94 -74 -105 -67 -5 3 -12 0 -16 -6 -4 -8 -3 -9 4 -5 7 4 12 5 12 2 0 -10
-102 -66 -111 -61 -5 4 -8 1 -7 -6 2 -6 -3 -14 -11 -17 -9 -3 -11 0 -6 8 5 9
4 11 -4 6 -6 -4 -9 -11 -7 -15 3 -4 -24 -25 -59 -47 -36 -22 -63 -45 -62 -53
1 -9 -11 -19 -30 -24 -18 -6 -33 -14 -33 -19 0 -8 23 -5 73 9 60 16 618 387
637 424 6 10 9 19 8 20 -26 7 -52 -2 -93 -33z m-70 -48 c-3 -5 -11 -10 -16
-10 -6 0 -7 5 -4 10 3 6 11 10 16 10 6 0 7 -4 4 -10z"/>
<path d="M3570 4860 c0 -4 12 -16 28 -25 15 -10 36 -27 47 -39 20 -23 150
-111 157 -107 1 1 17 -2 33 -8 28 -10 29 -10 10 4 -54 42 -275 182 -275 175z"/>
<path d="M7598 4854 c-4 -6 -22 -10 -40 -9 -42 3 -127 -42 -139 -72 -10 -26
-29 -31 -29 -8 0 17 -16 20 -25 5 -4 -6 -11 -8 -16 -5 -5 4 -9 1 -9 -4 0 -6 5
-11 10 -11 17 0 -12 -38 -33 -44 -11 -2 -21 2 -24 11 -3 8 -8 11 -12 5 -11
-18 -57 -24 -72 -10 -8 7 -27 20 -44 28 -16 8 -33 19 -37 25 -5 6 -8 6 -8 -1
0 -6 7 -17 15 -24 12 -10 13 -15 4 -21 -13 -8 60 -66 126 -99 l39 -20 56 32
c93 52 222 142 237 165 8 12 13 32 11 45 -2 13 -6 18 -10 12z m-397 -161 c13
-16 12 -17 -3 -4 -10 7 -18 15 -18 17 0 8 8 3 21 -13z"/>
<path d="M4961 4841 c-11 -7 -10 -11 7 -20 15 -8 23 -7 31 3 9 10 8 15 -5 20
-19 7 -16 8 -33 -3z"/>
<path d="M2775 4830 c-18 -28 6 -57 78 -94 63 -33 77 -37 95 -27 28 15 28 31
0 23 -13 -3 -19 -1 -15 5 11 18 -22 38 -42 26 -23 -15 -81 12 -81 37 0 23 -26
45 -35 30z"/>
<path d="M2880 4831 c0 -5 5 -13 10 -16 6 -3 10 -2 10 4 0 5 -4 13 -10 16 -5
3 -10 2 -10 -4z"/>
<path d="M3521 4798 c3 -26 12 -38 47 -61 23 -15 47 -25 53 -22 5 4 8 1 7 -6
-2 -6 3 -14 11 -17 9 -3 11 0 6 8 -5 9 -4 11 4 6 6 -4 9 -11 6 -16 -8 -12 33
-33 47 -24 7 4 8 3 4 -4 -5 -8 0 -12 13 -12 13 0 21 -7 21 -16 0 -10 5 -14 16
-10 8 3 12 2 9 -4 -3 -5 22 -28 57 -51 75 -48 93 -47 180 9 51 32 58 41 58 69
0 31 -1 32 -29 22 -16 -6 -32 -16 -34 -23 -4 -9 -19 -12 -44 -10 -29 2 -34 0
-20 -7 9 -6 23 -7 30 -4 6 4 -1 -5 -17 -20 -16 -14 -34 -24 -41 -21 -10 3
-157 97 -351 224 l-36 23 3 -33z"/>
<path d="M4929 4813 c-4 -25 5 -60 18 -75 9 -10 80 -61 159 -114 l143 -97 38
14 c36 14 38 18 41 62 2 26 0 47 -3 47 -3 0 -22 -7 -42 -15 -20 -9 -43 -13
-50 -11 -9 4 -13 -4 -13 -24 0 -17 -3 -30 -7 -30 -5 1 -57 36 -118 78 -96 68
-110 82 -113 109 -2 20 -12 37 -28 47 -13 9 -24 13 -25 9z"/>
<path d="M3331 4749 c-26 -18 -49 -28 -59 -24 -14 5 -14 4 0 -12 9 -10 18 -36
20 -58 3 -33 10 -44 48 -73 25 -18 53 -40 63 -48 11 -9 33 -24 51 -34 18 -10
67 -39 109 -64 90 -55 129 -60 150 -18 7 15 19 26 25 24 7 -1 12 2 12 8 0 9
-15 14 -33 11 -5 -1 -7 4 -4 11 2 7 11 12 19 10 26 -4 28 35 3 58 l-23 22 -38
-26 c-21 -14 -42 -26 -46 -26 -4 0 -29 14 -55 31 -26 17 -40 29 -31 26 9 -3
18 -2 20 2 2 5 18 18 37 29 l33 20 -43 32 c-52 38 -104 66 -95 51 4 -5 29 -22
57 -37 27 -15 48 -32 46 -37 -6 -19 -57 -42 -71 -32 -7 6 -36 26 -64 45 -56
38 -60 45 -36 54 12 4 15 2 10 -9 -7 -19 8 -19 24 0 10 12 9 15 -6 16 -25 2
-26 2 -46 -6 -13 -5 -18 -2 -18 8 0 9 -9 22 -21 30 l-20 15 23 16 c12 9 18 16
12 16 -6 0 -30 -14 -53 -31z m384 -238 c3 -6 -4 -15 -15 -21 -16 -8 -20 -8
-20 3 0 25 23 36 35 18z"/>
<path d="M3892 4754 c-18 -12 -38 -25 -45 -27 -9 -3 -9 -7 0 -17 9 -10 19 -6
50 16 21 15 40 30 42 31 3 2 0 7 -5 12 -5 4 -23 -2 -42 -15z"/>
<path d="M4720 4724 c0 -25 65 -79 218 -181 278 -187 294 -195 337 -167 30 19
34 65 8 85 -15 12 -16 12 -8 -1 7 -12 6 -13 -6 -4 -19 14 -38 12 -49 -6 -9
-13 -10 -13 -10 0 0 13 -2 13 -9 1 -8 -12 -26 -5 -98 39 -48 29 -119 75 -158
101 -38 25 -96 63 -127 83 -32 20 -58 40 -58 46 0 5 -9 10 -20 10 -11 0 -20
-3 -20 -6z"/>
<path d="M6295 4670 c3 -5 8 -10 11 -10 2 0 4 5 4 10 0 6 -5 10 -11 10 -5 0
-7 -4 -4 -10z"/>
<path d="M6260 4650 c0 -5 5 -10 10 -10 6 0 10 5 10 10 0 6 -4 10 -10 10 -5 0
-10 -4 -10 -10z"/>
<path d="M3155 4627 c-32 -18 -41 -29 -43 -55 l-3 -32 34 16 c37 18 61 51 55
77 -3 14 -8 14 -43 -6z"/>
<path d="M6220 4630 c0 -5 7 -10 16 -10 8 0 12 5 9 10 -3 6 -10 10 -16 10 -5
0 -9 -4 -9 -10z"/>
<path d="M6190 4610 c0 -5 7 -10 16 -10 8 0 12 5 9 10 -3 6 -10 10 -16 10 -5
0 -9 -4 -9 -10z"/>
<path d="M4186 4580 c-16 -10 -33 -17 -38 -14 -4 3 -28 -10 -52 -28 -25 -18
-61 -44 -81 -58 -19 -14 -41 -37 -49 -52 l-14 -27 41 21 c80 40 236 153 237
171 0 11 -12 7 -44 -13z"/>
<path d="M6155 4590 c-3 -5 1 -10 10 -10 9 0 13 5 10 10 -3 6 -8 10 -10 10 -2
0 -7 -4 -10 -10z"/>
<path d="M4300 4575 c-8 -10 -10 -30 -5 -60 6 -45 8 -47 118 -119 185 -121
216 -131 208 -68 -1 6 4 12 11 12 7 1 3 9 -9 19 -28 24 -29 35 -3 28 11 -3 20
-1 20 3 0 16 -21 22 -35 10 -11 -9 -39 6 -137 71 -147 98 -135 88 -119 98 10
6 9 10 -4 15 -24 9 -31 8 -45 -9z m26 -10 c-21 -16 -32 -13 -21 4 3 6 14 11
23 11 15 -1 15 -2 -2 -15z"/>
<path d="M5000 4580 c0 -5 5 -10 10 -10 6 0 10 5 10 10 0 6 -4 10 -10 10 -5 0
-10 -4 -10 -10z"/>
<path d="M6557 4547 c6 -32 -19 -50 -73 -51 -36 -1 -50 4 -64 22 -24 29 -32
28 -18 -3 6 -14 23 -29 37 -32 40 -11 99 -7 116 7 16 13 21 65 6 74 -4 3 -6
-5 -4 -17z"/>
<path d="M4395 4550 c4 -7 44 -35 89 -64 108 -69 106 -69 106 -58 0 5 -21 21
-47 36 -27 15 -72 43 -102 63 -29 19 -50 30 -46 23z"/>
<path d="M5050 4540 c29 -22 36 -24 45 -10 3 6 -3 10 -14 10 -11 0 -23 5 -26
10 -3 6 -12 10 -18 10 -7 0 -1 -9 13 -20z"/>
<path d="M6880 4550 c0 -5 7 -10 15 -10 8 0 15 5 15 10 0 6 -7 10 -15 10 -8 0
-15 -4 -15 -10z"/>
<path d="M6821 4508 c1 -24 4 -33 6 -20 2 12 8 22 13 22 4 0 6 -10 3 -22 -4
-19 -3 -20 6 -8 9 13 12 12 17 -7 7 -27 32 -37 50 -22 15 12 17 7 15 -27 -2
-25 28 -41 40 -22 8 12 11 8 25 -40 2 -7 -3 -15 -11 -18 -21 -9 -19 -24 4 -24
11 0 21 -4 23 -9 2 -4 14 -12 26 -16 22 -6 23 -5 13 14 -9 17 -9 21 3 21 15 0
23 43 18 98 -3 29 -5 31 -24 21 -11 -6 -31 -8 -44 -5 -19 5 -22 3 -17 -11 6
-15 5 -16 -9 -3 -9 9 -12 18 -6 21 5 3 -14 21 -42 39 -43 28 -54 31 -62 19 -8
-11 -9 -10 -4 3 3 11 -2 21 -14 28 -28 15 -30 13 -29 -32z"/>
<path d="M6915 4530 c-3 -6 1 -7 9 -4 18 7 21 14 7 14 -6 0 -13 -4 -16 -10z"/>
<path d="M6080 4505 c0 -8 4 -15 10 -15 5 0 7 7 4 15 -4 8 -8 15 -10 15 -2 0
-4 -7 -4 -15z"/>
<path d="M6940 4510 c8 -5 20 -10 25 -10 6 0 3 5 -5 10 -8 5 -19 10 -25 10 -5
0 -3 -5 5 -10z"/>
<path d="M7006 4479 c3 -5 0 -9 -7 -9 -7 0 -10 -2 -7 -5 3 -3 16 -2 28 3 l24
9 -22 5 c-12 4 -20 2 -16 -3z"/>
<path d="M6132 4439 c-1 -23 3 -48 9 -56 7 -8 55 -46 106 -84 93 -71 94 -71
143 -64 36 5 58 3 82 -9 21 -11 35 -13 42 -6 7 7 3 10 -12 10 -15 0 -20 4 -16
15 4 8 1 22 -6 30 -7 8 -10 26 -6 39 7 29 9 27 -94 99 -97 69 -112 77 -72 38
32 -30 33 -33 19 -54 -21 -33 -82 -36 -98 -5 -18 34 -41 49 -68 42 -21 -4 -23
-3 -12 10 7 8 10 20 6 26 -12 20 -20 10 -23 -31z m283 -68 c3 -5 -8 -19 -24
-30 -24 -17 -34 -19 -57 -11 -31 12 -26 21 24 36 48 15 50 16 57 5z m65 -111
c0 -15 -36 -12 -49 4 -9 11 -9 15 1 19 16 5 48 -10 48 -23z"/>
<path d="M3280 4455 c0 -9 6 -12 15 -9 8 4 15 10 15 15 0 5 -7 9 -15 9 -8 0
-15 -7 -15 -15z"/>
<path d="M3200 4404 c0 -30 5 -64 10 -75 16 -29 60 -24 98 10 37 35 40 46 11
38 -19 -5 -20 -4 -5 12 19 21 21 55 4 48 -7 -2 -12 -10 -10 -16 3 -17 -25 -44
-33 -31 -3 5 -3 10 1 10 4 0 -10 14 -31 30 -21 17 -39 30 -41 30 -2 0 -4 -25
-4 -56z m60 -19 c0 -8 -2 -15 -4 -15 -2 0 -6 7 -10 15 -3 8 -1 15 4 15 6 0 10
-7 10 -15z"/>
<path d="M6820 4454 c0 -3 5 -14 11 -25 8 -16 13 -18 25 -8 11 9 12 15 3 25
-11 14 -39 19 -39 8z"/>
<path d="M5355 4441 c-7 -12 12 -24 25 -16 11 7 4 25 -10 25 -5 0 -11 -4 -15
-9z"/>
<path d="M6715 4440 c-3 -5 -4 -14 0 -20 7 -11 35 -2 35 11 0 4 -7 5 -17 2
-11 -4 -14 -3 -9 5 4 7 5 12 2 12 -3 0 -8 -4 -11 -10z"/>
<path d="M6882 4414 c-17 -18 -16 -19 24 -43 39 -23 54 -26 54 -11 0 5 -7 7
-15 4 -11 -5 -17 3 -21 24 -7 35 -24 45 -42 26z"/>
<path d="M4100 4380 c0 -28 23 -48 147 -131 59 -40 125 -85 146 -102 44 -34
67 -30 67 13 0 23 -4 30 -20 30 -10 0 -89 47 -174 105 -86 58 -158 105 -161
105 -3 0 -5 -9 -5 -20z"/>
<path d="M5520 4384 c0 -8 5 -12 10 -9 6 4 8 11 5 16 -9 14 -15 11 -15 -7z"/>
<path d="M5570 4390 c0 -5 4 -10 9 -10 6 0 13 5 16 10 3 6 -1 10 -9 10 -9 0
-16 -4 -16 -10z"/>
<path d="M5660 4363 c0 -8 5 -13 12 -11 18 6 21 25 3 25 -8 0 -15 -7 -15 -14z"/>
<path d="M5470 4360 c0 -5 -6 -10 -14 -10 -24 0 -26 -16 -3 -17 12 -1 25 3 29
10 11 17 10 27 -2 27 -5 0 -10 -4 -10 -10z"/>
<path d="M5532 4334 c-23 -16 -29 -48 -12 -59 6 -3 10 -1 10 5 0 6 10 8 25 4
40 -10 50 -10 54 1 3 6 -8 13 -25 16 l-29 7 27 1 c17 1 32 -7 43 -21 13 -20
17 -21 25 -8 14 21 12 28 -10 50 -24 24 -77 26 -108 4z"/>
<path d="M5702 4343 c-26 -5 -20 -23 9 -23 10 0 19 7 19 15 0 8 -1 14 -2 14
-2 -1 -13 -4 -26 -6z"/>
<path d="M5892 4323 c16 -20 148 -113 160 -113 19 0 6 31 -17 40 -14 5 -25 14
-25 20 0 5 -8 10 -19 10 -10 0 -29 11 -42 23 -29 29 -78 45 -57 20z"/>
<path d="M4885 4308 c-10 -10 -25 -16 -31 -14 -9 4 -10 -3 -3 -27 11 -40 11
-46 -1 -27 -8 12 -10 9 -10 -12 0 -33 36 -75 71 -83 39 -10 76 28 83 85 4 31
3 37 -3 20 l-8 -25 -8 30 c-10 38 -23 55 -42 55 -11 0 -10 -4 5 -17 11 -10 23
-28 27 -40 5 -18 0 -25 -24 -38 -29 -14 -32 -14 -51 5 -26 26 -26 55 1 74 12
8 20 19 18 24 -2 5 -13 1 -24 -10z m2 -94 c-3 -3 -12 -4 -19 -1 -8 3 -5 6 6 6
11 1 17 -2 13 -5z"/>
<path d="M6620 4321 c0 -5 39 -35 88 -68 48 -32 89 -61 90 -65 2 -5 10 -8 18
-8 8 0 14 -4 14 -10 0 -5 5 -10 12 -10 6 0 20 -8 30 -17 13 -12 22 -13 29 -6
8 8 4 15 -12 27 -13 9 -29 16 -35 16 -7 0 -14 6 -17 13 -3 8 -30 26 -60 42
-31 15 -58 34 -61 41 -3 8 -12 14 -19 14 -8 0 -22 9 -32 20 -19 21 -45 27 -45
11z"/>
<path d="M5438 4303 c-18 -5 -25 -33 -9 -33 21 0 41 13 41 26 0 14 -3 15 -32
7z"/>
<path d="M5692 4288 c7 -20 58 -23 58 -4 0 11 -10 16 -31 16 -20 0 -29 -4 -27
-12z"/>
<path d="M4900 4265 c-10 -12 -9 -16 3 -21 17 -6 37 2 37 16 0 15 -29 19 -40
5z"/>
<path d="M5450 4250 c-14 -10 -22 -21 -19 -25 11 -10 59 6 59 20 0 23 -14 24
-40 5z"/>
<path d="M5669 4244 c-14 -17 -11 -21 16 -24 59 -6 73 9 25 27 -23 9 -32 8
-41 -3z"/>
<path d="M5300 4216 c0 -18 10 -25 26 -19 20 7 17 20 -6 26 -12 3 -20 0 -20
-7z"/>
<path d="M5482 4207 c-26 -27 -28 -43 -7 -51 10 -4 22 5 35 26 29 49 10 66
-28 25z"/>
<path d="M5537 4191 c-17 -35 -9 -46 29 -37 17 5 24 2 24 -9 0 -8 5 -15 10
-15 6 0 10 4 10 10 0 16 58 42 62 28 2 -6 10 -8 16 -4 18 11 14 26 -8 26 -10
0 -23 7 -28 16 -14 24 -48 13 -44 -14 2 -15 -2 -22 -13 -22 -11 0 -15 7 -13
22 5 36 -27 34 -45 -1z"/>
<path d="M5160 4190 c0 -16 294 -220 318 -220 36 0 -4 36 -142 128 -149 99
-176 113 -176 92z"/>
<path d="M5564 4040 c2 -21 40 -19 42 3 1 12 1 13 -3 2 -5 -18 -30 -20 -36 -2
-2 7 -3 6 -3 -3z"/>
<path d="M5663 3944 c-3 -8 -1 -20 5 -26 8 -8 9 -5 6 10 -4 14 0 22 13 25 17
4 17 5 0 6 -10 0 -20 -6 -24 -15z"/>
<path d="M4902 3678 c-28 -28 -1 -75 38 -63 14 4 20 15 20 35 0 36 -33 53 -58
28z"/>
<path d="M1173 2880 c0 -36 2 -54 4 -40 10 55 43 62 43 9 0 -16 5 -29 10 -29
12 0 13 50 1 69 -5 8 -16 11 -29 7 -17 -6 -21 -2 -25 21 -2 15 -4 -1 -4 -37z"/>
<path d="M1420 2880 c0 -33 4 -60 10 -60 6 0 10 7 10 17 0 15 1 15 18 0 26
-24 39 -21 17 3 -17 19 -17 21 0 40 22 24 9 27 -17 3 -17 -15 -18 -14 -18 20
0 21 -4 37 -10 37 -6 0 -10 -27 -10 -60z"/>
<path d="M2280 2880 c0 -33 4 -60 10 -60 6 0 10 27 10 60 0 33 -4 60 -10 60
-6 0 -10 -27 -10 -60z"/>
<path d="M1092 2923 c-25 -10 -34 -53 -17 -79 16 -26 59 -33 71 -12 5 8 2 9
-10 5 -26 -10 -56 10 -56 38 0 28 30 48 56 38 12 -4 15 -3 10 5 -7 12 -31 14
-54 5z"/>
<path d="M1743 2909 c-5 -5 -7 -26 -4 -47 5 -26 12 -38 26 -40 16 -3 18 -1 8
9 -15 15 -17 56 -4 61 5 2 3 8 -4 15 -8 7 -16 8 -22 2z"/>
<path d="M1272 2888 c-17 -17 -15 -55 4 -62 23 -9 44 -7 44 4 0 5 -6 7 -13 4
-8 -3 -20 2 -27 11 -11 13 -8 15 19 15 17 0 31 4 31 8 0 12 -22 32 -35 32 -6
0 -16 -5 -23 -12z m38 -8 c0 -5 -9 -10 -21 -10 -11 0 -17 5 -14 10 3 6 13 10
21 10 8 0 14 -4 14 -10z"/>
<path d="M1358 2889 c-35 -20 -15 -70 27 -68 19 0 19 1 -2 9 -13 5 -23 18 -23
28 0 10 10 24 23 30 13 6 16 11 7 11 -8 0 -23 -4 -32 -10z"/>
<path d="M1556 2884 c-19 -19 -20 -25 -3 -49 10 -13 21 -16 40 -11 21 5 27 12
27 35 0 40 -35 54 -64 25z m44 -10 c11 -12 11 -18 -2 -31 -19 -18 -38 -10 -38
16 0 33 20 40 40 15z"/>
<path d="M1649 2863 c5 -33 10 -38 34 -39 25 -1 27 1 26 40 l-2 41 -6 -35 c-8
-46 -35 -48 -39 -2 -2 17 -7 32 -11 32 -4 0 -5 -17 -2 -37z"/>
<path d="M1852 2888 c-18 -18 -15 -56 7 -63 40 -12 70 20 51 56 -12 21 -40 25
-58 7z m46 -22 c6 -29 -15 -43 -35 -24 -14 14 -14 20 -3 33 16 19 34 15 38 -9z"/>
<path d="M1939 2896 c-4 -4 -3 -21 0 -39 6 -26 12 -32 34 -33 25 -1 27 2 26
40 l-2 41 -6 -35 c-8 -46 -34 -47 -41 -2 -3 19 -8 31 -11 28z"/>
<path d="M2031 2858 l1 -43 8 34 c4 18 14 37 22 42 9 6 7 9 -9 9 -20 0 -23 -5
-22 -42z"/>
<path d="M2137 2893 c-13 -13 -7 -32 13 -38 11 -4 18 -11 14 -16 -3 -6 -12 -8
-20 -5 -8 3 -14 1 -14 -5 0 -6 10 -9 22 -7 30 4 35 34 8 43 -11 3 -18 11 -14
16 3 6 12 8 20 5 8 -3 14 -1 14 4 0 11 -33 14 -43 3z"/>
<path d="M2230 2889 l25 -11 -28 -10 c-30 -11 -34 -37 -7 -46 12 -4 13 -3 3
10 -14 16 -8 28 15 28 8 0 12 -6 9 -15 -4 -8 -2 -17 4 -21 7 -4 9 8 7 32 -3
33 -7 39 -28 41 l-25 3 25 -11z"/>
<path d="M2328 2875 c-13 -30 3 -55 36 -54 21 0 21 0 -1 9 -31 12 -29 30 2 30
28 0 34 24 9 34 -26 10 -34 7 -46 -19z m47 5 c3 -5 -3 -10 -15 -10 -12 0 -18
5 -15 10 3 6 10 10 15 10 5 0 12 -4 15 -10z"/>
<path d="M2417 2893 c-13 -13 -7 -32 13 -38 11 -4 18 -11 14 -16 -3 -6 -12 -8
-20 -5 -8 3 -14 1 -14 -5 0 -6 10 -9 22 -7 30 4 35 34 8 43 -11 3 -18 11 -14
16 3 6 12 8 20 5 8 -3 14 -1 14 4 0 11 -33 14 -43 3z"/>
<path d="M1584 2143 c-4 -27 -11 -59 -16 -72 -5 -15 -5 -28 2 -36 6 -7 7 -20
4 -30 -6 -16 -5 -16 15 1 18 15 19 20 6 22 -8 2 -13 8 -10 13 11 17 55 9 92
-18 l38 -27 0 -95 c0 -62 -5 -104 -13 -120 -21 -36 -7 -86 37 -129 57 -57 130
-112 164 -125 9 -3 17 -11 17 -17 0 -5 9 -10 20 -10 12 0 26 -5 33 -10 7 -6
21 -17 31 -24 30 -20 13 -43 -45 -60 -99 -30 -247 -10 -346 45 -29 16 -59 29
-67 29 -8 0 -24 12 -35 26 l-21 27 27 14 c16 8 35 21 44 29 20 18 26 18 26 -1
0 -8 -3 -15 -7 -15 -4 0 -7 -7 -7 -15 0 -8 4 -15 9 -15 4 0 8 1 8 3 0 1 4 17
9 35 6 18 6 30 1 27 -4 -3 -10 1 -13 7 -3 9 -16 2 -39 -19 -19 -18 -45 -33
-58 -33 -13 0 -64 -20 -114 -44 -50 -25 -138 -65 -196 -89 l-105 -43 -3 -534
c-2 -460 0 -539 13 -566 15 -31 12 -64 -6 -64 -5 0 -9 -47 -9 -105 l0 -105
593 2 592 3 12 110 c6 61 9 127 6 148 -3 22 -1 37 5 37 17 0 22 -28 22 -123 0
-72 4 -100 21 -134 l21 -43 214 0 214 0 -1 48 c0 26 -4 67 -9 92 -4 25 -29
167 -54 315 -51 297 -106 530 -135 579 -10 17 -21 43 -25 58 -9 38 -45 78
-144 157 -48 38 -101 82 -119 98 -18 15 -72 52 -120 82 -129 80 -160 111 -109
111 25 0 56 36 56 65 0 9 7 30 16 48 16 29 30 126 17 113 -4 -3 -12 -1 -20 5
-17 15 -93 29 -93 18 0 -5 13 -9 29 -9 28 0 50 -25 35 -39 -4 -3 -8 -1 -10 4
-5 13 -105 6 -122 -8 -7 -6 -17 -17 -22 -26 -7 -14 1 -16 53 -17 56 -1 116
-10 125 -19 5 -5 -35 -80 -42 -77 -15 6 -26 1 -26 -13 0 -21 -37 -19 -57 4 -9
11 -22 17 -29 14 -8 -3 -16 6 -20 22 -6 23 -10 26 -35 21 -16 -3 -29 -1 -29 4
0 5 10 11 23 13 l22 4 -23 2 c-28 1 -37 22 -22 50 14 27 0 54 -38 76 -48 29
-78 119 -61 183 6 23 13 42 16 42 2 0 23 -9 45 -20 23 -11 50 -20 61 -20 15 0
17 -3 8 -14 -9 -11 -6 -15 16 -19 16 -3 30 -1 31 4 2 5 8 9 13 9 14 0 11 -28
-3 -33 -10 -4 -9 -6 1 -6 8 -1 19 -9 26 -18 12 -16 15 -16 53 1 23 10 43 27
46 40 5 18 10 14 31 -29 14 -27 25 -58 25 -67 0 -10 5 -18 10 -18 6 0 10 18
10 39 0 22 8 53 18 71 15 27 21 30 47 26 17 -3 60 -8 96 -12 117 -12 100 34
-31 85 l-75 28 -14 62 -15 61 -302 0 -303 0 -7 -47z m525 -429 c11 -10 -10
-12 -67 -7 -35 3 -58 9 -52 13 11 7 111 1 119 -6z m-249 2 c0 -2 -7 -7 -16
-10 -8 -3 -12 -2 -9 4 6 10 25 14 25 6z m373 -842 c13 -4 17 -17 17 -60 0 -30
-1 -54 -3 -54 -2 0 -27 7 -55 15 l-52 16 0 51 0 50 38 -6 c20 -4 45 -9 55 -12z
m-1061 -786 c-8 -8 -9 -15 -1 -25 14 -16 5 -17 -21 -1 -19 12 -19 13 3 25 28
16 34 16 19 1z"/>
<path d="M4557 2148 c8 -24 19 -60 23 -81 7 -36 6 -38 -25 -51 -21 -9 -36 -25
-44 -47 -51 -135 -44 -126 -166 -198 -38 -23 -85 -53 -104 -67 -19 -13 -42
-22 -51 -19 -10 3 -23 -1 -29 -9 -7 -8 -42 -34 -79 -57 -78 -50 -147 -112
-168 -152 -19 -35 -86 -244 -119 -369 -14 -51 -31 -118 -40 -148 -17 -62 -14
-68 53 -92 32 -12 33 -15 28 -48 -3 -19 -8 -98 -12 -175 -3 -89 -12 -164 -24
-205 -20 -71 -55 -268 -66 -367 l-7 -63 176 0 176 0 6 48 c3 26 10 79 16 118
5 39 12 120 15 180 6 150 42 359 59 342 3 -2 9 -29 15 -58 8 -40 6 -97 -7
-229 -10 -97 -18 -219 -19 -271 0 -52 -4 -103 -8 -113 -8 -16 28 -17 664 -17
l673 0 -7 65 c-9 89 5 548 16 537 12 -12 27 -113 38 -262 13 -174 29 -320 35
-331 4 -5 83 -9 182 -9 l175 0 -7 73 c-3 39 -12 95 -20 122 -7 28 -20 91 -29
140 -8 50 -22 110 -31 134 -9 25 -15 79 -16 130 0 47 -4 122 -8 166 -9 85 -7
90 43 120 16 9 15 18 -8 110 -13 55 -32 141 -41 190 -8 50 -32 146 -52 214
-43 145 -66 174 -188 235 -41 21 -103 57 -137 80 -35 23 -107 66 -161 95 -53
29 -102 62 -109 74 -22 44 -103 147 -114 147 -29 0 -32 73 -4 115 11 17 20 33
20 38 0 4 -119 7 -265 7 l-264 0 16 -42z m553 -856 c0 -5 -7 -9 -15 -9 -8 0
-12 4 -9 9 3 4 9 8 15 8 5 0 9 -4 9 -8z"/>
<path d="M7430 2163 c-171 -79 -269 -128 -299 -150 -37 -28 -110 -135 -142
-210 -41 -93 -79 -235 -79 -297 -1 -34 -5 -81 -10 -106 -6 -25 -17 -84 -26
-132 l-16 -88 24 -29 c13 -17 27 -30 32 -30 6 -1 5 4 -2 11 -23 23 -12 28 57
28 70 0 224 -27 319 -56 52 -16 52 -16 52 -57 0 -23 -10 -98 -21 -167 -11 -69
-23 -139 -26 -156 -4 -23 -15 -38 -44 -55 -57 -34 -91 -103 -88 -178 1 -31 5
-60 9 -66 3 -5 11 -28 17 -50 6 -22 18 -65 27 -96 9 -31 16 -63 16 -71 0 -9
12 -41 26 -72 14 -32 27 -74 28 -94 l1 -37 783 -3 784 -2 -8 97 c-4 54 -7 118
-7 143 0 43 3 57 24 108 5 13 9 32 9 43 0 11 8 32 17 46 10 15 24 47 33 72 12
36 20 46 38 47 18 1 22 -4 22 -27 0 -15 3 -35 7 -45 4 -11 3 -15 -4 -11 -7 5
-9 0 -6 -13 3 -11 12 -20 19 -20 9 0 14 -13 15 -37 1 -21 2 -71 3 -110 l1 -73
-72 0 -73 0 0 -110 0 -110 91 0 92 0 -7 182 c-4 101 -13 208 -21 238 -32 125
-38 232 -26 429 7 103 11 221 10 261 -2 64 0 74 19 89 21 16 22 21 21 301 0
243 -5 322 -22 385 -7 23 -32 62 -63 98 -19 20 -34 42 -34 47 0 6 -6 10 -12
10 -7 0 -40 13 -73 29 -33 17 -106 50 -163 75 -102 46 -103 46 -215 46 l-114
0 -13 -42 c-7 -24 -17 -47 -22 -52 -12 -15 -10 -28 5 -20 6 4 1 -5 -13 -20
-22 -25 -70 -56 -85 -56 -3 0 -1 9 5 20 13 25 21 80 13 93 -3 5 -14 -14 -24
-43 -10 -29 -16 -57 -13 -61 10 -16 -45 -21 -114 -10 -95 15 -193 61 -279 132
l-73 59 -127 -1 c-115 0 -133 -3 -183 -26z m1003 -545 c18 -13 43 -35 55 -50
16 -19 33 -28 52 -28 37 0 70 -13 97 -39 12 -12 27 -21 32 -21 19 0 34 -68 22
-102 -6 -17 -11 -43 -11 -59 0 -15 -7 -34 -15 -43 -8 -8 -15 -23 -15 -34 0
-32 -12 -82 -20 -82 -4 0 -7 13 -6 30 1 16 4 30 9 30 4 0 7 13 7 29 0 16 7 34
16 42 10 8 14 23 12 41 -3 16 -1 31 4 34 12 8 10 54 -3 54 -6 0 -8 7 -5 16 11
29 -53 81 -110 89 -38 6 -58 16 -90 47 -44 42 -59 46 -128 31 -35 -7 -37 -10
-23 -22 19 -15 24 -56 5 -45 -7 4 -8 3 -4 -5 11 -17 36 5 36 30 0 22 52 48 58
29 4 -11 9 -16 52 -49 25 -19 25 -20 5 -35 -12 -9 -21 -11 -24 -4 -2 6 3 14
10 19 11 7 11 9 -1 9 -22 0 -40 -20 -33 -36 3 -9 -2 -14 -16 -14 -25 0 -25 -6
0 -45 11 -16 22 -38 25 -47 12 -34 23 -18 19 27 -4 35 0 48 15 63 19 18 56 22
78 9 6 -4 27 -8 46 -9 38 -1 54 -22 35 -44 -13 -16 4 -45 23 -41 6 1 13 -5 15
-13 4 -12 3 -12 -5 -2 -7 11 -11 10 -17 -5 -5 -10 -7 -25 -6 -34 2 -21 -23
-31 -52 -20 -31 12 -36 81 -6 81 10 0 19 -7 19 -15 0 -9 -6 -12 -17 -8 -14 5
-15 3 -6 -7 6 -7 9 -18 7 -25 -6 -14 23 -28 38 -19 6 4 6 10 -1 17 -7 7 -7 14
0 23 7 9 5 18 -10 33 -22 22 -59 18 -69 -8 -3 -9 -10 -19 -15 -22 -5 -4 14
-30 42 -60 53 -56 58 -64 41 -74 -5 -3 -10 1 -10 11 0 14 -43 64 -56 64 -2 0
-4 -8 -5 -17 0 -10 -5 -2 -11 17 -12 44 -17 48 -29 30 -8 -11 -12 -12 -16 -2
-2 6 -9 12 -15 12 -13 0 1 -42 19 -57 8 -6 12 -17 8 -23 -5 -8 -13 -6 -28 7
-20 18 -20 18 -13 -7 4 -14 8 -34 10 -45 7 -46 18 -66 33 -61 38 15 63 18 63
7 0 -6 8 -11 18 -11 14 0 15 2 2 10 -13 8 -13 10 2 10 9 0 20 -5 23 -10 8 -13
-14 -42 -26 -34 -5 3 -9 -2 -9 -10 0 -9 -7 -16 -15 -16 -8 0 -15 5 -15 10 0 6
5 10 10 10 6 0 10 5 10 10 0 15 -30 12 -36 -3 -3 -8 0 -26 6 -41 7 -18 7 -33
0 -44 -8 -14 -9 -12 -10 10 0 15 -4 30 -10 33 -5 3 -10 15 -10 26 0 11 -6 22
-14 25 -19 7 -49 72 -42 91 4 9 1 13 -6 11 -29 -10 -14 -70 36 -143 16 -23 16
-27 3 -16 -9 7 -17 11 -17 8 0 -3 -3 -13 -6 -21 -5 -12 -2 -15 9 -10 12 4 14
1 10 -15 -3 -12 -9 -21 -14 -21 -5 0 -9 -7 -9 -16 0 -8 -5 -12 -10 -9 -6 3 -7
17 -4 31 4 15 2 24 -6 24 -7 0 -10 7 -6 15 3 9 -3 19 -15 26 -11 6 -18 16 -15
24 2 7 2 16 -2 20 -4 4 -7 10 -8 13 -6 36 -18 73 -25 78 -5 3 -9 11 -9 19 0 8
-5 26 -11 42 -11 28 -11 28 -20 6 -4 -13 -15 -23 -23 -23 -7 0 -16 -7 -20 -15
-7 -19 3 -19 25 1 16 15 19 13 38 -27 12 -23 19 -44 17 -46 -9 -10 -36 12 -36
29 0 16 -3 18 -13 9 -8 -6 -17 -7 -22 -3 -14 13 8 -43 31 -80 13 -21 24 -42
24 -47 0 -5 6 -11 13 -14 6 -2 9 -8 5 -12 -3 -4 -17 6 -30 21 -13 15 -33 38
-45 51 -13 13 -23 36 -24 51 -1 25 -2 24 -9 -7 -4 -18 -14 -37 -22 -42 -7 -5
-8 -9 -2 -9 5 0 15 5 22 12 9 9 12 7 12 -9 0 -30 -18 -38 -39 -19 -10 9 -22
16 -28 16 -13 0 -23 24 -23 56 0 17 -4 22 -15 17 -9 -3 -13 -8 -10 -11 8 -8
-34 -34 -45 -27 -6 3 -10 -1 -10 -9 0 -10 -6 -13 -15 -10 -8 4 -15 16 -15 28
0 17 -2 18 -10 6 -8 -12 -13 -13 -29 -3 -25 15 -36 1 -21 -26 13 -25 13 -41 0
-41 -5 0 -10 7 -10 15 0 17 -25 20 -35 5 -3 -5 -1 -10 5 -10 8 0 10 -9 6 -25
-5 -19 -3 -23 9 -19 11 4 13 2 9 -9 -8 -22 49 -60 65 -44 10 9 11 8 5 -7 -4
-11 -2 -21 6 -26 7 -4 11 -13 9 -19 -3 -7 -18 2 -37 19 -19 17 -46 37 -62 45
-35 18 -46 33 -32 47 6 6 4 20 -6 41 -18 37 -19 41 -31 122 -6 46 -8 51 -10
24 0 -20 -11 -49 -23 -64 -21 -27 -21 -27 -1 -21 14 4 23 1 27 -9 3 -8 1 -15
-5 -15 -6 0 -3 -7 6 -16 13 -14 14 -19 3 -25 -10 -7 -10 -9 0 -9 17 0 15 -18
-5 -38 -16 -16 -16 -16 -11 5 3 13 2 25 -3 28 -4 3 -6 12 -2 20 3 8 0 15 -6
15 -18 0 -29 -63 -14 -78 7 -8 10 -18 7 -23 -3 -6 -3 -18 1 -27 6 -15 8 -15
22 3 l15 20 -5 -20 c-4 -11 -9 -32 -13 -47 -3 -16 -13 -28 -21 -28 -8 0 -11 5
-8 10 3 6 1 10 -6 10 -8 0 -10 12 -5 39 3 23 2 41 -4 43 -14 4 -20 66 -6 71 7
2 4 11 -7 22 -11 10 -15 24 -12 34 4 9 9 25 11 36 2 11 12 26 21 33 14 10 15
15 5 21 -9 5 -6 14 13 31 26 24 58 80 51 87 -2 2 -27 -22 -55 -54 -33 -37 -50
-64 -47 -76 2 -10 0 -14 -6 -11 -7 4 -8 -36 -3 -122 4 -71 8 -163 10 -204 1
-41 5 -85 9 -97 4 -13 4 -33 0 -45 -7 -18 -10 -10 -17 37 -8 61 -9 67 -6 143
0 23 -4 48 -9 55 -6 7 -11 63 -11 125 -1 102 1 116 21 145 63 90 149 158 195
156 59 -2 163 62 163 101 0 24 69 57 135 65 33 4 68 13 79 21 27 19 32 18 69
-8z m133 -377 c-4 -5 -13 -8 -20 -5 -8 3 -21 -7 -32 -25 -10 -17 -22 -31 -26
-31 -15 0 -8 39 10 49 9 6 13 11 7 11 -5 0 1 9 15 20 21 16 27 17 39 5 7 -7
10 -18 7 -24z m-530 -98 c-6 -6 -36 9 -36 18 0 5 9 4 20 -3 10 -7 18 -14 16
-15z m949 -125 c-3 -174 -14 -296 -26 -304 -12 -7 -49 33 -49 52 0 9 -9 23
-20 32 -15 14 -19 31 -21 87 -2 127 2 200 12 184 11 -17 11 -1 -1 26 -7 17 0
24 49 47 31 14 57 27 58 27 0 1 0 -68 -2 -151z m-369 87 c-12 -45 -26 -70 -26
-44 0 25 21 89 29 89 4 0 3 -20 -3 -45z m-575 -38 c-18 -19 -21 -19 -21 -4 0
9 5 17 10 17 6 0 10 5 10 11 0 6 -9 8 -20 4 -22 -7 -26 5 -8 23 9 9 16 7 31
-9 19 -21 19 -21 -2 -42z m166 12 c-20 -32 -35 -22 -21 15 3 8 12 12 19 9 11
-4 12 -9 2 -24z m53 10 c0 -6 9 -8 20 -4 11 4 20 2 20 -4 0 -12 -20 -14 -44
-5 -18 7 -22 24 -6 24 6 0 10 -5 10 -11z m-54 -63 c0 -15 -5 -21 -10 -16 -5 5
-6 16 -3 24 9 23 15 19 13 -8z m304 -1 c0 -14 -30 -62 -49 -77 -12 -10 -21
-28 -21 -42 0 -13 -9 -35 -21 -50 -16 -21 -20 -35 -15 -61 4 -22 3 -35 -4 -35
-35 0 12 157 61 203 10 10 22 29 25 42 5 21 24 36 24 20z m79 -36 c-32 -24
-38 -14 -8 13 13 13 26 19 28 14 2 -5 -7 -17 -20 -27z m-310 4 c0 -25 -1 -25
-8 -8 -5 11 -7 23 -4 28 8 14 13 7 12 -20z m-321 -13 c7 -19 7 -41 1 -62 -5
-18 -9 -45 -9 -60 0 -16 -4 -28 -9 -28 -16 0 -19 41 -5 75 8 19 14 42 14 51 0
26 -24 10 -31 -22 -4 -16 -14 -47 -24 -69 -10 -22 -20 -62 -24 -89 -3 -27 -11
-51 -16 -53 -16 -5 -6 77 16 124 10 24 19 49 19 57 0 8 4 17 9 20 4 3 11 24
15 46 7 48 29 53 44 10z m116 -47 c-4 -16 -12 -37 -19 -49 -23 -36 -35 -94
-25 -120 7 -19 6 -24 -5 -24 -27 0 -19 85 16 156 32 69 43 81 33 37z m302 -27
c4 -23 1 -26 -26 -26 -26 0 -30 4 -30 26 0 21 4 25 20 21 11 -3 20 0 20 6 0
18 11 0 16 -27z m-228 -9 c3 -22 -1 -27 -17 -27 -17 0 -21 6 -21 31 0 24 4 30
18 27 10 -2 18 -14 20 -31z m72 17 c11 -12 10 -18 -3 -31 -13 -13 -19 -14 -31
-3 -19 15 -21 36 -3 43 20 9 24 8 37 -9z m70 -3 c14 -27 13 -28 -15 -28 -26 0
-29 5 -19 31 8 21 21 20 34 -3z m-34 -88 c11 -16 24 -35 29 -43 8 -13 7 -13
-9 -1 -24 20 -59 71 -49 71 5 0 18 -12 29 -27z m709 -737 c18 -13 18 -14 -3
-25 -26 -14 -43 -14 -19 0 18 10 18 11 0 25 -10 7 -13 14 -7 14 5 0 19 -6 29
-14z"/>
<path d="M8260 1580 c-8 -5 -12 -12 -9 -15 8 -8 39 5 39 16 0 11 -11 11 -30
-1z"/>
<path d="M8183 1558 c-13 -6 -23 -15 -23 -20 0 -12 11 -9 50 12 26 14 30 19
15 19 -11 0 -30 -5 -42 -11z"/>
<path d="M8455 1459 c-4 -5 -1 -9 5 -9 6 0 8 -5 4 -12 -5 -7 -2 -9 7 -6 8 3
23 0 33 -7 17 -13 17 -14 -3 -25 -12 -6 -21 -18 -21 -26 0 -11 10 -6 31 16 17
17 30 32 28 34 -30 22 -80 43 -84 35z"/>
<path d="M8565 1440 c-3 -6 1 -7 9 -4 18 7 21 14 7 14 -6 0 -13 -4 -16 -10z"/>
<path d="M8360 1430 c0 -5 -8 -7 -17 -3 -17 6 -17 5 0 -14 12 -14 17 -33 15
-59 -2 -31 0 -39 13 -38 15 1 16 -2 2 -33 -8 -20 -12 -38 -9 -41 3 -3 6 0 6 6
0 7 6 12 14 12 8 0 13 -8 11 -17 -1 -10 0 -12 2 -5 3 6 8 12 13 12 10 0 24 36
25 68 1 12 -3 22 -7 22 -4 0 -8 5 -8 11 0 6 -13 21 -30 35 -17 15 -27 31 -23
39 3 8 2 15 -1 15 -3 0 -6 -4 -6 -10z m34 -85 c-6 -16 -24 -21 -24 -7 0 11 11
22 21 22 5 0 6 -7 3 -15z"/>
<path d="M7930 1400 c-8 -5 -10 -10 -5 -10 6 0 17 5 25 10 8 5 11 10 5 10 -5
0 -17 -5 -25 -10z"/>
<path d="M8170 1386 c0 -9 5 -16 10 -16 6 0 10 4 10 9 0 6 -4 13 -10 16 -5 3
-10 -1 -10 -9z"/>
<path d="M8300 1361 c0 -13 26 -32 33 -24 8 7 -11 33 -24 33 -5 0 -9 -4 -9 -9z"/>
<path d="M8156 1334 c-8 -20 -8 -24 2 -24 4 0 8 9 9 20 2 24 -3 26 -11 4z"/>
<path d="M8090 1300 c0 -5 7 -10 16 -10 8 0 12 5 9 10 -3 6 -10 10 -16 10 -5
0 -9 -4 -9 -10z"/>
<path d="M8150 1284 c0 -8 5 -12 10 -9 6 3 10 10 10 16 0 5 -4 9 -10 9 -5 0
-10 -7 -10 -16z"/>
<path d="M8151 1244 c0 -11 3 -14 6 -6 3 7 2 16 -1 19 -3 4 -6 -2 -5 -13z"/>
<path d="M8094 1205 c-10 -8 -14 -15 -8 -15 6 0 17 7 24 15 16 19 9 19 -16 0z"/>
<path d="M8206 1205 c-3 -8 -1 -15 4 -15 13 0 22 18 11 24 -5 3 -11 -1 -15 -9z"/>
<path d="M7944 1185 c1 -33 16 -33 16 0 0 14 -4 25 -9 25 -5 0 -8 -11 -7 -25z"/>
<path d="M8393 1171 c4 -29 17 -39 17 -13 0 11 -5 24 -10 27 -6 4 -9 -2 -7
-14z"/>
<path d="M8420 1115 c7 -9 15 -13 17 -11 7 7 -7 26 -19 26 -6 0 -6 -6 2 -15z"/>
<path d="M8190 900 c0 -5 5 -10 10 -10 6 0 10 5 10 10 0 6 -4 10 -10 10 -5 0
-10 -4 -10 -10z"/>
<path d="M8244 2158 c1 -31 26 -54 26 -24 0 9 9 25 20 36 l20 20 -33 0 c-32 0
-34 -2 -33 -32z"/>
<path d="M1630 2016 c0 -2 7 -7 16 -10 8 -3 12 -2 9 4 -6 10 -25 14 -25 6z"/>
<path d="M1640 1980 c-12 -8 -12 -10 4 -10 12 0 16 -5 13 -15 -4 -8 -2 -17 3
-20 12 -7 13 25 2 42 -5 8 -13 9 -22 3z"/>
<path d="M1571 1949 c-1 -8 6 -24 15 -35 15 -19 15 -19 6 1 -5 11 -12 27 -15
35 -5 13 -6 13 -6 -1z"/>
<path d="M1660 1910 c0 -5 5 -10 10 -10 6 0 10 5 10 10 0 6 -4 10 -10 10 -5 0
-10 -4 -10 -10z"/>
<path d="M1614 1804 c6 -64 -1 -134 -19 -176 -4 -11 -3 -18 3 -18 18 0 36 73
36 152 l1 78 30 1 30 1 -31 7 c-17 4 -36 11 -44 16 -10 6 -11 -7 -6 -61z"/>
<path d="M4204 1705 c-10 -8 -14 -15 -8 -15 5 0 19 7 30 15 10 8 14 15 8 15
-5 0 -19 -7 -30 -15z"/>
<path d="M1886 1701 c-4 -7 -5 -15 -2 -18 9 -9 19 4 14 18 -4 11 -6 11 -12 0z"/>
<path d="M2052 1650 c7 -11 14 -16 16 -10 2 5 10 10 18 10 9 0 12 5 9 10 -3 6
-17 10 -31 10 -22 0 -23 -2 -12 -20z"/>
<path d="M6912 1060 c0 -19 2 -27 5 -17 2 9 2 25 0 35 -3 9 -5 1 -5 -18z"/>
<path d="M6918 633 c-2 -186 0 -356 5 -378 4 -22 15 -80 24 -130 9 -50 22 -99
29 -110 18 -26 18 -16 -5 80 -28 122 -44 241 -36 272 l8 28 8 -25 c5 -15 6 -6
2 25 -8 58 -9 97 -11 373 -3 331 -20 234 -24 -135z"/>
<path d="M8991 254 c0 -11 3 -14 6 -6 3 7 2 16 -1 19 -3 4 -6 -2 -5 -13z"/>
<path d="M6970 210 c0 -5 5 -10 10 -10 6 0 10 5 10 10 0 6 -4 10 -10 10 -5 0
-10 -4 -10 -10z"/>
</g>
</svg>
