<?xml version="1.0" standalone="no"?>
<!DOCTYPE svg PUBLIC "-//W3C//DTD SVG 20010904//EN"
 "http://www.w3.org/TR/2001/REC-SVG-20010904/DTD/svg10.dtd">
<svg version="1.0" xmlns="http://www.w3.org/2000/svg"
 width="1617.000000pt" height="846.000000pt" viewBox="0 0 1617.000000 846.000000"
 preserveAspectRatio="xMidYMid meet">

<g transform="translate(0.000000,846.000000) scale(0.100000,-0.100000)"
fill="#000000" stroke="none">
<path d="M1430 7850 c0 -103 1 -110 20 -110 16 0 20 7 20 37 l0 38 25 -38 c18
-26 33 -37 51 -37 l25 0 -25 33 c-31 41 -31 41 -5 78 l20 29 -22 0 c-13 0 -33
-12 -46 -27 l-22 -28 -1 68 c0 60 -2 67 -20 67 -19 0 -20 -7 -20 -110z"/>
<path d="M2517 7954 c-4 -4 -7 -22 -7 -40 0 -32 -2 -33 -29 -28 -61 13 -99
-77 -54 -128 11 -12 31 -17 74 -17 l60 1 -3 106 c-2 87 -6 107 -18 110 -9 1
-19 0 -23 -4z m-9 -120 c16 -29 2 -55 -27 -52 -29 3 -40 31 -21 53 16 20 37
19 48 -1z"/>
<path d="M420 7845 l0 -105 25 0 c23 0 25 4 25 45 l0 45 40 0 40 0 0 -45 c0
-41 2 -45 25 -45 l25 0 0 106 c0 104 0 105 -22 102 -19 -2 -24 -10 -26 -40 -3
-37 -4 -38 -43 -38 -39 0 -39 0 -39 40 0 36 -2 40 -25 40 l-25 0 0 -105z"/>
<path d="M640 7930 c0 -13 7 -20 20 -20 13 0 20 7 20 20 0 13 -7 20 -20 20
-13 0 -20 -7 -20 -20z"/>
<path d="M1292 7933 c4 -22 43 -25 43 -3 0 8 -11 16 -23 18 -19 3 -23 0 -20
-15z"/>
<path d="M893 7883 l-33 -4 0 -70 c0 -62 2 -69 20 -69 17 0 20 7 20 50 0 40 4
52 18 56 29 9 43 18 45 29 2 11 -23 14 -70 8z"/>
<path d="M1015 7878 c-50 -27 -59 -75 -20 -113 27 -28 85 -34 104 -12 16 20 2
28 -34 21 -22 -4 -35 -1 -44 10 -12 14 -7 16 43 16 53 0 56 1 56 24 0 27 -42
66 -69 66 -9 0 -25 -6 -36 -12z m55 -33 c11 -13 8 -15 -19 -15 -31 0 -42 14
-18 23 20 9 24 8 37 -8z"/>
<path d="M1613 7880 c-23 -9 -39 -50 -34 -85 6 -40 30 -54 92 -54 l59 1 0 69
c0 69 0 69 -27 69 -16 0 -37 2 -48 5 -11 2 -30 0 -42 -5z m67 -51 c9 -15 8
-24 -1 -35 -18 -22 -53 -13 -57 15 -6 40 39 56 58 20z"/>
<path d="M1798 7883 l-38 -4 0 -70 c0 -62 2 -69 20 -69 17 0 20 7 20 39 0 54
8 71 35 71 13 0 25 6 28 14 6 16 -1 27 -17 24 -6 -1 -28 -3 -48 -5z"/>
<path d="M1907 7870 c-20 -16 -27 -30 -27 -56 0 -52 27 -72 94 -72 l56 1 0 68
c0 69 0 69 -27 69 -16 0 -37 3 -48 6 -13 3 -31 -3 -48 -16z m76 -41 c15 -24 1
-49 -27 -49 -29 0 -44 33 -25 56 15 18 38 15 52 -7z"/>
<path d="M2098 7883 l-38 -4 0 -70 c0 -67 1 -69 24 -69 23 0 25 4 28 53 3 44
6 52 23 52 17 0 20 -8 23 -52 3 -45 6 -53 23 -53 17 0 19 7 19 58 0 61 -19 94
-51 90 -8 -1 -31 -3 -51 -5z"/>
<path d="M2257 7870 c-20 -16 -27 -30 -27 -56 0 -52 27 -72 94 -72 l56 1 0 68
c0 69 0 69 -27 69 -16 0 -37 3 -48 6 -13 3 -31 -3 -48 -16z m73 -35 c20 -25 8
-50 -25 -50 -21 0 -31 5 -33 18 -4 21 14 47 33 47 7 0 18 -7 25 -15z"/>
<path d="M2763 7878 c-48 -23 -51 -103 -4 -127 24 -13 71 -14 91 -1 21 13 4
25 -37 25 -20 0 -38 6 -40 13 -3 8 10 12 46 12 47 0 51 2 51 24 0 27 -42 66
-69 65 -9 0 -26 -5 -38 -11z m51 -24 c27 -10 18 -24 -15 -24 -27 0 -30 2 -19
15 14 17 13 17 34 9z"/>
<path d="M640 7810 c0 -63 2 -70 20 -70 18 0 20 7 20 70 0 63 -2 70 -20 70
-18 0 -20 -7 -20 -70z"/>
<path d="M1140 7866 c0 -9 12 -16 30 -18 l31 -3 -30 -35 c-48 -56 -42 -70 29
-70 53 0 60 2 60 20 0 16 -7 20 -31 20 l-30 0 30 37 c45 55 41 63 -29 63 -45
0 -60 -3 -60 -14z"/>
<path d="M1290 7810 c0 -63 2 -70 20 -70 18 0 20 7 20 70 0 63 -2 70 -20 70
-18 0 -20 -7 -20 -70z"/>
<path d="M2590 7865 c0 -9 9 -15 25 -15 32 0 31 -4 -5 -50 -16 -21 -30 -43
-30 -49 0 -7 24 -11 65 -11 58 0 65 2 65 19 0 15 -8 21 -30 23 l-31 3 30 35
c45 52 41 60 -29 60 -47 0 -60 -3 -60 -15z"/>
<path d="M729 7788 c-6 -11 -4 -88 3 -88 12 0 40 61 34 76 -4 12 -33 20 -37
12z"/>
<path d="M761 7584 c0 -11 3 -14 6 -6 3 7 2 16 -1 19 -3 4 -6 -2 -5 -13z"/>
<path d="M2293 7545 c0 -33 2 -45 4 -27 2 18 2 45 0 60 -2 15 -4 0 -4 -33z"/>
<path d="M2243 7550 c0 -25 2 -35 4 -22 2 12 2 32 0 45 -2 12 -4 2 -4 -23z"/>
<path d="M3314 7540 c1 -43 2 -45 31 -46 27 -2 28 -2 3 3 -23 4 -27 10 -31 46
l-4 42 1 -45z"/>
<path d="M3488 7573 c-2 -10 -1 -34 3 -53 6 -31 6 -30 8 18 1 52 -3 67 -11 35z"/>
<path d="M490 7561 c0 -5 -12 -12 -27 -14 l-28 -4 27 -2 c19 -1 28 -7 31 -23
3 -14 5 -9 6 15 0 20 -1 37 -4 37 -3 0 -5 -4 -5 -9z"/>
<path d="M1205 7560 c-3 -5 -1 -10 4 -10 6 0 11 5 11 10 0 6 -2 10 -4 10 -3 0
-8 -4 -11 -10z"/>
<path d="M1507 7559 c7 -7 15 -10 18 -7 3 3 -2 9 -12 12 -14 6 -15 5 -6 -5z"/>
<path d="M1590 7568 c0 -2 9 -11 20 -21 11 -9 20 -13 20 -7 0 5 -9 14 -20 20
-11 6 -20 9 -20 8z"/>
<path d="M3676 7560 c6 -8 13 -22 16 -30 3 -10 6 -7 11 9 3 13 3 20 0 17 -4
-3 -13 0 -22 7 -14 10 -14 10 -5 -3z"/>
<path d="M4149 7553 c-13 -16 -12 -17 4 -4 9 7 17 15 17 17 0 8 -8 3 -21 -13z"/>
<path d="M4370 7566 c0 -2 8 -10 18 -17 15 -13 16 -12 3 4 -13 16 -21 21 -21
13z"/>
<path d="M610 7535 c0 -14 2 -25 4 -25 2 0 6 11 8 25 3 14 1 25 -3 25 -5 0 -9
-11 -9 -25z"/>
<path d="M673 7544 c-8 -22 9 -48 33 -51 14 -2 12 0 -5 7 -18 8 -22 16 -19 35
6 28 1 33 -9 9z"/>
<path d="M790 7551 c0 -4 11 -17 25 -29 14 -12 25 -19 25 -16 0 4 -11 17 -25
30 -14 13 -25 20 -25 15z"/>
<path d="M1105 7549 c-4 -6 -5 -12 -2 -15 2 -3 7 2 10 11 7 17 1 20 -8 4z"/>
<path d="M1158 7535 c5 -30 -20 -44 -46 -24 -15 13 -16 12 -3 -3 7 -10 24 -17
37 -16 20 2 24 8 24 35 0 18 -4 33 -9 33 -4 0 -6 -11 -3 -25z"/>
<path d="M1373 7544 c-8 -22 9 -48 33 -51 14 -2 12 0 -5 7 -18 8 -22 16 -19
35 6 28 1 33 -9 9z"/>
<path d="M1426 7545 c4 -8 8 -15 10 -15 2 0 4 7 4 15 0 8 -4 15 -10 15 -5 0
-7 -7 -4 -15z"/>
<path d="M1470 7527 c0 -27 4 -33 25 -35 13 -1 26 2 29 6 3 5 -5 8 -17 8 -18
-1 -22 4 -22 27 1 15 -3 27 -7 27 -4 0 -8 -15 -8 -33z"/>
<path d="M1654 7545 c-3 -8 -4 -20 -2 -27 3 -7 7 -1 10 15 6 29 1 36 -8 12z"/>
<path d="M1740 7530 c0 -16 2 -30 4 -30 2 0 6 14 8 30 3 17 1 30 -4 30 -4 0
-8 -13 -8 -30z"/>
<path d="M1860 7545 c0 -8 2 -15 4 -15 2 0 6 7 10 15 3 8 1 15 -4 15 -6 0 -10
-7 -10 -15z"/>
<path d="M1995 7550 c3 -5 8 -10 11 -10 2 0 4 5 4 10 0 6 -5 10 -11 10 -5 0
-7 -4 -4 -10z"/>
<path d="M2807 7540 c3 -11 7 -20 9 -20 2 0 4 9 4 20 0 11 -4 20 -9 20 -5 0
-7 -9 -4 -20z"/>
<path d="M2991 7544 c0 -11 3 -14 6 -6 3 7 2 16 -1 19 -3 4 -6 -2 -5 -13z"/>
<path d="M3037 7539 c4 -13 8 -18 11 -10 2 7 -1 18 -6 23 -8 8 -9 4 -5 -13z"/>
<path d="M3642 7535 c0 -16 2 -22 5 -12 2 9 2 23 0 30 -3 6 -5 -1 -5 -18z"/>
<path d="M3739 7522 c5 -34 6 -35 9 -8 2 16 0 32 -5 37 -5 5 -7 -7 -4 -29z"/>
<path d="M3773 7544 c-8 -22 9 -48 33 -51 14 -2 12 0 -5 7 -18 8 -22 16 -19
35 6 28 1 33 -9 9z"/>
<path d="M3826 7545 c4 -8 8 -15 10 -15 2 0 4 7 4 15 0 8 -4 15 -10 15 -5 0
-7 -7 -4 -15z"/>
<path d="M3870 7540 c0 -11 2 -20 4 -20 2 0 6 9 9 20 3 11 1 20 -4 20 -5 0 -9
-9 -9 -20z"/>
<path d="M3916 7547 c3 -10 9 -15 12 -12 3 3 0 11 -7 18 -10 9 -11 8 -5 -6z"/>
<path d="M4006 7547 c3 -10 9 -15 12 -12 3 3 0 11 -7 18 -10 9 -11 8 -5 -6z"/>
<path d="M4046 7543 c-6 -14 -5 -15 5 -6 7 7 10 15 7 18 -3 3 -9 -2 -12 -12z"/>
<path d="M4305 7549 c-4 -6 -5 -12 -2 -15 2 -3 7 2 10 11 7 17 1 20 -8 4z"/>
<path d="M4510 7545 c0 -8 2 -15 4 -15 2 0 6 7 10 15 3 8 1 15 -4 15 -6 0 -10
-7 -10 -15z"/>
<path d="M4614 7545 c-3 -8 -4 -20 -2 -27 3 -7 7 -1 10 15 6 29 1 36 -8 12z"/>
<path d="M4700 7554 c0 -6 12 -24 26 -40 21 -23 24 -24 14 -6 -6 12 -8 28 -4
34 5 7 3 8 -6 3 -7 -4 -16 -2 -21 6 -5 8 -9 9 -9 3z"/>
<path d="M4770 7550 c0 -5 4 -10 9 -10 6 0 13 5 16 10 3 6 -1 10 -9 10 -9 0
-16 -4 -16 -10z"/>
<path d="M4950 7549 c0 -5 5 -7 10 -4 6 3 10 8 10 11 0 2 -4 4 -10 4 -5 0 -10
-5 -10 -11z"/>
<path d="M5044 7545 c-3 -8 -4 -20 -2 -27 3 -7 7 -1 10 15 6 29 1 36 -8 12z"/>
<path d="M2342 7530 c0 -14 2 -19 5 -12 2 6 2 18 0 25 -3 6 -5 1 -5 -13z"/>
<path d="M720 7530 c-9 -6 -10 -10 -3 -10 6 0 15 5 18 10 8 12 4 12 -15 0z"/>
<path d="M2662 7520 c0 -14 2 -19 5 -12 2 6 2 18 0 25 -3 6 -5 1 -5 -13z"/>
<path d="M3440 7530 c-9 -6 -10 -10 -3 -10 6 0 15 5 18 10 8 12 4 12 -15 0z"/>
<path d="M5011 7524 c0 -11 3 -14 6 -6 3 7 2 16 -1 19 -3 4 -6 -2 -5 -13z"/>
<path d="M950 7521 c0 -3 4 -12 9 -19 6 -11 9 -9 13 5 3 12 0 20 -8 20 -8 0
-14 -3 -14 -6z"/>
<path d="M1561 7494 c1 -21 4 -29 6 -18 3 15 10 20 22 17 9 -2 24 3 32 13 13
16 12 16 -9 3 -21 -13 -25 -12 -38 5 -13 18 -14 17 -13 -20z"/>
<path d="M1678 7523 c7 -3 16 -2 19 1 4 3 -2 6 -13 5 -11 0 -14 -3 -6 -6z"/>
<path d="M2761 7514 c0 -11 3 -14 6 -6 3 7 2 16 -1 19 -3 4 -6 -2 -5 -13z"/>
<path d="M3083 7523 c9 -2 23 -2 30 0 6 3 -1 5 -18 5 -16 0 -22 -2 -12 -5z"/>
<path d="M3390 7522 c0 -14 23 -32 40 -31 9 0 6 4 -8 10 -13 5 -20 13 -17 19
3 5 1 10 -4 10 -6 0 -11 -4 -11 -8z"/>
<path d="M3565 7518 c4 -11 0 -18 -12 -21 -15 -4 -16 -5 -1 -6 22 -1 33 18 19
32 -9 9 -11 8 -6 -5z"/>
<path d="M4770 7521 c0 -6 4 -13 10 -16 6 -3 7 1 4 9 -7 18 -14 21 -14 7z"/>
<path d="M1431 7504 c0 -11 3 -14 6 -6 3 7 2 16 -1 19 -3 4 -6 -2 -5 -13z"/>
<path d="M2435 7509 c-4 -6 -5 -12 -2 -15 2 -3 7 2 10 11 7 17 1 20 -8 4z"/>
<path d="M2991 7504 c0 -11 3 -14 6 -6 3 7 2 16 -1 19 -3 4 -6 -2 -5 -13z"/>
<path d="M3831 7504 c0 -11 3 -14 6 -6 3 7 2 16 -1 19 -3 4 -6 -2 -5 -13z"/>
<path d="M4285 7509 c-4 -6 -5 -12 -2 -15 2 -3 7 2 10 11 7 17 1 20 -8 4z"/>
<path d="M538 7498 c5 -5 16 -8 23 -6 8 3 3 7 -10 11 -17 4 -21 3 -13 -5z"/>
<path d="M2610 7500 c-9 -6 -10 -10 -3 -10 6 0 15 5 18 10 8 12 4 12 -15 0z"/>
<path d="M3180 7499 c0 -5 5 -7 10 -4 6 3 10 8 10 11 0 2 -4 4 -10 4 -5 0 -10
-5 -10 -11z"/>
<path d="M3967 7499 c7 -7 15 -10 18 -7 3 3 -2 9 -12 12 -14 6 -15 5 -6 -5z"/>
<path d="M4005 7500 c3 -5 8 -10 11 -10 2 0 4 5 4 10 0 6 -5 10 -11 10 -5 0
-7 -4 -4 -10z"/>
<path d="M4460 7500 c-9 -6 -10 -10 -3 -10 6 0 15 5 18 10 8 12 4 12 -15 0z"/>
<path d="M4645 7500 c-16 -7 -17 -9 -3 -9 9 -1 20 4 23 9 7 11 7 11 -20 0z"/>
<path d="M4878 7498 c6 -6 18 -8 28 -6 14 3 12 5 -9 10 -19 3 -25 2 -19 -4z"/>
<path d="M1678 7493 c7 -3 16 -2 19 1 4 3 -2 6 -13 5 -11 0 -14 -3 -6 -6z"/>
<path d="M5068 7493 c7 -3 16 -2 19 1 4 3 -2 6 -13 5 -11 0 -14 -3 -6 -6z"/>
<path d="M5148 7493 c7 -3 16 -2 19 1 4 3 -2 6 -13 5 -11 0 -14 -3 -6 -6z"/>
<path d="M2000 7482 c0 -7 -10 -13 -22 -13 -19 -1 -20 -2 -4 -6 20 -5 44 12
33 24 -4 3 -7 1 -7 -5z"/>
<path d="M4063 7463 c9 -2 23 -2 30 0 6 3 -1 5 -18 5 -16 0 -22 -2 -12 -5z"/>
<path d="M5078 6826 c-56 -20 -85 -42 -118 -88 -78 -107 -57 -244 48 -325 83
-63 184 -67 270 -10 158 107 143 323 -28 412 -43 22 -129 28 -172 11z m152
-166 c0 -11 7 -23 15 -26 22 -9 19 -57 -5 -72 -11 -7 -20 -21 -20 -32 0 -16
-7 -20 -30 -20 -17 0 -30 5 -31 13 0 10 -2 10 -6 0 -2 -7 -17 -13 -33 -13 -23
0 -29 5 -33 30 -4 16 -16 38 -27 47 -21 18 -28 53 -10 53 6 0 10 -7 10 -16 0
-11 7 -7 23 11 15 18 37 29 72 34 74 13 75 13 75 -9z"/>
<path d="M5157 6640 c-50 -6 -71 -24 -61 -50 4 -8 9 -25 11 -37 5 -23 23 -32
23 -13 0 6 11 10 25 10 14 0 25 -4 25 -10 0 -5 5 -10 10 -10 6 0 10 9 10 19 0
11 10 27 23 36 14 10 18 18 11 23 -6 4 -15 14 -20 22 -7 12 -20 14 -57 10z
m43 -30 c0 -5 -4 -10 -10 -10 -5 0 -10 5 -10 10 0 6 5 10 10 10 6 0 10 -4 10
-10z"/>
<path d="M10557 6826 c-78 -28 -136 -89 -157 -165 -47 -176 126 -344 297 -287
106 35 166 116 167 226 1 104 -54 184 -151 220 -62 23 -103 25 -156 6z m144
-126 c17 -9 19 -22 19 -100 0 -104 -5 -110 -90 -110 -85 0 -90 6 -90 110 0 74
3 91 18 99 22 14 118 14 143 1z"/>
<path d="M10560 6600 l0 -80 70 0 70 0 0 80 0 80 -70 0 -70 0 0 -80z m100 40
c0 -5 -18 -10 -40 -10 -22 0 -40 5 -40 10 0 6 18 10 40 10 22 0 40 -4 40 -10z
m20 -40 c0 -5 -22 -10 -50 -10 -27 0 -50 5 -50 10 0 6 23 10 50 10 28 0 50 -4
50 -10z m-30 -40 c0 -5 -16 -10 -35 -10 -19 0 -35 5 -35 10 0 6 16 10 35 10
19 0 35 -4 35 -10z"/>
<path d="M16038 6826 c-55 -20 -85 -42 -118 -88 -88 -122 -48 -282 89 -353 38
-19 94 -28 130 -20 31 7 31 7 31 71 l0 64 -68 0 c-40 0 -73 5 -80 12 -16 16
-16 160 0 176 7 7 40 12 80 12 l68 0 0 64 c0 58 -2 64 -22 70 -35 9 -69 6
-110 -8z"/>
<path d="M712 6803 c12 -3 18 -18 21 -51 l3 -47 2 47 c2 35 6 48 20 51 9 3 -1
5 -23 5 -22 0 -32 -2 -23 -5z"/>
<path d="M983 6760 c0 -30 2 -43 4 -27 2 15 2 39 0 55 -2 15 -4 2 -4 -28z"/>
<path d="M1040 6760 c0 -46 2 -50 24 -50 33 0 45 19 38 60 -4 29 -6 31 -12 15
-4 -11 -3 -25 2 -32 13 -16 1 -33 -22 -33 -15 0 -19 7 -18 39 0 28 5 41 17 44
11 3 8 5 -6 6 -21 1 -23 -3 -23 -49z"/>
<path d="M1250 6790 c0 -11 -5 -17 -12 -15 -21 8 -40 -11 -36 -36 2 -18 9 -24
31 -25 26 -1 27 1 27 47 0 27 -2 49 -5 49 -3 0 -5 -9 -5 -20z m-5 -46 c0 -10
-8 -20 -17 -22 -18 -3 -26 27 -11 42 12 11 28 0 28 -20z"/>
<path d="M6192 6803 c12 -3 18 -18 21 -51 l3 -47 2 47 c2 35 6 48 20 51 9 3
-1 5 -23 5 -22 0 -32 -2 -23 -5z"/>
<path d="M6463 6760 c0 -30 2 -43 4 -27 2 15 2 39 0 55 -2 15 -4 2 -4 -28z"/>
<path d="M6533 6803 c-21 -8 -15 -33 12 -45 34 -15 34 -42 -1 -35 -16 3 -22 1
-16 -5 15 -15 46 -5 50 15 2 10 -6 21 -23 29 -27 12 -29 34 -2 32 9 -1 14 2
11 7 -6 10 -12 10 -31 2z"/>
<path d="M6879 6788 c-3 -56 -5 -63 -21 -66 -21 -4 -25 27 -5 47 10 10 8 11
-6 5 -12 -4 -17 -15 -15 -33 2 -21 9 -26 31 -27 26 -1 27 1 27 47 0 49 -9 70
-11 27z"/>
<path d="M11730 6773 l-1 -38 -28 33 c-15 17 -31 32 -34 32 -4 0 -6 -19 -5
-42 1 -40 1 -41 5 -8 l5 34 33 -39 34 -40 1 53 c0 28 -2 52 -5 52 -3 0 -5 -17
-5 -37z"/>
<path d="M11996 6794 c-7 -18 -8 -90 -2 -83 3 3 7 22 9 43 2 21 10 42 18 47
11 7 11 9 -2 9 -9 0 -20 -7 -23 -16z"/>
<path d="M12070 6760 c0 -45 2 -50 23 -50 38 0 47 12 40 55 -5 31 -8 35 -13
20 -4 -11 -3 -25 2 -32 13 -16 1 -33 -22 -33 -15 0 -19 7 -18 39 0 28 5 41 17
44 11 3 8 5 -6 6 -21 1 -23 -3 -23 -49z"/>
<path d="M12279 6788 c-3 -56 -5 -63 -21 -66 -21 -4 -25 27 -5 47 10 10 8 11
-6 5 -12 -4 -17 -15 -15 -33 2 -21 9 -26 31 -27 26 -1 27 1 27 47 0 49 -9 70
-11 27z"/>
<path d="M858 6783 c-2 -5 -1 -24 3 -43 l6 -35 2 43 c1 39 -3 52 -11 35z"/>
<path d="M6338 6783 c-2 -5 -1 -24 3 -43 l6 -35 2 43 c1 39 -3 52 -11 35z"/>
<path d="M782 6771 c-8 -4 -12 -19 -10 -32 2 -18 9 -24 28 -24 28 0 39 27 20
50 -14 17 -20 18 -38 6z m36 -29 c2 -14 -2 -22 -12 -22 -19 0 -29 17 -22 36 8
22 30 12 34 -14z"/>
<path d="M899 6764 c-18 -22 1 -49 35 -50 22 -1 26 3 26 27 0 16 -4 29 -9 29
-5 0 -7 -9 -4 -20 6 -23 -22 -39 -39 -22 -9 9 -7 17 7 32 10 11 13 20 8 20 -6
0 -16 -7 -24 -16z"/>
<path d="M1286 6764 c-22 -21 -3 -58 25 -51 13 4 19 1 16 -6 -2 -7 -14 -12
-26 -11 -15 0 -19 -2 -11 -10 18 -18 45 8 48 48 2 20 -1 36 -6 36 -6 0 -8 -8
-5 -19 6 -23 -14 -38 -30 -22 -9 9 -8 16 1 31 15 24 9 26 -12 4z"/>
<path d="M1372 6771 c-21 -13 -11 -56 13 -57 15 -1 16 0 3 3 -27 7 -21 23 7
23 27 0 32 9 13 28 -14 14 -19 15 -36 3z m33 -11 c3 -5 -3 -10 -15 -10 -12 0
-18 5 -15 10 3 6 10 10 15 10 5 0 12 -4 15 -10z"/>
<path d="M1440 6770 c0 -5 5 -10 10 -10 6 0 10 5 10 10 0 6 -4 10 -10 10 -5 0
-10 -4 -10 -10z"/>
<path d="M6262 6771 c-8 -4 -12 -19 -10 -32 2 -18 9 -24 28 -24 19 0 26 6 28
24 3 20 -11 41 -28 41 -3 0 -11 -4 -18 -9z m35 -17 c8 -21 -13 -42 -28 -27
-13 13 -5 43 11 43 6 0 13 -7 17 -16z"/>
<path d="M6380 6765 c-19 -22 -1 -49 34 -53 23 -3 26 0 26 27 0 17 -4 31 -9
31 -5 0 -16 2 -24 5 -7 3 -20 -1 -27 -10z m39 -4 c17 -11 7 -41 -13 -41 -19 0
-28 14 -20 34 7 18 13 19 33 7z"/>
<path d="M6613 6773 c-8 -3 -13 -22 -12 -46 0 -23 3 -36 6 -29 2 6 13 12 24
12 24 0 36 27 22 48 -11 18 -23 22 -40 15z m32 -29 c0 -10 -8 -20 -17 -22 -18
-3 -26 27 -11 42 12 11 28 0 28 -20z"/>
<path d="M6692 6771 c-21 -13 -11 -56 13 -57 15 -1 16 0 3 3 -27 7 -21 23 7
23 27 0 32 9 13 28 -14 14 -19 15 -36 3z m33 -11 c3 -5 -3 -10 -15 -10 -12 0
-18 5 -15 10 3 6 10 10 15 10 5 0 12 -4 15 -10z"/>
<path d="M6788 6768 c5 -7 12 -24 15 -38 4 -22 4 -21 6 6 1 21 -5 34 -15 38
-13 5 -14 3 -6 -6z"/>
<path d="M11772 6771 c-8 -4 -12 -19 -10 -32 2 -18 9 -24 28 -24 28 0 39 27
20 50 -14 17 -20 18 -38 6z m36 -29 c2 -14 -2 -22 -12 -22 -19 0 -29 17 -22
36 8 22 30 12 34 -14z"/>
<path d="M11915 6766 c-20 -15 -15 -43 10 -52 18 -7 45 12 45 32 0 22 -35 35
-55 20z m43 -25 c-2 -9 -11 -17 -21 -19 -21 -4 -35 27 -17 38 19 12 42 0 38
-19z"/>
<path d="M12322 6771 c-8 -4 -12 -19 -10 -32 2 -18 9 -24 26 -23 12 0 21 -4
19 -10 -2 -6 -14 -11 -26 -10 -15 0 -19 -2 -11 -10 18 -18 45 8 48 48 2 20 -1
36 -6 36 -6 0 -8 -8 -5 -19 6 -23 -14 -38 -30 -22 -9 9 -8 16 1 31 14 22 13
23 -6 11z"/>
<path d="M12402 6771 c-21 -13 -11 -56 13 -57 15 -1 16 0 3 3 -27 7 -21 23 7
23 27 0 32 9 13 28 -14 14 -19 15 -36 3z m33 -11 c3 -5 -3 -10 -15 -10 -12 0
-18 5 -15 10 3 6 10 10 15 10 5 0 12 -4 15 -10z"/>
<path d="M12470 6769 c0 -5 5 -7 10 -4 6 3 10 8 10 11 0 2 -4 4 -10 4 -5 0
-10 -5 -10 -11z"/>
<path d="M1121 6754 c-1 -12 6 -27 14 -34 22 -19 45 -5 44 27 l-1 28 -7 -25
c-4 -14 -13 -25 -21 -25 -8 0 -17 11 -21 25 -6 22 -7 23 -8 4z"/>
<path d="M12151 6754 c0 -11 3 -14 6 -6 3 7 2 16 -1 19 -3 4 -6 -2 -5 -13z"/>
<path d="M12198 6748 c-2 -15 -9 -22 -22 -21 -12 1 -15 -2 -8 -9 17 -17 42 -1
42 27 0 31 -7 33 -12 3z"/>
<path d="M16035 6670 c-4 -6 20 -10 64 -10 41 0 71 4 71 10 0 6 -28 10 -64 10
-36 0 -68 -4 -71 -10z"/>
<path d="M16032 6583 l3 -58 68 -3 c53 -2 67 0 67 11 0 8 -7 17 -15 21 -8 3
-15 15 -15 26 0 11 7 23 15 26 8 4 15 12 15 20 0 11 -17 14 -70 14 l-71 0 3
-57z"/>
<path d="M732 6572 c-31 -36 -25 -63 20 -87 46 -24 44 -40 -4 -40 -47 0 -57
-11 -24 -26 14 -7 26 -16 26 -21 0 -15 19 -8 44 16 40 36 35 71 -14 96 -45 23
-44 45 1 36 38 -7 44 6 14 32 -31 27 -35 27 -63 -6z"/>
<path d="M6212 6572 c-31 -36 -25 -63 20 -87 46 -24 44 -40 -4 -40 -47 0 -57
-11 -24 -26 14 -7 26 -16 26 -21 0 -15 19 -8 44 16 39 35 35 72 -10 93 -43 21
-45 38 -6 39 47 2 47 3 20 29 -33 31 -37 30 -66 -3z"/>
<path d="M840 6565 c0 -9 9 -15 21 -15 18 0 20 -6 19 -47 -3 -80 -1 -93 15
-93 12 0 15 16 15 85 l0 85 -35 0 c-24 0 -35 -5 -35 -15z"/>
<path d="M960 6520 c-16 -33 -30 -62 -30 -65 0 -3 18 -5 40 -5 33 0 40 -3 40
-20 0 -13 7 -20 20 -20 13 0 20 7 20 20 0 11 5 20 10 20 6 0 10 7 10 15 0 8
-4 15 -10 15 -5 0 -10 7 -10 15 0 8 -9 15 -20 15 -11 0 -20 -7 -20 -15 0 -8
-7 -15 -15 -15 -19 0 -19 3 5 50 24 47 24 50 5 50 -8 0 -28 -27 -45 -60z"/>
<path d="M1119 6570 c-29 -17 -42 -64 -29 -104 30 -91 130 -68 130 29 0 69
-49 105 -101 75z m60 -34 c17 -20 10 -77 -11 -89 -24 -16 -48 8 -48 47 0 49
34 73 59 42z"/>
<path d="M1277 6568 c-42 -33 -41 -125 3 -148 54 -29 100 6 100 75 0 70 -55
109 -103 73z m62 -32 c17 -20 10 -77 -11 -89 -24 -16 -48 8 -48 47 0 49 34 73
59 42z"/>
<path d="M1437 6568 c-27 -22 -39 -66 -26 -105 28 -87 129 -64 129 30 0 70
-56 110 -103 75z m62 -32 c17 -20 10 -77 -11 -89 -24 -16 -48 8 -48 47 0 49
34 73 59 42z"/>
<path d="M6350 6560 c-44 -44 -16 -150 41 -150 33 0 56 17 68 52 29 82 -52
155 -109 98z m69 -24 c17 -20 10 -77 -11 -89 -24 -16 -48 8 -48 47 0 49 34 73
59 42z"/>
<path d="M11674 6566 c-15 -12 -16 -17 -7 -27 10 -10 15 -9 27 1 18 14 46 7
46 -13 0 -7 -18 -31 -40 -52 -56 -55 -53 -65 20 -65 47 0 60 3 60 15 0 10 -10
15 -31 15 l-31 0 26 31 c28 32 34 77 14 97 -16 16 -60 15 -84 -2z"/>
<path d="M642 5468 c-22 -61 -22 -82 0 -60 15 15 68 16 68 2 0 -5 6 -10 14
-10 11 0 8 15 -12 65 -14 36 -30 65 -37 65 -6 0 -21 -28 -33 -62z m44 -25
c-11 -12 -27 13 -20 32 7 17 8 17 17 -3 6 -12 7 -25 3 -29z"/>
<path d="M910 5515 c0 -9 5 -15 11 -13 6 2 11 8 11 13 0 5 -5 11 -11 13 -6 2
-11 -4 -11 -13z"/>
<path d="M1055 5519 c-10 -15 3 -25 16 -12 7 7 7 13 1 17 -6 3 -14 1 -17 -5z"/>
<path d="M850 5506 c0 -8 -6 -16 -12 -19 -10 -4 -10 -7 0 -18 6 -7 12 -26 12
-41 0 -15 5 -28 10 -28 6 0 10 13 10 28 0 15 6 34 13 41 10 11 10 14 0 18 -7
3 -13 11 -13 19 0 8 -4 14 -10 14 -5 0 -10 -6 -10 -14z"/>
<path d="M1110 5506 c0 -8 -6 -17 -12 -20 -10 -5 -10 -7 0 -12 6 -3 12 -21 12
-40 0 -24 5 -34 15 -34 10 0 15 10 15 34 0 19 6 37 13 40 10 5 10 7 0 12 -7 3
-13 12 -13 20 0 8 -7 14 -15 14 -8 0 -15 -6 -15 -14z"/>
<path d="M754 5465 c-16 -24 -16 -27 2 -46 10 -11 27 -19 38 -17 27 4 27 23 1
23 -20 0 -35 34 -16 36 6 1 16 2 21 3 20 2 15 21 -7 24 -15 2 -27 -5 -39 -23z"/>
<path d="M910 5445 c0 -25 5 -45 10 -45 6 0 10 20 10 45 0 25 -4 45 -10 45 -5
0 -10 -20 -10 -45z"/>
<path d="M950 5485 c0 -15 34 -85 41 -85 9 0 23 23 39 64 7 20 6 26 -3 26 -7
0 -18 -12 -24 -27 l-10 -28 -11 28 c-10 22 -32 38 -32 22z"/>
<path d="M1050 5446 c0 -35 4 -46 16 -46 12 0 14 9 12 42 -4 59 -28 63 -28 4z"/>
<path d="M1170 5480 c0 -6 6 -26 14 -44 9 -22 10 -38 4 -49 -6 -12 -5 -17 5
-17 11 0 57 90 57 113 0 18 -22 4 -31 -20 l-11 -28 -10 28 c-9 26 -28 38 -28
17z"/>
<path d="M12313 5445 c-6 -14 -7 -25 -2 -25 5 0 9 -13 9 -30 0 -16 5 -30 10
-30 6 0 10 13 10 29 0 16 6 32 13 35 10 5 10 7 0 12 -7 3 -13 12 -13 20 0 22
-14 16 -27 -11z"/>
<path d="M12709 5455 c0 -8 -1 -28 -1 -45 0 -46 1 -50 12 -50 6 0 10 25 10 55
0 30 -4 55 -10 55 -5 0 -10 -7 -11 -15z"/>
<path d="M12375 5432 c-3 -3 -5 -20 -5 -39 0 -23 5 -33 15 -33 8 0 14 3 14 8
-5 27 3 52 16 52 8 0 15 4 15 9 0 9 -46 12 -55 3z"/>
<path d="M12450 5430 c-6 -4 -10 -20 -8 -36 3 -26 7 -29 41 -32 l37 -3 0 40
c0 37 -2 40 -29 39 -16 -1 -35 -4 -41 -8z m43 -16 c9 -10 -4 -34 -19 -34 -8 0
-14 6 -14 13 0 22 19 35 33 21z"/>
<path d="M12530 5436 c0 -15 32 -76 40 -76 6 0 10 2 10 4 0 2 7 20 15 40 10
24 12 36 4 36 -6 0 -13 -9 -16 -20 -3 -11 -9 -20 -13 -20 -5 0 -12 9 -15 20
-5 16 -25 29 -25 16z"/>
<path d="M12626 5424 c-19 -18 -19 -20 -6 -45 6 -11 21 -19 35 -19 31 0 33 17
3 23 -20 4 -19 4 5 6 28 1 35 19 15 39 -16 16 -33 15 -52 -4z m41 -10 c-3 -3
-12 -4 -19 -1 -8 3 -5 6 6 6 11 1 17 -2 13 -5z"/>
<path d="M15888 5381 c-26 -26 -22 -48 12 -66 17 -9 30 -20 30 -27 0 -6 -11
-8 -30 -4 -36 7 -39 -6 -7 -27 20 -13 24 -13 40 9 25 33 21 51 -13 69 -30 16
-32 42 -3 31 24 -10 36 5 16 20 -23 17 -24 17 -45 -5z"/>
<path d="M15990 5348 c-26 -54 -26 -58 10 -58 20 0 30 -5 30 -15 0 -22 17 -18
23 5 6 24 -2 60 -14 60 -5 0 -9 -7 -9 -15 0 -8 -7 -15 -15 -15 -18 0 -18 8 0
40 17 30 18 40 5 40 -5 0 -19 -19 -30 -42z"/>
<path d="M16100 5370 c-43 -43 -10 -120 45 -106 22 6 25 11 25 54 0 70 -30 92
-70 52z m60 -40 c0 -31 -11 -50 -30 -50 -32 0 -42 62 -13 79 21 12 43 -3 43
-29z"/>
<path d="M11878 5293 c6 -2 18 -2 25 0 6 3 1 5 -13 5 -14 0 -19 -2 -12 -5z"/>
<path d="M11833 5262 c4 -5 0 -18 -8 -28 -8 -10 -15 -22 -15 -26 0 -5 38 -8
85 -8 47 0 85 3 85 8 0 4 -7 16 -15 26 -8 10 -12 23 -8 28 3 6 -4 5 -15 -1
-11 -6 -33 -11 -47 -11 -14 0 -36 5 -47 11 -11 6 -18 7 -15 1z m44 -28 c-3 -3
-12 -4 -19 -1 -8 3 -5 6 6 6 11 1 17 -2 13 -5z m50 -21 c-20 -2 -52 -2 -70 0
-17 2 0 4 38 4 39 0 53 -2 32 -4z"/>
<path d="M718 5243 c7 -3 16 -2 19 1 4 3 -2 6 -13 5 -11 0 -14 -3 -6 -6z"/>
<path d="M780 5231 c-22 -42 -1 -91 38 -91 12 0 9 4 -8 13 -31 15 -35 64 -7
81 15 9 21 7 33 -8 8 -11 14 -15 14 -10 0 34 -53 45 -70 15z"/>
<path d="M892 5238 c-16 -16 -16 -70 0 -86 30 -30 74 4 65 51 -4 19 -4 19 -6
-4 -1 -31 -24 -54 -46 -45 -12 4 -15 16 -13 43 3 34 6 38 30 38 14 -1 24 3 22
7 -8 12 -38 10 -52 -4z"/>
<path d="M1028 5240 c12 -5 22 -15 22 -21 0 -7 3 -9 6 -6 10 10 -16 37 -35 36
-11 0 -9 -3 7 -9z"/>
<path d="M1102 5238 c-16 -16 -16 -70 0 -86 30 -30 74 4 65 51 -4 19 -4 19 -6
-4 -1 -31 -24 -54 -46 -45 -12 4 -15 16 -13 43 3 34 6 38 30 38 14 -1 24 3 22
7 -8 12 -38 10 -52 -4z"/>
<path d="M984 5214 c-8 -31 13 -74 36 -74 18 0 40 19 40 34 0 5 -6 1 -14 -10
-23 -30 -51 -7 -50 40 1 42 -3 46 -12 10z"/>
<path d="M12482 5220 c0 -14 2 -19 5 -12 2 6 2 18 0 25 -3 6 -5 1 -5 -13z"/>
<path d="M12312 5200 c0 -14 2 -19 5 -12 2 6 2 18 0 25 -3 6 -5 1 -5 -13z"/>
<path d="M12682 5180 c0 -14 2 -19 5 -12 2 6 2 18 0 25 -3 6 -5 1 -5 -13z"/>
<path d="M12523 5183 c9 -2 25 -2 35 0 9 3 1 5 -18 5 -19 0 -27 -2 -17 -5z"/>
<path d="M833 4223 c30 -5 30 -7 12 -58 -4 -13 -1 -12 9 5 26 42 21 60 -16 59
-32 -2 -32 -2 -5 -6z"/>
<path d="M907 4223 c-4 -3 -7 -11 -7 -17 0 -7 3 -7 8 0 4 7 18 14 32 17 l25 4
-26 2 c-14 0 -29 -2 -32 -6z"/>
<path d="M1028 4220 c12 -5 22 -15 22 -21 0 -7 3 -9 6 -6 10 10 -16 37 -35 36
-11 0 -9 -3 7 -9z"/>
<path d="M1100 4215 c-6 -8 -10 -20 -7 -27 3 -8 6 -6 6 5 1 10 11 22 24 27 15
6 17 9 6 9 -9 1 -22 -6 -29 -14z"/>
<path d="M982 4175 c0 -16 2 -22 5 -12 2 9 2 23 0 30 -3 6 -5 -1 -5 -18z"/>
<path d="M1162 4175 c0 -16 2 -22 5 -12 2 9 2 23 0 30 -3 6 -5 -1 -5 -18z"/>
<path d="M913 4183 c9 -2 23 -2 30 0 6 3 -1 5 -18 5 -16 0 -22 -2 -12 -5z"/>
<path d="M947 4151 c-4 -18 -11 -22 -26 -18 -12 3 -21 1 -21 -4 0 -14 36 -10
50 6 6 8 10 20 8 27 -3 7 -7 2 -11 -11z"/>
<path d="M1093 4156 c3 -26 33 -44 48 -29 9 9 7 11 -9 6 -16 -4 -24 1 -32 18
-7 17 -9 19 -7 5z"/>
<path d="M1046 4144 c-4 -10 -13 -14 -26 -11 -11 3 -18 1 -14 -4 3 -5 11 -9
18 -9 15 0 41 28 34 36 -3 3 -8 -3 -12 -12z"/>
<path d="M813 3133 c9 -2 23 -2 30 0 6 3 -1 5 -18 5 -16 0 -22 -2 -12 -5z"/>
<path d="M892 3128 c-7 -7 -12 -17 -12 -22 0 -6 5 -3 11 7 16 27 48 21 55 -10
9 -44 12 -50 13 -25 2 51 -37 80 -67 50z"/>
<path d="M990 3121 c-16 -30 -12 -56 11 -77 22 -19 49 -12 57 17 2 8 -2 5 -10
-5 -28 -36 -66 -1 -54 49 8 29 40 34 55 8 6 -10 11 -13 11 -7 1 33 -53 45 -70
15z"/>
<path d="M1102 3128 c-7 -7 -12 -21 -11 -32 1 -18 2 -17 8 4 5 19 14 25 33 25
15 -1 24 3 22 7 -8 12 -38 10 -52 -4z"/>
<path d="M1162 3085 c0 -16 2 -22 5 -12 2 9 2 23 0 30 -3 6 -5 -1 -5 -18z"/>
<path d="M790 3096 c0 -2 13 -6 29 -8 17 -2 28 -1 25 4 -5 8 -54 12 -54 4z"/>
<path d="M881 3075 c-2 -36 47 -63 64 -36 3 6 -7 9 -22 8 -21 -2 -28 4 -34 23
-6 21 -7 22 -8 5z"/>
<path d="M1090 3064 c0 -23 29 -38 53 -26 21 11 21 11 -5 6 -19 -4 -29 -1 -37
13 -6 10 -11 13 -11 7z"/>
<path d="M797 3038 c2 -5 13 -8 23 -8 10 0 21 3 23 8 3 4 -8 7 -23 7 -15 0
-26 -3 -23 -7z"/>
<path d="M12310 2545 c0 -56 16 -77 22 -28 4 39 28 42 28 4 0 -17 5 -31 11
-31 6 0 9 16 7 38 -2 30 -7 38 -25 40 -13 2 -23 10 -23 18 0 8 -4 14 -10 14
-5 0 -10 -25 -10 -55z"/>
<path d="M12412 2558 c-22 -22 -14 -57 13 -64 45 -11 71 29 39 60 -19 19 -36
20 -52 4z m42 -23 c3 -9 -1 -18 -10 -22 -19 -7 -28 2 -21 22 8 19 23 19 31 0z"/>
<path d="M12492 2539 c6 -63 68 -67 68 -4 0 19 -4 35 -10 35 -5 0 -10 -14 -10
-31 0 -38 -24 -35 -28 4 -5 38 -24 34 -20 -4z"/>
<path d="M12587 2563 c-14 -13 -6 -34 16 -43 l22 -9 -22 0 c-31 -1 -29 -21 1
-21 35 0 43 20 16 42 l-22 18 21 0 c12 0 19 5 16 10 -7 11 -38 13 -48 3z"/>
<path d="M12660 2555 c-25 -30 9 -76 46 -60 17 7 15 9 -11 15 l-30 8 33 1 c35
1 40 11 16 35 -19 20 -38 20 -54 1z m37 -11 c-3 -3 -12 -4 -19 -1 -8 3 -5 6 6
6 11 1 17 -2 13 -5z"/>
<path d="M15811 2509 c-28 -26 -27 -37 9 -57 40 -23 40 -47 0 -38 -33 6 -42
-9 -10 -19 11 -3 20 -11 20 -17 0 -6 9 1 20 15 27 34 25 55 -5 69 -30 13 -35
42 -6 33 26 -8 34 8 12 22 -15 9 -23 8 -40 -8z"/>
<path d="M11859 2481 c-24 -21 -41 -42 -38 -45 3 -4 26 12 50 34 l44 40 42
-42 c24 -23 43 -38 43 -32 0 13 -73 84 -87 84 -6 0 -30 -18 -54 -39z"/>
<path d="M15890 2511 c0 -5 7 -12 16 -15 12 -4 15 -18 13 -53 -2 -30 1 -48 9
-51 9 -3 12 15 12 62 0 64 -1 66 -25 66 -14 0 -25 -4 -25 -9z"/>
<path d="M15980 2500 c-37 -37 -15 -110 32 -110 46 0 65 87 26 114 -29 20 -34
20 -58 -4z m60 -44 c0 -35 -17 -53 -37 -40 -24 15 -28 48 -7 68 20 20 44 5 44
-28z"/>
<path d="M16100 2500 c-41 -41 -9 -119 43 -106 25 6 27 11 27 54 0 70 -30 92
-70 52z m60 -45 c0 -32 -25 -51 -45 -35 -20 16 -19 44 1 65 20 20 44 4 44 -30z"/>
<path d="M11867 2424 c-4 -4 -7 -20 -7 -36 0 -23 4 -28 26 -28 23 0 25 3 22
32 -3 31 -25 48 -41 32z"/>
<path d="M12482 2340 c0 -19 2 -27 5 -17 2 9 2 25 0 35 -3 9 -5 1 -5 -18z"/>
<path d="M12312 2330 c0 -14 2 -19 5 -12 2 6 2 18 0 25 -3 6 -5 1 -5 -13z"/>
<path d="M12510 2311 c0 -6 5 -13 12 -17 6 -4 8 -3 4 4 -4 6 5 12 21 15 26 4
26 4 -4 6 -18 0 -33 -3 -33 -8z"/>
<path d="M12681 2304 c0 -11 3 -14 6 -6 3 7 2 16 -1 19 -3 4 -6 -2 -5 -13z"/>
<path d="M815 2040 c-4 -7 2 -9 19 -4 21 5 26 3 26 -14 0 -11 -7 -25 -16 -32
-8 -8 -20 -22 -25 -32 -9 -16 -6 -18 28 -17 35 1 36 2 10 8 l-29 6 22 28 c12
15 20 35 18 45 -4 19 -43 29 -53 12z"/>
<path d="M900 2026 c0 -18 6 -25 23 -28 14 -2 22 -10 22 -23 0 -16 -6 -20 -28
-18 -15 1 -25 -2 -22 -8 9 -13 39 -11 53 3 20 20 14 47 -13 54 -33 8 -32 32 3
37 25 4 25 4 -5 6 -29 1 -33 -2 -33 -23z"/>
<path d="M989 2026 c-15 -32 -4 -73 22 -81 21 -7 49 9 49 28 0 6 -6 2 -14 -8
-26 -36 -64 1 -52 50 8 29 40 34 55 8 6 -10 11 -13 11 -7 0 16 -22 34 -42 34
-10 0 -23 -11 -29 -24z"/>
<path d="M1102 2038 c-16 -16 -16 -70 0 -86 30 -30 74 4 65 51 -4 19 -4 19 -6
-4 -1 -31 -24 -54 -46 -45 -12 4 -15 16 -13 43 3 34 6 38 30 38 14 -1 24 3 22
7 -8 12 -38 10 -52 -4z"/>
<path d="M1099 943 c-13 -16 -12 -17 3 -4 10 7 27 11 38 8 11 -3 18 -1 14 4
-9 15 -41 10 -55 -8z"/>
<path d="M1162 905 c0 -16 2 -22 5 -12 2 9 2 23 0 30 -3 6 -5 -1 -5 -18z"/>
<path d="M1091 895 c-1 -25 17 -45 39 -44 10 0 9 3 -5 8 -11 4 -23 19 -26 32
-6 21 -7 21 -8 4z"/>
<path d="M2332 880 c0 -19 2 -27 5 -17 2 9 2 25 0 35 -3 9 -5 1 -5 -18z"/>
<path d="M4482 880 c0 -19 2 -27 5 -17 2 9 2 25 0 35 -3 9 -5 1 -5 -18z"/>
<path d="M2523 775 c0 -33 2 -45 4 -27 2 18 2 45 0 60 -2 15 -4 0 -4 -33z"/>
<path d="M4290 775 c0 -32 2 -56 5 -53 8 8 9 98 1 105 -3 4 -6 -20 -6 -52z"/>
<path d="M2148 803 c-2 -10 -1 -31 3 -48 7 -30 7 -30 8 -3 0 14 5 28 10 30 5
2 4 11 -3 21 -13 17 -14 17 -18 0z"/>
<path d="M4320 796 c0 -2 7 -9 15 -16 9 -7 15 -8 15 -2 0 5 -7 12 -15 16 -8 3
-15 4 -15 2z"/>
<path d="M4389 783 c-13 -16 -12 -17 4 -4 9 7 17 15 17 17 0 8 -8 3 -21 -13z"/>
<path d="M4563 793 c-20 -7 -15 -31 7 -38 25 -8 26 -22 3 -28 -16 -4 -16 -5
-1 -6 27 -2 33 20 9 38 -23 17 -19 34 5 24 8 -3 14 -3 14 0 0 8 -24 14 -37 10z"/>
<path d="M4632 788 c-17 -17 -15 -55 4 -62 27 -11 40 -5 14 6 l-25 11 25 7
c24 8 24 8 3 9 -26 1 -29 11 -11 29 7 7 10 12 7 12 -3 0 -10 -5 -17 -12z"/>
<path d="M2200 755 c0 -19 2 -35 4 -35 2 0 6 16 8 35 2 19 0 35 -4 35 -4 0 -8
-16 -8 -35z"/>
<path d="M2264 776 c-12 -32 1 -51 34 -52 30 -1 32 1 32 33 0 25 -4 33 -17 33
-14 0 -15 -2 -5 -9 21 -13 10 -46 -16 -49 -18 -3 -22 1 -22 21 0 14 6 28 13
30 9 4 9 6 -1 6 -7 1 -15 -5 -18 -13z"/>
<path d="M2356 777 c3 -10 9 -15 12 -12 3 3 0 11 -7 18 -10 9 -11 8 -5 -6z"/>
<path d="M2398 765 c-6 -13 -15 -22 -21 -18 -6 3 -7 1 -3 -5 10 -17 14 -15 31
18 9 17 13 30 10 30 -3 0 -10 -11 -17 -25z"/>
<path d="M2434 775 c-13 -33 25 -70 48 -47 8 8 5 9 -9 6 -12 -3 -24 -1 -27 5
-5 7 2 11 18 11 29 0 43 17 27 33 -9 9 -11 8 -6 -5 6 -15 2 -18 -20 -18 -20 0
-26 4 -21 15 3 8 3 15 0 15 -2 0 -7 -7 -10 -15z"/>
<path d="M4432 770 c7 -10 14 -18 15 -16 6 6 -9 36 -18 36 -5 0 -4 -9 3 -20z"/>
<path d="M4380 743 c11 -23 44 -31 54 -14 4 5 -3 7 -14 4 -13 -4 -26 1 -36 13
-14 18 -14 18 -4 -3z"/>
<path d="M4470 742 c0 -21 30 -26 48 -7 16 16 16 16 -6 4 -19 -12 -24 -12 -32
1 -7 10 -10 11 -10 2z"/>
<path d="M2369 520 c-3 -14 -2 -38 2 -55 l7 -30 1 28 c0 15 7 27 14 27 8 0 9
2 1 8 -7 4 -14 16 -16 27 -3 17 -5 17 -9 -5z"/>
<path d="M2653 485 c0 -33 2 -45 4 -27 2 18 2 45 0 60 -2 15 -4 0 -4 -33z"/>
<path d="M2693 523 c-6 -16 40 -63 62 -63 11 1 -29 36 -47 42 -19 7 3 30 23
25 11 -3 19 -1 19 4 0 16 -50 10 -57 -8z"/>
<path d="M2170 470 l0 -50 70 0 70 0 0 50 0 50 -70 0 -70 0 0 -50z"/>
<path d="M2426 494 c-19 -18 -19 -20 -6 -45 6 -10 19 -19 30 -19 16 0 40 26
40 44 0 8 -31 36 -40 36 -5 0 -16 -7 -24 -16z m44 -10 c11 -12 10 -18 -3 -32
-16 -15 -18 -15 -34 0 -13 14 -14 20 -3 32 7 9 16 16 20 16 4 0 13 -7 20 -16z"/>
<path d="M2505 500 c-3 -5 3 -10 15 -10 12 0 18 5 15 10 -3 6 -10 10 -15 10
-5 0 -12 -4 -15 -10z"/>
<path d="M2576 498 c-35 -19 -11 -69 32 -65 18 1 22 7 22 33 0 35 -24 49 -54
32z m42 -32 c-2 -13 -10 -21 -23 -21 -23 0 -33 34 -14 45 20 13 40 -1 37 -24z"/>
<path d="M2823 496 c24 -18 18 -51 -8 -51 -15 0 -20 7 -20 28 1 15 -3 27 -7
27 -4 0 -7 -24 -7 -52 1 -29 4 -43 6 -31 3 14 9 20 19 16 19 -7 44 15 44 38 0
10 -10 23 -22 29 -21 10 -22 10 -5 -4z"/>
<path d="M2882 498 c-17 -17 -15 -55 4 -62 28 -11 40 -5 14 7 l-25 11 33 4
c17 2 32 7 32 11 0 4 -14 5 -31 3 -24 -4 -30 -1 -27 9 3 8 16 13 29 11 19 -2
21 0 9 8 -19 13 -24 12 -38 -2z"/>
<path d="M2998 498 c5 -7 12 -26 15 -43 4 -28 4 -28 6 6 1 26 -4 39 -15 43
-13 5 -14 3 -6 -6z"/>
<path d="M3056 494 c-9 -8 -16 -21 -16 -28 0 -19 27 -39 42 -33 9 4 7 6 -3 6
-25 1 -32 31 -13 52 21 23 12 25 -10 3z"/>
<path d="M2960 465 c0 -19 2 -35 4 -35 2 0 6 16 8 35 2 19 0 35 -4 35 -4 0 -8
-16 -8 -35z"/>
<path d="M3096 485 c4 -8 10 -12 15 -9 11 6 2 24 -11 24 -5 0 -7 -7 -4 -15z"/>
<path d="M2697 438 c2 -5 13 -8 23 -8 10 0 21 3 23 8 3 4 -8 7 -23 7 -15 0
-26 -3 -23 -7z"/>
</g>
</svg>
