<?xml version="1.0" standalone="no"?>
<!DOCTYPE svg PUBLIC "-//W3C//DTD SVG 20010904//EN"
 "http://www.w3.org/TR/2001/REC-SVG-20010904/DTD/svg10.dtd">
<svg version="1.0" xmlns="http://www.w3.org/2000/svg"
 width="432.000000pt" height="269.000000pt" viewBox="0 0 432.000000 269.000000"
 preserveAspectRatio="xMidYMid meet">

<g transform="translate(0.000000,269.000000) scale(0.100000,-0.100000)"
fill="#000000" stroke="none">
<path d="M2660 2271 c-16 -30 -14 -1813 2 -1829 9 -9 206 -11 838 -10 l825 3
-819 2 c-585 2 -823 6 -833 14 -11 9 -13 169 -13 908 0 493 4 902 8 908 6 10
188 13 833 16 l824 2 -827 3 c-809 2 -828 2 -838 -17z"/>
<path d="M2723 2204 c-9 -23 11 -38 26 -20 13 16 7 36 -10 36 -5 0 -12 -7 -16
-16z"/>
<path d="M3270 2159 c0 -5 5 -7 10 -4 6 3 10 8 10 11 0 2 -4 4 -10 4 -5 0 -10
-5 -10 -11z"/>
<path d="M3353 2153 c0 -9 4 -10 14 -2 7 6 21 9 32 6 10 -2 24 -1 31 3 7 4 -7
8 -32 7 -30 0 -45 -5 -45 -14z"/>
<path d="M412 2107 c-28 -29 -28 -38 1 -65 l23 -22 27 28 27 28 -28 27 -28 27
-22 -23z"/>
<path d="M792 2075 c0 -22 2 -34 5 -26 4 11 7 11 14 0 4 -7 11 -11 14 -7 3 3
-1 12 -8 20 -8 8 -17 23 -20 34 -2 10 -5 1 -5 -21z"/>
<path d="M515 2070 c0 -16 5 -30 10 -30 6 0 10 14 10 30 0 17 -4 30 -10 30 -5
0 -10 -13 -10 -30z"/>
<path d="M620 2070 c0 -27 3 -31 22 -28 16 2 23 10 23 28 0 18 -7 26 -23 28
-19 3 -22 -1 -22 -28z m30 0 c0 -11 -4 -20 -9 -20 -6 0 -9 9 -8 20 1 11 5 20
9 20 4 0 8 -9 8 -20z"/>
<path d="M578 2082 c11 -7 11 -10 -3 -16 -21 -8 -10 -26 15 -26 16 0 18 4 11
22 -4 12 -14 24 -22 26 -11 3 -12 2 -1 -6z"/>
<path d="M690 2080 c10 -6 11 -10 3 -10 -7 0 -13 -7 -13 -15 0 -8 8 -15 19
-15 14 0 17 6 13 25 -2 15 -11 25 -21 25 -14 0 -14 -2 -1 -10z"/>
<path d="M730 2066 c0 -14 4 -26 9 -26 5 0 7 9 4 20 -3 11 0 20 6 20 6 0 11
-9 11 -20 0 -11 4 -20 10 -20 16 0 -6 45 -24 48 -11 3 -16 -4 -16 -22z"/>
<path d="M2702 1958 l3 -43 170 -1 c99 -1 151 2 125 6 l-45 7 55 3 55 3 -55 7
c-30 4 -45 7 -33 8 33 3 38 22 6 23 l-28 1 30 7 30 7 -40 7 c-22 4 -93 7 -158
7 l-118 0 3 -42z m58 -2 c0 -18 -19 -31 -28 -21 -4 4 -1 10 7 13 11 4 11 6 0
13 -11 7 -10 9 4 9 9 0 17 -6 17 -14z m97 -3 c3 -7 -11 -10 -39 -8 -52 3 -51
3 -43 14 8 13 78 8 82 -6z"/>
<path d="M3370 1960 c0 -5 6 -10 14 -10 7 0 25 -12 40 -26 14 -15 26 -23 26
-18 0 14 -13 29 -40 47 -28 19 -40 21 -40 7z"/>
<path d="M403 1873 c-20 -7 -15 -29 10 -46 12 -8 19 -18 15 -22 -4 -4 -15 -2
-24 6 -15 12 -17 12 -12 -1 7 -21 52 -19 56 2 2 12 -5 19 -22 24 -14 3 -26 11
-26 16 0 6 11 7 27 3 23 -5 25 -4 14 9 -14 17 -18 18 -38 9z"/>
<path d="M473 1835 c0 -27 2 -38 4 -22 2 15 2 37 0 50 -2 12 -4 0 -4 -28z"/>
<path d="M683 1835 c0 -27 2 -38 4 -22 2 15 2 37 0 50 -2 12 -4 0 -4 -28z"/>
<path d="M513 1853 c-21 -8 -16 -54 7 -60 11 -3 20 -10 20 -15 0 -5 -10 -6
-22 -3 -19 6 -21 5 -10 -6 21 -23 47 2 47 46 0 38 -12 48 -42 38z m27 -34 c0
-24 -23 -21 -28 4 -2 10 3 17 12 17 10 0 16 -9 16 -21z"/>
<path d="M588 1852 c-19 -4 -26 -62 -8 -62 6 0 10 11 10 25 0 34 28 32 33 -2
4 -27 4 -27 6 3 1 33 -11 43 -41 36z"/>
<path d="M728 1853 c-19 -5 -26 -63 -8 -63 6 0 10 12 10 26 0 16 5 24 13 21 6
-2 12 -14 11 -26 0 -11 3 -21 8 -21 13 0 5 63 -7 66 -5 1 -18 0 -27 -3z"/>
<path d="M3665 1810 c-3 -5 -1 -10 4 -10 6 0 11 5 11 10 0 6 -2 10 -4 10 -3 0
-8 -4 -11 -10z"/>
<path d="M3271 1376 c-15 -18 -3 -46 20 -46 25 0 35 26 19 45 -15 19 -24 19
-39 1z m39 -15 c0 -11 -26 -22 -34 -14 -12 12 -5 23 14 23 11 0 20 -4 20 -9z"/>
<path d="M3257 993 c-4 -3 -7 -17 -7 -30 0 -26 34 -33 44 -8 11 30 -17 59 -37
38z"/>
<path d="M393 888 c-11 -14 -15 -73 -7 -101 5 -16 31 -17 399 -17 298 1 395 4
399 13 3 9 5 9 5 0 1 -16 221 -19 221 -3 0 6 -10 11 -22 11 -13 1 -27 2 -33 4
-5 1 -22 3 -36 3 -15 1 -30 9 -33 18 -3 9 -2 12 5 9 5 -4 16 -2 23 4 7 6 22 8
32 5 17 -6 17 -5 -1 9 -19 15 -18 15 15 21 19 3 60 7 90 9 30 2 -15 5 -100 7
-138 3 -146 4 -70 9 47 3 -131 7 -396 9 -381 2 -483 0 -491 -10z m796 -56 c-5
-2 -9 -10 -9 -17 0 -10 -12 -12 -47 -8 -38 4 -45 2 -36 -9 9 -10 6 -13 -17
-13 -16 0 -28 4 -27 9 1 6 -9 12 -23 15 -19 5 -26 12 -25 31 0 20 5 25 25 24
14 0 24 -5 23 -11 -2 -11 38 -9 58 3 8 4 9 3 5 -4 -4 -7 -2 -12 3 -12 6 0 11
9 11 20 0 18 1 18 34 -3 18 -12 29 -23 25 -25z m-2 42 c-3 -3 -12 -4 -19 -1
-8 3 -5 6 6 6 11 1 17 -2 13 -5z m-197 -48 c0 -2 -7 -7 -16 -10 -8 -3 -12 -2
-9 4 6 10 25 14 25 6z"/>
<path d="M3255 866 c-24 -17 -15 -50 14 -54 39 -6 56 39 22 57 -13 7 -23 6
-36 -3z"/>
<path d="M3269 618 c-7 -26 -2 -58 8 -58 15 0 18 46 3 55 -5 3 -10 5 -11 3z"/>
<path d="M0 10 c0 -5 5 -10 11 -10 5 0 7 5 4 10 -3 6 -8 10 -11 10 -2 0 -4 -4
-4 -10z"/>
</g>
</svg>
