<?xml version="1.0" standalone="no"?>
<!DOCTYPE svg PUBLIC "-//W3C//DTD SVG 20010904//EN"
 "http://www.w3.org/TR/2001/REC-SVG-20010904/DTD/svg10.dtd">
<svg version="1.0" xmlns="http://www.w3.org/2000/svg"
 width="1392.000000pt" height="758.000000pt" viewBox="0 0 1392.000000 758.000000"
 preserveAspectRatio="xMidYMid meet">

<g transform="translate(0.000000,758.000000) scale(0.100000,-0.100000)"
fill="#000000" stroke="none">
<path d="M0 3790 l0 -3790 6960 0 6960 0 0 3790 0 3790 -6960 0 -6960 0 0
-3790z m13407 3720 c55 -24 73 -59 49 -95 -18 -27 -36 -33 -36 -11 0 29 -36
59 -68 58 -50 -1 -71 -11 -78 -38 -3 -13 -11 -24 -18 -23 -27 3 -46 -2 -46
-12 0 -7 10 -9 25 -7 22 5 25 2 25 -21 0 -20 -5 -27 -20 -27 -11 0 -20 6 -20
14 0 7 -4 11 -8 8 -4 -2 -14 -1 -21 3 -11 7 -11 16 -1 47 19 58 37 80 83 103
52 26 80 26 134 1z m-13041 -16 c12 -3 27 -17 33 -30 14 -30 15 -144 1 -144
-5 0 -7 -6 -4 -13 3 -8 -2 -14 -10 -14 -11 0 -12 6 -5 24 7 20 6 74 -2 93 -1
3 -5 -15 -8 -40 -7 -49 -19 -56 -38 -20 l-11 23 -4 -24 c-3 -21 -9 -24 -51
-27 -59 -4 -77 9 -78 57 l-2 36 -6 -35 c-5 -22 -2 -45 7 -63 7 -16 11 -31 8
-35 -3 -3 -6 0 -6 6 0 6 -8 9 -17 6 -14 -4 -15 -3 -5 4 11 7 11 10 -2 15 -12
5 -16 21 -16 64 0 76 7 98 33 111 24 11 148 15 183 6z m264 -44 c0 -17 -7 -20
-45 -20 -32 0 -45 -4 -45 -14 0 -10 13 -16 38 -18 29 -2 37 -7 37 -23 0 -16
-8 -21 -37 -23 -36 -3 -38 -5 -38 -38 0 -30 -3 -34 -25 -34 -25 0 -25 0 -25
95 l0 95 70 0 c63 0 70 -2 70 -20z m133 -52 c21 -25 22 -66 1 -96 -12 -17 -25
-22 -59 -22 -48 0 -75 24 -75 68 0 73 86 106 133 50z m160 0 c21 -25 22 -66 1
-96 -19 -27 -88 -31 -116 -5 -20 18 -24 64 -7 94 22 42 89 46 122 7z m138 22
c13 -8 25 -7 40 1 16 8 28 8 45 0 22 -10 24 -17 24 -76 0 -63 -1 -65 -25 -65
-23 0 -25 3 -25 50 0 38 -4 50 -15 50 -11 0 -15 -12 -15 -50 0 -47 -2 -50 -25
-50 -23 0 -25 3 -25 50 0 38 -4 50 -15 50 -11 0 -15 -12 -15 -50 0 -48 -1 -50
-29 -50 l-28 0 -2 70 -1 71 34 -3 c20 -1 38 1 42 5 9 9 12 9 35 -3z m12437
-34 c6 -31 -8 -83 -30 -111 -20 -26 -22 -26 -29 -9 -14 36 -9 78 14 111 23 35
40 38 45 9z m-13131 -121 c0 -8 -4 -12 -9 -9 -5 3 -6 10 -3 15 9 13 12 11 12
-6z m10894 -667 c23 -3 26 -8 28 -47 2 -43 25 -100 63 -153 11 -16 17 -28 13
-28 -22 0 -416 207 -440 231 -9 9 237 6 336 -3z m1023 -157 c8 -12 -3 -41 -15
-41 -5 0 -9 11 -9 25 0 25 14 34 24 16z m-11965 -67 c28 -23 31 -32 31 -81 0
-88 -6 -93 -109 -93 -81 0 -90 2 -103 23 -19 31 -9 135 14 148 9 5 23 15 30
22 42 42 70 38 137 -19z m241 -19 c0 -20 5 -25 25 -25 20 0 25 5 25 25 0 18 5
25 20 25 18 0 20 -7 20 -65 0 -62 -1 -65 -24 -65 -19 0 -22 4 -18 25 4 22 1
25 -22 25 -21 0 -26 -5 -26 -25 0 -17 -6 -25 -17 -25 -16 0 -18 8 -15 65 3 48
7 65 18 65 8 0 14 -10 14 -25z m198 -53 c3 -37 0 -43 -22 -52 -17 -6 -35 -6
-51 0 -21 8 -25 16 -25 48 0 49 5 54 55 50 39 -3 40 -4 43 -46z m160 -4 c3
-43 1 -48 -17 -48 -17 0 -21 6 -21 35 0 19 -4 35 -10 35 -5 0 -10 -16 -10 -35
0 -24 -5 -35 -15 -35 -10 0 -15 10 -15 29 0 17 -4 33 -10 36 -6 4 -10 -8 -10
-29 0 -29 -4 -36 -20 -36 -17 0 -20 7 -20 50 l0 51 73 -3 72 -3 3 -47z m110
20 c3 -26 1 -28 -33 -28 -21 0 -34 -4 -30 -10 3 -5 19 -7 35 -3 37 7 40 -13 5
-29 -19 -8 -31 -8 -50 0 -20 9 -25 19 -25 50 0 49 5 54 55 50 35 -3 40 -6 43
-30z m10485 9 l15 -24 -44 16 c-34 12 -40 17 -26 23 29 11 39 9 55 -15z m387
-39 c0 -4 24 -20 53 -35 46 -24 62 -27 135 -25 45 1 82 -2 82 -6 0 -17 -58
-63 -90 -72 -38 -11 -118 5 -312 61 -109 32 -135 49 -75 49 33 0 95 36 125 73
13 15 17 14 48 -11 19 -15 34 -30 34 -34z m-8340 -309 c0 -47 2 -50 23 -47 19
3 22 10 25 51 3 53 25 61 30 13 9 -72 -34 -114 -83 -82 -21 14 -25 24 -25 66
0 38 4 50 15 50 11 0 15 -12 15 -51z m540 41 c0 -5 -7 -10 -15 -10 -8 0 -15 5
-15 10 0 6 7 10 15 10 8 0 15 -4 15 -10z m290 -25 c6 -19 15 -35 20 -35 5 0
14 16 20 35 19 58 40 45 40 -25 0 -58 -19 -88 -21 -32 l-1 27 -11 -27 c-6 -16
-18 -28 -27 -28 -9 0 -21 12 -27 28 l-11 27 -1 -27 c-1 -17 -7 -28 -15 -28
-12 0 -15 14 -15 60 1 52 3 60 19 60 12 0 22 -12 30 -35z m370 25 c0 -5 -7
-10 -15 -10 -8 0 -15 5 -15 10 0 6 7 10 15 10 8 0 15 -4 15 -10z m490 -50 c0
-47 -3 -60 -15 -60 -11 0 -15 11 -15 40 0 29 -4 40 -15 40 -8 0 -15 4 -15 8 0
14 23 32 42 32 15 0 18 -9 18 -60z m98 43 c10 -18 -4 -63 -20 -63 -17 0 -7
-18 15 -26 18 -6 14 -8 -22 -11 -23 -2 -46 -2 -49 2 -3 3 9 20 26 38 35 36 41
57 17 57 -8 0 -15 -4 -15 -10 0 -5 -7 -10 -15 -10 -18 0 -19 12 -3 28 17 17
56 15 66 -5z m148 -21 c1 -38 14 -57 14 -21 0 61 62 80 88 27 25 -53 -13 -112
-58 -88 -11 6 -20 15 -20 21 0 5 -12 1 -27 -11 -30 -21 -68 -18 -77 6 -5 12 1
14 29 8 38 -7 52 14 15 23 -23 6 -27 23 -5 23 8 0 15 7 15 15 0 18 -12 19 -28
3 -15 -15 -26 -4 -18 17 4 11 16 15 38 13 30 -3 33 -6 34 -36z m242 29 c8 -5
12 -21 10 -37 -2 -23 -9 -30 -30 -32 -20 -2 -28 -9 -28 -23 0 -10 -7 -19 -15
-19 -12 0 -15 13 -15 60 l0 60 33 0 c17 0 38 -4 45 -9z m72 -33 l13 -43 19 43
c28 63 48 56 48 -18 0 -47 -3 -60 -15 -60 -9 0 -15 9 -16 23 l0 22 -9 -22 c-5
-13 -16 -23 -23 -23 -8 0 -19 10 -25 23 l-11 22 0 -22 c-1 -14 -7 -23 -16 -23
-12 0 -15 13 -15 60 0 52 3 60 18 60 13 0 23 -13 32 -42z m-1102 15 c12 -12
13 -18 4 -21 -15 -5 -16 -44 0 -60 9 -9 7 -12 -10 -12 -18 0 -22 6 -22 34 0
19 -4 38 -10 41 -6 4 -5 11 3 20 15 18 15 18 35 -2z m430 0 c12 -12 13 -18 4
-21 -14 -4 -16 -48 -2 -57 16 -10 2 -24 -19 -18 -14 3 -20 16 -23 46 -7 67 7
84 40 50z m262 -8 c0 -8 -7 -15 -15 -15 -8 0 -15 7 -15 15 0 8 7 15 15 15 8 0
15 -7 15 -15z m-1673 -6 c8 -8 17 -7 32 2 16 11 27 11 51 2 17 -7 32 -7 36 -2
9 15 61 10 68 -7 13 -35 6 -64 -19 -76 -21 -9 -29 -9 -42 5 -14 14 -18 14 -39
0 -22 -14 -26 -14 -49 1 -23 15 -27 15 -41 1 -8 -8 -21 -15 -29 -15 -7 0 -15
-7 -19 -15 -13 -35 -26 -11 -26 50 l0 65 33 0 c18 0 38 -5 44 -11z m327 -5
c12 -31 7 -74 -9 -74 -10 0 -15 11 -15 35 0 19 -4 35 -10 35 -5 0 -10 -16 -10
-35 0 -24 -5 -35 -15 -35 -10 0 -15 11 -15 35 0 19 -4 35 -10 35 -5 0 -10 -16
-10 -35 0 -24 -5 -35 -15 -35 -11 0 -15 12 -15 45 l0 45 59 0 c44 0 60 -4 65
-16z m134 -31 c2 -34 0 -43 -12 -43 -12 0 -16 10 -16 36 0 45 -24 42 -28 -4
-3 -28 -7 -32 -33 -32 -28 0 -29 2 -29 45 l0 46 58 -3 57 -3 3 -42z m100 -9
c-2 -39 -8 -60 -19 -67 -19 -12 -69 -1 -69 14 0 7 10 9 24 5 14 -3 27 -2 31 3
3 5 -7 11 -22 13 -22 2 -29 9 -31 31 -6 46 4 57 48 57 l41 0 -3 -56z m275 36
l14 -21 6 21 c8 30 66 25 78 -7 8 -21 5 -23 -27 -23 -23 0 -33 -4 -28 -11 3
-6 17 -8 30 -5 17 5 24 2 24 -8 0 -32 -70 -25 -84 9 -6 17 -66 21 -66 4 0 -7
10 -9 25 -7 33 7 42 -8 15 -22 -44 -24 -93 43 -58 78 19 19 55 14 71 -8z m195
-28 c2 -33 0 -42 -12 -42 -12 0 -16 11 -16 46 0 59 24 55 28 -4z m90 1 c2 -34
0 -43 -12 -43 -12 0 -16 10 -16 35 0 19 -4 35 -10 35 -5 0 -10 -16 -10 -35 0
-24 -5 -35 -15 -35 -11 0 -15 12 -15 46 l0 45 38 -3 c36 -3 37 -4 40 -45z
m100 -9 c-2 -39 -8 -60 -19 -67 -19 -12 -69 -1 -69 14 0 7 10 9 24 5 14 -3 27
-2 31 3 3 5 -7 11 -22 13 -22 2 -29 9 -31 31 -6 46 4 57 48 57 l41 0 -3 -56z
m130 10 c3 -36 0 -42 -19 -47 -50 -13 -81 35 -34 53 14 5 25 12 25 15 0 3 -11
3 -25 -1 -14 -3 -25 -2 -25 3 0 17 14 24 45 21 27 -3 30 -6 33 -44z m6672
-100 c52 -75 114 -162 137 -194 23 -32 49 -72 58 -90 15 -30 15 -32 1 -27 -9
4 -16 2 -16 -3 0 -5 -12 -13 -27 -16 -15 -4 -36 -16 -47 -26 -11 -10 -30 -18
-43 -18 -13 0 -23 -4 -23 -10 0 -5 -8 -10 -17 -10 -16 0 -16 -2 -3 -11 11 -8
7 -9 -17 -5 -24 4 -35 1 -42 -12 -5 -9 -13 -14 -17 -10 -4 4 -15 -2 -25 -13
-10 -12 -22 -18 -27 -15 -6 3 -23 -1 -38 -9 -16 -8 -34 -15 -40 -15 -6 0 -17
-6 -24 -14 -6 -8 -18 -12 -25 -10 -7 3 -23 -4 -35 -16 -11 -11 -25 -18 -30
-15 -5 3 -18 -3 -28 -13 -10 -10 -38 -22 -62 -25 -24 -3 -46 -11 -50 -18 -5
-6 -15 -9 -25 -6 -9 4 -14 3 -10 -3 3 -6 -4 -10 -16 -10 -12 0 -27 -7 -34 -16
-6 -10 -24 -18 -40 -20 -15 -2 -35 -10 -45 -19 -12 -11 -26 -14 -41 -10 -13 5
-19 3 -15 -3 5 -9 -57 -47 -79 -47 -5 0 -16 -8 -23 -18 -7 -9 -18 -15 -23 -12
-5 4 -9 2 -9 -3 0 -12 -49 -34 -60 -27 -5 3 -10 2 -12 -2 -6 -15 -81 -48 -101
-45 -10 2 -16 -1 -13 -6 3 -6 -5 -9 -18 -8 -13 0 -22 4 -19 9 2 4 -1 7 -6 7
-6 0 -11 -7 -11 -15 0 -8 -7 -15 -15 -15 -7 0 -18 -6 -22 -14 -11 -19 -62 -43
-130 -62 -32 -9 -76 -21 -99 -28 -23 -6 -48 -17 -56 -24 -8 -6 -18 -9 -21 -5
-4 3 -7 1 -7 -5 0 -7 -6 -12 -14 -12 -7 0 -24 -8 -37 -18 -13 -11 -45 -27 -71
-37 -27 -10 -48 -22 -48 -26 0 -5 -22 -20 -49 -33 -53 -28 -111 -73 -111 -87
0 -6 -9 -20 -21 -32 -11 -12 -23 -34 -26 -49 -3 -16 -9 -28 -13 -28 -4 0 -8
-48 -9 -107 -1 -60 -4 -118 -8 -130 -3 -13 -1 -23 5 -23 6 0 14 15 18 33 4 17
9 26 11 19 3 -6 9 -10 14 -7 5 4 6 -7 3 -24 -4 -19 -2 -37 6 -46 10 -12 10
-15 -1 -16 -10 0 -11 -2 -1 -6 6 -2 12 -16 12 -29 0 -18 8 -28 29 -37 l29 -12
-20 -24 c-17 -22 -17 -26 -4 -33 21 -12 20 -28 -1 -28 -13 0 -9 -7 15 -26 22
-18 32 -34 32 -54 0 -15 7 -41 15 -56 8 -16 15 -25 15 -20 0 5 7 3 15 -4 8 -7
15 -21 15 -32 0 -14 5 -18 15 -14 22 8 30 -20 15 -49 -13 -25 -7 -45 14 -45
21 0 40 -27 24 -33 -10 -4 -10 -8 1 -15 20 -14 21 -63 2 -70 -11 -4 -7 -9 14
-18 25 -11 -32 -13 -337 -14 l-366 0 -202 302 -201 303 16 60 c10 33 21 67 25
75 4 8 61 51 125 94 l117 79 49 -17 49 -18 72 50 c40 28 116 80 168 117 298
207 379 264 577 399 120 83 315 218 433 301 328 230 434 304 567 394 106 71
122 86 117 105 -3 15 2 28 18 43 25 22 157 93 173 92 6 0 53 -61 105 -135z
m-6350 81 c0 -8 -7 -15 -15 -15 -8 0 -15 7 -15 15 0 8 7 15 15 15 8 0 15 -7
15 -15z m-5207 -359 c7 -19 84 -16 98 4 8 12 12 12 16 2 3 -7 16 -17 29 -22
21 -8 24 -16 24 -65 0 -56 -16 -77 -22 -27 l-3 27 -95 0 -95 0 0 -60 c0 -46 3
-60 15 -61 8 -1 28 -2 43 -2 42 -3 22 -22 -22 -22 -54 0 -61 12 -61 112 0 85
1 89 25 98 14 5 25 14 25 20 0 15 17 12 23 -4z m987 -41 c0 -8 -7 -15 -15 -15
-8 0 -15 7 -15 15 0 8 7 15 15 15 8 0 15 -7 15 -15z m-618 -47 c3 -45 6 -53
23 -53 17 0 20 8 23 53 2 37 7 52 18 52 10 0 14 -13 14 -53 0 -61 -11 -77 -55
-77 -44 0 -55 16 -55 77 0 40 4 53 14 53 11 0 16 -15 18 -52z m186 10 c7 -7
12 -24 12 -38 0 -32 -17 -50 -47 -50 -16 0 -23 -6 -23 -20 0 -11 -7 -20 -15
-20 -12 0 -15 14 -15 70 l0 70 38 0 c21 0 43 -5 50 -12z m109 -3 c8 -22 -4
-30 -21 -16 -19 16 -36 6 -36 -19 0 -25 17 -35 36 -19 17 14 29 6 21 -16 -8
-18 -58 -20 -75 -3 -15 15 -15 61 0 76 17 17 67 15 75 -3z m101 3 c13 -13 16
-47 6 -72 -9 -24 -71 -21 -84 3 -14 27 -13 47 6 65 18 19 55 21 72 4z m170
-40 c2 -38 0 -48 -12 -48 -12 0 -16 10 -16 40 0 40 -13 53 -24 24 -3 -9 -6
-27 -6 -40 0 -15 -6 -24 -15 -24 -11 0 -15 11 -15 41 0 24 -4 38 -10 34 -5 -3
-10 -22 -10 -41 0 -24 -5 -34 -15 -34 -11 0 -15 12 -15 50 l0 50 68 -2 67 -3
3 -47z m52 2 c0 -38 -4 -50 -15 -50 -11 0 -15 12 -15 50 0 38 4 50 15 50 11 0
15 -12 15 -50z m108 -2 c2 -37 0 -48 -12 -48 -10 0 -16 12 -18 38 -2 20 -7 37
-13 37 -5 0 -11 -17 -13 -37 -2 -25 -8 -38 -18 -38 -10 0 -14 13 -14 51 l0 50
43 -3 42 -3 3 -47z m112 -6 c0 -32 -5 -63 -12 -70 -17 -17 -63 -15 -79 4 -11
14 -9 15 21 12 19 -2 35 2 37 9 3 7 -3 9 -16 6 -28 -7 -51 14 -51 46 0 37 17
51 62 51 l38 0 0 -58z m-1113 -47 c12 -13 13 -18 2 -33 -7 -9 -14 -19 -16 -21
-1 -1 -7 0 -13 4 -8 5 -8 10 0 20 8 9 8 15 0 20 -5 3 -10 10 -10 16 0 14 20
11 37 -6z m59 1 c19 -15 19 -15 -3 -37 -24 -24 -44 -20 -24 5 8 10 9 16 1 21
-12 7 -14 25 -2 25 5 0 17 -6 28 -14z m3301 -339 c29 -16 69 -71 85 -116 19
-56 16 -226 -5 -288 -53 -152 -233 -165 -292 -21 -38 93 -36 268 4 347 33 63
74 91 134 91 29 -1 62 -6 74 -13z m441 -1 c86 -44 104 -160 33 -218 l-28 -23
40 -35 c36 -32 40 -42 44 -90 5 -69 -17 -109 -79 -139 -77 -37 -162 -24 -217
33 -63 65 -49 167 29 214 l30 19 -26 13 c-80 43 -69 180 17 223 42 20 121 22
157 3z m629 -6 c70 -42 84 -134 33 -214 -17 -26 -74 -97 -126 -157 l-95 -109
141 0 c118 0 140 -2 140 -15 0 -13 -25 -15 -165 -15 -142 0 -165 2 -165 15 0
9 9 26 21 38 61 65 208 246 223 274 19 37 21 82 5 117 -13 28 -64 56 -101 56
-38 0 -85 -35 -98 -74 -8 -25 -18 -36 -31 -36 -16 0 -18 5 -13 28 16 70 72
112 149 112 32 0 62 -7 82 -20z m448 0 c52 -32 86 -120 46 -120 -13 0 -21 9
-26 30 -4 16 -21 41 -38 56 -25 21 -38 25 -70 21 -21 -3 -48 -14 -59 -24 -29
-25 -55 -88 -64 -153 l-7 -54 32 26 c80 68 198 41 242 -56 25 -55 24 -103 -3
-156 -33 -63 -67 -85 -136 -85 -71 0 -111 26 -144 93 -20 41 -23 62 -23 162 0
105 3 120 28 175 35 76 74 105 141 105 31 0 60 -7 81 -20z m656 -8 c95 -58 94
-206 -1 -269 -28 -20 -46 -23 -121 -23 l-89 0 0 -105 0 -105 -25 0 -25 0 0
258 c0 142 3 262 8 266 4 4 54 6 112 4 88 -3 111 -7 141 -26z m262 -47 c16
-38 58 -140 94 -225 36 -85 68 -158 72 -162 4 -4 51 98 106 228 134 317 134
317 138 -34 2 -249 1 -263 -16 -260 -17 3 -18 18 -18 212 0 115 -3 205 -8 200
-11 -12 -171 -390 -171 -404 0 -5 -11 -10 -24 -10 -24 0 -42 37 -173 354 l-28
70 -3 -212 c-2 -204 -3 -212 -22 -212 -19 0 -20 8 -20 266 l0 265 22 -3 c16
-2 29 -20 51 -73z m-1729 -60 c5 -14 -17 -45 -33 -45 -15 0 -33 30 -27 45 7
19 52 20 60 0z m-4162 -207 c6 -16 88 -14 99 3 8 12 11 11 20 -3 5 -10 16 -18
23 -18 18 0 26 -23 26 -75 0 -52 -17 -70 -22 -23 l-3 33 -95 0 -95 0 0 -60 c0
-53 2 -60 20 -61 58 -3 66 -5 60 -14 -9 -14 -78 -13 -93 2 -13 13 -17 153 -6
182 3 9 13 16 20 16 8 0 17 7 20 15 7 18 21 20 26 3z m10047 -28 c-49 -26
-103 -88 -124 -143 -19 -49 -39 -56 -26 -9 13 43 37 85 63 108 25 23 97 63
113 63 6 0 -6 -8 -26 -19z m-9289 -15 c0 -8 -7 -15 -15 -15 -8 0 -15 7 -15 15
0 8 7 15 15 15 8 0 15 -7 15 -15z m-332 -4 c8 -5 12 -21 10 -37 -2 -23 -10
-31 -35 -39 -22 -6 -33 -15 -33 -27 0 -10 -7 -18 -15 -18 -12 0 -15 14 -15 65
l0 65 38 0 c20 0 43 -4 50 -9z m3731 -5 c16 -20 3 -46 -24 -46 -13 0 -26 7
-29 16 -7 19 10 44 29 44 7 0 18 -6 24 -14z m-3639 -24 c0 -4 -9 -13 -20 -20
-13 -8 -20 -23 -20 -42 0 -20 -5 -30 -15 -30 -11 0 -15 12 -15 50 l0 50 35 0
c19 0 35 -3 35 -8z m90 -11 c17 -32 12 -41 -25 -41 -19 0 -35 -5 -35 -11 0 -7
11 -8 31 -4 24 5 30 4 27 -6 -6 -18 -55 -24 -74 -8 -17 14 -19 60 -2 77 19 19
66 15 78 -7z m52 -8 c11 -27 12 -28 16 -5 3 22 27 40 37 30 3 -3 -2 -26 -11
-51 -20 -59 -44 -63 -63 -9 -8 20 -16 43 -18 50 -10 25 28 11 39 -15z m98 -23
c0 -38 -4 -50 -15 -50 -11 0 -15 12 -15 50 0 38 4 50 15 50 11 0 15 -12 15
-50z m98 38 c18 -18 15 -75 -4 -82 -46 -18 -84 4 -84 48 0 37 61 61 88 34z
m62 -29 c0 -52 24 -48 28 4 2 24 8 37 18 37 10 0 14 -13 14 -51 l0 -50 -42 3
-43 3 -3 48 c-2 37 0 47 12 47 12 0 16 -11 16 -41z m158 22 c3 -10 -2 -12 -22
-7 -14 3 -26 2 -26 -3 0 -5 11 -12 25 -15 29 -7 34 -41 8 -54 -20 -11 -57 0
-69 19 -5 9 1 10 25 6 20 -4 30 -3 26 3 -3 6 -13 10 -20 10 -21 0 -37 34 -22
49 16 16 69 10 75 -8z m10123 -56 c54 -8 222 -119 231 -152 9 -32 3 -43 -23
-43 -11 0 -24 -11 -31 -25 -9 -19 -19 -25 -45 -25 -27 0 -38 7 -59 38 -40 59
-144 223 -144 228 0 2 8 0 18 -5 9 -6 33 -12 53 -16z m-11091 -24 c0 -6 -5
-13 -10 -16 -8 -5 -7 -11 1 -21 18 -22 2 -29 -21 -9 -19 17 -19 19 -4 37 18
20 34 24 34 9z m60 0 c0 -6 -5 -13 -10 -16 -8 -5 -7 -11 1 -21 18 -22 2 -29
-21 -9 -19 17 -19 19 -4 37 18 20 34 24 34 9z m4327 -276 c38 -27 42 -115 6
-150 -20 -20 -66 -19 -85 3 -24 27 -30 58 -18 101 15 58 54 76 97 46z m171 -2
c2 -9 -9 -13 -37 -13 -35 0 -41 -3 -41 -21 0 -15 5 -19 19 -14 44 14 83 -61
51 -100 -24 -29 -110 -8 -110 27 0 13 22 9 41 -8 26 -23 51 -11 47 23 -3 26
-6 28 -40 26 l-38 -2 0 43 c0 26 5 47 13 50 22 9 90 1 95 -11z m1204 0 c27
-24 22 -55 -18 -101 l-36 -42 36 0 c20 0 36 -4 36 -10 0 -6 -27 -10 -60 -10
-33 0 -60 3 -60 6 0 4 21 29 46 56 26 27 44 56 42 66 -4 22 -39 28 -50 8 -12
-22 -28 -20 -28 4 0 37 59 53 92 23z m144 9 c35 -23 46 -111 18 -150 -10 -15
-25 -22 -49 -22 -43 0 -65 29 -65 88 0 63 55 112 96 84z m155 -2 c32 -17 24
-64 -17 -110 l-36 -40 41 0 c22 0 41 -4 41 -10 0 -6 -27 -10 -60 -10 -73 0
-76 10 -20 65 47 46 54 85 15 85 -16 0 -25 -6 -25 -15 0 -8 -7 -15 -15 -15
-20 0 -19 19 2 42 18 20 45 23 74 8z m157 -53 c2 -31 7 -57 12 -57 6 0 10 -7
10 -15 0 -8 -4 -15 -10 -15 -5 0 -10 -7 -10 -15 0 -8 -7 -15 -15 -15 -8 0 -15
7 -15 15 0 11 -11 15 -40 15 -50 0 -52 15 -8 84 54 85 72 86 76 3z m-2634 36
c3 -10 5 -42 5 -71 0 -53 5 -72 21 -72 21 0 29 37 14 64 -14 28 -11 46 7 46 5
0 9 -9 9 -19 0 -11 5 -23 10 -26 14 -9 13 -48 -2 -63 -16 -16 -63 -15 -76 1
-15 18 -20 157 -5 157 6 0 14 -8 17 -17z m-426 -32 c2 -7 -1 -18 -7 -25 -9
-10 -8 -15 4 -20 25 -9 19 -55 -9 -67 -46 -21 -103 15 -81 51 11 18 25 10 25
-14 0 -24 23 -41 41 -30 5 3 9 17 9 31 0 17 -7 27 -22 31 l-22 5 22 8 c29 11
28 27 -3 39 -14 5 -25 14 -25 19 0 13 63 -13 68 -28z m242 29 c0 -5 -4 -10 -9
-10 -5 0 -22 -5 -38 -11 -22 -8 -24 -12 -13 -19 8 -6 30 -7 47 -4 28 5 34 3
45 -21 10 -22 9 -32 -2 -53 -8 -14 -22 -28 -30 -30 -13 -4 -13 -3 -2 11 7 9
12 30 10 48 -4 40 -28 52 -28 15 0 -32 -27 -35 -32 -4 -2 12 -8 23 -15 25 -18
6 -27 -44 -14 -73 15 -35 -5 -30 -24 5 -23 45 -4 88 49 111 49 22 56 23 56 10z
m1438 -33 c2 -8 -2 -18 -8 -22 -7 -4 -5 -11 5 -21 21 -21 19 -51 -4 -64 -30
-16 -59 -12 -78 10 -17 19 -17 19 -31 -1 -19 -28 -66 -22 -70 9 -2 12 1 22 7
22 6 0 11 -9 11 -20 0 -26 27 -26 35 1 5 15 -1 29 -20 49 -25 26 -27 50 -4 50
6 0 8 -4 5 -9 -3 -5 8 -22 24 -39 16 -17 32 -27 35 -22 11 18 25 10 25 -14 0
-24 23 -41 41 -30 5 3 9 17 9 31 0 17 -7 27 -22 31 l-22 5 22 8 c29 11 28 27
-3 39 -14 5 -25 14 -25 19 0 16 65 -15 68 -32z m142 33 c0 -5 -4 -10 -9 -10
-5 0 -22 -5 -38 -11 -21 -8 -24 -12 -13 -19 8 -5 27 -6 42 -3 52 10 76 -37 42
-85 -19 -28 -39 -30 -24 -2 13 24 10 71 -5 71 -5 0 -11 -9 -13 -21 -4 -27 -30
-26 -34 2 -2 12 -8 23 -15 25 -18 6 -27 -44 -14 -74 16 -36 -10 -26 -27 11
-20 41 0 83 52 106 49 22 56 23 56 10z m-1734 -65 c29 -18 30 -61 3 -78 -23
-14 -71 0 -67 20 4 23 26 28 24 6 -2 -29 29 -21 32 9 2 18 -4 31 -19 41 -16
11 -19 21 -14 34 7 16 8 16 12 1 2 -9 15 -24 29 -33z m248 31 c-3 -7 6 -21 20
-30 48 -31 26 -91 -31 -84 -20 2 -28 9 -28 22 0 11 5 21 11 23 7 2 11 -4 10
-14 -2 -29 29 -21 32 9 2 18 -4 31 -19 41 -21 15 -21 47 0 47 6 0 8 -6 5 -14z
m268 -31 c9 -20 8 -28 -6 -44 -15 -16 -15 -19 -1 -24 25 -10 19 -56 -9 -68
-46 -21 -103 15 -81 51 11 18 24 10 27 -17 4 -40 42 -39 46 0 3 23 -1 30 -19
34 l-23 6 22 8 c30 11 30 56 0 69 -22 8 -22 9 5 9 20 1 31 -6 39 -24z m106 13
c7 -7 12 -39 12 -74 0 -69 -12 -87 -56 -82 -33 4 -50 28 -39 54 8 18 9 18 12
-3 2 -12 11 -27 20 -34 13 -11 17 -10 29 6 16 21 19 102 5 124 -13 21 -41 5
-41 -24 0 -27 -14 -34 -23 -11 -15 37 52 73 81 44z m123 -4 c10 -12 10 -22 2
-45 -7 -17 -7 -31 -2 -35 19 -11 9 -54 -15 -65 -46 -21 -103 15 -81 51 11 18
24 10 27 -17 4 -35 33 -42 49 -12 10 19 9 25 -10 40 -17 14 -18 18 -5 23 24 9
15 61 -11 61 -13 0 -21 -8 -23 -22 -4 -24 -16 -30 -27 -12 -11 17 26 49 55 49
15 0 33 -7 41 -16z m136 -10 c15 -23 15 -29 2 -52 -22 -39 -41 -41 -26 -2 13
35 1 65 -28 65 -29 0 -41 -29 -28 -65 13 -36 0 -40 -22 -6 -12 17 -13 30 -6
49 17 45 81 52 108 11z m1004 16 c24 -13 25 -57 2 -82 -23 -26 -36 -22 -19 5
26 39 0 86 -39 71 -18 -7 -20 -65 -3 -82 8 -8 9 -12 1 -12 -19 0 -43 30 -43
52 0 47 54 72 101 48z m105 -1 c4 -8 9 -8 17 0 14 14 47 14 47 0 0 -8 4 -8 14
1 23 19 61 8 64 -18 4 -23 -13 -52 -30 -52 -5 0 -4 9 2 19 12 23 3 54 -14 48
-6 -2 -12 -16 -14 -30 -4 -34 -30 -35 -34 -2 -2 14 -7 26 -13 26 -5 0 -11 -12
-13 -26 -4 -33 -30 -32 -34 2 -4 33 -24 41 -33 13 -14 -44 2 -67 70 -99 72
-34 88 -58 24 -36 -23 8 -51 15 -63 15 -16 0 -18 2 -7 9 11 7 9 10 -8 16 -57
18 -58 125 0 125 10 0 21 -5 25 -11z m271 -15 c15 -23 15 -29 2 -52 -22 -39
-41 -41 -26 -2 13 35 1 65 -28 65 -29 0 -41 -29 -28 -65 13 -35 1 -40 -21 -8
-21 30 -20 44 4 68 29 29 76 26 97 -6z m-1315 -80 c-5 -32 -11 -44 -22 -44
-11 0 -13 30 -4 55 9 22 30 13 26 -11z m1378 14 c0 -29 -13 -58 -25 -58 -8 0
-11 8 -8 23 9 40 12 47 23 47 5 0 10 -6 10 -12z m4230 -98 c0 -5 -2 -10 -4
-10 -3 0 -8 5 -11 10 -3 6 -1 10 4 10 6 0 11 -4 11 -10z m-9816 -192 c13 -18
17 -19 32 -7 14 11 18 11 30 -6 16 -21 18 -82 5 -104 -5 -8 -18 -12 -29 -9
-13 4 -27 -1 -38 -13 -25 -27 -116 -27 -144 1 -25 25 -27 105 -4 138 13 18 25
22 74 22 49 0 61 -4 74 -22z m891 3 c7 -12 -12 -24 -25 -16 -11 7 -4 25 10 25
5 0 11 -4 15 -9z m-547 -34 c2 -16 -1 -34 -7 -40 -6 -8 -6 -18 -1 -27 14 -21
12 -30 -5 -30 -9 0 -21 11 -27 25 -6 14 -15 25 -20 25 -4 0 -8 -11 -8 -25 0
-16 -6 -25 -15 -25 -12 0 -15 14 -15 66 l0 65 48 -3 c43 -3 47 -5 50 -31z
m502 -33 l0 -65 -47 3 c-46 3 -48 4 -51 36 -4 40 12 62 44 62 15 0 24 6 24 15
0 8 7 15 15 15 12 0 15 -14 15 -66z m-402 24 c7 -7 12 -20 12 -30 0 -14 -8
-18 -36 -18 -20 0 -33 -4 -29 -10 3 -5 20 -6 38 -3 29 6 31 5 18 -10 -16 -20
-62 -22 -79 -5 -15 15 -15 61 0 76 7 7 24 12 38 12 14 0 31 -5 38 -12z m110
-10 c4 -20 -24 -25 -30 -6 -6 17 -28 0 -28 -22 0 -25 17 -35 36 -19 17 14 29
6 21 -16 -8 -18 -58 -20 -75 -3 -16 16 -15 61 0 76 19 19 72 11 76 -10z m100
10 c15 -15 15 -61 0 -76 -31 -31 -88 -4 -88 42 0 37 61 61 88 34z m92 4 c0 -4
-9 -13 -20 -20 -13 -8 -20 -23 -20 -42 0 -20 -5 -30 -15 -30 -11 0 -15 12 -15
50 l0 50 35 0 c19 0 35 -3 35 -8z m150 -42 c0 -38 -4 -50 -15 -50 -11 0 -15
12 -15 50 0 38 4 50 15 50 11 0 15 -12 15 -50z m100 31 c5 -11 10 -33 10 -50
0 -24 -4 -31 -20 -31 -17 0 -20 7 -20 41 0 52 -24 48 -28 -4 -2 -24 -8 -37
-18 -37 -10 0 -14 13 -14 50 l0 50 40 0 c29 0 42 -5 50 -19z m120 -39 c0 -32
-5 -63 -12 -70 -20 -20 -88 -12 -88 10 0 6 12 8 30 5 16 -4 32 -2 35 3 3 6 -4
10 -17 10 -31 0 -48 18 -48 50 0 36 17 50 62 50 l38 0 0 -58z m91 42 c12 -15
10 -16 -19 -10 -41 9 -42 -2 -1 -16 23 -8 29 -16 27 -32 -2 -17 -10 -21 -42
-21 -24 0 -41 5 -44 14 -3 10 3 12 27 6 37 -8 41 2 6 15 -14 5 -28 17 -32 26
-12 32 54 47 78 18z m3856 -623 c30 -14 48 -31 62 -60 21 -40 21 -49 21 -1218
0 -1146 -1 -1179 -20 -1221 -15 -33 -29 -47 -64 -63 -44 -19 -68 -19 -1188
-17 -1125 3 -1143 3 -1170 23 -15 11 -37 38 -48 61 -20 40 -20 58 -20 1218 0
1148 0 1178 20 1215 13 26 33 45 62 60 l43 21 1130 0 c1089 0 1132 -1 1172
-19z m8112 1 c19 -9 44 -30 55 -45 21 -28 21 -30 21 -1237 0 -1207 0 -1209
-21 -1237 -11 -15 -36 -36 -55 -45 -32 -17 -108 -18 -1169 -18 -1061 0 -1137
1 -1169 18 -19 9 -44 30 -55 45 -21 28 -21 30 -21 1237 0 1199 0 1209 20 1236
11 15 36 35 55 45 33 18 84 19 1170 19 1061 0 1137 -1 1169 -18z m-13201 -175
l3 -46 47 -3 c34 -2 47 -7 47 -18 0 -11 -13 -16 -47 -18 l-47 -3 -3 -47 c-2
-34 -7 -47 -18 -47 -11 0 -16 13 -18 47 l-3 47 -47 3 c-34 2 -47 7 -47 18 0
11 13 16 48 18 l47 3 0 43 c0 23 3 46 7 50 16 15 28 -3 31 -47z m360 -6 c8 -5
12 -21 10 -37 -2 -23 -10 -31 -35 -39 -22 -6 -33 -15 -33 -27 0 -10 -7 -18
-15 -18 -12 0 -15 14 -15 65 l0 65 38 0 c20 0 43 -4 50 -9z m652 -56 c0 -51
-3 -65 -15 -65 -12 0 -15 14 -15 65 0 51 3 65 15 65 12 0 15 -14 15 -65z m160
46 c7 -14 7 -27 -1 -44 -8 -18 -8 -30 0 -46 10 -18 9 -21 -7 -21 -11 0 -25 12
-32 28 l-14 27 -4 -27 c-2 -20 -9 -28 -23 -28 -17 0 -19 7 -19 65 l0 65 45 0
c34 0 47 -5 55 -19z m4791 -11 c46 -47 49 -59 49 -218 0 -232 -10 -242 -234
-242 -237 0 -246 8 -246 240 0 165 7 190 59 224 22 14 51 16 192 14 131 -2
169 -6 180 -18z m-5491 -19 c17 -33 12 -41 -26 -41 -20 0 -33 -4 -29 -10 3 -5
20 -6 38 -3 29 6 31 5 18 -10 -16 -20 -62 -22 -79 -5 -15 15 -15 61 0 76 19
19 66 15 78 -7z m80 10 c0 -5 -7 -11 -15 -15 -9 -3 -15 -19 -15 -41 0 -24 -4
-35 -15 -35 -11 0 -15 12 -15 50 0 49 1 50 30 50 17 0 30 -4 30 -9z m91 -8
c13 -15 11 -16 -18 -10 -19 4 -33 2 -33 -3 0 -6 8 -10 19 -10 25 0 43 -23 35
-44 -8 -21 -75 -18 -82 3 -3 10 3 11 28 6 23 -5 30 -4 26 4 -4 6 -16 11 -27
11 -22 0 -34 22 -25 45 7 20 60 19 77 -2z m113 -16 c13 -36 -2 -61 -38 -65
-35 -4 -56 13 -56 47 0 36 19 53 55 49 22 -2 32 -10 39 -31z m104 -19 c2 -37
0 -48 -12 -48 -10 0 -16 12 -18 38 -2 20 -7 37 -13 37 -5 0 -11 -17 -13 -37
-2 -25 -8 -38 -18 -38 -10 0 -14 13 -14 51 l0 50 43 -3 42 -3 3 -47z m100 40
c7 -7 12 -29 12 -50 l0 -38 -44 0 c-31 0 -46 5 -50 16 -8 21 11 44 35 44 11 0
19 5 19 10 0 6 -11 8 -25 4 -14 -4 -25 -2 -25 4 0 22 59 29 78 10z m306 6 c9
-3 16 -12 16 -20 0 -20 13 -17 28 6 30 49 104 2 83 -54 -9 -21 -17 -26 -45
-26 -26 0 -38 6 -47 22 l-12 22 -8 -22 c-12 -31 -64 -34 -86 -4 -36 46 13 98
71 76z m284 -46 c2 -38 0 -48 -12 -48 -12 0 -16 10 -16 40 0 22 -4 40 -10 40
-5 0 -10 -18 -10 -40 0 -29 -4 -40 -15 -40 -9 0 -15 9 -15 24 0 33 -10 57 -21
50 -5 -3 -9 -21 -9 -40 0 -24 -5 -34 -15 -34 -11 0 -15 12 -15 50 l0 51 68 -3
67 -3 3 -47z m6978 -75 c10 -10 31 -18 48 -18 36 0 44 -22 36 -99 -5 -49 -6
-51 -34 -49 -18 1 -34 -4 -42 -14 -16 -24 -141 -31 -168 -10 -27 20 -34 119
-13 170 l16 37 70 0 c53 0 74 -4 87 -17z m-60 -1155 c9 -15 -27 -41 -39 -29
-13 13 -1 41 17 41 8 0 18 -5 22 -12z m1297 -2 c7 -18 -1 -26 -25 -26 -18 0
-25 20 -11 33 11 12 31 8 36 -7z m-1467 -51 c10 -30 21 -55 24 -55 4 0 13 24
21 53 12 46 17 52 43 55 21 3 27 0 24 -10 -63 -175 -59 -168 -88 -168 -26 0
-30 6 -59 86 -17 47 -31 87 -31 90 0 2 11 4 24 4 21 0 28 -8 42 -55z m714 35
c24 -24 26 -62 5 -80 -13 -11 -13 -15 0 -41 20 -37 19 -39 -7 -39 -15 0 -29
11 -41 31 -20 36 -26 35 -29 -4 -2 -21 -8 -27 -25 -27 -22 0 -23 3 -23 90 l0
90 50 0 c37 0 55 -5 70 -20z m690 -69 l0 -89 -46 -4 c-69 -5 -94 13 -94 70 0
26 -4 33 -17 30 -14 -2 -19 -15 -21 -51 -3 -42 -6 -47 -27 -47 -22 0 -23 4
-24 65 l0 65 44 0 c25 0 45 -4 45 -9 0 -6 12 -3 28 4 15 8 35 12 45 9 13 -4
17 0 17 20 0 21 5 26 25 26 25 0 25 -1 25 -89z m-1101 25 c5 -6 11 -22 13 -36
3 -23 -1 -25 -39 -28 -24 -2 -43 -7 -43 -13 0 -5 17 -7 40 -3 60 10 50 -25
-11 -40 -54 -12 -102 62 -71 111 18 29 90 35 111 9z m559 -4 c6 -9 12 -26 12
-39 0 -20 -5 -23 -40 -23 -22 0 -40 -5 -40 -10 0 -6 15 -8 40 -4 24 4 40 3 40
-3 0 -36 -84 -48 -114 -17 -17 16 -21 70 -8 91 20 32 86 35 110 5z m140 6 c6
-6 12 -17 12 -24 0 -17 -31 -19 -47 -3 -17 17 -33 1 -33 -32 0 -29 22 -41 35
-19 9 15 45 12 45 -4 0 -18 -19 -33 -50 -41 -38 -9 -80 27 -80 68 0 40 9 53
40 66 26 10 56 6 78 -11z m122 12 c30 0 53 -75 32 -106 -25 -37 -94 -36 -119
3 -12 18 -13 31 -7 56 10 33 48 61 72 52 8 -3 17 -5 22 -5z m490 -69 c5 -58 4
-61 -17 -61 -20 0 -23 5 -23 38 0 20 -4 43 -9 51 -15 24 -31 1 -31 -45 0 -40
-2 -44 -25 -44 -24 0 -25 2 -25 64 l0 65 43 3 c73 5 81 -1 87 -71z m160 -5 c0
-83 -5 -93 -49 -106 -37 -10 -75 1 -85 25 -5 14 1 16 36 13 23 -2 43 2 45 8 2
6 -7 9 -25 6 -37 -5 -62 20 -62 62 0 33 15 61 38 67 7 2 33 3 57 1 l45 -4 0
-72z m99 73 c17 -6 31 -18 31 -26 0 -12 -8 -14 -37 -8 -44 8 -37 -4 10 -20 36
-11 44 -32 24 -59 -23 -32 -117 -19 -117 17 0 6 16 7 42 3 47 -8 44 3 -5 19
-41 13 -45 53 -7 72 14 7 25 13 26 13 1 0 15 -5 33 -11z m-1703 -64 c0 -61 -2
-65 -23 -65 -22 0 -23 4 -23 65 0 61 1 65 23 65 22 0 23 -4 23 -65z m204 46
c0 -29 18 -35 22 -9 4 32 58 40 58 9 0 -12 5 -21 10 -21 6 0 10 9 10 20 0 15
7 20 25 20 30 0 29 5 8 -71 -15 -55 -19 -60 -42 -57 -18 2 -27 10 -29 26 -2
12 -7 22 -12 22 -5 0 -10 -10 -12 -22 -2 -16 -11 -24 -29 -26 -23 -3 -27 2
-42 57 -21 76 -22 71 8 71 18 0 25 -5 25 -19z m1090 -46 c0 -58 -2 -65 -20
-65 -18 0 -20 7 -20 65 0 58 2 65 20 65 18 0 20 -7 20 -65z m-4097 -183 c9 -8
17 -21 17 -28 0 -18 -43 -22 -56 -5 -7 9 -18 12 -30 7 -16 -7 -10 -12 34 -31
46 -21 52 -27 52 -54 0 -41 -37 -66 -86 -58 -42 7 -64 23 -64 47 0 26 36 32
52 8 9 -13 19 -17 31 -12 14 5 15 9 6 20 -6 8 -19 14 -28 14 -27 0 -61 29 -61
52 0 38 35 65 77 60 21 -2 46 -11 56 -20z m1677 9 c0 -25 -14 -34 -39 -26 -28
9 -16 45 15 45 17 0 24 -6 24 -19z m-1458 -17 c-4 -23 -2 -25 17 -19 14 4 31
1 46 -9 22 -14 25 -24 25 -71 0 -53 -1 -55 -28 -55 -26 0 -27 2 -24 38 1 20
-2 43 -7 51 -15 24 -31 2 -31 -45 0 -40 -2 -44 -25 -44 -25 0 -25 1 -25 90 l0
90 29 0 c25 0 28 -3 23 -26z m383 -63 l0 -89 -49 -6 c-54 -6 -82 4 -91 34 -5
16 -15 20 -51 20 -24 0 -44 -5 -44 -10 0 -6 15 -8 40 -4 33 5 40 4 40 -9 0
-35 -69 -49 -108 -21 -17 12 -22 25 -22 59 0 34 5 47 22 59 45 31 108 9 108
-38 1 -16 4 -14 15 11 10 25 22 33 49 39 26 4 36 11 36 25 0 14 7 19 28 19
l27 0 0 -89z m215 -1 c0 -89 0 -90 -24 -90 -24 0 -25 2 -28 90 l-3 90 28 0 27
0 0 -90z m284 58 c7 -18 16 -42 20 -53 7 -17 11 -11 29 32 20 49 25 53 55 53
l32 0 0 -90 0 -90 -30 0 c-26 0 -30 4 -31 28 l-1 27 -11 -27 c-16 -42 -51 -37
-71 10 l-16 37 3 -37 c3 -36 2 -38 -28 -38 l-30 0 3 90 3 90 30 0 c25 0 32 -6
43 -32z m493 2 c3 -11 9 -20 14 -20 5 0 9 -7 9 -15 0 -8 -5 -15 -11 -15 -14 0
-7 -63 9 -68 8 -2 12 11 12 47 0 48 2 51 25 51 24 0 25 -2 25 -65 0 -62 -1
-65 -24 -65 -13 0 -27 6 -29 13 -3 7 -6 5 -6 -5 -1 -19 -12 -22 -48 -12 -20 6
-23 13 -23 55 0 27 -4 49 -10 49 -5 0 -10 9 -10 21 0 11 5 17 10 14 6 -3 10 3
10 14 0 28 40 29 47 1z m-1454 -24 c26 -20 22 -46 -7 -46 -13 0 -26 5 -28 12
-7 19 -28 -1 -28 -27 0 -26 21 -46 28 -27 5 16 52 15 52 0 -1 -41 -77 -60
-114 -29 -25 21 -22 96 6 115 27 19 67 20 91 2z m795 -3 c11 -10 23 -30 26
-45 6 -27 5 -28 -39 -28 -25 0 -45 -5 -45 -10 0 -6 15 -8 40 -4 44 7 51 -3 23
-31 -12 -12 -26 -15 -51 -12 -49 9 -62 23 -62 73 0 33 5 46 22 58 29 21 61 20
86 -1z m420 1 c12 -8 23 -25 23 -37 1 -20 2 -21 6 -2 14 57 76 73 118 30 26
-25 32 -63 15 -95 -21 -40 -111 -33 -125 9 -5 17 -15 21 -51 21 -26 0 -43 -4
-39 -9 3 -5 21 -7 40 -4 43 7 49 -17 10 -35 -61 -28 -105 -2 -105 63 0 47 24
75 65 75 11 0 31 -7 43 -16z m453 6 c15 -9 19 -22 19 -70 0 -57 -1 -60 -24
-60 -23 0 -25 5 -28 48 -2 26 -7 47 -13 47 -5 0 -11 -21 -13 -47 -3 -45 -5
-48 -30 -48 -27 0 -27 0 -24 64 3 61 5 65 30 69 50 8 63 7 83 -3z m151 0 c17
0 19 -7 16 -82 -3 -80 -4 -83 -32 -97 -39 -18 -90 -4 -94 27 -2 15 1 20 10 17
30 -10 68 -13 63 -4 -4 5 -16 9 -27 9 -55 0 -79 79 -37 121 16 16 29 20 51 15
17 -3 39 -6 50 -6z m-1290 -47 c2 -27 8 -48 13 -48 6 0 11 21 13 48 3 42 5 47
28 47 23 0 24 -3 24 -65 0 -45 -4 -65 -12 -66 -7 0 -28 -2 -46 -5 -56 -7 -70
8 -74 76 -3 59 -3 60 24 60 25 0 27 -3 30 -47z m2022 -59 c7 -17 -8 -18 -34
-2 -28 18 -55 -1 -55 -37 0 -36 27 -55 55 -37 31 19 45 14 25 -8 -21 -24 -77
-27 -94 -6 -7 8 -11 34 -9 58 2 33 8 45 27 54 27 14 76 1 85 -22z m36 11 c0
-9 9 -15 23 -15 33 0 47 -19 47 -62 0 -27 -4 -38 -15 -38 -11 0 -15 11 -15 40
0 28 -4 40 -14 40 -16 0 -26 -21 -26 -56 0 -13 -4 -24 -10 -24 -6 0 -10 28
-10 65 0 37 4 65 10 65 6 0 10 -7 10 -15z m320 -17 c0 -29 1 -30 18 -15 29 26
49 21 24 -5 l-20 -23 20 -25 c14 -18 16 -26 7 -29 -7 -2 -21 6 -31 19 -18 22
-18 22 -18 1 0 -12 -6 -21 -15 -21 -12 0 -15 14 -15 65 0 51 3 65 15 65 10 0
15 -10 15 -32z m378 2 c15 -1 15 -2 -1 -14 -21 -16 -20 -55 3 -74 13 -11 11
-12 -10 -10 -21 3 -26 9 -28 38 -2 19 -8 38 -14 41 -6 4 -3 15 8 28 15 18 20
19 22 6 2 -8 11 -15 20 -15z m-530 -12 c7 -7 12 -20 12 -30 0 -14 -8 -18 -35
-18 -19 0 -35 -5 -35 -11 0 -7 11 -9 30 -5 36 7 43 -18 8 -27 -46 -12 -82 38
-58 82 12 24 58 29 78 9z m103 -4 c12 -15 10 -16 -17 -10 -24 5 -33 3 -37 -8
-12 -31 3 -48 35 -40 23 5 29 3 26 -7 -6 -19 -69 -24 -79 -7 -13 19 -11 62 3
76 17 17 53 15 69 -4z m247 4 c13 -13 16 -57 4 -74 -7 -11 -32 -18 -60 -15
-20 2 -33 47 -22 76 7 19 17 25 38 25 15 0 33 -5 40 -12z m54 -25 c2 -27 8
-39 21 -41 14 -3 17 4 17 37 0 23 5 41 10 41 6 0 10 -23 10 -51 l0 -50 -37 3
c-38 3 -38 3 -41 51 -4 55 15 65 20 10z m224 12 c3 -14 10 -25 14 -25 4 0 11
11 14 25 4 14 13 25 21 25 12 0 10 -11 -8 -62 -23 -61 -48 -90 -64 -74 -4 4 0
12 9 17 16 9 16 13 -2 64 -16 46 -16 55 -5 55 8 0 17 -11 21 -25z m156 0 c17
-37 -3 -75 -40 -75 -35 0 -52 16 -52 50 0 34 17 50 52 50 21 0 32 -7 40 -25z
m48 -15 c0 -29 4 -40 15 -40 11 0 15 11 15 40 0 29 4 40 15 40 11 0 15 -12 15
-50 l0 -50 -39 0 c-43 0 -51 10 -51 66 0 24 5 34 15 34 11 0 15 -11 15 -40z
m140 31 c0 -5 -9 -11 -20 -14 -15 -4 -20 -14 -20 -41 0 -20 -4 -36 -10 -36 -5
0 -10 23 -10 50 0 49 1 50 30 50 17 0 30 -4 30 -9z m-2692 -243 c-7 -19 -38
-22 -38 -4 0 10 9 16 21 16 12 0 19 -5 17 -12z m1980 -6 c2 -7 -3 -12 -12 -12
-9 0 -16 7 -16 16 0 17 22 14 28 -4z m-3186 -18 c11 -23 10 -29 -11 -45 -13
-11 -32 -19 -43 -19 -15 0 -19 -5 -15 -19 5 -19 -15 -36 -27 -24 -3 4 -6 35
-6 70 l0 63 45 0 c39 0 47 -4 57 -26z m48 -38 c0 -46 -4 -65 -14 -69 -21 -8
-21 -5 -18 67 3 49 7 66 18 66 11 0 14 -15 14 -64z m1096 49 c4 -8 17 -15 30
-15 22 0 24 -4 24 -50 0 -36 -4 -50 -14 -50 -8 0 -20 -2 -28 -5 -23 -9 -41 12
-40 46 0 19 -4 36 -10 40 -6 4 -5 14 3 28 16 25 27 27 35 6z m1994 -49 l0 -64
-32 -4 c-43 -7 -72 22 -63 64 7 28 6 29 -14 19 -15 -9 -21 -21 -21 -47 0 -21
-4 -34 -11 -32 -6 2 -10 7 -10 11 1 4 1 25 1 48 l0 41 38 -3 c71 -4 92 0 86
16 -4 9 0 15 10 15 13 0 16 -12 16 -64z m-2990 2 l10 -33 -3 33 -4 33 46 -3
46 -3 3 -47 c3 -41 0 -48 -15 -48 -16 0 -18 7 -15 41 3 32 1 40 -9 37 -8 -3
-15 -21 -17 -41 -3 -38 -31 -54 -33 -19 -1 15 -2 15 -6 1 -5 -20 -71 -35 -85
-21 -5 5 -8 20 -6 33 2 18 10 25 31 27 15 2 27 8 27 13 0 7 -12 8 -30 4 -16
-4 -30 -2 -30 3 0 16 13 22 46 22 29 0 35 -4 44 -32z m195 12 c3 -11 10 -20
15 -20 4 0 10 9 13 20 3 11 13 20 22 20 18 0 17 -8 -15 -90 -14 -37 -23 -46
-46 -48 -28 -4 -28 -3 -10 17 17 19 17 23 2 67 -19 57 -19 54 -2 54 8 0 18 -9
21 -20z m161 -5 c15 -59 -20 -95 -72 -75 -19 7 -24 17 -24 43 0 42 15 57 57
57 26 0 34 -5 39 -25z m44 -16 c0 -52 24 -48 28 4 2 24 8 37 18 37 10 0 15
-14 16 -52 l2 -53 3 53 c4 52 4 52 39 52 18 0 34 -4 34 -10 0 -5 -7 -10 -15
-10 -19 0 -31 -48 -18 -69 9 -14 2 -16 -51 -16 -34 0 -67 4 -73 8 -19 12 -17
97 2 97 11 0 15 -11 15 -41z m334 25 c3 -9 6 -31 6 -50 0 -49 -28 -46 -32 3
-4 53 -26 54 -30 2 -4 -61 -28 -64 -28 -4 0 57 -23 58 -28 2 -2 -24 -8 -37
-18 -37 -10 0 -14 13 -14 50 l0 50 69 0 c54 0 70 -4 75 -16z m105 -1 c9 -17
10 -17 16 0 9 23 80 24 89 1 13 -34 7 -44 -30 -44 -20 0 -33 -4 -29 -10 3 -5
19 -7 35 -3 32 6 40 -7 15 -27 -20 -17 -73 -3 -80 21 -5 14 -16 19 -41 19 -19
0 -34 -5 -34 -11 0 -7 11 -8 30 -4 17 4 30 3 30 -2 0 -12 -20 -40 -20 -28 0 6
-4 4 -9 -4 -8 -12 -13 -12 -35 3 -19 12 -26 25 -26 49 0 18 5 38 12 45 18 18
66 15 77 -5z m317 -7 c8 -33 1 -79 -13 -83 -8 -3 -13 11 -15 39 -4 53 -22 57
-26 6 -2 -25 -8 -38 -18 -38 -10 0 -14 13 -14 50 l0 50 40 0 c33 0 41 -4 46
-24z m114 -31 c0 -78 -10 -94 -56 -86 -21 3 -39 12 -42 20 -4 11 2 13 26 8 17
-4 34 -2 37 3 3 6 -4 10 -17 10 -35 0 -45 11 -49 56 l-4 41 52 2 53 2 0 -56z
m1250 45 c0 -5 -6 -10 -14 -10 -16 0 -26 -21 -26 -56 0 -13 -4 -24 -10 -24 -5
0 -10 23 -10 50 0 49 1 50 30 50 17 0 30 -4 30 -10z m91 -11 l11 -21 15 22
c10 14 23 20 41 18 36 -4 41 -27 5 -25 -24 2 -28 -2 -28 -23 0 -22 4 -25 32
-23 24 2 31 -1 27 -11 -12 -32 -84 -22 -84 11 0 16 -7 18 -40 15 -22 -2 -40
-9 -40 -14 0 -6 13 -8 31 -4 22 4 29 2 27 -7 -6 -17 -56 -21 -74 -6 -17 14
-19 60 -2 77 20 20 66 15 79 -9z m197 9 c14 -14 16 -57 3 -76 -5 -8 -21 -12
-41 -10 -43 4 -62 48 -34 79 19 21 54 25 72 7z m232 -38 c0 -38 -4 -50 -15
-50 -11 0 -15 12 -15 50 0 38 4 50 15 50 11 0 15 -12 15 -50z m98 -2 c2 -29
-1 -48 -7 -48 -6 0 -11 12 -11 28 0 15 -4 33 -9 41 -14 22 -31 3 -31 -35 0
-24 -5 -34 -15 -34 -11 0 -15 12 -15 51 l0 50 43 -3 42 -3 3 -47z m112 -7 c0
-39 -5 -63 -14 -70 -19 -16 -68 -10 -74 8 -3 10 3 11 27 6 20 -4 31 -3 31 4 0
6 -9 11 -19 11 -25 0 -51 26 -51 50 0 29 28 50 66 50 l34 0 0 -59z m98 40 c3
-10 -3 -11 -29 -6 -36 8 -34 0 3 -19 13 -7 23 -20 23 -31 0 -16 -8 -21 -37
-23 -29 -2 -38 0 -38 13 0 11 6 14 25 9 14 -3 25 -2 25 4 0 5 -11 13 -25 16
-24 6 -34 34 -18 50 12 12 66 2 71 -13z"/>
<path d="M13235 7430 c3 -5 8 -10 11 -10 2 0 4 5 4 10 0 6 -5 10 -11 10 -5 0
-7 -4 -4 -10z"/>
<path d="M218 7423 c18 -2 45 -2 60 0 15 2 0 4 -33 4 -33 0 -45 -2 -27 -4z"/>
<path d="M335 7410 c-26 -28 -15 -31 12 -3 12 13 19 23 14 23 -4 0 -16 -9 -26
-20z"/>
<path d="M692 7378 c-16 -16 -15 -43 2 -57 20 -17 37 15 25 47 -10 26 -11 26
-27 10z"/>
<path d="M852 7378 c-16 -16 -15 -43 2 -57 21 -18 41 21 26 49 -13 24 -13 23
-28 8z"/>
<path d="M187 6367 c-33 -28 -37 -37 -37 -77 0 -26 5 -51 12 -58 7 -7 40 -12
78 -12 38 0 71 5 78 12 7 7 12 33 12 58 0 42 -3 48 -42 78 -23 18 -46 32 -52
32 -6 -1 -28 -15 -49 -33z m63 -102 c0 -14 -4 -25 -10 -25 -5 0 -10 11 -10 25
0 14 5 25 10 25 6 0 10 -11 10 -25z"/>
<path d="M702 6317 c-12 -15 -7 -47 8 -47 13 0 21 31 12 46 -7 13 -10 13 -20
1z"/>
<path d="M968 6313 c7 -3 16 -2 19 1 4 3 -2 6 -13 5 -11 0 -14 -3 -6 -6z"/>
<path d="M5544 5996 c-8 -22 -1 -59 13 -64 17 -5 27 22 19 53 -7 28 -24 33
-32 11z"/>
<path d="M5690 5990 c0 -11 7 -20 15 -20 8 0 15 9 15 20 0 11 -7 20 -15 20 -8
0 -15 -9 -15 -20z"/>
<path d="M3680 5955 c0 -16 6 -25 15 -25 9 0 15 9 15 25 0 16 -6 25 -15 25 -9
0 -15 -9 -15 -25z"/>
<path d="M3777 5974 c-4 -4 -7 -16 -7 -27 0 -15 5 -18 23 -13 12 3 25 6 30 6
10 0 9 30 -2 30 -5 0 -16 2 -23 5 -8 3 -17 2 -21 -1z"/>
<path d="M3862 5955 c2 -14 8 -26 13 -26 6 0 11 12 13 26 2 18 -1 25 -13 25
-12 0 -15 -7 -13 -25z"/>
<path d="M4223 5964 c-8 -21 13 -42 28 -27 13 13 5 43 -11 43 -6 0 -13 -7 -17
-16z"/>
<path d="M4510 5970 c0 -5 7 -10 15 -10 8 0 15 5 15 10 0 6 -7 10 -15 10 -8 0
-15 -4 -15 -10z"/>
<path d="M4605 5970 c-3 -5 3 -10 15 -10 12 0 18 5 15 10 -3 6 -10 10 -15 10
-5 0 -12 -4 -15 -10z"/>
<path d="M4886 5963 c-8 -19 8 -38 23 -29 16 10 13 46 -3 46 -8 0 -17 -8 -20
-17z"/>
<path d="M5035 5939 c-11 -17 1 -21 15 -4 8 9 8 15 2 15 -6 0 -14 -5 -17 -11z"/>
<path d="M10145 3830 c-3 -5 -1 -10 4 -10 6 0 11 5 11 10 0 6 -2 10 -4 10 -3
0 -8 -4 -11 -10z"/>
<path d="M140 5530 c0 -6 40 -10 100 -10 60 0 100 4 100 10 0 6 -40 10 -100
10 -60 0 -100 -4 -100 -10z"/>
<path d="M694 5476 c-8 -22 3 -49 19 -43 6 2 12 14 12 27 0 27 -22 39 -31 16z"/>
<path d="M907 5475 c-8 -20 3 -47 17 -42 6 2 11 14 11 27 0 27 -20 38 -28 15z"/>
<path d="M1334 5476 c-8 -22 3 -49 19 -43 6 2 12 14 12 27 0 27 -22 39 -31 16z"/>
<path d="M3534 5041 c-22 -10 -55 -51 -68 -86 -16 -41 -23 -142 -15 -208 14
-112 59 -171 129 -169 83 2 124 78 125 227 0 110 -18 175 -59 214 -26 25 -80
35 -112 22z"/>
<path d="M3964 5040 c-32 -13 -64 -59 -64 -92 0 -67 45 -108 121 -108 81 0
125 82 86 158 -21 44 -90 64 -143 42z"/>
<path d="M3934 4781 c-87 -53 -62 -171 42 -200 107 -30 207 83 148 167 -36 52
-132 69 -190 33z"/>
<path d="M5043 4839 c-17 -5 -43 -23 -57 -40 -34 -40 -36 -108 -5 -159 30 -48
48 -59 97 -60 34 0 49 6 79 34 36 32 38 38 38 94 0 51 -4 65 -25 88 -20 22
-81 57 -92 53 -2 0 -17 -5 -35 -10z"/>
<path d="M5610 4916 l0 -126 70 0 c122 0 170 36 170 129 0 42 -5 56 -29 83
-28 32 -32 33 -120 36 l-91 4 0 -126z"/>
<path d="M140 4690 c0 -6 40 -10 100 -10 60 0 100 4 100 10 0 6 -40 10 -100
10 -60 0 -100 -4 -100 -10z"/>
<path d="M560 4661 c0 -15 6 -21 21 -21 14 0 19 5 17 17 -5 26 -38 29 -38 4z"/>
<path d="M745 4640 c-3 -5 3 -10 15 -10 12 0 18 5 15 10 -3 6 -10 10 -15 10
-5 0 -12 -4 -15 -10z"/>
<path d="M997 4635 c-9 -21 2 -45 20 -45 10 0 13 9 11 27 -3 30 -23 41 -31 18z"/>
<path d="M4627 4273 c-12 -11 -8 -98 5 -111 21 -21 37 -13 48 26 14 46 0 92
-28 92 -10 0 -22 -3 -25 -7z"/>
<path d="M6150 4261 c-21 -40 -5 -111 25 -111 28 0 46 70 29 114 -8 22 -41 20
-54 -3z"/>
<path d="M6463 4230 c-22 -35 -22 -35 -2 -38 28 -5 31 0 27 40 l-3 33 -22 -35z"/>
<path d="M153 3845 c-5 -8 -6 -38 -3 -67 l5 -53 48 -3 c27 -2 54 2 62 8 15 12
17 99 2 118 -14 18 -104 16 -114 -3z"/>
<path d="M313 3819 c-17 -17 -16 -44 1 -58 18 -15 23 -4 17 37 -5 27 -8 31
-18 21z"/>
<path d="M560 3820 c0 -15 5 -20 18 -18 9 2 17 10 17 18 0 8 -8 16 -17 18 -13
2 -18 -3 -18 -18z"/>
<path d="M1064 3796 c-8 -22 3 -49 19 -43 6 2 12 14 12 27 0 27 -22 39 -31 16z"/>
<path d="M675 3800 c-3 -5 3 -10 15 -10 12 0 18 5 15 10 -3 6 -10 10 -15 10
-5 0 -12 -4 -15 -10z"/>
<path d="M887 3795 c-9 -21 2 -45 20 -45 10 0 13 9 11 27 -3 30 -23 41 -31 18z"/>
<path d="M1334 3795 c-7 -18 2 -45 15 -45 13 0 22 27 15 45 -4 8 -10 15 -15
15 -5 0 -12 -7 -15 -15z"/>
<path d="M560 2981 c0 -15 6 -21 21 -21 14 0 19 5 17 17 -5 26 -38 29 -38 4z"/>
<path d="M1370 2980 c0 -11 7 -20 15 -20 8 0 15 9 15 20 0 11 -7 20 -15 20 -8
0 -15 -9 -15 -20z"/>
<path d="M675 2960 c-3 -5 3 -10 15 -10 12 0 18 5 15 10 -3 6 -10 10 -15 10
-5 0 -12 -4 -15 -10z"/>
<path d="M954 2956 c-8 -22 3 -49 19 -43 6 2 12 14 12 27 0 27 -22 39 -31 16z"/>
<path d="M1165 2920 c-3 -5 1 -10 9 -10 9 0 16 5 16 10 0 6 -4 10 -9 10 -6 0
-13 -4 -16 -10z"/>
<path d="M1480 2941 c0 -21 5 -31 16 -31 11 0 14 8 12 27 -4 39 -28 42 -28 4z"/>
<path d="M1597 2963 c-13 -13 -7 -53 8 -53 10 0 15 10 15 30 0 29 -9 38 -23
23z"/>
<path d="M8647 2833 c-4 -3 -7 -35 -7 -70 l0 -63 66 0 c65 0 66 0 62 25 -3 13
-1 22 4 19 9 -6 2 72 -8 88 -6 10 -108 11 -117 1z"/>
<path d="M8820 2795 c-14 -17 -10 -47 8 -53 8 -2 12 8 12 32 0 40 -2 42 -20
21z"/>
<path d="M9200 1651 c0 -11 4 -22 8 -25 14 -9 35 12 29 28 -9 23 -37 20 -37
-3z"/>
<path d="M9874 1616 c-9 -23 0 -51 16 -51 10 0 15 10 15 29 0 32 -21 47 -31
22z"/>
<path d="M8790 1620 c0 -5 9 -10 21 -10 11 0 17 5 14 10 -3 6 -13 10 -21 10
-8 0 -14 -4 -14 -10z"/>
<path d="M9350 1620 c0 -5 9 -10 21 -10 11 0 17 5 14 10 -3 6 -13 10 -21 10
-8 0 -14 -4 -14 -10z"/>
<path d="M9634 1616 c-9 -23 0 -51 17 -54 17 -3 28 21 21 51 -4 21 -30 23 -38
3z"/>
<path d="M10242 1598 c4 -43 33 -46 33 -3 0 21 -5 31 -18 33 -15 3 -18 -2 -15
-30z"/>
<path d="M6296 1342 c-3 -5 1 -9 9 -9 8 0 15 4 15 9 0 4 -4 8 -9 8 -6 0 -12
-4 -15 -8z"/>
<path d="M6436 1332 c-9 -27 3 -52 20 -45 9 3 14 16 12 31 -4 31 -24 40 -32
14z"/>
<path d="M6800 1340 c0 -5 7 -10 15 -10 8 0 15 5 15 10 0 6 -7 10 -15 10 -8 0
-15 -4 -15 -10z"/>
<path d="M7225 1340 c-3 -5 1 -10 9 -10 9 0 16 5 16 10 0 6 -4 10 -9 10 -6 0
-13 -4 -16 -10z"/>
<path d="M7365 1340 c-3 -5 3 -10 15 -10 12 0 18 5 15 10 -3 6 -10 10 -15 10
-5 0 -12 -4 -15 -10z"/>
<path d="M7366 1291 c5 -6 24 -6 44 -1 l35 8 -44 1 c-28 1 -41 -3 -35 -8z"/>
<path d="M7815 1329 c-9 -28 20 -63 30 -36 9 21 3 49 -12 54 -6 2 -14 -6 -18
-18z"/>
<path d="M8765 1240 c-3 -5 3 -10 14 -10 12 0 21 5 21 10 0 6 -6 10 -14 10 -8
0 -18 -4 -21 -10z"/>
<path d="M9114 1235 c-8 -21 3 -45 20 -45 20 0 29 16 21 40 -7 23 -33 27 -41
5z"/>
<path d="M9540 1220 c0 -23 4 -30 20 -30 16 0 20 7 20 30 0 23 -4 30 -20 30
-16 0 -20 -7 -20 -30z"/>
<path d="M5820 980 c0 -16 5 -21 23 -18 12 2 22 10 22 18 0 8 -10 16 -22 18
-18 3 -23 -2 -23 -18z"/>
<path d="M7040 940 c0 -16 5 -30 10 -30 6 0 10 14 10 30 0 17 -4 30 -10 30 -5
0 -10 -13 -10 -30z"/>
<path d="M8964 955 c-8 -21 2 -45 20 -45 17 0 28 24 20 45 -4 8 -13 15 -20 15
-8 0 -17 -7 -20 -15z"/>
<path d="M5985 920 c-3 -5 -2 -10 4 -10 5 0 13 5 16 10 3 6 2 10 -4 10 -5 0
-13 -4 -16 -10z"/>
<path d="M6337 964 c-4 -4 -7 -18 -7 -31 0 -18 5 -24 18 -21 10 2 17 12 17 27
0 24 -15 37 -28 25z"/>
<path d="M6825 960 c-3 -5 1 -10 9 -10 9 0 16 5 16 10 0 6 -4 10 -9 10 -6 0
-13 -4 -16 -10z"/>
<path d="M6930 960 c0 -5 7 -10 16 -10 8 0 12 5 9 10 -3 6 -10 10 -16 10 -5 0
-9 -4 -9 -10z"/>
<path d="M7244 956 c-8 -22 3 -49 19 -43 6 2 12 14 12 27 0 27 -22 39 -31 16z"/>
<path d="M8590 960 c0 -5 9 -10 21 -10 11 0 17 5 14 10 -3 6 -13 10 -21 10 -8
0 -14 -4 -14 -10z"/>
<path d="M8794 956 c-9 -24 4 -48 23 -44 12 2 18 12 18 28 0 29 -32 41 -41 16z"/>
<path d="M9224 955 c-8 -21 2 -45 20 -45 17 0 28 24 20 45 -4 8 -13 15 -20 15
-8 0 -17 -7 -20 -15z"/>
</g>
</svg>
